<svg enable-background="new 0 0 511.005 511.005" height="512" id="Capa_1" viewBox="0 0 511.005 511.005" width="512"
     xmlns="http://www.w3.org/2000/svg">
  <g>
    <path
      d="m372.331 305.386c-4.084.694-6.832 4.567-6.137 8.65 1.473 8.665 2.22 17.509 2.22 26.286 0 27.455-7.154 53.268-19.68 75.688-6.365-25.711-19.909-49.08-39.329-67.57 6.565-10.009 11.66-21.14 14.894-33.15 1.077-4-1.292-8.115-5.292-9.192s-8.115 1.292-9.192 5.292c-11.784 43.765-51.706 74.331-97.083 74.331-55.438 0-100.54-45.103-100.54-100.54 0-25.001 9.236-48.964 26.007-67.475 16.654-18.383 39.348-29.927 63.9-32.506 2.703-.284 4.912-1.975 5.994-4.266-.042-.001-.086-.007-.128-.009.593-1.17.893-2.506.794-3.91-.294-4.133-3.893-7.239-8.013-6.95-.38.027-9.832.905-14.416 1.617-31.219 4.85-60.457 18.317-84.552 38.948-23.861 20.431-41.604 46.928-51.312 76.629-1.287 3.938.862 8.172 4.799 9.459.774.253 1.559.373 2.332.373 3.156 0 6.094-2.009 7.127-5.172 8.853-27.085 25.04-51.255 46.81-69.895 3.271-2.801 6.658-5.438 10.127-7.945-15.832 20.252-24.468 45.191-24.468 71.101 0 23.326 6.955 45.056 18.891 63.237-19.431 18.492-32.989 41.866-39.357 67.585-12.524-22.418-19.676-48.228-19.676-75.68 0-6.186.373-12.451 1.108-18.623.49-4.112-2.447-7.844-6.56-8.334-4.113-.484-7.844 2.447-8.334 6.561-.805 6.758-1.213 13.62-1.213 20.396 0 94.114 76.567 170.682 170.682 170.682s170.682-76.567 170.682-170.682c0-9.617-.818-19.307-2.432-28.8-.696-4.082-4.572-6.83-8.653-6.136zm-159.598 190.619c-50.639 0-95.701-24.308-124.151-61.861 3.516-28.069 16.372-53.867 36.598-73.654 21.205 24.618 52.589 40.232 87.553 40.232 34.426 0 66.114-15.319 87.576-40.2 20.212 19.782 33.06 45.566 36.575 73.622-28.45 37.553-73.513 61.861-124.151 61.861z"/>
    <path
      d="m461.454 90.483c4.142 0 7.5-3.357 7.5-7.5v-26.449c0-6.838-5.106-12.716-11.877-13.673l-21.213-2.995c-26.518-3.744-51.77-14.335-73.023-30.626l-7.23-5.543c-6.436-4.93-15.425-4.93-21.861.002l-7.23 5.541c-21.254 16.291-46.505 26.882-73.023 30.626l-21.214 2.995c-6.771.957-11.877 6.835-11.877 13.673v86.213c0 63.122 37.388 120.21 95.25 145.438l26.027 11.347c.956.417 1.976.625 2.997.625s2.042-.208 2.997-.625l26.027-11.347c57.862-25.228 95.25-82.314 95.25-145.438v-27.802c0-4.143-3.358-7.5-7.5-7.5s-7.5 3.357-7.5 7.5v27.802c0 57.155-33.853 108.846-86.244 131.688l-23.03 10.04-23.029-10.04c-52.392-22.843-86.245-74.533-86.245-131.688v-85.178l20.188-2.85c29.07-4.105 56.751-15.715 80.051-33.575l7.228-5.54c1.064-.814 2.551-.813 3.614-.001l7.229 5.541c23.299 17.86 50.98 29.47 80.051 33.575l20.187 2.85v25.414c0 4.143 3.358 7.5 7.5 7.5z"/>
    <path
      d="m271.498 109.816c-3.834-1.561-8.212.282-9.774 4.119-4.375 10.748-6.592 22.096-6.592 33.728 0 49.376 40.171 89.547 89.548 89.547s89.548-40.171 89.548-89.547c0-49.377-40.171-89.549-89.548-89.549-24.127 0-46.757 9.464-63.721 26.648-2.91 2.947-2.879 7.696.068 10.605 2.948 2.911 7.696 2.878 10.606-.067 14.124-14.308 32.962-22.187 53.046-22.187 41.106 0 74.548 33.442 74.548 74.549 0 41.105-33.442 74.547-74.548 74.547s-74.548-33.441-74.548-74.547c0-9.685 1.846-19.129 5.486-28.073 1.562-3.836-.282-8.211-4.119-9.773z"/>
    <path
      d="m328.683 184.477c1.337 1.069 2.991 1.644 4.685 1.644.309 0 .62-.02.929-.058 2.009-.251 3.831-1.304 5.052-2.918l47.545-62.856c2.499-3.304 1.847-8.007-1.457-10.506-3.303-2.498-8.007-1.846-10.506 1.457l-42.896 56.71-10.1-8.079c-3.234-2.588-7.955-2.064-10.542 1.171-2.588 3.235-2.063 7.954 1.171 10.542z"/>
  </g>
</svg>
