<svg viewBox="0 0 512 444" xmlns="http://www.w3.org/2000/svg">
  <defs>
    <style>.cls-1 {
      isolation: isolate;
    }

    .cls-2 {
      fill: #1d1d1b;
      fill-rule: evenodd;
    }</style>
  </defs>
  <g class="cls-1" data-name="Forma 1" id="Forma_1">
    <g data-name="Forma 1" id="Forma_1-2">
      <path class="cls-2"
            d="M447.46,245H385c-22.5,0-42.12,13.26-50,33.81-1.05,2.73-2.34,6.17-3.68,10.19H200.33A20,20,0,0,0,186,295.07l-34.35,35.39a20,20,0,0,0,.09,28l35,35.61A20,20,0,0,0,201,400h65a20,20,0,0,0,0-40H209.36l-15.43-15.7L208.79,329H346.26a20,20,0,0,0,19.43-15.24,163.28,163.28,0,0,1,6.58-20.6c1.94-5,6.8-8.16,12.74-8.16h62.4a13.62,13.62,0,0,1,12.7,7.93c5.37,12,11.78,30.61,11.83,51s-6.35,39.55-11.74,51.89A13.64,13.64,0,0,1,447.65,404H384.5a14.22,14.22,0,0,1-12.9-8.86,132.43,132.43,0,0,1-6.19-19.8,20,20,0,1,0-38.9,9.32,171.84,171.84,0,0,0,8.12,25.73A53.93,53.93,0,0,0,384.45,444h63.24a53.63,53.63,0,0,0,49.18-32.2c6.91-15.85,15.13-40.51,15.07-68s-8.36-51.67-15.31-67.21A53.89,53.89,0,0,0,447.46,245Zm3.48,99a20,20,0,1,0-20,20A20,20,0,0,0,450.94,344ZM432,0H80A80,80,0,0,0,0,80V311a80,80,0,0,0,80,80h6.55c10.42,0,19.45-7.8,20.37-18.18A20,20,0,0,0,87,351H80a40,40,0,0,1-40-40V84.24l173.76,108a79.44,79.44,0,0,0,84.48,0L472,84.24V190.55c0,10.43,7.8,19.45,18.18,20.37A20,20,0,0,0,512,191V80A80,80,0,0,0,432,0ZM277.09,158.31a39.71,39.71,0,0,1-42.24,0L56.69,47.52A39.73,39.73,0,0,1,80,40H432a39.73,39.73,0,0,1,23.3,7.52Z"
            transform="translate(0)"/>
    </g>
  </g>
</svg>
