<?xml version="1.0" encoding="iso-8859-1"?>
<!-- Generator: Adobe Illustrator 19.0.0, SVG Export Plug-In . SVG Version: 6.00 Build 0)  -->
<svg version="1.1" id="Layer_1" xmlns="http://www.w3.org/2000/svg" xmlns:xlink="http://www.w3.org/1999/xlink" x="0px" y="0px"
	 viewBox="0 0 512 512" style="enable-background:new 0 0 512 512;" xml:space="preserve">
<g>
	<g>
		<path d="M501.333,469.333h-10.667v-224c0-5.896-4.771-10.667-10.667-10.667H373.333c-5.896,0-10.667,4.771-10.667,10.667v224H320
			V32c0-5.896-4.771-10.667-10.667-10.667H202.667C196.771,21.333,192,26.104,192,32v437.333h-42.667V138.667
			c0-5.896-4.771-10.667-10.667-10.667H32c-5.896,0-10.667,4.771-10.667,10.667v330.667H10.667C4.771,469.333,0,474.104,0,480
			c0,5.896,4.771,10.667,10.667,10.667h490.667c5.896,0,10.667-4.771,10.667-10.667C512,474.104,507.229,469.333,501.333,469.333z
			 M128,469.333H42.667v-320H128V469.333z M298.667,469.333h-85.333V42.667h85.333V469.333z M469.333,469.333H384V256h85.333
			V469.333z"/>
	</g>
</g>
<g>
</g>
<g>
</g>
<g>
</g>
<g>
</g>
<g>
</g>
<g>
</g>
<g>
</g>
<g>
</g>
<g>
</g>
<g>
</g>
<g>
</g>
<g>
</g>
<g>
</g>
<g>
</g>
<g>
</g>
</svg>
