<?xml version="1.0" encoding="utf-8"?>
<!-- Generator: Adobe Illustrator 22.1.0, SVG Export Plug-In . SVG Version: 6.00 Build 0)  -->
<svg version="1.1" id="Capa_1" xmlns="http://www.w3.org/2000/svg" xmlns:xlink="http://www.w3.org/1999/xlink" x="0px" y="0px"
	 viewBox="0 0 109.9 110" style="enable-background:new 0 0 109.9 110;" xml:space="preserve">
<g>
	<path d="M42,36.2L19.1,13.3C28.8,5,41.3,0,55,0c28.8,0,52.5,22.1,54.9,50.3H77.5C75.3,39.9,66.1,32.1,55,32.1
		C50.2,32.1,45.7,33.6,42,36.2z M32.1,55c0-4.3,1.2-8.4,3.3-11.9l-23-23C4.6,29.6,0,41.8,0,55c0,28.8,22.1,52.5,50.3,54.9V77.4
		C39.9,75.3,32.1,66.1,32.1,55z M59.8,77.5V110c26.6-2.3,47.8-23.5,50.1-50.1H77.5C75.6,68.7,68.6,75.6,59.8,77.5z"/>
</g>
</svg>
