<?xml version="1.0" encoding="utf-8"?>
<!-- Generator: Adobe Illustrator 22.1.0, SVG Export Plug-In . SVG Version: 6.00 Build 0)  -->
<svg version="1.1" id="Layer_1" xmlns="http://www.w3.org/2000/svg" xmlns:xlink="http://www.w3.org/1999/xlink" x="0px" y="0px"
	 viewBox="0 0 272 464" style="enable-background:new 0 0 272 464;" xml:space="preserve">
<style type="text/css">
	.st0{fill:#ADABAC;}
	.st1{fill:#494342;}
	.st2{fill:#AD2943;}
	.st3{fill:#EE3446;}
</style>
<path class="st0" d="M272,428c0-19.9-60.9-36-136-36S0,408.1,0,428s60.9,36,136,36S272,447.9,272,428z"/>
<path class="st1" d="M110,160h32v256c0,8.8-7.2,16-16,16s-16-7.2-16-16V160z"/>
<path class="st2" d="M222,96c0,53-43,96-96,96s-96-43-96-96S73,0,126,0S222,43,222,96z"/>
<path class="st3" d="M190,96c0,35.3-28.7,64-64,64s-64-28.7-64-64s28.7-64,64-64S190,60.7,190,96z"/>
</svg>
