<svg version="1.1" xmlns="http://www.w3.org/2000/svg" xmlns:xlink="http://www.w3.org/1999/xlink">
  <g id="Page-1" stroke="none" stroke-width="0.1" fill-rule="evenodd">
    <g id="icon-shape">
      <path d="M14.9056439,5.68014258 C13.7991209,4.81998894 12.4607085,4.24404153 11,4.06189375 L11,2 L9,2 L9,4.06189375 C5.05368842,4.55399184 2,7.92038235 2,12 C2,16.418278 5.581722,20 10,20 C14.418278,20 18,16.418278 18,12 C18,10.1512885 17.3729184,8.44903985 16.3198574,7.09435615 L17.7781746,5.63603897 L16.363961,4.22182541 L14.9056439,5.68014258 Z M10,18 C13.3137085,18 16,15.3137085 16,12 C16,8.6862915 13.3137085,6 10,6 C6.6862915,6 4,8.6862915 4,12 C4,15.3137085 6.6862915,18 10,18 Z M7,0 L13,0 L13,2 L7,2 L7,0 Z M12.1213203,8.46446609 L13.5355339,9.87867966 L10,13.4142136 L8.58578644,12 L12.1213203,8.46446609 Z" id="Combined-Shape"></path>
    </g>
  </g>
</svg>
