<?xml version="1.0" encoding="iso-8859-1"?>
<!-- Generator: Adobe Illustrator 16.0.0, SVG Export Plug-In . SVG Version: 6.00 Build 0)  -->
<!DOCTYPE svg PUBLIC "-//W3C//DTD SVG 1.1//EN" "http://www.w3.org/Graphics/SVG/1.1/DTD/svg11.dtd">
<svg version="1.1" id="Capa_1" xmlns="http://www.w3.org/2000/svg" xmlns:xlink="http://www.w3.org/1999/xlink" x="0px" y="0px"
	 width="31.236px" height="31.236px" viewBox="0 0 31.236 31.236" style="enable-background:new 0 0 31.236 31.236;"
	 xml:space="preserve">
<g>
	<g>
		<path d="M24.225,14.019V0.015H7.022v14.004H0v17.202h31.236V14.019H24.225z M10.248,3.241h10.75v10.751h-10.75V3.241z
			 M13.976,27.996H3.225V17.244h10.751V27.996z M28.01,27.996H17.259V17.244H28.01V27.996z"/>
		<path d="M14.768,5.776l-1.735,5.68h1.331l0.404-1.458h1.626l0.438,1.458h1.382l-1.761-5.68H14.768z M14.953,9.037l0.337-1.205
			c0.093-0.329,0.177-0.759,0.262-1.096h0.017c0.084,0.337,0.186,0.759,0.286,1.096l0.354,1.205H14.953z"/>
		<path d="M10.237,24.996c0.354-0.285,0.59-0.69,0.59-1.205c0-0.732-0.48-1.221-1.129-1.398v-0.018
			c0.64-0.235,0.935-0.707,0.935-1.213c0-0.515-0.286-0.901-0.683-1.112c-0.413-0.244-0.893-0.32-1.677-0.32
			c-0.641,0-1.323,0.05-1.66,0.118v5.579C6.9,25.468,7.372,25.51,8.004,25.51C9.133,25.51,9.824,25.326,10.237,24.996z
			 M7.886,20.699c0.109-0.018,0.27-0.033,0.548-0.033c0.581,0,0.91,0.227,0.91,0.656c0,0.422-0.362,0.7-1.036,0.7H7.886V20.699z
			 M7.886,22.941h0.438c0.641,0,1.155,0.227,1.155,0.801c0,0.598-0.514,0.816-1.096,0.816c-0.219,0-0.371,0-0.497-0.018V22.941z"/>
		<path d="M23.342,25.548c0.691,0,1.223-0.126,1.458-0.245L24.605,24.3c-0.252,0.102-0.682,0.186-1.068,0.186
			c-1.146,0-1.82-0.716-1.82-1.854c0-1.264,0.792-1.879,1.812-1.879c0.455,0,0.816,0.101,1.078,0.209l0.262-1.02
			c-0.229-0.117-0.732-0.252-1.399-0.252c-1.719,0-3.101,1.078-3.101,3.016C20.367,24.326,21.379,25.548,23.342,25.548z"/>
	</g>
</g>
<g>
</g>
<g>
</g>
<g>
</g>
<g>
</g>
<g>
</g>
<g>
</g>
<g>
</g>
<g>
</g>
<g>
</g>
<g>
</g>
<g>
</g>
<g>
</g>
<g>
</g>
<g>
</g>
<g>
</g>
</svg>
