<?xml version="1.0" encoding="utf-8"?>
<!-- Generator: Adobe Illustrator 16.0.0, SVG Export Plug-In . SVG Version: 6.00 Build 0)  -->
<!DOCTYPE svg PUBLIC "-//W3C//DTD SVG 1.1//EN" "http://www.w3.org/Graphics/SVG/1.1/DTD/svg11.dtd">
<svg version="1.1" id="Layer_1" xmlns="http://www.w3.org/2000/svg" x="0px" y="0px"
     width="128px" height="128px" viewBox="0 0 128 128" enable-background="new 0 0 128 128" xml:space="preserve">
<g>
	<g>
		<g>
			<g>
				<path fill="#282D33" d="M65.48,115.97c-0.002,0-0.002,0-0.004,0c-7.293-0.001-14.396-1.514-21.11-4.499
					C17.872,99.686,5.812,68.35,17.481,41.618C25.867,22.399,44.764,9.98,65.623,9.98c7.293,0,14.395,1.514,21.107,4.499
					c26.496,11.783,38.559,43.121,26.889,69.859C105.23,103.554,86.334,115.97,65.48,115.97z M65.623,13.98
					c-19.268,0-36.726,11.477-44.476,29.238c-10.793,24.725,0.352,53.703,24.844,64.598c6.199,2.755,12.755,4.152,19.485,4.153
					c19.266,0.001,36.723-11.474,44.477-29.231c10.793-24.73-0.354-53.712-24.848-64.604C78.908,15.377,72.354,13.98,65.623,13.98z"
					/>
			</g>
		</g>
		<g>
			<g>
				<path fill="#282D33" d="M77.979,54.256l-3.395-2.062c-4.639-2.812-6.143-8.902-3.355-13.575l3.436,2.05
					c-1.666,2.792-0.771,6.429,1.994,8.106l3.396,2.063L77.979,54.256z"/>
			</g>
			<g>
				<g>
					<path fill="#282D33" d="M105.547,51.113l-4.328-2.627c-4.637-2.814-6.145-8.904-3.357-13.576l4.23-7.102l3.438,2.047
						l-4.23,7.103c-1.668,2.793-0.771,6.43,1.994,8.108l4.33,2.627L105.547,51.113z"/>
				</g>
			</g>
			<g>

					<rect x="82.354" y="94.95" transform="matrix(0.855 0.5186 -0.5186 0.855 63.3746 -32.7658)" fill="#282D33" width="15.856" height="4"/>
			</g>
			<g>
				<path fill="#282D33" d="M72.658,88.593L49.569,74.582c-6.018-3.652-7.972-11.559-4.357-17.625l3.437,2.048
					c-2.495,4.187-1.151,9.641,2.996,12.158l23.088,14.011L72.658,88.593z"/>
			</g>
			<g>
				<g>
					<path fill="#282D33" d="M83.635,70.208L60.526,56.185c-1.997-1.211-4.34-1.568-6.6-1.004c-2.273,0.566-4.19,1.995-5.398,4.023
						l-3.437-2.047c1.758-2.951,4.552-5.031,7.868-5.857c3.301-0.824,6.725-0.303,9.642,1.465l23.108,14.024L83.635,70.208z"/>
				</g>
			</g>
			<g>

					<rect x="77.228" y="55.101" transform="matrix(0.855 0.5187 -0.5187 0.855 42.193 -36.6876)" fill="#282D33" width="18.938" height="4"/>
			</g>
			<g>
				<path fill="#282D33" d="M100.936,78.688l-0.604-3.955c1.486-0.226,2.779-1.101,3.553-2.398l3.438,2.045
					C105.936,76.709,103.607,78.279,100.936,78.688z"/>
			</g>
			<g>

					<rect x="69.298" y="63.476" transform="matrix(0.8548 0.5189 -0.5189 0.8548 45.5657 -31.9268)" fill="#282D33" width="21.095" height="4"/>
			</g>
		</g>
		<g>
			<g>
				<path fill="#282D33" d="M58.894,34.616l-3.438-2.046c0.838-1.408,1.378-2.937,1.604-4.545l3.961,0.558
					C60.721,30.719,60.005,32.75,58.894,34.616z"/>
			</g>
			<g>
				<g>
					<path fill="#282D33" d="M45.292,42.195c-2.875,0-5.704-0.786-8.229-2.317l-12.591-7.644l2.075-3.419l12.591,7.643
						c2.738,1.66,5.956,2.149,9.057,1.378c3.124-0.777,5.758-2.739,7.418-5.523l3.436,2.048c-2.209,3.708-5.721,6.32-9.888,7.357
						C47.878,42.037,46.581,42.195,45.292,42.195z"/>
				</g>
			</g>
		</g>
		<g>
			<g>
				<path fill="#282D33" d="M82.99,25.355c-2.34,0-4.643-0.64-6.699-1.887l-15.062-9.233l2.091-3.41l15.053,9.228
					c2.053,1.245,4.471,1.611,6.799,1.032c2.344-0.584,4.32-2.058,5.566-4.149l3.438,2.047c-1.797,3.015-4.65,5.14-8.037,5.984
					C85.094,25.227,84.039,25.355,82.99,25.355z"/>
			</g>
		</g>
		<g>
			<g>
				<path fill="#282D33" d="M42.159,83.931l-3.437-2.047c1.294-2.173,0.599-5.003-1.549-6.309L13.996,61.673l2.058-3.431
					L39.24,72.151C43.267,74.598,44.572,79.88,42.159,83.931z"/>
			</g>
			<g>
				<g>
					<path fill="#282D33" d="M34.903,87.979c-1.531,0-3.037-0.418-4.38-1.233l-5.865-3.561l2.076-3.42l5.865,3.561
						c1.026,0.623,2.231,0.807,3.398,0.518c1.178-0.293,2.172-1.032,2.799-2.083l3.436,2.049c-1.177,1.974-3.049,3.364-5.27,3.916
						C36.28,87.896,35.589,87.979,34.903,87.979z"/>
				</g>
			</g>
			<g>
				<g>

						<rect x="16.586" y="77.035" transform="matrix(0.8474 0.531 -0.531 0.8474 45.2985 0.4734)" fill="#282D33" width="10.479" height="3.999"/>
				</g>
			</g>
		</g>
	</g>
	<g>
		<g>
			<g>
				<path fill="#282D33" d="M119.938,12.329c-0.297-0.452-0.631-0.879-0.996-1.268l2.914-2.739c0.525,0.559,1.006,1.171,1.43,1.818
					L119.938,12.329z"/>
			</g>
			<g>
				<path fill="#282D33" d="M16.842,126.348l-0.088-4c1.157-0.024,2.397-0.134,3.688-0.324l0.583,3.957
					C19.571,126.195,18.164,126.318,16.842,126.348z M12.545,126.083c-1.552-0.243-2.995-0.655-4.289-1.224l1.611-3.662
					c0.977,0.431,2.086,0.744,3.297,0.935L12.545,126.083z M25.082,125.185l-0.939-3.889c1.184-0.285,2.419-0.632,3.672-1.03
					l1.211,3.813C27.684,124.505,26.356,124.877,25.082,125.185z M32.866,122.733l-1.426-3.736c1.17-0.447,2.373-0.938,3.575-1.463
					l1.598,3.668C35.354,121.75,34.094,122.266,32.866,122.733z M4.398,122.314c-0.166-0.158-0.328-0.32-0.485-0.488
					c-0.895-0.947-1.653-2.048-2.248-3.265l3.594-1.756c0.417,0.854,0.944,1.62,1.567,2.28c0.11,0.117,0.217,0.225,0.327,0.328
					L4.398,122.314z M40.28,119.515l-1.744-3.6c1.136-0.551,2.302-1.142,3.464-1.757l1.871,3.535
					C42.667,118.331,41.459,118.943,40.28,119.515z M47.392,115.759l-1.979-3.477c1.11-0.632,2.23-1.292,3.359-1.979l2.078,3.418
					C49.688,114.428,48.535,115.107,47.392,115.759z M0.308,114.267C0.104,113.092,0,111.828,0,110.509
					c0-0.188,0.002-0.377,0.006-0.568l3.999,0.088C4.002,110.19,4,110.351,4,110.51c0,1.09,0.083,2.123,0.248,3.071L0.308,114.267z
					 M54.246,111.592l-2.164-3.363c1.079-0.694,2.165-1.414,3.256-2.155l2.248,3.309C56.467,110.143,55.353,110.88,54.246,111.592z
					 M60.87,107.096l-2.324-3.256c1.05-0.749,2.104-1.519,3.161-2.308l2.394,3.205C63.02,105.544,61.943,106.329,60.87,107.096z
					 M4.348,106.36l-3.951-0.621c0.204-1.297,0.49-2.663,0.852-4.059l3.872,1.002C4.792,103.953,4.532,105.19,4.348,106.36z
					 M67.279,102.314l-2.459-3.156c1.021-0.794,2.043-1.607,3.064-2.438l2.521,3.105C69.363,100.674,68.32,101.503,67.279,102.314z
					 M6.215,99.037L2.428,97.75c0.42-1.237,0.901-2.521,1.427-3.814l3.705,1.508C7.063,96.665,6.61,97.874,6.215,99.037z
					 M73.482,97.281l-2.58-3.057c0.99-0.836,1.982-1.688,2.971-2.556l2.637,3.008C75.502,95.561,74.492,96.43,73.482,97.281z
					 M79.488,92.019l-2.689-2.961c0.961-0.873,1.92-1.76,2.875-2.661l2.744,2.91C81.443,90.226,80.467,91.13,79.488,92.019z
					 M9.104,91.91l-3.626-1.688c0.552-1.186,1.151-2.404,1.782-3.624l3.553,1.838C10.207,89.606,9.632,90.775,9.104,91.91z
					 M85.299,86.544l-2.795-2.861c0.941-0.919,1.867-1.84,2.779-2.764l2.846,2.813C87.199,84.671,86.256,85.609,85.299,86.544z
					 M12.659,85.02l-3.484-1.965c0.407-0.721,0.826-1.447,1.259-2.178l3.442,2.037C13.458,83.621,13.052,84.322,12.659,85.02z
					 M90.91,80.867l-2.895-2.762c0.908-0.952,1.801-1.905,2.678-2.86l2.945,2.707C92.744,78.925,91.836,79.897,90.91,80.867z
					 M96.311,74.987l-2.994-2.652c0.873-0.985,1.729-1.972,2.566-2.957l3.047,2.59C98.076,72.975,97.203,73.98,96.311,74.987z
					 M101.486,68.897l-3.098-2.531c0.834-1.02,1.648-2.04,2.441-3.056l3.152,2.461C103.172,66.812,102.34,67.854,101.486,68.897z
					 M106.412,62.592l-3.207-2.39c0.787-1.058,1.555-2.112,2.299-3.161l3.262,2.314C108.004,60.429,107.219,61.508,106.412,62.592z
					 M111.045,56.059l-3.32-2.23c0.738-1.097,1.449-2.186,2.133-3.268l3.379,2.141C112.533,53.812,111.803,54.932,111.045,56.059z
					 M115.334,49.276l-3.443-2.036c0.674-1.138,1.316-2.265,1.926-3.379l3.51,1.92C116.701,46.922,116.031,48.098,115.334,49.276z
					 M119.193,42.208l-3.578-1.786c0.588-1.181,1.145-2.357,1.65-3.497l3.654,1.625C120.391,39.743,119.809,40.974,119.193,42.208z
					 M122.475,34.801l-3.734-1.434c0.469-1.224,0.893-2.439,1.258-3.613l3.82,1.188C123.428,32.199,122.975,33.497,122.475,34.801z
					 M124.887,26.967l-3.904-0.873c0.285-1.279,0.496-2.517,0.627-3.681l3.975,0.442C125.439,24.164,125.203,25.547,124.887,26.967z
					 M121.754,18.771c-0.053-1.251-0.225-2.415-0.51-3.46l3.857-1.056c0.365,1.334,0.584,2.797,0.648,4.348L121.754,18.771z"/>
			</g>
			<g>
				<path fill="#282D33" d="M14.868,81.267l-3.413-2.086c0.344-0.563,0.698-1.129,1.058-1.697l3.38,2.139
					C15.544,80.173,15.202,80.721,14.868,81.267z"/>
			</g>
		</g>
		<g>
			<path fill="#282D33" d="M16.226,126.354c-0.218,0-0.432-0.002-0.646-0.007c-5.017-0.118-8.94-1.637-11.66-4.514l2.907-2.748
				c1.959,2.073,4.936,3.171,8.847,3.263c0.185,0.004,0.371,0.006,0.559,0.006c15.652,0,41.733-15.031,65.198-37.63
				c30.402-29.279,47.582-63.011,37.516-73.658c-5.555-5.877-19.158-3.794-36.389,5.574l-1.91-3.515
				c19.207-10.441,34.227-12.194,41.205-4.807c11.941,12.629-4.594,47.456-37.646,79.287
				C59.674,111.229,33.104,126.353,16.226,126.354z"/>
		</g>
		<g>
			<path fill="#282D33" d="M83.656,43.277C59.909,20.407,33.485,5.296,17.901,5.653c-3.911,0.092-6.888,1.19-8.847,3.263
				L6.147,6.168c2.72-2.877,6.644-4.396,11.66-4.514c16.824-0.404,43.775,14.812,68.625,38.741L83.656,43.277z"/>
		</g>
		<g>
			<g>
				<path fill="#282D33" d="M80.291,113.43c-0.576-0.328-1.154-0.665-1.732-1.008l2.039-3.441c0.557,0.331,1.115,0.656,1.67,0.971
					L80.291,113.43z"/>
			</g>
			<g>
				<path fill="#282D33" d="M110.857,124.188c-1.324-0.042-2.736-0.179-4.197-0.405l0.615-3.953c1.299,0.202,2.547,0.323,3.709,0.36
					L110.857,124.188z M115.166,123.977l-0.563-3.961c1.223-0.174,2.348-0.472,3.338-0.886l1.541,3.691
					C118.178,123.366,116.727,123.754,115.166,123.977z M102.592,122.955c-1.279-0.318-2.607-0.699-3.951-1.133l1.229-3.807
					c1.258,0.405,2.498,0.762,3.688,1.058L102.592,122.955z M94.797,120.455c-1.219-0.469-2.484-0.991-3.762-1.555l1.613-3.66
					c1.219,0.537,2.426,1.036,3.584,1.482L94.797,120.455z M123.406,120.349l-2.693-2.957c0.158-0.146,0.313-0.297,0.461-0.453
					c0.586-0.62,1.086-1.334,1.488-2.125l3.564,1.816c-0.576,1.131-1.299,2.159-2.146,3.056
					C123.865,119.915,123.639,120.137,123.406,120.349z M87.359,117.191c-1.17-0.571-2.381-1.19-3.6-1.84l1.881-3.531
					c1.178,0.628,2.348,1.227,3.475,1.777L87.359,117.191z M127.654,112.327l-3.934-0.73c0.186-0.992,0.279-2.08,0.279-3.233
					l-0.004-0.323l4-0.066l0.004,0.39C128,109.761,127.883,111.095,127.654,112.327z M123.674,104.355
					c-0.18-1.172-0.436-2.415-0.764-3.695l3.875-0.992c0.361,1.408,0.645,2.782,0.844,4.084L123.674,104.355z M121.82,96.996
					c-0.395-1.17-0.848-2.385-1.346-3.61l3.705-1.506c0.529,1.3,1.01,2.591,1.432,3.837L121.82,96.996z M118.928,89.831
					c-0.529-1.138-1.105-2.313-1.715-3.493l3.555-1.834c0.635,1.229,1.234,2.454,1.787,3.642L118.928,89.831z M115.357,82.906
					c-0.627-1.113-1.285-2.238-1.975-3.372l3.42-2.076c0.711,1.173,1.393,2.335,2.039,3.485L115.357,82.906z M111.301,76.216
					c-0.699-1.08-1.426-2.167-2.176-3.262l3.297-2.264c0.771,1.124,1.518,2.242,2.236,3.352L111.301,76.216z M106.861,69.746
					c-0.758-1.047-1.537-2.1-2.34-3.156l3.186-2.418c0.822,1.083,1.619,2.159,2.395,3.231L106.861,69.746z M102.109,63.487
					c-0.807-1.015-1.633-2.033-2.479-3.051l3.076-2.556c0.865,1.041,1.709,2.081,2.535,3.119L102.109,63.487z M97.088,57.432
					c-0.85-0.984-1.717-1.968-2.602-2.952l2.975-2.675c0.902,1.004,1.787,2.008,2.654,3.012L97.088,57.432z M91.828,51.576
					c-0.891-0.953-1.795-1.904-2.713-2.853l2.871-2.784c0.938,0.967,1.859,1.937,2.766,2.908L91.828,51.576z M86.35,45.917
					c-0.885-0.882-1.783-1.763-2.693-2.64l-0.131-0.125l2.793-2.863l0.104,0.101c0.936,0.901,1.85,1.796,2.75,2.694L86.35,45.917z
					 M80.672,40.457c-0.969-0.899-1.939-1.783-2.91-2.652l2.666-2.981c0.99,0.885,1.979,1.786,2.965,2.702L80.672,40.457z
					 M74.803,35.207c-1.002-0.864-2.004-1.711-3.006-2.542l2.555-3.078c1.021,0.847,2.041,1.71,3.063,2.591L74.803,35.207z
					 M68.744,30.182c-1.035-0.825-2.07-1.632-3.102-2.421l2.43-3.178c1.053,0.805,2.109,1.629,3.164,2.471L68.744,30.182z
					 M62.495,25.405c-1.069-0.782-2.135-1.544-3.198-2.285l2.289-3.28c1.086,0.758,2.176,1.537,3.27,2.337L62.495,25.405z
					 M56.05,20.91c-1.105-0.733-2.205-1.443-3.297-2.128l2.127-3.388c1.12,0.703,2.247,1.431,3.381,2.183L56.05,20.91z
					 M49.406,16.743c-1.144-0.675-2.278-1.322-3.4-1.94l1.929-3.504c1.157,0.637,2.326,1.303,3.504,1.999L49.406,16.743z
					 M42.552,12.975c-1.174-0.596-2.354-1.168-3.509-1.701l1.677-3.632c1.199,0.554,2.424,1.148,3.643,1.767L42.552,12.975z
					 M35.48,9.721c-1.228-0.503-2.444-0.966-3.617-1.376l1.322-3.775c1.237,0.434,2.52,0.921,3.811,1.451L35.48,9.721z
					 M28.195,7.182c-1.276-0.358-2.523-0.658-3.707-0.891l0.771-3.925c1.289,0.253,2.64,0.578,4.018,0.965L28.195,7.182z
					 M11.637,7.019L9.849,3.44c0.826-0.413,1.722-0.758,2.663-1.028l1.102,3.846C12.908,6.46,12.243,6.716,11.637,7.019z
					 M20.77,5.753c-1.293-0.113-2.523-0.136-3.673-0.066l-0.241-3.993c1.338-0.08,2.772-0.057,4.264,0.075L20.77,5.753z"/>
			</g>
			<g>
				<path fill="#282D33" d="M9.056,8.915L6.146,6.17C6.672,5.611,7.26,5.093,7.891,4.631l2.363,3.227
					C9.82,8.177,9.417,8.532,9.056,8.915z"/>
			</g>
		</g>
		<g>
			<path fill="#282D33" d="M124.08,119.686l-2.906-2.748c10.066-10.649-7.115-44.382-37.518-73.66
				C59.909,20.408,33.485,5.296,17.901,5.653c-3.911,0.092-6.888,1.19-8.847,3.263c-5.874,6.212-2.4,21.333,9.066,39.462
				l-3.381,2.138C1.87,30.168-1.262,14.004,6.147,6.168c2.72-2.877,6.643-4.396,11.66-4.514
				c16.823-0.404,43.775,14.812,68.624,38.742C119.482,72.226,136.02,107.053,124.08,119.686z"/>
		</g>
	</g>
</g>
</svg>
