<svg viewBox="0 0 600 400" xmlns="http://www.w3.org/2000/svg">
  <defs>
    <style>.cls-1 {
      fill: #fff;
    }

    .cls-2 {
      fill: #dadada;
    }

    .cls-3 {
      fill: #f6f6f6;
    }</style>
  </defs>
  <g data-name="Capa 4" id="Capa_4">
    <polyline class="cls-1"
              points="379.85 278.27 330.73 249.8 281.36 221.2 232.48 192.88 183.63 164.57 182.88 164.13 182.88 107.76 183.03 107.67 232.5 136.34 281.36 164.63 379.85 221.72 379.85 278.27"/>
    <polygon class="cls-1"
             points="330.36 306.85 281.37 335.17 232.2 306.72 231.76 306.46 182.88 278.14 192.43 272.64 192.45 272.64 202.01 267.14 232.05 249.87 262.06 267.19 281.37 278.32 330.36 306.85"/>
    <polygon class="cls-2"
             points="384.29 114.5 335.01 142.92 334.92 142.88 286.07 114.56 285.78 114.41 295.34 108.89 334.92 131.84 335.01 131.88 374.75 108.95 384.18 114.43 384.29 114.5"/>
    <polygon class="cls-3"
             points="384.29 125.54 335.01 153.97 334.92 153.92 286.07 125.61 285.78 125.45 295.34 119.93 334.92 142.88 335.01 142.92 374.75 120 384.18 125.47 384.29 125.54"/>
    <polygon class="cls-1"
             points="384.3 103.45 374.75 108.95 335.02 131.88 334.93 131.84 295.35 108.89 286.07 103.52 285.79 103.36 236.6 74.87 285.79 46.45 335.31 75.07 374.75 97.91 384.19 103.39 384.3 103.45"/>
    <polygon class="cls-2"
             points="281.36 267.27 271.71 272.75 262.06 267.19 232.04 249.87 202 267.14 192.44 272.64 192.42 272.64 182.85 267.1 192.42 261.6 232.04 238.83 271.71 261.71 281.36 267.27"/>
    <polygon class="cls-3"
             points="281.36 256.23 271.71 261.71 232.04 238.83 192.42 261.6 182.85 256.05 232.04 227.78 281.36 256.23"/>
  </g>
</svg>
