<svg id="Layer_10" data-name="Layer 10" xmlns="http://www.w3.org/2000/svg" viewBox="0 0 108.08107 126"><defs><style>.cls-1,.cls-2,.cls-3,.cls-9{fill:#224291;}.cls-1{opacity:0.2;}.cls-2{opacity:0.15;}.cls-3{opacity:0.1;}.cls-4{fill:#143b65;}.cls-4,.cls-5{opacity:0.3;}.cls-5{fill:#23578a;}.cls-6{fill:#4d63a7;}.cls-7{fill:#37529d;}.cls-8{fill:#286eb5;}.cls-10{fill:#232f5a;}</style></defs><title>Logo_UTM_Stack_Mini_v2</title><path id="LEVEL_3" data-name="LEVEL 3" class="cls-1" d="M340.88141,237.74193l-2.9849,1.724L315.61279,252.2847,299.08011,261.368a12.58934,12.58934,0,0,1-12.63-.13294L270.95524,252.289l-22.25373-12.823-2.9849-1.724a12.86585,12.86585,0,0,1,0-22.288l1.085-.62615,18.89143,10.88455,19.183,11.07755a15.598,15.598,0,0,0,15.64066.16726l20.46964-11.2491,16.97442-9.7652v-2.17005l1.88274,1.085,1.03782.60042A12.86532,12.86532,0,0,1,340.88141,237.74193Z" transform="translate(-239.28046 -137)"/><path id="LEVEL_2" data-name="LEVEL 2" class="cls-2" d="M340.92858,211.86l-2.98487,1.724-.15868.09L315.66,226.40278l-16.53268,9.08335a12.58954,12.58954,0,0,1-12.63-.13295l-15.49483-8.94611L248.843,213.63982l-.09436-.05575-2.98487-1.724a12.869,12.869,0,0,1,0-22.288l.995-.57469L267.33992,200.864l.1887.1115,17.845,10.30131a14.67678,14.67678,0,0,0,14.70143.15439l18.9772-10.43.2659-.1458,20.6112-11.85809.99923.579A12.86534,12.86534,0,0,1,340.92858,211.86Z" transform="translate(-239.28046 -137)"/><path id="LEVEL_1" data-name="LEVEL 1" class="cls-3" d="M340.92858,186.10679l-2.98487,1.724-.04291.02576L315.66,200.64953l-.22731.12439-16.30537,8.96323a12.61013,12.61013,0,0,1-12.63-.133l-15.33186-8.85174-.163-.09434-22.24515-12.823-.00858-.00429-2.98487-1.724a12.86534,12.86534,0,0,1,0-22.28375l2.98487-1.724.00858-.01715L271.041,149.216l15.85077-9.15193a12.86368,12.86368,0,0,1,12.8659,0l15.8508,9.15193.00859-.00429,22.28372,12.8659v.04719l.04291-.02575,2.98487,1.724A12.86534,12.86534,0,0,1,340.92858,186.10679Z" transform="translate(-239.28046 -137)"/><path id="SOMBRA_2" data-name="SOMBRA 2" class="cls-4" d="M337.96085,213.77277v2.17005l-16.97442,9.7652-5.30933,2.91629-15.16031,8.33281a16.88677,16.88677,0,0,1-6.5895,2.29159c-.36023.03-.72048.04717-1.085.04717a15.18376,15.18376,0,0,1-7.96615-2.506l-13.77936-7.95541-5.40369-3.12214-14.70143-8.47005-4.19-2.4145,1.89986-1.0936.00859-.01714.13294-.0772,5.77249,3.32369,16.38688,9.44356.09436.05575,15.40047,8.89036a10.83643,10.83643,0,0,0,1.26516.669,12.681,12.681,0,0,0,11.36488-.53608L315.66,226.40278a.04678.04678,0,0,0,.01714-.00856l.62615-.36026L337.785,213.67411l.06861.03861v.04717l.04287-.02573Z" transform="translate(-239.28046 -137)"/><path id="SOMBRA_1" data-name="SOMBRA 1" class="cls-5" d="M339.92935,188.99732l-20.6112,11.85809-.2659.1458-18.9772,10.43a14.67678,14.67678,0,0,1-14.70143-.15439l-17.845-10.30131-.1887-.1115-20.58115-11.86665,1.98991-1.145.00858-.01718,22.24515,12.823.163.09434,15.33186,8.85174a12.61013,12.61013,0,0,0,12.63.133l16.30537-8.96323.22731-.12439,22.24084-12.793v.02144l.04291-.02573Z" transform="translate(-239.28046 -137)"/><path class="cls-6" d="M315.68933,252.10222l-22.3062-12.83852c-.00932.00519,22.294-12.87128,22.294-12.87128h0l.01218,25.7098Z" transform="translate(-239.28046 -137)"/><path class="cls-7" d="M293.38479,239.26441v23.71614a12.92384,12.92384,0,0,1-6.40722-1.71116c-6.58734-3.79116-15.87653-9.13481-15.87653-9.13908Z" transform="translate(-239.28046 -137)"/><path class="cls-6" d="M315.69,252.10029l-15.86365,9.15622a12.79755,12.79755,0,0,1-6.44154,1.724V239.26441Z" transform="translate(-239.28046 -137)"/><polygon class="cls-8" points="9.548 102.272 9.531 102.281 9.535 102.264 9.548 102.272"/><path class="cls-7" d="M271.09943,252.12963l-.0043-25.71463h0l-15.85072-9.1517a4.28863,4.28863,0,0,0-6.433,3.714V236.803a4.28863,4.28863,0,0,0,2.14672,3.71545Z" transform="translate(-239.28046 -137)"/><polygon class="cls-7" points="31.815 89.415 31.819 115.13 54.103 102.264 31.815 89.415 31.815 89.415"/><polygon class="cls-7" points="31.825 63.668 54.112 50.883 54.108 76.534 31.823 63.668 31.825 63.668"/><path class="cls-6" d="M337.96085,213.52831v23.253a4.29713,4.29713,0,0,1-2.14431,3.71826L315.69,252.10029l-.01288-23.476v-2.23009l.62615-.36026Z" transform="translate(-239.28046 -137)"/><polygon class="cls-9" points="76.396 89.393 98.679 76.528 76.392 63.668 76.396 89.393"/><polygon class="cls-9" points="76.392 63.668 54.112 76.527 76.396 89.393 76.392 63.668"/><path class="cls-6" d="M315.67234,200.66754l-22.27958-12.78406c.00481-.10014-.0045,25.65015-.0045,25.65015Z" transform="translate(-239.28046 -137)"/><polygon class="cls-7" points="31.828 38.018 54.014 50.827 54.112 50.883 31.824 63.668 31.828 38.018"/><path class="cls-7" d="M271.10372,174.93422l-.00429.00429v25.7318L250.9576,189.055a4.28862,4.28862,0,0,1-2.14619-3.71515V162.08548Z" transform="translate(-239.28046 -137)"/><polygon class="cls-6" points="31.823 12.202 9.53 25.085 31.814 37.951 31.823 12.202"/><polygon class="cls-10" points="54.113 25.15 49.168 28.002 31.825 12.203 31.885 12.237 54.113 25.15"/><polygon class="cls-6" points="49.168 28.002 31.829 38.016 31.816 37.952 31.825 12.203 49.168 28.002"/><path class="cls-9" d="M315.6712,149.20241,293.39176,162.1498h0l-22.288-12.94739,20.13939-11.62782a4.28865,4.28865,0,0,1,4.28873,0l20.13936,11.62781Z" transform="translate(-239.28046 -137)"/><path class="cls-9" d="M331.56469,165.7842a4.28863,4.28863,0,0,0-.01039-7.42242l-15.8831-9.15937h0L293.39176,162.1498h0l20.12569,11.61992a4.30248,4.30248,0,0,0,4.31269-.00586Z" transform="translate(-239.28046 -137)"/></svg>