<svg viewBox="0 0 207.3832 203.58661" xmlns="http://www.w3.org/2000/svg">
  <defs>
    <style>.cls-1 {
      fill: #4563ac;
    }

    .cls-2 {
      fill: #282e69;
    }

    .cls-3 {
      fill: #244093;
    }

    .cls-4 {
      fill: #1d1d1b;
    }

    .cls-5 {
      fill: none;
    }</style>
  </defs>
  <g data-name="Layer 3" id="Layer_3">
    <path class="cls-1"
          d="M221.53459,194.07372l-18.28,30.62a3.53739,3.53739,0,0,1-.55.71,3.3623,3.3623,0,0,1-.98.71.25147.25147,0,0,1-.07.04c-.04.02-.07.04-.11.06a.36958.36958,0,0,1-.11005.05c-.01,0-.01.01-.02,0a.326.326,0,0,1-.13.04,3.39162,3.39162,0,0,1-1.29.24,3.69283,3.69283,0,0,1-2.76-1.2l-.02-.02a3.74,3.74,0,0,1-.48-.63l-.03-.04-82.36-138-17.89-29.97a.90263.90263,0,0,1-.11-.27.55795.55795,0,0,1-.03-.22.78568.78568,0,0,1,.07-.43,1.18974,1.18974,0,0,1,.22-.33,1.01523,1.01523,0,0,1,.31995-.22.97979.97979,0,0,1,.59-.06.53.53,0,0,1,.12.03,1.1216,1.1216,0,0,1,.13.05l37.98,18.08a18.9835,18.9835,0,0,1,7.51,6.42005l53.68,78.5,3.06,4.47.03-.05Z"
          transform="translate(-96.3084 -22.95714)"/>
    <polygon class="cls-2" points="128.746 165.217 125.226 171.117 103.716 139.697 106.706 135.327 128.746 165.217"/>
    <path class="cls-3"
          d="M303.63456,56.46374a.68334.68334,0,0,1-.09.22l-13.27,22.23-65.22,109.26-22.04-29.89,53.73-78.55a18.98384,18.98384,0,0,1,7.51-6.42005l15.44-7.35,22.53-10.73a.9738.9738,0,0,1,.22-.08,1.002,1.002,0,0,1,.62.06,1.22691,1.22691,0,0,1,.33.23,1.0722,1.0722,0,0,1,.27.49A.88363.88363,0,0,1,303.63456,56.46374Z"
          transform="translate(-96.3084 -22.95714)"/>
    <path class="cls-4"
          d="M133.00677,42.70093c10.96009-3.5044,21.95167-6.90383,32.94806-10.28734l16.50855-5.02865,8.258-2.50182,4.129-1.25091a14.51629,14.51629,0,0,1,8.77875.00891l4.12915,1.25031,8.25842,2.50063,16.50959,5.02515,16.48974,5.09128,16.45947,5.19244-16.60028-4.72288L232.3053,33.154l-16.55-4.89017-8.27149-2.457L203.348,24.57828a13.99221,13.99221,0,0,0-8.2171-.011l-4.1355,1.22924-8.271,2.4585-16.54956,4.892C155.13251,36.37725,144.08539,39.59158,133.00677,42.70093Z"
          transform="translate(-96.3084 -22.95714)"/>
    <path class="cls-4"
          d="M297.68121,93.36708c-1.95721,11.67114-4.02227,23.32232-6.10363,34.97047l-3.16993,17.46335-1.59777,8.7293-.79889,4.36465-.39948,2.18233a15.172,15.172,0,0,1-.52948,2.21928,13.8726,13.8726,0,0,1-5.46576,7.172l-7.25018,5.1179-14.51471,10.21544-14.55457,10.15909-14.6156,10.07284,14.33149-10.47236,14.39239-10.38608,14.43231-10.32976,7.22339-5.15469a12.9077,12.9077,0,0,0,5.07166-6.70414,38.7791,38.7791,0,0,0,.91876-4.27061l.82117-4.36047,1.64221-8.72095,3.31018-17.43713C293.06342,116.57873,295.31842,104.96292,297.68121,93.36708Z"
          transform="translate(-96.3084 -22.95714)"/>
    <path class="cls-4"
          d="M168.902,206.03218q-14.29-10.13379-28.44092-20.458l-14.14954-10.32585c-2.3573-1.744-4.70758-3.40528-7.07074-5.21718a14.2652,14.2652,0,0,1-4.68182-7.58757c-2.07953-11.547-4.099-23.0074-6.09247-34.52593l-2.9505-17.266-2.84656-17.28463,3.32911,17.19827,3.22515,17.21693,6.307,34.43026a13.28865,13.28865,0,0,0,4.325,7.08978c2.26081,1.75011,4.66932,3.47675,6.99677,5.21628l14.06384,10.44Q154.95133,195.43768,168.902,206.03218Z"
          transform="translate(-96.3084 -22.95714)"/>
    <path class="cls-4"
          d="M196.93457,115.0537a20.35164,20.35164,0,0,0-7.91608-15.44684,23.37149,23.37149,0,0,0-3.8034-2.28244l-4.10388-1.92694-8.20777-3.85389c-5.44208-2.63182-10.90271-5.22469-16.32739-7.8931l-8.12842-4.0207c-2.69378-1.37324-5.40234-2.71544-8.08307-4.11606,2.77814,1.19585,5.52851,2.45014,8.29364,3.67338l8.24829,3.76877c5.49317,2.52455,10.95038,5.12466,16.42615,7.6858l8.16895,3.93558,4.08447,1.96778a20.89521,20.89521,0,0,1,3.90424,2.4587,20.29091,20.29091,0,0,1,5.63134,7.18693A19.79881,19.79881,0,0,1,196.93457,115.0537Z"
          transform="translate(-96.3084 -22.95714)"/>
    <path class="cls-4"
          d="M259.3479,75.61708c-5.3501,2.77663-10.74731,5.4543-16.15167,8.117-5.40332,2.66478-10.84534,5.24838-16.26618,7.87656l-8.17718,3.84561L214.664,97.37851a23.20369,23.20369,0,0,0-3.77936,2.28887,20.34715,20.34715,0,0,0-7.87,15.40634,19.79841,19.79841,0,0,1,1.7976-8.83535,20.25427,20.25427,0,0,1,5.59662-7.1754,20.61986,20.61986,0,0,1,3.88337-2.46505l4.06933-1.96338,8.139-3.92571c5.45673-2.5527,10.89227-5.15,16.36645-7.66608C248.34015,80.52454,253.82043,78.02133,259.3479,75.61708Z"
          transform="translate(-96.3084 -22.95714)"/>
    <path class="cls-4" d="M191.4046,93.79375a26.36,26.36,0,0,0,17.18-.01,16.35022,16.35022,0,0,1-17.18.01Z"
          transform="translate(-96.3084 -22.95714)"/>
    <line class="cls-5" x1="103.71617" x2="46.94617" y1="139.69661" y2="56.77661"/>
  </g>
</svg>
