<svg data-name="Capa 1" id="Capa_1" viewBox="0 0 568.64 104.25" xmlns="http://www.w3.org/2000/svg">
  <defs>
    <style>.cls-1 {
      fill: #fff;
    }

    .cls-2 {
      fill: #b3b2b2;
    }

    .cls-3 {
      fill: #e1e0e0;
    }</style>
  </defs>
  <polyline class="cls-1"
            points="293.58 83.71 275.85 73.43 258.02 63.1 240.38 52.88 222.72 42.66 222.46 42.5 222.46 22.14 222.51 22.11 240.38 32.46 258.02 42.68 293.58 63.29 293.58 83.71"/>
  <polygon class="cls-1"
           points="275.72 94.03 258.03 104.25 240.28 93.99 240.11 93.89 222.47 83.67 225.91 81.68 225.91 81.68 229.38 79.69 240.22 73.45 251.06 79.71 258.03 83.72 275.72 94.03"/>
  <polygon class="cls-2"
           points="295.19 24.57 277.4 34.84 277.36 34.81 259.72 24.59 259.62 24.53 263.07 22.55 277.36 30.83 277.4 30.84 291.75 22.57 295.16 24.55 295.19 24.57"/>
  <polygon class="cls-3"
           points="295.19 28.56 277.4 38.83 277.36 38.81 259.72 28.59 259.62 28.53 263.07 26.53 277.36 34.81 277.4 34.84 291.75 26.56 295.16 28.53 295.19 28.56"/>
  <polygon class="cls-1"
           points="295.2 20.58 291.75 22.57 277.4 30.84 277.38 30.83 263.08 22.55 259.72 20.6 259.62 20.55 241.85 10.27 259.62 0 277.5 10.34 291.75 18.58 295.16 20.56 295.2 20.58"/>
  <polygon class="cls-2"
           points="258.02 79.74 254.55 81.72 251.06 79.71 240.21 73.45 229.36 79.69 225.91 81.68 225.9 81.68 222.46 79.68 225.9 77.69 240.21 69.47 254.55 77.74 258.02 79.74"/>
  <polygon class="cls-3"
           points="258.02 75.75 254.55 77.74 240.21 69.47 225.9 77.69 222.46 75.69 240.21 65.48 258.02 75.75"/>
  <path class="cls-1"
        d="M28.53,91.66A23.63,23.63,0,0,1,18.8,81.19a35,35,0,0,1-3.12-15.12V24.46H27.93V64q0,9.91,4.26,15.6T46,85.16q17.28,0,17.3-20.21V24.46H75.52v41.3q0,10.42-4,17a23.82,23.82,0,0,1-10.75,9.69,37.49,37.49,0,0,1-15.6,3.06A32.34,32.34,0,0,1,28.53,91.66Z"
        transform="translate(-15.68 -7.87)"/>
  <path class="cls-1" d="M142.6,24.46V35h-23V94.13H107.35V35H84V24.46Z" transform="translate(-15.68 -7.87)"/>
  <path class="cls-1"
        d="M224,24.46V94.13H211.69V45.21a101.81,101.81,0,0,1-4.34,9.93l-14.54,29H182.4l-14.28-29A104.94,104.94,0,0,1,163.46,45V94.13H151.11V24.46h13.65l15.6,30.65a140.24,140.24,0,0,1,7.32,16.66,112.61,112.61,0,0,1,7.39-16.66l15.59-30.65Z"
        transform="translate(-15.68 -7.87)"/>
  <path class="cls-1" d="M383.67,25.16V35.69h-23V94.83H348.38V35.69H325.06V25.16Z" transform="translate(-15.68 -7.87)"/>
  <path class="cls-1"
        d="M424.43,25.16,450.13,94v.75H437.24l-6.57-18.43H402.72l-6.45,18.43h-12.6V94l25.52-68.91ZM406.16,66.45h21L416.59,36.56Z"
        transform="translate(-15.68 -7.87)"/>
  <path class="cls-1"
        d="M472.87,91.76a26.35,26.35,0,0,1-10.74-12.52,47.81,47.81,0,0,1-3.45-18.91q0-12.91,4.47-21.08a27.26,27.26,0,0,1,11.77-11.82,35.67,35.67,0,0,1,16.23-3.66,42.69,42.69,0,0,1,12.1,1.62,46.58,46.58,0,0,1,10.8,4.72l-5,9.14a33.34,33.34,0,0,0-17.39-5.06q-10.49,0-15.4,6.72t-4.92,18.76q0,12.38,5.4,19.2t15.6,6.82a28.92,28.92,0,0,0,9.19-1.41,44.38,44.38,0,0,0,8.21-3.82l4.87,8.82a54.33,54.33,0,0,1-11.23,5.16,39.24,39.24,0,0,1-11.89,1.72Q480.2,96.23,472.87,91.76Z"
        transform="translate(-15.68 -7.87)"/>
  <polygon class="cls-2" points="565.05 50.45 554.12 62.3 543.09 50.45 554.02 38.61 565.05 50.45"/>
  <polygon class="cls-1"
           points="568.64 86.2 568.64 86.95 553.7 86.95 524.02 51.8 523.29 50.94 524.02 50.13 553.37 17.29 567.24 17.29 567.24 18.04 537.79 50.4 568.64 86.2"/>
  <rect class="cls-1" height="69.67" width="12.25" x="507.47" y="17.29"/>
</svg>
