<svg xmlns="http://www.w3.org/2000/svg" xmlns:xlink="http://www.w3.org/1999/xlink" viewBox="0 0 1000 1323.56"><defs><style>.cls-1{fill:url(#Degradado_sin_nombre_13);}.cls-2{fill:url(#Degradado_sin_nombre_30);}.cls-3{fill:url(#Degradado_sin_nombre_28);}.cls-4{fill:url(#Degradado_sin_nombre_24);}.cls-5{fill:url(#Degradado_sin_nombre_30-2);}.cls-6{fill:url(#Degradado_sin_nombre_24-2);}</style><linearGradient id="Degradado_sin_nombre_13" x1="0.05" y1="605.7" x2="499.99" y2="605.7" gradientUnits="userSpaceOnUse"><stop offset="0" stop-color="#1ecad3"/><stop offset="1" stop-color="#3a8dde"/></linearGradient><linearGradient id="Degradado_sin_nombre_30" x1="499.99" y1="661.77" x2="1000" y2="661.77" gradientUnits="userSpaceOnUse"><stop offset="0" stop-color="#3a8dde"/><stop offset="1" stop-color="#655dc6"/></linearGradient><linearGradient id="Degradado_sin_nombre_28" y1="244.34" x2="1000" y2="244.34" gradientUnits="userSpaceOnUse"><stop offset="0" stop-color="#655dc6"/><stop offset="1" stop-color="#3a8dde"/></linearGradient><linearGradient id="Degradado_sin_nombre_24" x1="0.05" y1="1050.46" x2="1000" y2="1050.46" gradientUnits="userSpaceOnUse"><stop offset="0" stop-color="#3a8dde"/><stop offset="1" stop-color="#1ecad3"/></linearGradient><linearGradient id="Degradado_sin_nombre_30-2" x1="499.99" y1="864.88" x2="1000" y2="864.88" xlink:href="#Degradado_sin_nombre_30"/><linearGradient id="Degradado_sin_nombre_24-2" x1="0.05" y1="864.88" x2="1000" y2="864.88" xlink:href="#Degradado_sin_nombre_24"/></defs><g id="Capa_2" data-name="Capa 2"><g id="Capa_1-2" data-name="Capa 1"><path class="cls-1" d="M50,402.05c-.4-.24-.8-.48-1.12-.72A98.55,98.55,0,0,1,.05,318.7V546.35a100,100,0,0,0,50,86.61l50,28.81L299.93,777.28H300L500,892.7V661.77L100,430.92Z"/><path class="cls-2" d="M951,863.32l.75-.46c32.15-19.35,48.23-52.55,48.23-85.5v-.08c0-33.76-16.64-67.27-50-86.55l-50.08-29L700,546.35,500,430.84V661.77L700,777.28H700L900,892.7l45.62-26.27,4.38-2.52C950.36,863.73,950.7,863.52,951,863.32Z"/><path class="cls-3" d="M48.85,401.33c.32.24.72.48,1.12.72L100,430.92,400,257.75a199.78,199.78,0,0,1,200,0l300,173.17L1000,488.68V257.75L600,26.82a199.78,199.78,0,0,0-200,0L50.05,228.87C15.65,248.71-1.07,284,.05,318.7A98.55,98.55,0,0,0,48.85,401.33Z"/><path class="cls-4" d="M951.77,862.87l-.75.45c-.32.2-.66.41-1,.59l-4.38,2.52L900,892.7,600,1066a200.22,200.22,0,0,1-200,0L100,892.7.05,835v230.85l400,230.93a200.22,200.22,0,0,0,200,0l350-202.06a99.93,99.93,0,0,0,50-86.62V777.36h0A99.07,99.07,0,0,1,951.77,862.87Z"/><path class="cls-5" d="M951,863.32c-.32.2-.66.41-1,.59l-4.38,2.52,4.38-2.52C950.36,863.73,950.7,863.52,951,863.32Z"/><path class="cls-6" d="M951,863.32c-.32.2-.66.41-1,.59l-4.38,2.52,4.38-2.52C950.36,863.73,950.7,863.52,951,863.32Z"/></g></g></svg>