<svg viewBox="0 0 600 400" xmlns="http://www.w3.org/2000/svg">
  <defs>
    <style>.cls-1 {
      fill: #fff;
    }

    .cls-2 {
      fill: #b2b2b2;
    }

    .cls-3 {
      fill: #ededed;
    }</style>
  </defs>
  <g data-name="Capa 4" id="Capa_4">
    <polyline class="cls-1"
              points="123.63 222.27 111.13 215.02 98.55 207.74 86.11 200.53 73.67 193.32 73.47 193.21 73.47 178.85 73.51 178.83 86.11 186.13 98.55 193.34 123.63 207.87 123.63 222.27"/>
    <polygon class="cls-1"
             points="111.03 229.55 98.56 236.76 86.03 229.52 85.92 229.45 73.48 222.24 75.91 220.84 75.91 220.84 78.35 219.44 86 215.04 93.64 219.45 98.56 222.28 111.03 229.55"/>
    <polygon class="cls-2"
             points="124.77 180.57 112.22 187.81 112.19 187.79 99.75 180.58 99.68 180.54 102.11 179.14 112.19 184.98 112.22 184.99 122.33 179.16 124.74 180.55 124.77 180.57"/>
    <polygon class="cls-3"
             points="124.77 183.38 112.22 190.62 112.19 190.61 99.75 183.4 99.68 183.36 102.11 181.95 112.19 187.79 112.22 187.81 122.33 181.97 124.74 183.36 124.77 183.38"/>
    <polygon class="cls-1"
             points="124.77 177.75 122.34 179.16 112.22 184.99 112.2 184.98 102.12 179.14 99.75 177.77 99.68 177.73 87.16 170.48 99.68 163.24 112.29 170.53 122.34 176.34 124.74 177.74 124.77 177.75"/>
    <polygon class="cls-2"
             points="98.55 219.47 96.1 220.87 93.64 219.45 85.99 215.04 78.34 219.44 75.91 220.84 75.9 220.84 73.47 219.43 75.9 218.03 85.99 212.23 96.1 218.06 98.55 219.47"/>
    <polygon class="cls-3"
             points="98.55 216.66 96.1 218.06 85.99 212.23 75.9 218.03 73.47 216.62 85.99 209.42 98.55 216.66"/>
    <path class="cls-1"
          d="M150.61,222.82a16.63,16.63,0,0,1-6.86-7.39,24.64,24.64,0,0,1-2.2-10.65V175.43h8.64v27.91q0,7,3,10.95t9.7,3.91q12.21,0,12.21-14.26V175.43h8.64v29.12q0,7.35-2.8,12a16.76,16.76,0,0,1-7.58,6.82,26.46,26.46,0,0,1-11,2.16A22.88,22.88,0,0,1,150.61,222.82Z"/>
    <path class="cls-1" d="M231.05,175.43v7.43H214.83v41.7h-8.64v-41.7H189.73v-7.43Z"/>
    <path class="cls-1"
          d="M288.41,175.43v49.13h-8.64V190.07a69.07,69.07,0,0,1-3.07,7l-10.25,20.4h-7.33L249,197a73.7,73.7,0,0,1-3.29-7.12v34.64h-8.65V175.43h9.63l11,21.61a94.93,94.93,0,0,1,5.16,11.75A82,82,0,0,1,268,197l11.07-21.61Z"/>
    <path class="cls-1"
          d="M302.63,224a27.42,27.42,0,0,1-8.19-4.24l4-6.07a24.16,24.16,0,0,0,7,3.45,23.82,23.82,0,0,0,7,1.1q5,0,7.66-1.7a5.69,5.69,0,0,0,2.65-5.12,6,6,0,0,0-.91-3.41,8.1,8.1,0,0,0-3.1-2.51,59.13,59.13,0,0,0-6.37-2.65l-1.44-.53a54.94,54.94,0,0,1-7.78-3.49,14,14,0,0,1-4.73-4.36,11.77,11.77,0,0,1-1.82-6.78,11.29,11.29,0,0,1,2.46-7.4,14.61,14.61,0,0,1,6.41-4.43,24.28,24.28,0,0,1,8.41-1.44,29.66,29.66,0,0,1,16.91,5.15l-4,6.07a30.55,30.55,0,0,0-6.44-3.11,21.28,21.28,0,0,0-6.67-1,11.3,11.3,0,0,0-6.18,1.47,4.86,4.86,0,0,0-2.29,4.36,4.62,4.62,0,0,0,.84,2.77,8.66,8.66,0,0,0,2.9,2.31,41.49,41.49,0,0,0,5.87,2.51l1.52.53a57.74,57.74,0,0,1,8,3.37,15.3,15.3,0,0,1,5.18,4.55,12.42,12.42,0,0,1,2.14,7.54,13.21,13.21,0,0,1-2.39,8,14.28,14.28,0,0,1-6.59,4.93,27.05,27.05,0,0,1-9.82,1.63A32.76,32.76,0,0,1,302.63,224Z"/>
    <path class="cls-1" d="M379,175.43v7.43H362.8v41.7h-8.65v-41.7H337.7v-7.43Z"/>
    <path class="cls-1"
          d="M413.79,175.43,431.91,224v.53h-9.1l-4.63-13H398.47l-4.55,13h-8.87V224l18.05-48.6ZM400.9,204.55h14.78l-7.43-21.08Z"/>
    <path class="cls-1"
          d="M448,222.4a18.63,18.63,0,0,1-7.59-8.83,33.76,33.76,0,0,1-2.42-13.34q0-9.1,3.14-14.86a19.28,19.28,0,0,1,8.31-8.34,25.18,25.18,0,0,1,11.44-2.58,30.29,30.29,0,0,1,8.53,1.14,32.75,32.75,0,0,1,7.62,3.33l-3.5,6.45a23.54,23.54,0,0,0-12.27-3.57q-7.4,0-10.86,4.74t-3.47,13.23q0,8.72,3.81,13.54t11,4.81a20.37,20.37,0,0,0,6.48-1,31,31,0,0,0,5.79-2.69l3.43,6.22a38.38,38.38,0,0,1-7.92,3.64,27.59,27.59,0,0,1-8.38,1.21Q453.1,225.55,448,222.4Z"/>
    <polygon class="cls-2" points="524.01 198.82 516.29 207.17 508.51 198.82 516.23 190.47 524.01 198.82"/>
    <polygon class="cls-1"
             points="526.53 224.03 526.53 224.56 515.99 224.56 495.07 199.77 494.55 199.16 495.07 198.59 515.77 175.43 525.55 175.43 525.55 175.96 504.77 198.78 526.53 224.03"/>
    <rect class="cls-1" height="49.13" width="8.64" x="483.39" y="175.43"/>
  </g>
</svg>
