<svg id="Layer_10" data-name="Layer 10" xmlns="http://www.w3.org/2000/svg" viewBox="0 0 464.55371 94.88556"><defs><style>.cls-1,.cls-12,.cls-2,.cls-3,.cls-9{fill:#234192;}.cls-1{opacity:0.2;}.cls-2{opacity:0.15;}.cls-3{opacity:0.1;}.cls-4{fill:#143b65;}.cls-4,.cls-5{opacity:0.3;}.cls-5{fill:#23578a;}.cls-6{fill:#4c63a6;}.cls-7{fill:#37529c;}.cls-8{fill:#286eb5;}.cls-10{fill:#222e5a;}.cls-11,.cls-12{font-size:80.99169px;font-family:AdventPro-SemiBold, Advent Pro SemiBold;}.cls-11{fill:#1d1d1b;}.cls-13{letter-spacing:-0.07799em;}.cls-14{letter-spacing:-0.05499em;}</style></defs><title>Logo_UTM_Stack_v2</title><path id="LEVEL_3" data-name="LEVEL 3" class="cls-1" d="M329.13684,228.42193l-2.24781,1.29831-16.781,9.65327L297.658,246.2138a9.48053,9.48053,0,0,1-9.51117-.10011l-11.66854-6.73694-16.75839-9.65651-2.24781-1.29831a9.68875,9.68875,0,0,1,0-16.78421l.8171-.47153,14.22637,8.19672,14.446,8.34206a11.74619,11.74619,0,0,0,11.77836.126l15.41487-8.47125,12.78276-7.35378v-1.63418l1.41781.81708.78154.45215A9.68835,9.68835,0,0,1,329.13684,228.42193Z" transform="translate(-67.72363 -152.55722)"/><path id="LEVEL_2" data-name="LEVEL 2" class="cls-2" d="M329.17236,208.93131l-2.24779,1.29831-.11949.06781-16.66151,9.58544-12.4501,6.84031a9.48067,9.48067,0,0,1-9.51117-.10011l-11.66854-6.737-16.68733-9.6145-.07106-.042-2.24779-1.29831a9.69115,9.69115,0,0,1,0-16.78421l.74927-.43278,15.49884,8.9363.1421.084,13.43836,7.7575a11.05246,11.05246,0,0,0,11.07105.11626l14.291-7.85438.20023-.1098,15.52147-8.92985.75248.436A9.68837,9.68837,0,0,1,329.17236,208.93131Z" transform="translate(-67.72363 -152.55722)"/><path id="LEVEL_1" data-name="LEVEL 1" class="cls-3" d="M329.17236,189.53758l-2.24779,1.29828-.0323.0194-16.7487,9.63388-.17118.09367-12.27892,6.74985a9.49616,9.49616,0,0,1-9.51117-.10012l-11.54581-6.66589-.12273-.07105-16.75193-9.6565-.00646-.00324-2.24779-1.29828a9.68837,9.68837,0,0,1,0-16.781l2.24779-1.29831.00646-.01291,16.781-9.6888,11.93659-6.892a9.68712,9.68712,0,0,1,9.68879,0l11.93661,6.892.00646-.00323,16.781,9.6888v.03554l.0323-.0194,2.24779,1.29831A9.68837,9.68837,0,0,1,329.17236,189.53758Z" transform="translate(-67.72363 -152.55722)"/><path id="SOMBRA_2" data-name="SOMBRA 2" class="cls-4" d="M326.93749,210.37172v1.63418l-12.78276,7.35378-3.99825,2.19614-11.41662,6.27511a12.71688,12.71688,0,0,1-4.96229,1.72571c-.27127.02261-.54257.03552-.81707.03552a11.43435,11.43435,0,0,1-5.999-1.88719l-10.37668-5.9909-4.06931-2.35116-11.07105-6.37845-3.15532-1.81827,1.43071-.82354.00646-.01291.10012-.05813,4.347,2.50293,12.3403,7.11157.07106.042,11.59748,6.695a8.15869,8.15869,0,0,0,.95274.50381,9.54952,9.54952,0,0,0,8.55843-.4037l12.4501-6.84031a.03518.03518,0,0,0,.01291-.00644l.47153-.2713,16.17707-9.3077.05167.02907v.03552l.03228-.01937Z" transform="translate(-67.72363 -152.55722)"/><path id="SOMBRA_1" data-name="SOMBRA 1" class="cls-5" d="M328.41988,191.71432l-15.52147,8.92985-.20023.1098-14.291,7.85438a11.05246,11.05246,0,0,1-11.07105-.11626l-13.43836-7.7575-.1421-.084-15.49884-8.9363,1.49852-.86229.00646-.01293,16.75193,9.6565.12273.07105,11.54581,6.66589a9.49616,9.49616,0,0,0,9.51117.10012l12.27892-6.74985.17118-.09367,16.7487-9.63388v.01614l.0323-.01937Z" transform="translate(-67.72363 -152.55722)"/><path class="cls-6" d="M310.16569,239.2361l-16.79791-9.66818c-.007.00391,16.78874-9.69284,16.78874-9.69284h0l.00917,19.361Z" transform="translate(-67.72363 -152.55722)"/><path class="cls-7" d="M293.369,229.56846v17.85967a9.73243,9.73243,0,0,1-4.825-1.2886c-4.96065-2.855-11.956-6.87906-11.956-6.88228Z" transform="translate(-67.72363 -152.55722)"/><path class="cls-6" d="M310.16618,239.23464l-11.94628,6.89519a9.63734,9.63734,0,0,1-4.85086,1.2983V229.56846Z" transform="translate(-67.72363 -152.55722)"/><polygon class="cls-8" points="192.092 77.017 192.079 77.024 192.082 77.011 192.092 77.017"/><path class="cls-7" d="M276.58682,239.25674l-.00323-19.36466h0L264.647,213.0003a3.22959,3.22959,0,0,0-4.84443,2.79689v11.91768a3.22961,3.22961,0,0,0,1.61661,2.798Z" transform="translate(-67.72363 -152.55722)"/><polygon class="cls-7" points="208.86 67.335 208.863 86.699 225.644 77.011 208.86 67.335 208.86 67.335"/><polygon class="cls-7" points="208.868 47.946 225.651 38.318 225.648 57.634 208.867 47.946 208.868 47.946"/><path class="cls-6" d="M326.93749,210.18763v17.51088a3.236,3.236,0,0,1-1.6148,2.80007l-15.15651,8.73606-.0097-17.67882v-1.67939l.47153-.2713Z" transform="translate(-67.72363 -152.55722)"/><polygon class="cls-9" points="242.433 67.318 259.213 57.63 242.429 47.945 242.433 67.318"/><polygon class="cls-9" points="242.429 47.945 225.651 57.629 242.433 67.318 242.429 47.945"/><path class="cls-6" d="M310.1529,200.5027,293.375,190.87554c.00362-.07542-.00339,19.31609-.00339,19.31609Z" transform="translate(-67.72363 -152.55722)"/><polygon class="cls-7" points="208.87 28.63 225.578 38.276 225.651 38.318 208.867 47.945 208.87 28.63"/><path class="cls-7" d="M276.59005,181.124l-.00323.00323v19.3776l-15.168-8.74707a3.2296,3.2296,0,0,1-1.6162-2.79773V171.4481Z" transform="translate(-67.72363 -152.55722)"/><polygon class="cls-6" points="208.866 9.189 192.078 18.891 208.86 28.579 208.866 9.189"/><polygon class="cls-10" points="225.652 18.94 221.928 21.087 208.868 9.19 208.913 9.215 225.652 18.94"/><polygon class="cls-6" points="221.928 21.087 208.871 28.629 208.861 28.58 208.868 9.19 221.928 21.087"/><path class="cls-9" d="M310.152,161.74637l-16.77775,9.75016h0l-16.78424-9.75016,15.16617-8.75645a3.22962,3.22962,0,0,1,3.22967,0l15.16615,8.75644Z" transform="translate(-67.72363 -152.55722)"/><path class="cls-9" d="M322.12079,174.23345a3.2296,3.2296,0,0,0-.00782-5.58953L310.152,161.74637h0l-16.77775,9.75016h0l15.15585,8.75049a3.24,3.24,0,0,0,3.24771-.0044Z" transform="translate(-67.72363 -152.55722)"/><text class="cls-11" transform="translate(-0.00049 71.05215) scale(1.32869 1)">UTM</text><text class="cls-12" transform="translate(277.30811 72.79337) scale(1.32869 1)"><tspan class="cls-13">T</tspan><tspan class="cls-14" x="26.24178" y="0">A</tspan><tspan x="64.46963" y="0">CK</tspan></text></svg>