<?xml version="1.0" encoding="UTF-8" standalone="no"?>
<!-- Generator: Adobe Illustrator 16.0.0, SVG Export Plug-In . SVG Version: 6.00 Build 0)  -->

<svg
  enable-background="new 0 0 128 128"
  height="87.352997"
  id="Layer_1"
  inkscape:version="0.92.1 r15371"
  sodipodi:docname="PHOTO SHARING.svg"
  version="1.1"
  viewBox="0 0 114.396 87.352997"
  width="114.396"
  x="0px"
  xml:space="preserve"
  xmlns="http://www.w3.org/2000/svg"
  xmlns:cc="http://creativecommons.org/ns#"
  xmlns:dc="http://purl.org/dc/elements/1.1/"
  xmlns:inkscape="http://www.inkscape.org/namespaces/inkscape"
  xmlns:rdf="http://www.w3.org/1999/02/22-rdf-syntax-ns#"
  xmlns:sodipodi="http://sodipodi.sourceforge.net/DTD/sodipodi-0.dtd"
  y="0px"><metadata
     id="metadata43"><rdf:RDF><cc:Work
         rdf:about=""><dc:format>image/svg+xml</dc:format><dc:type
  rdf:resource="http://purl.org/dc/dcmitype/StillImage"/></cc:Work></rdf:RDF></metadata>
  <defs
    id="defs41"/>
  <sodipodi:namedview
    bordercolor="#666666"
    borderopacity="1"
    gridtolerance="10"
    guidetolerance="10"
    id="namedview39"
    inkscape:current-layer="Layer_1"
    inkscape:cx="64"
    inkscape:cy="50.568"
    inkscape:pageopacity="0"
    inkscape:pageshadow="2"
    inkscape:window-height="1001"
    inkscape:window-maximized="1"
    inkscape:window-width="1920"
    inkscape:window-x="-9"
    inkscape:window-y="-9"
    inkscape:zoom="1.84375"
    objecttolerance="10"
    pagecolor="#ffffff"
    showgrid="false"/>
  <g
    id="g36"
    transform="translate(0,-27.215)"><g
       id="g22"><g
         id="g4" /><g
    id="g8"/><g
    id="g12"/><g
    id="g16"/><g
    id="g20"/></g>
    <g
      id="g26"><path
         d="M 114.396,114.568 H 0 V 27.215 H 114.396 Z M 4,110.568 H 110.396 V 31.215 H 4 Z"
         id="path24"
         inkscape:connector-curvature="0"
         style="fill:#282d33" /></g>
    <g
      id="g30"><path
         d="M 104.762,85.909 H 71.353 L 55.739,64.841 45.033,79.289 28.482,56.957 9.628,82.385 V 36.977 h 95.134 z m -31.396,-4 h 27.396 V 40.977 H 13.628 V 70.276 L 28.483,50.24 45.033,72.57 55.739,58.122 Z"
         id="path28"
         inkscape:connector-curvature="0"
         style="fill:#282d33" /></g>
    <g
      id="g34"><path
         d="m 81.333,65.98 c -5.399,0 -9.792,-4.44 -9.792,-9.896 0,-5.457 4.393,-9.896 9.792,-9.896 5.399,0 9.792,4.439 9.792,9.896 0,5.456 -4.393,9.896 -9.792,9.896 z m 0,-15.792 c -3.193,0 -5.792,2.646 -5.792,5.896 0,3.25 2.599,5.896 5.792,5.896 3.193,0 5.792,-2.645 5.792,-5.896 0,-3.251 -2.599,-5.896 -5.792,-5.896 z"
         id="path32"
         inkscape:connector-curvature="0"
         style="fill:#282d33" /></g></g></svg>
