<?xml version="1.0" encoding="iso-8859-1"?>
<!-- Generator: Adobe Illustrator 21.0.2, SVG Export Plug-In . SVG Version: 6.00 Build 0)  -->
<svg style="enable-background:new 0 0 64 64;" version="1.1" viewBox="0 0 64 64" x="0px"
     xml:space="preserve" xmlns="http://www.w3.org/2000/svg" y="0px">
<g id="_x32_5_network">
</g>
  <g id="_x32_4_webcam">
</g>
  <g id="_x32_3_VGA">
</g>
  <g id="_x32_2_setting">
</g>
  <g id="_x32_1_computer_fan">
</g>
  <g id="_x32_0_micro_sd">
</g>
  <g id="_x31_9_virus">
</g>
  <g id="_x31_8_laptop">
</g>
  <g id="_x31_7_mouse">
</g>
  <g id="_x31_6_mainboard">
</g>
  <g id="_x31_5_RAM">
</g>
  <g id="_x31_4_security">
</g>
  <g id="_x31_3_usb_cable">
</g>
  <g id="_x31_2_flashdisk">
</g>
  <g id="_x31_1_speaker">
</g>
  <g id="_x31_0_software">
</g>
  <g id="_x30_9_folder">
</g>
  <g id="_x30_8_keyboard">
</g>
  <g id="_x30_7_search">
</g>
  <g id="_x30_6_chip">
</g>
  <g id="_x30_5_printer">
</g>
  <g id="_x30_4_hardisk">
</g>
  <g id="_x30_3_disc">
</g>
  <g id="_x30_2_cpu">
	<g>
		<path d="M46.8257,1H17.1743c-2.3877,0-4.3301,1.9424-4.3301,4.3296V58.667c0,2.3892,1.9424,4.333,4.3301,4.333h29.6514
			c2.3877,0,4.3301-1.9438,4.3301-4.333V5.3296C51.1558,2.9424,49.2134,1,46.8257,1z M49.1558,58.667
			c0,1.2866-1.0454,2.333-2.3301,2.333H17.1743c-1.2847,0-2.3301-1.0464-2.3301-2.333V5.3296C14.8442,4.0449,15.8896,3,17.1743,3
			h29.6514c1.2847,0,2.3301,1.0449,2.3301,2.3296V58.667z"/>
    <path d="M43.6367,5.8286H20.3633c-1.4834,0-2.6904,1.207-2.6904,2.6904V55.481c0,1.4834,1.207,2.6904,2.6904,2.6904h23.2734
			c1.4834,0,2.6904-1.207,2.6904-2.6904V8.519C46.3271,7.0356,45.1201,5.8286,43.6367,5.8286z M24.9907,27.7041h13.772v2.1821
			h-13.772V27.7041z M19.6729,25.7007v-2.9995h24.6543v2.9995H19.6729z M19.6729,14.6592h24.6543v6.042H19.6729V14.6592z
			 M20.3633,7.8286h23.2734c0.3809,0,0.6904,0.3096,0.6904,0.6904v4.1401H19.6729V8.519
			C19.6729,8.1382,19.9824,7.8286,20.3633,7.8286z M43.6367,56.1714H20.3633c-0.374,0-0.6904-0.3164-0.6904-0.6904V27.7007h3.3179
			V30c0,1.04,0.8462,1.8862,1.8862,1.8862h13.9995c1.04,0,1.8862-0.8462,1.8862-1.8862v-2.2993h3.5645V55.481
			C44.3271,55.855,44.0107,56.1714,43.6367,56.1714z"/>
    <path d="M40.7471,33.6509c-0.7446-0.2954-1.271,0.2666-1.7373,0.7632c-1.356,1.4438-4.042,2.3408-7.0098,2.3408
			s-5.6538-0.897-7.0098-2.3408c0,0-0.0005,0-0.0005-0.0005c-0.4663-0.4961-0.998-1.0571-1.7368-0.7627
			c-0.7412,0.2935-0.7412,1.0024-0.7412,1.8994V50.375c0,1.6309,1.3267,2.9575,2.9575,2.9575h13.0615
			c1.6309,0,2.9575-1.3267,2.9575-2.9575V35.5503C41.4883,34.6533,41.4883,33.9443,40.7471,33.6509z M39.4883,50.375
			c0,0.5278-0.4297,0.9575-0.9575,0.9575H25.4692c-0.5278,0-0.9575-0.4297-0.9575-0.9575V36.644
			c1.8267,1.3374,4.522,2.1108,7.4883,2.1108s5.6621-0.7734,7.4883-2.1108V50.375z"/>
    <path d="M27.9116,45.2656c0,2.2554,1.833,4.0903,4.0864,4.0903c2.2554,0,4.0903-1.835,4.0903-4.0903s-1.835-4.0898-4.0903-4.0898
			C29.7446,41.1758,27.9116,43.0103,27.9116,45.2656z M34.0884,45.2656c0,1.1528-0.9375,2.0903-2.0903,2.0903
			c-1.1504,0-2.0864-0.9375-2.0864-2.0903c0-1.1523,0.936-2.0898,2.0864-2.0898C33.1509,43.1758,34.0884,44.1133,34.0884,45.2656z"
    />
    <path d="M32.3369,16.6802h-2.9292c-0.5522,0-1,0.4478-1,1s0.4478,1,1,1h2.9292c0.5522,0,1-0.4478,1-1
			S32.8892,16.6802,32.3369,16.6802z"/>
    <path d="M39.9888,16.6802h-2.9292c-0.5522,0-1,0.4478-1,1s0.4478,1,1,1h2.9292c0.5522,0,1-0.4478,1-1
			S40.541,16.6802,39.9888,16.6802z"/>
	</g>
</g>
  <g id="_x30_1_monitor">
</g>
</svg>
