<?xml version="1.0" encoding="UTF-8" standalone="no"?>
<svg
  viewBox="0 0 48 48"
  xmlns="http://www.w3.org/2000/svg"
  xmlns:cc="http://creativecommons.org/ns#"
  xmlns:dc="http://purl.org/dc/elements/1.1/"
  xmlns:inkscape="http://www.inkscape.org/namespaces/inkscape"
  xmlns:rdf="http://www.w3.org/1999/02/22-rdf-syntax-ns#"
  id="svg28"
  inkscape:version="0.92.1 r15371"
  sodipodi:docname="database_hardisk.svg"
  version="1.1"
  xmlns:sodipodi="http://sodipodi.sourceforge.net/DTD/sodipodi-0.dtd">
  <metadata
    id="metadata34">
    <rdf:RDF>
      <cc:Work
        rdf:about="">
        <dc:format>image/svg+xml</dc:format>
        <dc:type
          rdf:resource="http://purl.org/dc/dcmitype/StillImage"/>
      </cc:Work>
    </rdf:RDF>
  </metadata>
  <defs
    id="defs32"/>
  <sodipodi:namedview
    bordercolor="#666666"
    borderopacity="1"
    gridtolerance="10"
    guidetolerance="10"
    id="namedview30"
    inkscape:current-layer="svg28"
    inkscape:cx="-42.915254"
    inkscape:cy="24"
    inkscape:pageopacity="0"
    inkscape:pageshadow="2"
    inkscape:window-height="1001"
    inkscape:window-maximized="1"
    inkscape:window-width="1920"
    inkscape:window-x="-9"
    inkscape:window-y="-9"
    inkscape:zoom="4.9166667"
    objecttolerance="10"
    pagecolor="#ffffff"
    showgrid="false"/>
  <g
    data-name="27-Hard Disk"
    id="_27-Hard_Disk">
    <g
      data-name="&lt;Group&gt;"
      id="_Group_">
      <path
        d="M33,33v4l-2,1v1a1,1,0,0,1-1,1H18a1,1,0,0,1-1-1V38l-2-1V33l2-1V29.73a12,12,0,1,1,14,0V32Z"
        id="path4"
        style="fill:#232f3e;fill-opacity:1"/>
      <path
        d="M44,5V43a4,4,0,0,1-4,4H8a4,4,0,0,1-4-4V5A4,4,0,0,1,8,1H40A4,4,0,0,1,44,5ZM40,7a2,2,0,1,0-2,2A2.006,2.006,0,0,0,40,7Zm0,34a2,2,0,1,0-2,2A2.006,2.006,0,0,0,40,41ZM31,29.73a12,12,0,1,0-14,0V32l-2,1v4l2,1v1a1,1,0,0,0,1,1H30a1,1,0,0,0,1-1V38l2-1V33l-2-1ZM12,7a2,2,0,1,0-2,2A2.006,2.006,0,0,0,12,7Zm0,34a2,2,0,1,0-2,2A2.006,2.006,0,0,0,12,41Z"
        id="path6"
        style="fill:#ffffff;fill-opacity:1"/>
      <circle
        cx="10"
        cy="41"
        id="circle8"
        r="2"
        style="fill:#232f3e;fill-opacity:1"/>
      <circle
        cx="38"
        cy="41"
        id="circle10"
        r="2"
        style="fill:#232f3e;fill-opacity:1"/>
      <circle
        cx="38"
        cy="7"
        id="circle12"
        r="2"
        style="fill:#232f3e;fill-opacity:1"/>
      <circle
        cx="10"
        cy="7"
        id="circle14"
        r="2"
        style="fill:#232f3e;fill-opacity:1"/>
      <circle
        cx="24"
        cy="20"
        id="circle16"
        r="3"
        style="fill:#ffffff;fill-opacity:1"/>
      <rect
        height="2"
        id="rect18"
        style="fill:#ffffff;fill-opacity:1"
        width="4"
        x="22"
        y="34"/>
      <path
        d="M24,33H22V29a1,1,0,0,1,.293-.707l5-5,1.414,1.414L24,29.414Z"
        id="path20"
        style="fill:#ffffff;fill-opacity:1"/>
      <rect
        height="2"
        id="rect22"
        style="fill:#ffffff;fill-opacity:1"
        width="2"
        x="18"
        y="34"/>
      <rect
        height="2"
        id="rect24"
        style="fill:#ffffff;fill-opacity:1"
        width="2"
        x="28"
        y="34"/>
    </g>
  </g>
  <path
    d="m 17.329657,39.731388 c -0.116421,-0.14028 -0.242035,-0.575026 -0.279141,-0.966102 -0.05836,-0.615093 -0.19776,-0.779666 -1.032978,-1.219523 L 15.052025,37.037288 V 35.00339 32.969492 l 0.965513,-0.508475 c 0.936872,-0.493391 0.967242,-0.538641 1.023811,-1.525424 0.05765,-1.00561 0.04429,-1.030444 -1.198131,-2.227261 -2.766261,-2.664728 -4.062381,-5.983722 -3.777815,-9.673908 0.385614,-5.000539 4.082499,-9.3895014 8.984351,-10.6662716 1.544694,-0.4023416 4.355798,-0.4023416 5.900492,0 2.83915,0.7395046 5.763983,2.8771466 7.194265,5.2579976 3.044024,5.067084 2.261982,10.972385 -2.002245,15.119219 -1.232395,1.198469 -1.250687,1.232514 -1.188488,2.212188 0.06087,0.958741 0.09834,1.013508 1.028685,1.50346 l 0.965512,0.508475 v 2.033898 2.033898 l -0.965512,0.508475 c -0.835219,0.439857 -0.974618,0.60443 -1.032979,1.219523 -0.03711,0.391076 -0.16272,0.825822 -0.279141,0.966102 -0.161571,0.194678 -1.740507,0.255053 -6.670343,0.255053 -4.929836,0 -6.508772,-0.06038 -6.670343,-0.255053 z m 2.805936,-4.727998 v -1.118644 h -1.118644 -1.118644 v 1.118644 1.118644 h 1.118644 1.118644 z m 5.898305,0 V 33.884746 H 24 21.966102 v 1.118644 1.118644 H 24 26.033898 Z m 4.067797,0 v -1.118644 h -1.118644 -1.118644 v 1.118644 1.118644 h 1.118644 1.118644 z M 24,31.29458 v -1.776606 l 2.386546,-2.39278 2.386546,-2.39278 -0.759655,-0.759655 -0.759656,-0.759655 -2.643839,2.637971 -2.64384,2.63797 v 2.291071 2.29107 H 22.983051 24 Z m 0.847675,-8.39896 c 0.414578,-0.115149 1.020024,-0.519314 1.362849,-0.909771 1.994145,-2.271206 0.06232,-5.454118 -2.965549,-4.886087 -0.951245,0.178455 -2.02726,1.281598 -2.21233,2.268109 -0.273533,1.458056 0.700958,3.115332 2.073319,3.526008 0.799271,0.239179 0.886534,0.239267 1.741711,0.0017 z"
    id="path3718"
    inkscape:connector-curvature="0"
    style="opacity:0;fill:#ffffff;fill-opacity:0;stroke-width:0.20338982"/>
  <path
    d="m 17.329657,39.731388 c -0.116421,-0.14028 -0.242035,-0.575026 -0.279141,-0.966102 -0.05836,-0.615093 -0.19776,-0.779666 -1.032978,-1.219523 L 15.052025,37.037288 V 35.00339 32.969492 l 0.965513,-0.508475 c 0.936872,-0.493391 0.967242,-0.538641 1.023811,-1.525424 0.05765,-1.00561 0.04429,-1.030444 -1.198131,-2.227261 -2.766261,-2.664728 -4.062381,-5.983722 -3.777815,-9.673908 0.385614,-5.000539 4.082499,-9.3895014 8.984351,-10.6662716 1.544694,-0.4023416 4.355798,-0.4023416 5.900492,0 2.83915,0.7395046 5.763983,2.8771466 7.194265,5.2579976 3.044024,5.067084 2.261982,10.972385 -2.002245,15.119219 -1.232395,1.198469 -1.250687,1.232514 -1.188488,2.212188 0.06087,0.958741 0.09834,1.013508 1.028685,1.50346 l 0.965512,0.508475 v 2.033898 2.033898 l -0.965512,0.508475 c -0.835219,0.439857 -0.974618,0.60443 -1.032979,1.219523 -0.03711,0.391076 -0.16272,0.825822 -0.279141,0.966102 -0.161571,0.194678 -1.740507,0.255053 -6.670343,0.255053 -4.929836,0 -6.508772,-0.06038 -6.670343,-0.255053 z m 2.805936,-4.727998 v -1.118644 h -1.118644 -1.118644 v 1.118644 1.118644 h 1.118644 1.118644 z m 5.898305,0 V 33.884746 H 24 21.966102 v 1.118644 1.118644 H 24 26.033898 Z m 4.067797,0 v -1.118644 h -1.118644 -1.118644 v 1.118644 1.118644 h 1.118644 1.118644 z M 24,31.29458 v -1.776606 l 2.386546,-2.39278 2.386546,-2.39278 -0.759655,-0.759655 -0.759656,-0.759655 -2.643839,2.637971 -2.64384,2.63797 v 2.291071 2.29107 H 22.983051 24 Z m 0.847675,-8.39896 c 0.414578,-0.115149 1.020024,-0.519314 1.362849,-0.909771 1.994145,-2.271206 0.06232,-5.454118 -2.965549,-4.886087 -0.951245,0.178455 -2.02726,1.281598 -2.21233,2.268109 -0.273533,1.458056 0.700958,3.115332 2.073319,3.526008 0.799271,0.239179 0.886534,0.239267 1.741711,0.0017 z"
    id="path3720"
    inkscape:connector-curvature="0"
    style="opacity:0;fill:#ffffff;fill-opacity:0;stroke-width:0.20338982"/>
</svg>
