<svg enable-background="new 0 0 24 24" height="512" id="bold" viewBox="0 0 24 24" width="512"
     xmlns="http://www.w3.org/2000/svg">
  <path
    d="m23.707 22.293-2.54-2.54c.524-.791.833-1.736.833-2.753 0-2.757-2.243-5-5-5s-5 2.243-5 5 2.243 5 5 5c1.017 0 1.962-.309 2.753-.833l2.54 2.54c.391.391 1.023.391 1.414 0s.391-1.023 0-1.414zm-6.707-2.293c-1.654 0-3-1.346-3-3s1.346-3 3-3 3 1.346 3 3-1.346 3-3 3z"/>
  <path
    d="m19 0h-16c-1.657 0-3 1.343-3 3s1.343 3 3 3h16c1.657 0 3-1.343 3-3s-1.343-3-3-3zm-16 4c-.552 0-1-.448-1-1s.448-1 1-1 1 .448 1 1-.448 1-1 1zm4 0c-.552 0-1-.448-1-1s.448-1 1-1 1 .448 1 1-.448 1-1 1z"/>
  <path
    d="m19 8h-16c-1.66 0-3 1.34-3 3s1.34 3 3 3h7.68c1.12-2.36 3.53-4 6.32-4 1.88 0 3.58.74 4.84 1.95.11-.3.16-.62.16-.95 0-1.66-1.34-3-3-3zm-16 4c-.55 0-1-.45-1-1s.45-1 1-1 1 .45 1 1-.45 1-1 1zm4 0c-.55 0-1-.45-1-1s.45-1 1-1 1 .45 1 1-.45 1-1 1z"/>
  <path
    d="m10 17c0-.34.02-.67.08-1h-7.08c-1.66 0-3 1.34-3 3s1.34 3 3 3h9.11c-1.3-1.27-2.11-3.04-2.11-5zm-7 3c-.55 0-1-.45-1-1s.45-1 1-1 1 .45 1 1-.45 1-1 1zm4 0c-.55 0-1-.45-1-1s.45-1 1-1 1 .45 1 1-.45 1-1 1z"/>
</svg>
