<svg class="svg-icon" style="vertical-align:
 middle;overflow: hidden;"
     viewBox="0 0 1024 1024" version="1.1" xmlns="http://www.w3.org/2000/svg">
  <path
    d="M640.5 160.6H232.8c-46.6 0-84.8 38.2-84.8 84.8 0 46.6 38.2 84.8 84.8 84.8h407.8c46.6 0 84.8-38.2 84.8-84.8 0-46.6-38.2-84.8-84.9-84.8zM640.5 452.4H232.8c-46.6 0-84.8 38.2-84.8 84.8 0 46.6 38.2 84.8 84.8 84.8h407.8c46.6 0 84.8-38.2 84.8-84.8 0-46.7-38.2-84.8-84.9-84.8zM640.5 719.6H232.8c-46.6 0-84.8 38.2-84.8 84.8 0 46.7 38.2 84.8 84.8 84.8h407.8c46.6 0 84.8-38.2 84.8-84.8 0-46.6-38.2-84.8-84.9-84.8z"
    fill="#AAAAAA"/>
  <path
    d="M643.2 343H188.3c-65.1 0-118.1-53-118.1-118.1s53-118.1 118.1-118.1h454.9c65.1 0 118.1 53 118.1 118.1S708.4 343 643.2 343zM188.3 146.1c-43.4 0-78.8 35.3-78.8 78.8 0 43.4 35.3 78.8 78.8 78.8h454.9c43.4 0 78.8-35.3 78.8-78.8 0-43.4-35.3-78.8-78.8-78.8H188.3zM643.2 632H188.3c-65.1 0-118.1-53-118.1-118.1s53-118.1 118.1-118.1h454.9c65.1 0 118.1 53 118.1 118.1S708.4 632 643.2 632zM188.3 435.2c-43.4 0-78.8 35.3-78.8 78.8s35.3 78.8 78.8 78.8h454.9c43.4 0 78.8-35.3 78.8-78.8s-35.3-78.8-78.8-78.8H188.3zM643.2 898.8H188.3c-65.1 0-118.1-53-118.1-118.1s53-118.1 118.1-118.1h454.9c65.1 0 118.1 53 118.1 118.1s-52.9 118.1-118.1 118.1zM188.3 701.9c-43.4 0-78.8 35.3-78.8 78.8 0 43.4 35.3 78.8 78.8 78.8h454.9c43.4 0 78.8-35.3 78.8-78.8 0-43.4-35.3-78.8-78.8-78.8H188.3z"
    fill="#fff"/>
  <path
    d="M255.1 282.4c-30.2 0-54.7-24.5-54.7-54.7s24.5-54.7 54.7-54.7 54.7 24.5 54.7 54.7-24.6 54.7-54.7 54.7z m0-81.6c-14.9 0-26.9 12.1-26.9 26.9 0 14.9 12.1 26.9 26.9 26.9s26.9-12.1 26.9-26.9c0-14.8-12.1-26.9-26.9-26.9zM255.1 567.7c-30.2 0-54.7-24.5-54.7-54.7 0-30.2 24.5-54.7 54.7-54.7s54.7 24.5 54.7 54.7c0 30.2-24.6 54.7-54.7 54.7z m0-81.6c-14.9 0-26.9 12.1-26.9 26.9 0 14.9 12.1 26.9 26.9 26.9s26.9-12 26.9-26.9c0-14.9-12.1-26.9-26.9-26.9zM255.1 843c-30.2 0-54.7-24.5-54.7-54.7 0-30.2 24.5-54.7 54.7-54.7s54.7 24.5 54.7 54.7c0 30.1-24.6 54.7-54.7 54.7z m0-81.7c-14.9 0-26.9 12.1-26.9 26.9s12.1 26.9 26.9 26.9S282 803 282 788.2s-12.1-26.9-26.9-26.9zM612.1 246.8H456.5c-1.4 0-2.5-1.1-2.5-2.5v-35.8c0-1.4 1.1-2.5 2.5-2.5h155.6c1.4 0 2.5 1.1 2.5 2.5v35.8c-0.1 1.4-1.2 2.5-2.5 2.5zM612.1 533.8H456.5c-1.4 0-2.5-1.1-2.5-2.5v-35.8c0-1.4 1.1-2.5 2.5-2.5h155.6c1.4 0 2.5 1.1 2.5 2.5v35.8c-0.1 1.4-1.2 2.5-2.5 2.5zM612.1 809.6H456.5c-1.4 0-2.5-1.1-2.5-2.5v-35.8c0-1.4 1.1-2.5 2.5-2.5h155.6c1.4 0 2.5 1.1 2.5 2.5v35.8c-0.1 1.4-1.2 2.5-2.5 2.5zM945.4 258H789.8c-1.4 0-2.5-1.1-2.5-2.5v-35.8c0-1.4 1.1-2.5 2.5-2.5h155.6c1.4 0 2.5 1.1 2.5 2.5v35.8c-0.1 1.4-1.2 2.5-2.5 2.5zM945.4 533.3H789.8c-1.4 0-2.5-1.1-2.5-2.5V495c0-1.4 1.1-2.5 2.5-2.5h155.6c1.4 0 2.5 1.1 2.5 2.5v35.8c-0.1 1.4-1.2 2.5-2.5 2.5zM945.4 808.6H789.8c-1.4 0-2.5-1.1-2.5-2.5v-35.8c0-1.4 1.1-2.5 2.5-2.5h155.6c1.4 0 2.5 1.1 2.5 2.5v35.8c-0.1 1.4-1.2 2.5-2.5 2.5z"
    fill="#fff"/>
  <path
    d="M952.6 219.8v586.4c0 1.4-1.1 2.5-2.5 2.5h-35.8c-1.4 0-2.5-1.1-2.5-2.5V219.8c0-1.4 1.1-2.5 2.5-2.5h35.8c1.4 0 2.5 1.1 2.5 2.5z"
    fill="#fff"/>
</svg>
