<?xml version="1.0" encoding="UTF-8" standalone="no"?>
<svg
  height="16.576271"
  id="svg13"
  inkscape:version="0.92.1 r15371"
  sodipodi:docname="display.svg"
  version="1.1"
  viewBox="0 0 20.745764 16.576271"
  width="20.745764"
  xmlns="http://www.w3.org/2000/svg"
  xmlns:cc="http://creativecommons.org/ns#"
  xmlns:dc="http://purl.org/dc/elements/1.1/"
  xmlns:inkscape="http://www.inkscape.org/namespaces/inkscape"
  xmlns:rdf="http://www.w3.org/1999/02/22-rdf-syntax-ns#"
  xmlns:sodipodi="http://sodipodi.sourceforge.net/DTD/sodipodi-0.dtd">
  <metadata
    id="metadata17">
    <rdf:RDF>
      <cc:Work
        rdf:about="">
        <dc:format>image/svg+xml</dc:format>
        <dc:type
          rdf:resource="http://purl.org/dc/dcmitype/StillImage"/>
      </cc:Work>
    </rdf:RDF>
  </metadata>
  <sodipodi:namedview
    bordercolor="#666666"
    borderopacity="1"
    gridtolerance="10"
    guidetolerance="10"
    id="namedview15"
    inkscape:current-layer="svg13"
    inkscape:cx="46.525423"
    inkscape:cy="-14.491525"
    inkscape:pageopacity="0"
    inkscape:pageshadow="2"
    inkscape:window-height="1001"
    inkscape:window-maximized="1"
    inkscape:window-width="1920"
    inkscape:window-x="-9"
    inkscape:window-y="-9"
    inkscape:zoom="9.8333333"
    objecttolerance="10"
    pagecolor="#ffffff"
    showgrid="false"/>
  <!-- Generator: Sketch 50.2 (55047) - http://www.bohemiancoding.com/sketch -->
  <defs
    id="defs6"/>
  <g
    id="Stockholm-icons-/-Devices-/-Display1"
    style="fill:none;fill-rule:evenodd;stroke:none;stroke-width:1"
    transform="translate(-1.5254238,-4.5762711)">
    <rect
      height="24"
      id="bound"
      width="24"
      x="0"
      y="0"/>
    <path
      d="m 11,20 v -3 c 0,-0.552285 0.447715,-1 1,-1 0.552285,0 1,0.447715 1,1 v 3 h 2.5 c 0.276142,0 0.5,0.223858 0.5,0.5 0,0.276142 -0.223858,0.5 -0.5,0.5 h -7 C 8.2238576,21 8,20.776142 8,20.5 8,20.223858 8.2238576,20 8.5,20 Z"
      id="Combined-Shape"
      inkscape:connector-curvature="0"
      style="opacity:1;fill:#ffffff"/>
    <path
      d="m 3,5 h 18 c 0.552285,0 1,0.4477152 1,1 v 10 c 0,0.552285 -0.447715,1 -1,1 H 3 C 2.4477153,17 2,16.552285 2,16 V 6 C 2,5.4477152 2.4477153,5 3,5 Z M 4.5,8 C 4.2238576,8 4,8.2238576 4,8.5 4,8.7761424 4.2238576,9 4.5,9 h 9 C 13.776142,9 14,8.7761424 14,8.5 14,8.2238576 13.776142,8 13.5,8 Z m 0,2 C 4.2238576,10 4,10.223858 4,10.5 4,10.776142 4.2238576,11 4.5,11 h 3 C 7.7761424,11 8,10.776142 8,10.5 8,10.223858 7.7761424,10 7.5,10 Z"
      id="path10"
      inkscape:connector-curvature="0"
      style="fill:#ffffff"/>
  </g>
</svg>
