<?xml version="1.0" encoding="iso-8859-1"?>
<!-- Generator: Adobe Illustrator 21.0.2, SVG Export Plug-In . SVG Version: 6.00 Build 0)  -->
<svg style="enable-background:new 0 0 64 64;" version="1.1" viewBox="0 0 64 64" x="0px"
     xml:space="preserve" xmlns="http://www.w3.org/2000/svg" y="0px">
<g id="_x32_5_network">
</g>
  <g id="_x32_4_webcam">
</g>
  <g id="_x32_3_VGA">
</g>
  <g id="_x32_2_setting">
</g>
  <g id="_x32_1_computer_fan">
</g>
  <g id="_x32_0_micro_sd">
</g>
  <g id="_x31_9_virus">
</g>
  <g id="_x31_8_laptop">
</g>
  <g id="_x31_7_mouse">
</g>
  <g id="_x31_6_mainboard">
</g>
  <g id="_x31_5_RAM">
</g>
  <g id="_x31_4_security">
</g>
  <g id="_x31_3_usb_cable">
</g>
  <g id="_x31_2_flashdisk">
</g>
  <g id="_x31_1_speaker">
</g>
  <g id="_x31_0_software">
</g>
  <g id="_x30_9_folder">
</g>
  <g id="_x30_8_keyboard">
</g>
  <g id="_x30_7_search">
</g>
  <g id="_x30_6_chip">
</g>
  <g id="_x30_5_printer">
</g>
  <g id="_x30_4_hardisk">
	<g>
		<path d="M52.2588,1H11.7412C9.3545,1,7.4121,2.9424,7.4121,5.3296V58.667c0,2.3892,1.9424,4.333,4.3291,4.333h40.5176
			c2.3867,0,4.3291-1.9438,4.3291-4.333V5.3296C56.5879,2.9424,54.6455,1,52.2588,1z M54.5879,58.667
			c0,1.2866-1.0449,2.333-2.3291,2.333H11.7412c-1.2842,0-2.3291-1.0464-2.3291-2.333V5.3296C9.4121,4.0449,10.457,3,11.7412,3
			h40.5176c1.2842,0,2.3291,1.0449,2.3291,2.3296V58.667z"/>
    <path d="M19.2773,9.6924c-1.75,0-3.1738,1.4233-3.1738,3.1729s1.4238,3.1729,3.1738,3.1729s3.1729-1.4233,3.1729-3.1729
			S21.0273,9.6924,19.2773,9.6924z M19.2773,14.0381c-0.6475,0-1.1738-0.5264-1.1738-1.1729s0.5264-1.1729,1.1738-1.1729
			c0.6465,0,1.1729,0.5264,1.1729,1.1729S19.9238,14.0381,19.2773,14.0381z"/>
    <path d="M44.7227,9.6924c-1.75,0-3.1729,1.4233-3.1729,3.1729s1.4229,3.1729,3.1729,3.1729s3.1738-1.4233,3.1738-3.1729
			S46.4727,9.6924,44.7227,9.6924z M44.7227,14.0381c-0.6465,0-1.1729-0.5264-1.1729-1.1729s0.5264-1.1729,1.1729-1.1729
			c0.6475,0,1.1738,0.5264,1.1738,1.1729S45.3701,14.0381,44.7227,14.0381z"/>
    <path d="M49.4014,5.5854H14.5986c-1.4346,0-2.6016,1.167-2.6016,2.6016v47.6226c0,1.4346,1.167,2.6016,2.6016,2.6016h34.8027
			c1.4346,0,2.6016-1.167,2.6016-2.6016V8.187C52.0029,6.7524,50.8359,5.5854,49.4014,5.5854z M13.9971,55.8096V39.6574
			c0.9331,1.6642,2.0969,3.1968,3.4682,4.5589c-0.0517,0.0853-0.1076,0.1667-0.1577,0.2534
			c-1.6094,3.3467,0.042,6.2471,2.2578,7.5259c0.8633,0.4985,1.8975,0.7993,2.9619,0.7993c1.666,0,3.4063-0.7378,4.6836-2.6094
			c0.0137-0.0205,0.0273-0.0415,0.04-0.063c0.0758-0.1312,0.1418-0.2665,0.2128-0.3997c0.4312,0.103,0.8716,0.1986,1.3299,0.2629
			c0.101,0.0142,0.1777,0.0967,0.1782,0.1987c0.0054,1.0402-0.0109,6.2267-0.0109,6.2267H14.5986
			C14.2678,56.4111,13.9971,56.1404,13.9971,55.8096z M19.4863,29.5859c0-6.9004,5.6133-12.5142,12.5137-12.5142
			s12.5137,5.6138,12.5137,12.5142c0,6.8979-5.6133,12.5103-12.5137,12.5103c-0.8511,0-1.6891-0.112-2.5139-0.2803
			c0.08-1.3238,0.045-2.3875,0.011-2.9487c-0.0244-0.4087-0.1006-1.6528-1.0576-2.2051c-0.8896-0.5142-1.9395-0.0996-2.6523,0.2554
			c-0.5054,0.252-1.4636,0.763-2.5956,1.5279C20.8368,36.1016,19.4863,32.9218,19.4863,29.5859z M26.6797,38.7075
			c0.3916-0.1958,0.6182-0.2588,0.7324-0.2783c0.0303,0.0913,0.0703,0.2627,0.0889,0.5596
			c0.1768,2.9224-0.2471,7.105-1.9629,10.1001c-1.3818,1.9956-3.4902,2.0313-4.9727,1.1743
			c-1.4902-0.8599-2.5176-2.7168-1.4902-4.8594C21.2627,41.6182,25.4482,39.3213,26.6797,38.7075z M50.0029,55.8096
			c0,0.3262-0.2754,0.6016-0.6016,0.6016H30.9609v-5.1772c0-0.1699,0.0039-0.3354,0.0078-0.4946
			c0.0195-0.8867,0.0576-2.5371-1.5264-2.6914c-0.3842-0.0349-0.7696-0.1011-1.1498-0.1825
			c0.4996-1.3615,0.8058-2.7476,0.9882-4.0281c0.8926,0.1691,1.8028,0.259,2.7192,0.259c8.0029,0,14.5137-6.5093,14.5137-14.5103
			c0-8.0029-6.5107-14.5142-14.5137-14.5142S17.4863,21.583,17.4863,29.5859c0,3.7678,1.4811,7.3666,4.0801,10.0631
			c-0.9972,0.805-2.0214,1.7759-2.9352,2.91c-2.2188-2.2847-3.8126-5.0763-4.6342-8.146V8.187c0-0.3262,0.2754-0.6016,0.6016-0.6016
			h34.8027c0.3262,0,0.6016,0.2754,0.6016,0.6016V55.8096z"/>
    <path d="M32,34.439c2.6758,0,4.8535-2.1772,4.8535-4.853c0-2.6782-2.1777-4.8569-4.8535-4.8569s-4.8535,2.1787-4.8535,4.8569
			C27.1465,32.2617,29.3242,34.439,32,34.439z M32,26.729c1.5732,0,2.8535,1.2817,2.8535,2.8569c0,1.5732-1.2803,2.853-2.8535,2.853
			s-2.8535-1.2798-2.8535-2.853C29.1465,28.0107,30.4268,26.729,32,26.729z"/>
    <path d="M45.3799,48.1191H35.0527c-1.1758,0-2.1328,0.9551-2.1328,2.1294v2.1729c0,1.1763,0.957,2.1328,2.1328,2.1328h10.3271
			c1.1748,0,2.1299-0.9565,2.1299-2.1328v-2.1729C47.5098,49.0742,46.5547,48.1191,45.3799,48.1191z M45.5098,52.4214
			c0,0.0718-0.0596,0.1328-0.1299,0.1328H35.0527c-0.0703,0-0.1328-0.062-0.1328-0.1328v-2.1729
			c0-0.0703,0.0605-0.1294,0.1328-0.1294h10.3271c0.0703,0,0.1299,0.0591,0.1299,0.1294V52.4214z"/>
    <path d="M21.5469,46.9878c0,0.5522,0.4473,0.9985,1,0.9985s1-0.4497,1-1.002s-0.4473-1-1-1s-1,0.4478-1,1V46.9878z"/>
	</g>
</g>
  <g id="_x30_3_disc">
</g>
  <g id="_x30_2_cpu">
</g>
  <g id="_x30_1_monitor">
</g>
</svg>
