<?xml version="1.0" encoding="iso-8859-1"?>
<!-- Generator: Adobe Illustrator 21.0.2, SVG Export Plug-In . SVG Version: 6.00 Build 0)  -->
<svg style="enable-background:new 0 0 64 64;" version="1.1" viewBox="0 0 64 64" x="0px"
     xml:space="preserve" xmlns="http://www.w3.org/2000/svg" y="0px">
<g id="_x32_5_network">
</g>
  <g id="_x32_4_webcam">
</g>
  <g id="_x32_3_VGA">
</g>
  <g id="_x32_2_setting">
</g>
  <g id="_x32_1_computer_fan">
</g>
  <g id="_x32_0_micro_sd">
</g>
  <g id="_x31_9_virus">
</g>
  <g id="_x31_8_laptop">
</g>
  <g id="_x31_7_mouse">
</g>
  <g id="_x31_6_mainboard">
</g>
  <g id="_x31_5_RAM">
</g>
  <g id="_x31_4_security">
</g>
  <g id="_x31_3_usb_cable">
</g>
  <g id="_x31_2_flashdisk">
</g>
  <g id="_x31_1_speaker">
</g>
  <g id="_x31_0_software">
	<g>
		<g>
			<path d="M51.7129,53.6924c-0.251,0-0.502-0.0938-0.6953-0.2817l-2.4873-2.4092c-0.3975-0.3843-0.4072-1.0171-0.0234-1.4141
				c0.3848-0.3975,1.0195-0.4058,1.4141-0.0225l1.7715,1.7158l4.7324-4.8545c0.3848-0.395,1.0195-0.4028,1.4141-0.0176
				c0.3955,0.3853,0.4033,1.0186,0.0176,1.4141l-5.4277,5.5679C52.2334,53.5913,51.9727,53.6924,51.7129,53.6924z"/>
		</g>
	</g>
    <g>
		<path d="M28.6484,10.1826h11.9971c0.5527,0,1-0.4478,1-1s-0.4473-1-1-1H28.6484c-0.5527,0-1,0.4478-1,1
			S28.0957,10.1826,28.6484,10.1826z"/>
      <path d="M56.0908,40.1466V24.4521c0-2.6079-2.1221-4.73-4.7305-4.73H48.709V8.4536c0-2.6084-2.123-4.7305-4.7334-4.7305H5.7305
			C3.1221,3.7231,1,5.8452,1,8.4536v24.1846c0,2.6104,2.1221,4.7339,4.7305,4.7339h2.6514v11.2651
			c0,2.6099,2.123,4.7334,4.7334,4.7334h29.755c1.429,4.0172,5.2585,6.9063,9.7596,6.9063C58.3477,60.2769,63,55.6265,63,49.9102
			C63,45.4069,60.1096,41.5759,56.0908,40.1466z M54.0908,24.4521v4.1919h-43.709v-4.1919c0-1.5054,1.2266-2.73,2.7334-2.73h38.2451
			C52.8662,21.7222,54.0908,22.9468,54.0908,24.4521z M5.7305,5.7231h38.2451c1.5068,0,2.7334,1.2251,2.7334,2.7305v4.1914H3V8.4536
			C3,6.9482,4.2246,5.7231,5.7305,5.7231z M5.7305,35.3721C4.2246,35.3721,3,34.1455,3,32.6382V14.645h43.709v5.0771H13.1152
			c-2.6104,0-4.7334,2.1221-4.7334,4.73v10.9199H5.7305z M42.3716,51.3231c0.0009,0.0167-0.0087,0.0304-0.0063,0.0475h-29.25
			c-1.5068,0-2.7334-1.2261-2.7334-2.7334V30.644h43.709v8.9985c-0.0171-0.0024-0.0345,0.0059-0.0517,0.0048
			C53.577,39.5841,53.109,39.54,52.6299,39.54c-5.7158,0-10.3662,4.6519-10.3662,10.3701
			C42.2637,50.3906,42.308,50.8599,42.3716,51.3231z M52.6299,58.2769c-4.6133,0-8.3662-3.7534-8.3662-8.3667
			c0-4.6152,3.7529-8.3701,8.3662-8.3701C57.2451,41.54,61,45.2949,61,49.9102C61,54.5234,57.2451,58.2769,52.6299,58.2769z"/>
      <path d="M35.0293,25.1812c0,0.5522,0.4473,1,1,1h12.002c0.5527,0,1-0.4478,1-1s-0.4473-1-1-1h-12.002
			C35.4766,24.1812,35.0293,24.6289,35.0293,25.1812z"/>
      <path
        d="M9.3271,10.1826h0.0029c0.5527,0,0.999-0.4478,0.999-1s-0.4492-1-1.002-1s-1,0.4478-1,1S8.7744,10.1826,9.3271,10.1826z"
      />
      <path d="M26.3721,24.1812c-0.5527,0-1,0.4478-1,1s0.4473,1,1,1h0.0039c0.5527,0,0.998-0.4478,0.998-1
			S26.9248,24.1812,26.3721,24.1812z"/>
      <path d="M21.5439,24.1812c-0.5527,0-1,0.4478-1,1s0.4473,1,1,1h0.0029c0.5527,0,0.999-0.4478,0.999-1
			S22.0967,24.1812,21.5439,24.1812z"/>
      <path d="M16.7148,24.1812c-0.5527,0-1,0.4478-1,1s0.4473,1,1,1h0.0039c0.5527,0,0.998-0.4478,0.998-1
			S17.2676,24.1812,16.7148,24.1812z"/>
      <path d="M14.3271,10.1826h0.0029c0.5527,0,0.999-0.4478,0.999-1s-0.4492-1-1.002-1s-1,0.4478-1,1S13.7744,10.1826,14.3271,10.1826
			z"/>
      <path d="M19.3271,10.1826h0.0029c0.5527,0,0.999-0.4478,0.999-1s-0.4492-1-1.002-1s-1,0.4478-1,1S18.7744,10.1826,19.3271,10.1826
			z"/>
	</g>
</g>
  <g id="_x30_9_folder">
</g>
  <g id="_x30_8_keyboard">
</g>
  <g id="_x30_7_search">
</g>
  <g id="_x30_6_chip">
</g>
  <g id="_x30_5_printer">
</g>
  <g id="_x30_4_hardisk">
</g>
  <g id="_x30_3_disc">
</g>
  <g id="_x30_2_cpu">
</g>
  <g id="_x30_1_monitor">
</g>
</svg>
