<?xml version="1.0" encoding="iso-8859-1"?>
<!-- Generator: Adobe Illustrator 21.0.2, SVG Export Plug-In . SVG Version: 6.00 Build 0)  -->
<svg style="enable-background:new 0 0 64 64;" version="1.1" viewBox="0 0 64 64" x="0px"
     xml:space="preserve" xmlns="http://www.w3.org/2000/svg" y="0px">
<g id="_x32_5_network">
</g>
  <g id="_x32_4_webcam">
</g>
  <g id="_x32_3_VGA">
</g>
  <g id="_x32_2_setting">
</g>
  <g id="_x32_1_computer_fan">
</g>
  <g id="_x32_0_micro_sd">
</g>
  <g id="_x31_9_virus">
</g>
  <g id="_x31_8_laptop">
</g>
  <g id="_x31_7_mouse">
</g>
  <g id="_x31_6_mainboard">
</g>
  <g id="_x31_5_RAM">
	<g>
		<g>
			<path d="M60.541,28.2539H24.3467c-0.3809,0-0.7354-0.1455-0.998-0.4097c-0.5371-0.54-0.5332-1.3774-0.5303-2.0508l0.001-3.9946
				c0-0.5522,0.4473-1,1-1H62c0.5527,0,1,0.4478,1,1v3.9922C63,27.1489,61.8965,28.2539,60.541,28.2539z M24.8242,26.2539H60.541
				c0.249,0,0.459-0.2119,0.459-0.4629v-2.9922H24.8193l-0.001,3.0049C24.8184,25.9229,24.8174,26.0977,24.8242,26.2539z"/>
		</g>
    <g>
			<path d="M62,22.7988c-0.5527,0-1-0.4478-1-1v-5.0371c-1.3623-0.4263-2.3535-1.7002-2.3535-3.2012S59.6377,10.7861,61,10.3599
				V7.8804c0-1.7344-1.4102-3.145-3.1445-3.145H6.1445C4.4102,4.7354,3,6.146,3,7.8804v2.4795
				c1.3623,0.4263,2.3535,1.6997,2.3535,3.2007S4.3623,16.3354,3,16.7617v5.0371c0,0.5522-0.4473,1-1,1s-1-0.4478-1-1v-5.8848
				c0-0.5522,0.4473-1,1-1c0.7461,0,1.3535-0.6074,1.3535-1.3535S2.7461,12.2075,2,12.2075c-0.5527,0-1-0.4478-1-1V7.8804
				c0-2.8369,2.3076-5.145,5.1445-5.145h51.7109C60.6924,2.7354,63,5.0435,63,7.8804v3.3271c0,0.5522-0.4473,1-1,1
				c-0.7461,0-1.3535,0.6069-1.3535,1.353S61.2539,14.9141,62,14.9141c0.5527,0,1,0.4478,1,1v5.8848
				C63,22.3511,62.5527,22.7988,62,22.7988z"/>
		</g>
    <g>
			<path d="M17.834,28.2539H3.459C2.1035,28.2539,1,27.1489,1,25.791v-3.9922c0-0.5522,0.4473-1,1-1h16.3643c0.5527,0,1,0.4478,1,1
				v3.9854c0.0029,0.6768,0.0068,1.5186-0.5322,2.0601C18.5693,28.1084,18.2148,28.2539,17.834,28.2539z M3,22.7988v2.9922
				c0,0.251,0.21,0.4629,0.459,0.4629h13.9004c0.0068-0.1592,0.0059-0.3389,0.0049-0.4609v-2.9941H3z"/>
		</g>
    <g>
			<path d="M23.8193,22.7988h-6.4082c-0.5527,0-1-0.4478-1-1s0.4473-1,1-1h6.4082c0.5527,0,1,0.4478,1,1
				S24.3721,22.7988,23.8193,22.7988z"/>
		</g>
    <g>
			<path d="M12.9102,28.2539c-0.5527,0-1-0.4478-1-1v-5.4551c0-0.5522,0.4473-1,1-1s1,0.4478,1,1v5.4551
				C13.9102,27.8062,13.4629,28.2539,12.9102,28.2539z M7.4551,28.2539c-0.5527,0-1-0.4478-1-1v-5.4551c0-0.5522,0.4473-1,1-1
				s1,0.4478,1,1v5.4551C8.4551,27.8062,8.0078,28.2539,7.4551,28.2539z"/>
		</g>
    <g>
			<path d="M29.2744,28.2539c-0.5527,0-1-0.4478-1-1v-5.4551c0-0.5522,0.4473-1,1-1s1,0.4478,1,1v5.4551
				C30.2744,27.8062,29.8271,28.2539,29.2744,28.2539z"/>
		</g>
    <g>
			<path d="M34.7256,28.2539c-0.5527,0-1-0.4478-1-1v-5.4551c0-0.5522,0.4473-1,1-1s1,0.4478,1,1v5.4551
				C35.7256,27.8062,35.2783,28.2539,34.7256,28.2539z"/>
		</g>
    <g>
			<path d="M40.1807,28.2539c-0.5527,0-1-0.4478-1-1v-5.4551c0-0.5522,0.4473-1,1-1s1,0.4478,1,1v5.4551
				C41.1807,27.8062,40.7334,28.2539,40.1807,28.2539z"/>
		</g>
    <g>
			<path d="M45.6357,28.2539c-0.5527,0-1-0.4478-1-1v-5.4551c0-0.5522,0.4473-1,1-1s1,0.4478,1,1v5.4551
				C46.6357,27.8062,46.1885,28.2539,45.6357,28.2539z"/>
		</g>
    <g>
			<path d="M51.0898,28.2539c-0.5527,0-1-0.4478-1-1v-5.4551c0-0.5522,0.4473-1,1-1s1,0.4478,1,1v5.4551
				C52.0898,27.8062,51.6426,28.2539,51.0898,28.2539z"/>
		</g>
    <g>
			<path d="M56.5449,28.2539c-0.5527,0-1-0.4478-1-1v-5.4551c0-0.5522,0.4473-1,1-1s1,0.4478,1,1v5.4551
				C57.5449,27.8062,57.0977,28.2539,56.5449,28.2539z"/>
		</g>
    <g>
			<path d="M33.3223,18.2588h-2.6445c-1.2266,0-2.2236-0.9961-2.2236-2.2202v-6.543c0-1.2261,0.9971-2.2236,2.2236-2.2236h2.6445
				c1.2266,0,2.2236,0.9976,2.2236,2.2236v6.543C35.5459,17.2627,34.5488,18.2588,33.3223,18.2588z M30.6777,9.272
				c-0.1191,0-0.2236,0.1045-0.2236,0.2236v6.543c0,0.1191,0.1025,0.2202,0.2236,0.2202h2.6445
				c0.1211,0,0.2236-0.1011,0.2236-0.2202v-6.543c0-0.1191-0.1045-0.2236-0.2236-0.2236H30.6777z"/>
		</g>
    <g>
			<path d="M23.542,18.2588h-2.6445c-1.2256,0-2.2227-0.9961-2.2227-2.2202v-6.543c0-1.2261,0.9971-2.2236,2.2227-2.2236h2.6445
				c1.2236,0,2.2197,0.9976,2.2197,2.2236v6.543C25.7617,17.2627,24.7656,18.2588,23.542,18.2588z M20.8975,9.272
				c-0.1182,0-0.2227,0.1045-0.2227,0.2236v6.543c0,0.1191,0.1016,0.2202,0.2227,0.2202h2.6445
				c0.1211,0,0.2197-0.0986,0.2197-0.2202v-6.543c0-0.1211-0.1006-0.2236-0.2197-0.2236H20.8975z"/>
		</g>
    <g>
			<path d="M43.1025,18.2588H40.458c-1.2236,0-2.2197-0.9961-2.2197-2.2202v-6.543c0-1.2261,0.9961-2.2236,2.2197-2.2236h2.6445
				c1.2256,0,2.2227,0.9976,2.2227,2.2236v6.543C45.3252,17.2627,44.3281,18.2588,43.1025,18.2588z M40.458,9.272
				c-0.1191,0-0.2197,0.1025-0.2197,0.2236v6.543c0,0.1216,0.0986,0.2202,0.2197,0.2202h2.6445
				c0.1211,0,0.2227-0.1011,0.2227-0.2202v-6.543c0-0.1191-0.1045-0.2236-0.2227-0.2236H40.458z"/>
		</g>
    <g>
			<path d="M13.7627,18.2588h-2.6484c-1.2236,0-2.2197-0.9961-2.2197-2.2202v-6.543c0-1.2261,0.9961-2.2236,2.2197-2.2236h2.6484
				c1.2236,0,2.2197,0.9976,2.2197,2.2236v6.543C15.9824,17.2627,14.9863,18.2588,13.7627,18.2588z M11.1143,9.272
				c-0.1191,0-0.2197,0.1025-0.2197,0.2236v6.543c0,0.1191,0.1006,0.2202,0.2197,0.2202h2.6484
				c0.1191,0,0.2197-0.1011,0.2197-0.2202v-6.543c0-0.1211-0.1006-0.2236-0.2197-0.2236H11.1143z"/>
		</g>
    <g>
			<path d="M52.8857,18.2588h-2.6484c-1.2236,0-2.2197-0.9961-2.2197-2.2202v-6.543c0-1.2261,0.9961-2.2236,2.2197-2.2236h2.6484
				c1.2236,0,2.2197,0.9976,2.2197,2.2236v6.543C55.1055,17.2627,54.1094,18.2588,52.8857,18.2588z M50.2373,9.272
				c-0.1191,0-0.2197,0.1025-0.2197,0.2236v6.543c0,0.1191,0.1006,0.2202,0.2197,0.2202h2.6484
				c0.1191,0,0.2197-0.1011,0.2197-0.2202v-6.543c0-0.1211-0.1006-0.2236-0.2197-0.2236H50.2373z"/>
		</g>
    <g>
			<path d="M40.1807,43.2012H2c-0.5527,0-1-0.4478-1-1v-3.9956c0-1.356,1.1035-2.4595,2.459-2.4595h36.1943
				c0.3809,0,0.7354,0.1455,0.998,0.4097c0.5371,0.54,0.5332,1.376,0.5303,2.0474l-0.001,3.998
				C41.1807,42.7534,40.7334,43.2012,40.1807,43.2012z M3,41.2012h36.1807l0.001-3.0078c0-0.1187,0.001-0.292-0.0049-0.4473H3.459
				C3.21,37.7461,3,37.9565,3,38.2056V41.2012z"/>
		</g>
    <g>
			<path d="M57.8555,61.2646H6.1445C3.3076,61.2646,1,58.9551,1,56.1162v-3.3237c0-0.5522,0.4473-1,1-1
				c0.7461,0,1.3535-0.6069,1.3535-1.353S2.7461,49.0859,2,49.0859c-0.5527,0-1-0.4478-1-1v-5.8848c0-0.5522,0.4473-1,1-1
				s1,0.4478,1,1v5.0371c1.3623,0.4263,2.3535,1.7002,2.3535,3.2012S4.3623,53.2139,3,53.6401v2.4761
				c0,1.7358,1.4102,3.1484,3.1445,3.1484h51.7109c1.7344,0,3.1445-1.4126,3.1445-3.1484v-2.4761
				c-1.3623-0.4263-2.3535-1.6997-2.3535-3.2007S59.6377,47.6646,61,47.2383v-5.0371c0-0.5522,0.4473-1,1-1s1,0.4478,1,1v5.8848
				c0,0.5522-0.4473,1-1,1c-0.7461,0-1.3535,0.6074-1.3535,1.3535s0.6074,1.353,1.3535,1.353c0.5527,0,1,0.4478,1,1v3.3237
				C63,58.9551,60.6924,61.2646,57.8555,61.2646z"/>
		</g>
    <g>
			<path d="M62,43.2012H45.6357c-0.5527,0-1-0.4478-1-1v-3.9888c-0.0029-0.6748-0.0068-1.5151,0.5322-2.0566
				c0.2627-0.2642,0.6172-0.4097,0.998-0.4097h14.375c1.3555,0,2.459,1.1035,2.459,2.4595v3.9956
				C63,42.7534,62.5527,43.2012,62,43.2012z M46.6357,41.2012H61v-2.9956c0-0.249-0.21-0.4595-0.459-0.4595H46.6406
				c-0.0068,0.1582-0.0059,0.3364-0.0049,0.458V41.2012z"/>
		</g>
    <g>
			<path d="M46.5889,43.2012h-6.4082c-0.5527,0-1-0.4478-1-1s0.4473-1,1-1h6.4082c0.5527,0,1,0.4478,1,1
				S47.1416,43.2012,46.5889,43.2012z"/>
		</g>
    <g>
			<path d="M56.5449,43.2012c-0.5527,0-1-0.4478-1-1v-5.4551c0-0.5522,0.4473-1,1-1s1,0.4478,1,1v5.4551
				C57.5449,42.7534,57.0977,43.2012,56.5449,43.2012z M51.0898,43.2012c-0.5527,0-1-0.4478-1-1v-5.4551c0-0.5522,0.4473-1,1-1
				s1,0.4478,1,1v5.4551C52.0898,42.7534,51.6426,43.2012,51.0898,43.2012z"/>
		</g>
    <g>
			<path d="M34.7256,43.2012c-0.5527,0-1-0.4478-1-1v-5.4551c0-0.5522,0.4473-1,1-1s1,0.4478,1,1v5.4551
				C35.7256,42.7534,35.2783,43.2012,34.7256,43.2012z"/>
		</g>
    <g>
			<path d="M29.2744,43.2012c-0.5527,0-1-0.4478-1-1v-5.4551c0-0.5522,0.4473-1,1-1s1,0.4478,1,1v5.4551
				C30.2744,42.7534,29.8271,43.2012,29.2744,43.2012z"/>
		</g>
    <g>
			<path d="M23.8193,43.2012c-0.5527,0-1-0.4478-1-1v-5.4551c0-0.5522,0.4473-1,1-1s1,0.4478,1,1v5.4551
				C24.8193,42.7534,24.3721,43.2012,23.8193,43.2012z"/>
		</g>
    <g>
			<path d="M18.3643,43.2012c-0.5527,0-1-0.4478-1-1v-5.4551c0-0.5522,0.4473-1,1-1s1,0.4478,1,1v5.4551
				C19.3643,42.7534,18.917,43.2012,18.3643,43.2012z"/>
		</g>
    <g>
			<path d="M12.9102,43.2012c-0.5527,0-1-0.4478-1-1v-5.4551c0-0.5522,0.4473-1,1-1s1,0.4478,1,1v5.4551
				C13.9102,42.7534,13.4629,43.2012,12.9102,43.2012z"/>
		</g>
    <g>
			<path d="M7.4551,43.2012c-0.5527,0-1-0.4478-1-1v-5.4551c0-0.5522,0.4473-1,1-1s1,0.4478,1,1v5.4551
				C8.4551,42.7534,8.0078,43.2012,7.4551,43.2012z"/>
		</g>
    <g>
			<path d="M33.3223,56.7246h-2.6445c-1.2266,0-2.2236-0.9961-2.2236-2.2202v-6.543c0-1.2261,0.9971-2.2236,2.2236-2.2236h2.6445
				c1.2266,0,2.2236,0.9976,2.2236,2.2236v6.543C35.5459,55.7285,34.5488,56.7246,33.3223,56.7246z M30.6777,47.7378
				c-0.1191,0-0.2236,0.1045-0.2236,0.2236v6.543c0,0.1191,0.1025,0.2202,0.2236,0.2202h2.6445
				c0.1211,0,0.2236-0.1011,0.2236-0.2202v-6.543c0-0.1191-0.1045-0.2236-0.2236-0.2236H30.6777z"/>
		</g>
    <g>
			<path d="M43.1025,56.7246H40.458c-1.2236,0-2.2197-0.9961-2.2197-2.2202v-6.543c0-1.2261,0.9961-2.2236,2.2197-2.2236h2.6445
				c1.2256,0,2.2227,0.9976,2.2227,2.2236v6.543C45.3252,55.7285,44.3281,56.7246,43.1025,56.7246z M40.458,47.7378
				c-0.1191,0-0.2197,0.1025-0.2197,0.2236v6.543c0,0.1216,0.0986,0.2202,0.2197,0.2202h2.6445
				c0.1211,0,0.2227-0.1011,0.2227-0.2202v-6.543c0-0.1191-0.1045-0.2236-0.2227-0.2236H40.458z"/>
		</g>
    <g>
			<path d="M23.542,56.7246h-2.6445c-1.2256,0-2.2227-0.9961-2.2227-2.2202v-6.543c0-1.2261,0.9971-2.2236,2.2227-2.2236h2.6445
				c1.2236,0,2.2197,0.9976,2.2197,2.2236v6.543C25.7617,55.7285,24.7656,56.7246,23.542,56.7246z M20.8975,47.7378
				c-0.1182,0-0.2227,0.1045-0.2227,0.2236v6.543c0,0.1191,0.1016,0.2202,0.2227,0.2202h2.6445
				c0.1211,0,0.2197-0.0986,0.2197-0.2202v-6.543c0-0.1211-0.1006-0.2236-0.2197-0.2236H20.8975z"/>
		</g>
    <g>
			<path d="M52.8857,56.7246h-2.6484c-1.2236,0-2.2197-0.9961-2.2197-2.2202v-6.543c0-1.2261,0.9961-2.2236,2.2197-2.2236h2.6484
				c1.2236,0,2.2197,0.9976,2.2197,2.2236v6.543C55.1055,55.7285,54.1094,56.7246,52.8857,56.7246z M50.2373,47.7378
				c-0.1191,0-0.2197,0.1025-0.2197,0.2236v6.543c0,0.1191,0.1006,0.2202,0.2197,0.2202h2.6484
				c0.1191,0,0.2197-0.1011,0.2197-0.2202v-6.543c0-0.1211-0.1006-0.2236-0.2197-0.2236H50.2373z"/>
		</g>
    <g>
			<path d="M13.7627,56.7246h-2.6484c-1.2236,0-2.2197-0.9961-2.2197-2.2202v-6.543c0-1.2261,0.9961-2.2236,2.2197-2.2236h2.6484
				c1.2236,0,2.2197,0.9976,2.2197,2.2236v6.543C15.9824,55.7285,14.9863,56.7246,13.7627,56.7246z M11.1143,47.7378
				c-0.1191,0-0.2197,0.1025-0.2197,0.2236v6.543c0,0.1191,0.1006,0.2202,0.2197,0.2202h2.6484
				c0.1191,0,0.2197-0.1011,0.2197-0.2202v-6.543c0-0.1211-0.1006-0.2236-0.2197-0.2236H11.1143z"/>
		</g>
	</g>
</g>
  <g id="_x31_4_security">
</g>
  <g id="_x31_3_usb_cable">
</g>
  <g id="_x31_2_flashdisk">
</g>
  <g id="_x31_1_speaker">
</g>
  <g id="_x31_0_software">
</g>
  <g id="_x30_9_folder">
</g>
  <g id="_x30_8_keyboard">
</g>
  <g id="_x30_7_search">
</g>
  <g id="_x30_6_chip">
</g>
  <g id="_x30_5_printer">
</g>
  <g id="_x30_4_hardisk">
</g>
  <g id="_x30_3_disc">
</g>
  <g id="_x30_2_cpu">
</g>
  <g id="_x30_1_monitor">
</g>
</svg>
