<?xml version="1.0" encoding="utf-8"?>
<!-- Generator: Adobe Illustrator 16.0.0, SVG Export Plug-In . SVG Version: 6.00 Build 0)  -->
<!DOCTYPE svg PUBLIC "-//W3C//DTD SVG 1.1//EN" "http://www.w3.org/Graphics/SVG/1.1/DTD/svg11.dtd">
<svg enable-background="new 0 0 128 128" height="128px" id="Layer_1" version="1.1" viewBox="0 0 128 128"
     width="128px" x="0px" xml:space="preserve" xmlns="http://www.w3.org/2000/svg" y="0px">
<g>
	<g>
		<path d="M64.003,128l-1.293-1.089c-2.148-1.811-52.611-44.669-52.611-73.615C10.099,23.908,34.28,0,64.003,0
			c29.719,0,53.898,23.908,53.898,53.296c0,28.946-50.457,71.805-52.605,73.615L64.003,128z M64.003,4.012
			c-27.51,0-49.892,22.108-49.892,49.284c0,24.642,41.931,62.472,49.892,69.431c7.96-6.959,49.887-44.789,49.887-69.431
			C113.89,26.121,91.511,4.012,64.003,4.012z" fill="#282D33"/>
	</g>
	<g>
		<g>
			<path d="M70.198,90.903H56.562l-0.795-9.437c-2.399-0.697-4.681-1.692-6.813-2.971l-7.048,5.895L32.25,74.84
				l6.191-7.233c-1.187-2.157-2.082-4.444-2.675-6.831l-9.209-0.76l0.003-13.527l9.55-0.789c0.701-2.353,1.701-4.596,2.986-6.7
				l-5.97-6.975l9.66-9.548l7.31,6.113c2.19-1.182,4.516-2.073,6.944-2.661l0.767-9.099h13.637l0.795,9.438
				c2.396,0.696,4.678,1.69,6.813,2.969l7.045-5.893l9.662,9.549l-6.194,7.235c1.185,2.154,2.08,4.442,2.674,6.832l9.211,0.757
				v13.529l-9.555,0.786c-0.702,2.36-1.701,4.604-2.984,6.703l5.968,6.976l-9.659,9.548l-7.31-6.113
				c-2.192,1.184-4.518,2.076-6.944,2.663L70.198,90.903z M60.25,86.891h6.26l0.708-8.423l1.502-0.281
				c2.973-0.558,5.786-1.631,8.364-3.193l1.227-0.742l6.682,5.588l4.408-4.359l-5.519-6.449l0.875-1.27
				c1.694-2.46,2.912-5.181,3.618-8.088l0.342-1.407l8.719-0.717v-6.137l-8.521-0.7l-0.288-1.496
				c-0.565-2.938-1.649-5.715-3.222-8.253l-0.772-1.247l5.646-6.595l-4.41-4.359l-6.523,5.459l-1.251-0.84
				c-2.5-1.681-5.26-2.886-8.201-3.584l-1.413-0.335l-0.727-8.621h-6.261l-0.71,8.426l-1.5,0.282
				c-2.978,0.559-5.792,1.632-8.365,3.191l-1.226,0.742l-6.681-5.587l-4.409,4.358l5.517,6.446l-0.873,1.27
				c-1.698,2.473-2.917,5.194-3.619,8.088l-0.341,1.406l-8.716,0.72l-0.001,6.138l8.519,0.704l0.287,1.495
				c0.565,2.934,1.649,5.71,3.223,8.252l0.771,1.245l-5.644,6.597l4.407,4.358l6.53-5.461l1.25,0.842
				c2.493,1.678,5.251,2.884,8.199,3.585l1.413,0.335L60.25,86.891z" fill="#282D33"/>
		</g>
		<g>
			<path d="M64.001,69.872c-8.916,0-16.169-7.18-16.169-16.005c0-8.826,7.253-16.005,16.169-16.005
				c8.915,0,16.169,7.18,16.169,16.005C80.17,62.692,72.916,69.872,64.001,69.872z M64.001,41.874
				c-6.703,0-12.157,5.38-12.157,11.993c0,6.613,5.454,11.993,12.157,11.993s12.156-5.38,12.156-11.993
				C76.157,47.254,70.704,41.874,64.001,41.874z" fill="#282D33"/>
		</g>
	</g>
</g>
</svg>
