<svg height="128" viewBox="0 0 128 128" width="128" xmlns="http://www.w3.org/2000/svg">
  <g>
    <path d="M120.419,92.024h-3.357V31.238a12.411,12.411,0,0,0-12.4-12.4H23.336a12.412,12.412,0,0,0-12.4,12.4V92.024H7.581a1.75,1.75,0,0,0-1.75,1.75v6.636a8.76,8.76,0,0,0,8.75,8.75h98.838a8.76,8.76,0,0,0,8.75-8.75V93.774A1.75,1.75,0,0,0,120.419,92.024ZM14.437,31.238a8.909,8.909,0,0,1,8.9-8.9h81.328a8.909,8.909,0,0,1,8.9,8.9V92.024H14.437ZM78.581,95.615a5.26,5.26,0,0,1-4.95,3.5H54.369a5.26,5.26,0,0,1-4.95-3.5Zm40.088,4.8a5.256,5.256,0,0,1-5.25,5.25H14.581a5.256,5.256,0,0,1-5.25-5.25V95.524c1.073-.011,34.326.008,36.45,0a8.762,8.762,0,0,0,8.588,7.091H73.631a8.76,8.76,0,0,0,8.587-7.091h36.451Z"/>
    <path d="M74.86,29.16c-12.723-.222-21.295,14.226-15.025,25.271l-23.3,23.3a1.749,1.749,0,0,0,0,2.475l4.4,4.4a1.748,1.748,0,0,0,2.474,0l2.933-2.932,3.173,3.173a1.75,1.75,0,0,0,2.474,0l4.24-4.241a1.748,1.748,0,0,0,0-2.474l-3.173-3.174,1.739-1.744,3.181,3.175a1.75,1.75,0,0,0,2.473,0l4.24-4.241a1.748,1.748,0,0,0,0-2.474L61.514,66.5,66.7,61.306a16.919,16.919,0,0,0,8.16,2.084C97.552,62.459,97.585,30.1,74.86,29.16Zm0,30.73a13.593,13.593,0,0,1-7.6-2.33,1.8,1.8,0,0,0-2.07.3l-7.389,7.4a1.748,1.748,0,0,0,0,2.473l3.173,3.173-1.767,1.767L56.026,69.5a1.75,1.75,0,0,0-2.475,0l-4.21,4.22a1.749,1.749,0,0,0,0,2.473l3.173,3.173L50.75,81.136l-3.173-3.173a1.749,1.749,0,0,0-2.475,0L42.17,80.9,40.244,78.97,63.277,55.938a1.75,1.75,0,0,0,.221-2.206A13.45,13.45,0,0,1,61.26,46.27a13.621,13.621,0,0,1,13.6-13.61C92.93,33.408,92.923,59.141,74.86,59.89Z"/>
    <path d="M78.49,36.35a6.6,6.6,0,0,0-6.6,6.58c.31,8.726,12.872,8.744,13.18,0A6.588,6.588,0,0,0,78.49,36.35Zm0,9.68a3.09,3.09,0,0,1,0-6.18A3.09,3.09,0,0,1,78.49,46.03Z"/>
  </g>
</svg>
