<?xml version="1.0" encoding="utf-8"?>
<!-- Generator: Adobe Illustrator 16.0.0, SVG Export Plug-In . SVG Version: 6.00 Build 0)  -->
<!DOCTYPE svg PUBLIC "-//W3C//DTD SVG 1.1//EN" "http://www.w3.org/Graphics/SVG/1.1/DTD/svg11.dtd">
<svg enable-background="new 0 0 128 128" height="128px" id="Layer_1" version="1.1" viewBox="0 0 128 128"
     width="128px" x="0px" xml:space="preserve" xmlns="http://www.w3.org/2000/svg" y="0px">
<g>
	<g>
		<path d="M82.471,113.926h-7.434v-4.008h4.2l0.95-4.393l1.271-0.269c1.768-0.373,3.531-0.903,5.24-1.576
			l1.286-0.507l3.072,3.374l6.718-3.844l-1.545-4.74l0.939-0.872c1.218-1.131,2.358-2.363,3.393-3.665l0.86-1.086l4.901,1.571
			l3.868-6.643l-4.204-3.769l0.357-1.215c0.419-1.419,0.74-2.868,0.956-4.306l0.206-1.375l5.658-1.203l0.002-7.659l-6.17-1.311
			l-0.3-1.222c-0.303-1.233-0.693-2.483-1.161-3.716l-0.488-1.286l4.704-4.213l-3.866-6.643l-6.435,2.061l-0.865-0.908
			c-0.816-0.856-1.69-1.679-2.598-2.444l-1.029-0.87l2.056-6.311l-6.714-3.847l-4.62,5.071l-1.22-0.382
			c-1.103-0.345-2.249-0.637-3.405-0.868l-1.288-0.257L78.36,34.1h-4.196v-4.008h7.43l1.541,7.115
			c0.433,0.103,0.862,0.212,1.288,0.328l5.08-5.577l12.333,7.064l-2.238,6.873c0.339,0.308,0.673,0.623,1,0.943l7.133-2.284
			l7.131,12.249l-5.109,4.573c0.186,0.551,0.356,1.102,0.514,1.652l6.91,1.467l-0.002,14.153l-6.144,1.305
			c-0.143,0.747-0.31,1.495-0.5,2.236l4.769,4.275l-7.131,12.245l-5.355-1.716c-0.633,0.738-1.297,1.453-1.985,2.14l1.769,5.429
			l-12.336,7.059l-3.395-3.728c-1.09,0.383-2.193,0.714-3.304,0.991L82.471,113.926z M74.478,93.422v-4.008
			c9.082,0,16.471-7.318,16.471-16.313c0-8.998-7.389-16.318-16.471-16.318v-4.009c11.292,0,20.479,9.118,20.479,20.327
			C94.956,84.306,85.77,93.422,74.478,93.422z" fill="#282D33"/>
	</g>
	<g>
		<path d="M64.202,128H8.627c-3.294,0-5.973-2.665-5.973-5.941V5.939C2.654,2.664,5.333,0,8.627,0h55.576
			c3.294,0,5.974,2.664,5.974,5.939v116.119C70.174,125.335,67.493,128,64.202,128z M8.627,4.008c-1.083,0-1.965,0.867-1.965,1.932
			v116.119c0,1.066,0.882,1.933,1.965,1.933h55.575c1.083,0,1.964-0.866,1.964-1.933L66.168,5.939c0-1.064-0.881-1.932-1.965-1.932
			H8.627z" fill="#282D33"/>
	</g>
	<g>
		<rect fill="#282D33" height="4.008" width="49.783" x="11.524" y="106.279"/>
	</g>
	<g>
		<rect fill="#282D33" height="4.008" width="49.783" x="11.524" y="18.015"/>
	</g>
	<g>
		<g>
			<rect fill="#282D33" height="4.008" width="21.218" x="25.806" y="8.792"/>
		</g>
	</g>
	<g>
		<rect fill="#282D33" height="4.009" width="5.182" x="33.824" y="113.727"/>
	</g>
	<g>
		<g>
			<rect fill="#282D33" height="20.426" width="4.008" x="111.895" y="105.825"/>
		</g>
		<g>
			<rect fill="#282D33" height="4.008" width="20.596" x="103.601" y="114.035"/>
		</g>
	</g>
	<g>
		<g>
			<polygon fill="#282D33" points="125.346,23.282 121.373,23.282 121.373,19.274 125.346,19.31 			"/>
		</g>
		<g>
			<path d="M117.49,23.282h-3.951v-4.008h3.951V23.282z M109.588,23.282h-3.952v-4.008h3.952V23.282z
				 M101.685,23.282h-3.951v-4.008h3.951V23.282z M93.782,23.282H89.83v-4.008h3.952V23.282z M85.879,23.282h-3.951v-4.008h3.951
				V23.282z" fill="#282D33"/>
		</g>
		<g>
			<polygon fill="#282D33" points="78.664,23.282 74.691,23.282 74.691,19.31 78.699,19.31 			"/>
		</g>
		<g>
			<rect fill="#282D33" height="5.057" width="4.008" x="74.691" y="9.283"/>
		</g>
		<g>
			<polygon fill="#282D33" points="78.664,4.437 74.691,4.402 74.691,0.429 78.664,0.429 			"/>
		</g>
		<g>
			<path d="M118.109,4.437h-3.951V0.429h3.951V4.437z M110.207,4.437h-3.952V0.429h3.952V4.437z M102.304,4.437
				h-3.951V0.429h3.951V4.437z M94.401,4.437h-3.952V0.429h3.952V4.437z M86.498,4.437h-3.951V0.429h3.951V4.437z" fill="#282D33"/>
		</g>
		<g>
			<polygon fill="#282D33" points="123.342,4.437 121.338,4.402 121.373,0.429 125.346,0.429 125.346,4.402 			"/>
		</g>
		<g>
			<rect fill="#282D33" height="5.058" width="4.008" x="121.338" y="9.371"/>
		</g>
	</g>
	<g>
		<rect fill="#282D33" height="4.008" width="27.643" x="22.594" y="83.412"/>
	</g>
	<g>
		<rect fill="#282D33" height="4.008" width="22.46" x="25.186" y="92.833"/>
	</g>
	<g>
		<path d="M44.189,62.12v-4.008c1.753,0,3.18-1.406,3.18-3.135V39.559c0-1.729-1.427-3.135-3.18-3.135H28.641
			c-1.753,0-3.18,1.406-3.18,3.135v15.419c0,1.729,1.427,3.135,3.18,3.135v4.008c-3.963,0-7.188-3.204-7.188-7.143V39.559
			c0-3.938,3.225-7.144,7.188-7.144h15.549c3.963,0,7.188,3.205,7.188,7.144v15.419C51.377,58.916,48.152,62.12,44.189,62.12z" fill="#282D33"/>
	</g>
	<g>
		<g>
			<path d="M46.421,72.419h-20.01l10.006-17.184L46.421,72.419z M33.381,68.411h6.068L36.415,63.2L33.381,68.411z" fill="#282D33"/>
		</g>
		<g>
			<rect fill="#282D33" height="7.539" width="4.008" x="35.172" y="71.208"/>
		</g>
	</g>
</g>
</svg>
