<?xml version="1.0" encoding="utf-8"?>
<!-- Generator: Adobe Illustrator 16.0.0, SVG Export Plug-In . SVG Version: 6.00 Build 0)  -->
<!DOCTYPE svg PUBLIC "-//W3C//DTD SVG 1.1//EN" "http://www.w3.org/Graphics/SVG/1.1/DTD/svg11.dtd">
<svg enable-background="new 0 0 128 128" height="128px" id="Layer_1" version="1.1" viewBox="0 0 128 128"
     width="128px" x="0px" xml:space="preserve" xmlns="http://www.w3.org/2000/svg" y="0px">
<g>
	<g>
		<g>
			<path d="M128,122.857H0V4.503h128V122.857z M4,118.857h120V8.503H4V118.857z" fill="#282D33"/>
		</g>
		<g>
			<path d="M128,23.049H0V4.503h128V23.049z M4,19.049h120V8.503H4V19.049z" fill="#282D33"/>
		</g>
		<g>
			<rect fill="#282D33" height="4" width="4.706" x="7.665" y="11.671"/>
		</g>
		<g>
			<rect fill="#282D33" height="4" width="4.709" x="15.811" y="11.671"/>
		</g>
		<g>
			<rect fill="#282D33" height="4" width="4.708" x="23.959" y="11.671"/>
		</g>
	</g>
	<g>
		<g>
			<g>
				<path d="M41.649,54.662l13.703,0.001v64.896H41.649V54.662 M37.713,50.726v72.771h21.576v-72.77L37.713,50.726
					L37.713,50.726z" fill="#282D33"/>
			</g>
		</g>
		<g>
			<rect fill="#282D33" height="4" width="21.576" x="37.713" y="51.026"/>
		</g>
		<g>
			<polygon fill="#282D33" points="92.287,119.379 88.287,119.379 88.287,34.74 71.516,34.74 71.516,119.379 67.516,119.379
				67.516,30.74 92.287,30.74 			"/>
		</g>
		<g>
			<rect fill="#282D33" height="4" width="9.987" x="80.3" y="39.594"/>
		</g>
		<g>
			<rect fill="#282D33" height="4" width="5.378" x="84.909" y="48.449"/>
		</g>
		<g>
			<rect fill="#282D33" height="4" width="9.987" x="80.3" y="57.301"/>
		</g>
		<g>
			<rect fill="#282D33" height="4" width="5.378" x="84.909" y="66.156"/>
		</g>
		<g>
			<rect fill="#282D33" height="4" width="9.987" x="80.3" y="75.01"/>
		</g>
		<g>
			<rect fill="#282D33" height="4" width="5.378" x="84.909" y="83.861"/>
		</g>
		<g>
			<rect fill="#282D33" height="4" width="9.987" x="80.3" y="92.717"/>
		</g>
		<g>
			<rect fill="#282D33" height="4" width="5.378" x="84.909" y="101.57"/>
		</g>
		<g>
			<rect fill="#282D33" height="4" width="9.987" x="80.3" y="110.426"/>
		</g>
		<g>
			<polygon fill="#282D33" points="58.777,53.026 54.777,53.026 54.777,50.624 48.5,39.035 42.229,50.623 42.229,53.026
				38.229,53.026 38.229,49.61 48.5,30.632 58.777,49.61 			"/>
		</g>
	</g>
</g>
</svg>
