<svg height="128" viewBox="0 0 128 128" width="128" xmlns="http://www.w3.org/2000/svg">
  <g>
    <path d="M63.865,28.075a1.749,1.749,0,0,0,1.75-1.75V12.884a1.75,1.75,0,1,0-3.5,0V26.325A1.749,1.749,0,0,0,63.865,28.075Z"/>
    <path d="M91.04,40.326a1.742,1.742,0,0,0,1.024-.332l10.819-7.827a1.75,1.75,0,0,0-2.051-2.836L90.014,37.158A1.761,1.761,0,0,0,91.04,40.326Z"/>
    <path d="M26.041,32.167,36.86,39.994a1.75,1.75,0,0,0,2.051-2.836L28.092,29.331A1.75,1.75,0,0,0,26.041,32.167Z"/>
    <path d="M96.793,64.2a1.75,1.75,0,0,0,1.75,1.75h12.91a1.75,1.75,0,0,0,0-3.5H98.543A1.749,1.749,0,0,0,96.793,64.2Z"/>
    <path d="M29.457,65.947a1.75,1.75,0,0,0,0-3.5H16.547a1.75,1.75,0,0,0,0,3.5Z"/>
    <path d="M107.453,104.016h-2.326v-3.6a5.756,5.756,0,0,0-5.75-5.75h-8.9c.018-1.144-.014-33.45,0-33.518-1.421-34.5-50.6-34.518-52.03,0V94.667h-8.9a5.756,5.756,0,0,0-5.75,5.75v3.6H21.472a5.757,5.757,0,0,0-5.75,5.75v5.35a1.749,1.749,0,0,0,1.75,1.75h93.981a1.749,1.749,0,0,0,1.75-1.75v-5.35A5.757,5.757,0,0,0,107.453,104.016ZM52.919,65.834h9.8v.739l-9.8,5.516Zm23.086-3.5H66.191c-.047-.041,9.818-5.907,9.814-5.929Zm-9.791,3.5h9.791v6.255l-9.791-5.514Zm-3.476-3.5H52.919V56.405C52.917,56.425,62.777,62.3,62.738,62.334Zm3.475,8.257L76.9,76.608a1.763,1.763,0,0,0,2.609-1.525V65.834h7.472V94.667H66.209ZM41.947,61.149a22.53,22.53,0,1,1,45.029,1.185H79.505V53.31a1.751,1.751,0,0,0-2.653-1.5l-12.39,7.456L52.071,51.81a1.762,1.762,0,0,0-2.652,1.5v9.024H41.947Zm0,4.685h7.472v9.249a1.75,1.75,0,0,0,2.608,1.525L62.713,70.59l0,24.077H41.947ZM27.3,100.417a2.253,2.253,0,0,1,2.25-2.25H99.377a2.253,2.253,0,0,1,2.25,2.25v3.6H27.3ZM109.7,113.366H19.222v-3.6a2.252,2.252,0,0,1,2.25-2.25h85.981a2.253,2.253,0,0,1,2.25,2.25Z"/>
  </g>
</svg>
