<svg height="128" viewBox="0 0 128 128" width="128" xmlns="http://www.w3.org/2000/svg">
  <g>
    <path d="M119.316,103.682,69.7,17.739c-2.311-4.327-9.084-4.343-11.394,0L8.684,103.682a6.579,6.579,0,0,0,5.7,9.868h99.238C118.522,113.712,121.922,107.855,119.316,103.682Zm-3.031,4.829a3.047,3.047,0,0,1-2.666,1.539H14.381a3.1,3.1,0,0,1-2.666-4.618L61.334,19.489a3.079,3.079,0,0,1,5.332,0l49.619,85.943A3.046,3.046,0,0,1,116.285,108.511Z"/>
    <path d="M63.526,78.72a5.267,5.267,0,0,0,6.062-5.115V42.323a5.119,5.119,0,0,0-5.114-5.113,5.267,5.267,0,0,0-6.062,5.113V73.605A5.12,5.12,0,0,0,63.526,78.72Zm-1.614-36.4a1.616,1.616,0,0,1,1.614-1.613h.948a1.616,1.616,0,0,1,1.614,1.613V73.605a1.617,1.617,0,0,1-1.614,1.615h-.948a1.617,1.617,0,0,1-1.614-1.615Z"/>
    <path d="M64,83.776a7.516,7.516,0,0,0-7.507,7.507c.352,9.936,14.663,9.933,15.014,0A7.515,7.515,0,0,0,64,83.776ZM64,95.29a4.007,4.007,0,0,1,0-8.014A4.007,4.007,0,0,1,64,95.29Z"/>
  </g>
</svg>
