<?xml version="1.0" encoding="utf-8"?>
<!-- Generator: Adobe Illustrator 16.0.0, SVG Export Plug-In . SVG Version: 6.00 Build 0)  -->
<!DOCTYPE svg PUBLIC "-//W3C//DTD SVG 1.1//EN" "http://www.w3.org/Graphics/SVG/1.1/DTD/svg11.dtd">
<svg version="1.1" id="Layer_1" xmlns="http://www.w3.org/2000/svg" x="0px" y="0px"
     width="128px" height="128px" viewBox="0 0 128 128" enable-background="new 0 0 128 128" xml:space="preserve">
<g>
	<g>
		<g>
			<path fill="#282D33" d="M82.668,54.47c-1.246,6.771-4.537,13.039-9.499,17.974c-6.49,6.462-15.126,10.018-24.314,10.018
				c-6.933,0-13.647-2.065-19.305-5.89L51.758,54.47H82.668 M87.106,50.525H50.131L23.583,76.944
				c6.993,6.118,15.874,9.464,25.271,9.464c10.237,0,19.861-3.969,27.097-11.168C82.66,68.567,86.567,59.867,87.106,50.525
				L87.106,50.525z"/>
		</g>
		<g>
			<path fill="#282D33" d="M55.297,14.687c13.542,2.495,24.168,12.733,27.109,26.098h-27.11L55.297,14.687 M51.353,10.235v34.495H87
				C85.287,25.968,70.26,11.42,51.353,10.235L51.353,10.235z"/>
		</g>
		<g>
			<path fill="#282D33" d="M48.705,96.375c-11.832,0-23.216-4.301-32.055-12.11l2.647-2.997
				c8.108,7.163,18.552,11.108,29.408,11.108c24.428-0.001,44.303-19.77,44.303-44.067C93.006,24.741,74.484,5.406,50.843,4.292
				l0.188-3.994C76.81,1.513,97.005,22.602,97.007,48.309C97.007,74.812,75.338,96.374,48.705,96.375z"/>
		</g>
		<g>
			<path fill="#282D33" d="M41.338,4.429v40.83L12.543,74.501C6.98,66.921,3.958,57.768,3.96,48.31
				C3.96,26.462,20.066,7.945,41.338,4.429 M45.283,0C19.99,1.749,0.016,22.704,0.016,48.309C0.014,60.63,4.645,71.865,12.26,80.412
				l33.023-33.538V0L45.283,0z"/>
		</g>
	</g>
	<g>
		<g>
			<g>
				<path fill="none" stroke="#282D33" stroke-width="4" d="M77.001,77.211"/>
			</g>
		</g>
		<g>
			<path fill="#282D33" d="M115.542,128c-1.633,0-3.256-0.327-4.822-0.974l-0.366-0.151L80.73,97.405l16.514-16.419l29.605,29.452
				l0.153,0.37c1.618,3.885,1.221,8.103-1.091,11.568C123.563,125.898,119.687,128,115.542,128z M112.597,123.467
				c3.716,1.362,7.817-0.055,9.987-3.309c1.488-2.23,1.796-4.931,0.865-7.462L97.244,86.627L86.402,97.406L112.597,123.467z"/>
		</g>
		<g>

				<rect x="96.167" y="90.884" transform="matrix(0.7053 0.7089 -0.7089 0.7053 98.6398 -40.6137)" fill="#282D33" width="3.999" height="14.887"/>
		</g>
		<g>
			<g>

					<rect x="80.433" y="83.914" transform="matrix(0.7087 0.7055 -0.7055 0.7087 85.5688 -35.427)" fill="#282D33" width="10.511" height="4"/>
			</g>
		</g>
	</g>
</g>
</svg>
