<svg height="128" viewBox="0 0 128 128" width="128" xmlns="http://www.w3.org/2000/svg">
  <g>
    <path d="M71.393,61.542C68.88,64.057,61.54,71.4,59.14,73.8L45.473,87.463a1.748,1.748,0,0,0-.06,2.411c1.7,1.877,3.544,3.727,5.581,5.588a129.084,129.084,0,0,0,11.977,9.57,1.744,1.744,0,0,0,1.019.328c23.357-15.337,35.751-32.114,37.109-69.3a1.788,1.788,0,0,0-3.366-.855ZM65.75,72.135,69.984,67.9a16.22,16.22,0,0,1-4.234,6.5Zm-1.76,29.317a106.036,106.036,0,0,1-14.852-12.7L60.425,77.46A20.073,20.073,0,0,0,63.1,79.4a1.786,1.786,0,0,0,1.805,0,19.577,19.577,0,0,0,7.844-8.985h5.215l3.724,6.8a1.75,1.75,0,1,0,3.07-1.681l-4.221-7.712A1.751,1.751,0,0,0,79,66.916H73.892a19.37,19.37,0,0,0,.457-3.38L97.386,40.5C95.4,72.375,83.973,86.917,63.99,101.452Z"/>
    <path d="M112.18,26.678a1.752,1.752,0,0,0-1.19-1.636L64.56,9.362a1.759,1.759,0,0,0-1.12,0L17.01,25.042a1.751,1.751,0,0,0-1.19,1.635c-.578,50.487,15.553,71.5,48.17,92.053C96.614,98.178,112.745,77.17,112.18,26.678ZM63.99,114.871C34.122,94.679,18.949,75.344,19.307,27.96L64,12.867,108.693,27.96C109.041,75.348,93.863,94.682,63.99,114.871Z"/>
    <path d="M63.44,20.972,28.05,32.932a1.751,1.751,0,0,0-1.19,1.7c.533,21.9,4.844,37.217,13.979,49.663a1.761,1.761,0,0,0,2.648.2c8.762-8.784,21.7-21.679,30.38-30.38l20.44-20.44a1.762,1.762,0,0,0-.678-2.895L64.56,20.972A1.753,1.753,0,0,0,63.44,20.972ZM61.318,47.247a4.768,4.768,0,0,1,7.06,2.123H59.622A4.761,4.761,0,0,1,61.318,47.247ZM65.75,57.285V52.87h4.415Zm-3.5,3.5-4.861,4.86c-.486-2.065-.212-7.916-.279-10.1V52.87h5.14ZM46.919,76.116l3.12-5.7h2.58ZM89.838,33.2,73.451,49.584a2.748,2.748,0,0,0-1.438-.214,8.231,8.231,0,0,0-2.632-4.426c.732-1.471,2.08-2.233,4.257-2.405a1.75,1.75,0,0,0-.276-3.489c-3.99.315-6.029,2.208-7.066,4.217a8.419,8.419,0,0,0-5.132.175c-1.3-2.242-3.834-4.326-8.746-4.4a1.75,1.75,0,0,0-.05,3.5c3.6.052,5.11,1.412,5.847,2.772a8.222,8.222,0,0,0-2.234,4.054H55.36a1.751,1.751,0,0,0-1.75,1.75v2.726H48.993l-3.724-6.8a1.75,1.75,0,0,0-3.07,1.681l4.221,7.711a1.749,1.749,0,0,0,1.536.91H53.61c.045,2.658-.215,7.013.491,9.57H49a1.751,1.751,0,0,0-1.535.91l-4.221,7.712a1.748,1.748,0,0,0,1.681,2.571l-2.447,2.447C34.77,69.257,31.012,55.317,30.4,35.833L64,24.477Z"/>
  </g>
</svg>
