<?xml version="1.0" encoding="utf-8"?>
<!-- Generator: Adobe Illustrator 16.0.0, SVG Export Plug-In . SVG Version: 6.00 Build 0)  -->
<!DOCTYPE svg PUBLIC "-//W3C//DTD SVG 1.1//EN" "http://www.w3.org/Graphics/SVG/1.1/DTD/svg11.dtd">
<svg enable-background="new 0 0 128 128" height="128px" id="Layer_1" version="1.1" viewBox="0 0 128 128"
     width="128px" x="0px" xml:space="preserve" xmlns="http://www.w3.org/2000/svg" y="0px">
<g>
	<g>
		<g>
			<polygon fill="#282D33" points="128,24.274 124,24.274 124,8.498 4,8.498 4,24.274 0,24.274 0,4.498 128,4.498 			"/>
		</g>
		<g>
			<rect fill="#282D33" height="4" width="5.237" x="8.305" y="13.978"/>
		</g>
		<g>
			<rect fill="#282D33" height="4" width="5.241" x="17.371" y="13.978"/>
		</g>
		<g>
			<rect fill="#282D33" height="4" width="5.241" x="26.441" y="13.978"/>
		</g>
		<g>
			<polygon fill="#282D33" points="128,100.941 110.064,100.941 110.064,96.941 124,96.941 124,29.119 4,29.119 4,96.941
				17.933,96.941 17.933,100.941 0,100.941 0,25.119 128,25.119 			"/>
		</g>
	</g>
	<g>
		<path d="M63.999,123.502l-0.568-0.168c-18.498-5.484-39.729-15.422-39.729-43.832V45.14l2.313,0.366
			c4.871,0.771,10.29,0.646,15.638-0.363c8.514-1.608,16.146-5.264,20.938-10.029L64,33.712l1.41,1.403
			c4.792,4.766,12.422,8.421,20.936,10.028c5.348,1.009,10.772,1.133,15.638,0.364l2.313-0.365v34.36
			c0,28.41-21.231,38.348-39.729,43.832L63.999,123.502z M27.701,49.759v29.743c0,20.225,10.865,32.16,36.298,39.826
			c25.433-7.666,36.297-19.602,36.297-39.826V49.759c-4.693,0.486-9.72,0.252-14.692-0.686C77.103,47.469,69.351,43.933,64,39.263
			c-5.351,4.668-13.104,8.205-21.606,9.811C37.42,50.011,32.396,50.245,27.701,49.759z" fill="#282D33"/>
	</g>
	<g>
		<path d="M63.998,95.727c-9.602,0-17.414-7.916-17.414-17.645c0-9.73,7.812-17.646,17.414-17.646
			c9.603,0,17.414,7.915,17.414,17.646C81.412,87.811,73.601,95.727,63.998,95.727z M63.998,64.437
			c-7.396,0-13.414,6.122-13.414,13.646s6.018,13.645,13.414,13.645s13.414-6.121,13.414-13.645S71.395,64.437,63.998,64.437z" fill="#282D33"/>
	</g>
	<g>
		<polygon fill="#282D33" points="63.088,84.928 56.359,80.523 58.549,77.176 62.209,79.572 68.971,70.969 72.115,73.439 		"/>
	</g>
</g>
</svg>
