<?xml version="1.0" encoding="utf-8"?>
<!-- Generator: Adobe Illustrator 16.0.0, SVG Export Plug-In . SVG Version: 6.00 Build 0)  -->
<!DOCTYPE svg PUBLIC "-//W3C//DTD SVG 1.1//EN" "http://www.w3.org/Graphics/SVG/1.1/DTD/svg11.dtd">
<svg enable-background="new 0 0 128 128" height="128px" id="Layer_1" version="1.1" viewBox="0 0 128 128"
     width="128px" x="0px" xml:space="preserve" xmlns="http://www.w3.org/2000/svg" y="0px">
<g>
	<g>
		<g>

				<rect fill="#282D33" height="4.041" transform="matrix(0.3395 0.9406 -0.9406 0.3395 39.4774 -33.9789)" width="10.941" x="38.462" y="9.098"/>
		</g>
		<g>

				<rect fill="#282D33" height="4.042" transform="matrix(0.6399 0.7685 -0.7685 0.6399 25.866 -12.3463)" width="10.911" x="20.651" y="19.405"/>
		</g>
		<g>

				<rect fill="#282D33" height="4.041" transform="matrix(0.8641 0.5032 -0.5032 0.8641 20.499 -1.4033)" width="10.879" x="7.409" y="35.245"/>
		</g>
		<g>

				<rect fill="#282D33" height="4.041" transform="matrix(0.9846 0.175 -0.175 0.9846 10.0127 -0.1334)" width="10.862" x="0.332" y="54.7"/>
		</g>
		<g>

				<rect fill="#282D33" height="10.858" transform="matrix(0.1746 0.9846 -0.9846 0.1746 80.9547 58.3103)" width="4.042" x="3.677" y="72.012"/>
		</g>
		<g>

				<rect fill="#282D33" height="10.875" transform="matrix(0.5031 0.8643 -0.8643 0.5031 90.0777 37.2265)" width="4.041" x="10.647" y="91.505"/>
		</g>
		<g>

				<rect fill="#282D33" height="4.043" transform="matrix(0.8641 0.5034 -0.5034 0.8641 64.6122 -44.7457)" width="10.887" x="109.71" y="95.237"/>
		</g>
		<g>

				<rect fill="#282D33" height="4.043" transform="matrix(0.9846 0.1746 -0.1746 0.9846 15.4607 -20.1462)" width="10.857" x="116.81" y="75.782"/>
		</g>
		<g>

				<rect fill="#282D33" height="10.858" transform="matrix(0.1745 0.9847 -0.9847 0.1745 157.1632 -73.3057)" width="4.041" x="120.281" y="51.651"/>
		</g>
		<g>

				<rect fill="#282D33" height="10.883" transform="matrix(0.5029 0.8644 -0.8644 0.5029 89.8191 -81.0035)" width="4.041" x="113.309" y="32.141"/>
		</g>
		<g>

				<rect fill="#282D33" height="10.913" transform="matrix(0.7686 0.6398 -0.6398 0.7686 37.5047 -60.3529)" width="4.041" x="100.154" y="16.207"/>
		</g>
		<g>

				<rect fill="#282D33" height="10.938" transform="matrix(0.9405 0.3398 -0.3398 0.9405 8.8425 -28.0115)" width="4.041" x="82.392" y="5.777"/>
		</g>
	</g>
	<g>
		<g>
			<g>
				<g>
					<path d="M69.967,23.237h-11.67V1.875h11.67V23.237z M62.337,19.196h3.589V5.916h-3.589V19.196z" fill="#282D33"/>
				</g>
				<g>
					<path d="M64.129,39.272c-4.27,0-7.744-3.498-7.744-7.796h4.042c0,2.07,1.661,3.755,3.703,3.755
						c2.041,0,3.703-1.685,3.703-3.755c0-2.071-1.662-3.755-3.703-3.755v-4.041c4.27,0,7.744,3.497,7.744,7.796
						C71.873,35.774,68.399,39.272,64.129,39.272z" fill="#282D33"/>
				</g>
				<g>
					<polygon fill="#282D33" points="45.615,56.936 42.521,54.334 62.583,30.477 65.676,30.477 85.736,54.334 82.643,56.936
						64.129,34.917 					"/>
				</g>
			</g>
		</g>
		<g>
			<path d="M82.969,126.125H44.348c-9.146,0-16.586-7.496-16.586-16.711V70.465c0-9.215,7.44-16.711,16.586-16.711
				h38.621c9.14,0,16.574,7.496,16.574,16.711v38.949C99.543,118.629,92.108,126.125,82.969,126.125z M44.348,57.795
				c-6.917,0-12.544,5.683-12.544,12.67v38.949c0,6.986,5.627,12.67,12.544,12.67h38.621c6.91,0,12.533-5.684,12.533-12.67V70.465
				c0-6.987-5.623-12.67-12.533-12.67H44.348z" fill="#282D33"/>
		</g>
		<g>
			<g>
				<path d="M66.219,110.663l-3.794-0.968V89.952h-22.33L54.106,54.24H81.26L68.31,72.867H86.86L66.219,110.663z
					 M46.021,85.91h20.446v15.869l13.582-24.871H60.58l12.948-18.627H56.862L46.021,85.91z" fill="#282D33"/>
			</g>
		</g>
	</g>
</g>
</svg>
