<?xml version="1.0" encoding="utf-8"?>
<!-- Generator: Adobe Illustrator 16.0.0, SVG Export Plug-In . SVG Version: 6.00 Build 0)  -->
<!DOCTYPE svg PUBLIC "-//W3C//DTD SVG 1.1//EN" "http://www.w3.org/Graphics/SVG/1.1/DTD/svg11.dtd">
<svg version="1.1" id="Layer_1" xmlns="http://www.w3.org/2000/svg" x="0px" y="0px"
     width="128px" height="128px" viewBox="0 0 128 128" enable-background="new 0 0 128 128" xml:space="preserve">
<g>
	<g>
		<g>

				<rect x="88.52" y="-5.408" transform="matrix(0.2613 0.9652 -0.9652 0.2613 78.0454 -78.8157)" fill="#282D33" width="3.998" height="33.986"/>
		</g>
		<g>

				<rect x="35.084" y="9.462" transform="matrix(0.2612 0.9653 -0.9653 0.2612 52.5366 -16.5553)" fill="#282D33" width="3.999" height="33.162"/>
		</g>
	</g>
	<g>
		<path fill="#282D33" d="M71.026,102.973H56.851v-72.03c-3.585-2.39-5.768-6.428-5.768-10.811c0-7.147,5.766-12.962,12.853-12.962
			c7.087,0,12.853,5.815,12.853,12.962c0,4.382-2.181,8.42-5.763,10.811V102.973z M60.849,98.975h6.18V28.619l1.052-0.566
			c2.906-1.563,4.711-4.599,4.711-7.921c0-4.942-3.972-8.963-8.855-8.963c-4.882,0-8.855,4.021-8.855,8.963
			c0,3.323,1.807,6.357,4.715,7.921l1.053,0.565V98.975z"/>
	</g>
	<g>
		<path fill="#282D33" d="M87.052,104.604h-3.998c0-0.996-0.584-1.631-0.984-1.631H45.798c-0.399,0-0.979,0.635-0.979,1.631h-3.998
			c0-3.104,2.233-5.629,4.978-5.629h36.271C84.816,98.975,87.052,101.5,87.052,104.604z"/>
	</g>
	<g>
		<path fill="#282D33" d="M93.373,122.783H34.499v-14.336h58.875V122.783z M38.497,118.785h50.878v-6.34H38.497V118.785z"/>
	</g>
	<g>
		<path fill="#282D33" d="M93.373,122.783H34.499v-14.336h58.875V122.783z M38.497,118.785h50.878v-6.34H38.497V118.785z"/>
	</g>
	<g>
		<g>
			<g>
				<polygon fill="#282D33" points="34.531,75.309 22.276,41.293 10.023,75.309 6.261,73.953 22.276,29.497 38.292,73.953 				"/>
			</g>
			<g>
				<path fill="#282D33" d="M22.276,91.99c-10.362,0-19.283-7.104-21.693-17.273L0,72.256h44.554l-0.583,2.461
					C41.558,84.887,32.637,91.99,22.276,91.99z M5.236,76.254c2.714,7.023,9.4,11.738,17.04,11.738
					c7.639,0,14.326-4.715,17.041-11.738H5.236z"/>
			</g>
		</g>
		<g>
			<g>
				<polygon fill="#282D33" points="117.978,52.702 105.723,18.686 93.468,52.702 89.706,51.347 105.723,6.888 121.739,51.346
					"/>
			</g>
			<g>
				<path fill="#282D33" d="M105.723,69.385c-10.366,0-19.287-7.105-21.693-17.279l-0.582-2.459H128l-0.583,2.46
					C125.004,62.28,116.084,69.385,105.723,69.385z M88.681,53.645c2.712,7.025,9.399,11.742,17.042,11.742
					c7.639,0,14.326-4.717,17.041-11.742H88.681z"/>
			</g>
		</g>
	</g>
	<g>
		<rect x="61.937" y="17.841" fill="#282D33" width="3.998" height="4.474"/>
	</g>
</g>
</svg>
