<svg xmlns="http://www.w3.org/2000/svg"  viewBox="0 0 80 80" width="128px" height="128px"><path d="M 40 5 C 37.800781 5 36 6.800781 36 9 L 36 10.46875 C 29.078125 12.046875 23.636719 17.617188 22.3125 24.710938 C 20.898438 25.46875 19.800781 26.773438 19.621094 28.464844 L 16.542969 56.921875 C 16.292969 59.25 14.339844 61 12 61 L 11 61 L 11 67 L 33 67 C 33 70.855469 36.144531 74 40 74 C 43.855469 74 47 70.855469 47 67 L 69 67 L 69 61 L 68 61 C 65.660156 61 63.707031 59.25 63.457031 56.921875 L 60.378906 28.464844 C 60.199219 26.773438 59.101563 25.46875 57.6875 24.710938 C 56.363281 17.617188 50.921875 12.046875 44 10.46875 L 44 9 C 44 6.800781 42.199219 5 40 5 Z M 40 7 C 41.117188 7 42 7.882813 42 9 L 42 10.125 C 41.34375 10.050781 40.675781 10 40 10 C 39.324219 10 38.65625 10.050781 38 10.125 L 38 9 C 38 7.882813 38.882813 7 40 7 Z M 40 12 C 47.925781 12 54.558594 17.757813 55.8125 25.417969 L 55.910156 25.988281 L 56.453125 26.191406 C 57.492188 26.578125 58.265625 27.515625 58.390625 28.675781 L 61.46875 57.136719 C 61.503906 57.457031 61.570313 57.761719 61.652344 58.0625 C 61.257813 58.210938 61 58.582031 61 59 C 61 59.550781 61.449219 60 62 60 C 62.160156 60 62.320313 59.960938 62.464844 59.886719 C 63.46875 61.429688 65.109375 62.507813 67 62.8125 L 67 65 L 13 65 L 13 62.8125 C 14.890625 62.507813 16.53125 61.429688 17.535156 59.886719 C 17.679688 59.960938 17.839844 60 18 60 C 18.550781 60 19 59.550781 19 59 C 19 58.582031 18.742188 58.210938 18.347656 58.0625 C 18.429688 57.761719 18.496094 57.457031 18.53125 57.136719 L 21.609375 28.675781 C 21.734375 27.515625 22.507813 26.578125 23.546875 26.191406 L 24.089844 25.988281 L 24.1875 25.417969 C 25.441406 17.757813 32.074219 12 40 12 Z M 26 24 C 25.449219 24 25 24.449219 25 25 C 25 25.550781 25.449219 26 26 26 C 26.550781 26 27 25.550781 27 25 C 27 24.449219 26.550781 24 26 24 Z M 30 24 C 29.449219 24 29 24.449219 29 25 C 29 25.550781 29.449219 26 30 26 C 30.550781 26 31 25.550781 31 25 C 31 24.449219 30.550781 24 30 24 Z M 34 24 C 33.449219 24 33 24.449219 33 25 C 33 25.550781 33.449219 26 34 26 C 34.550781 26 35 25.550781 35 25 C 35 24.449219 34.550781 24 34 24 Z M 38 24 C 37.449219 24 37 24.449219 37 25 C 37 25.550781 37.449219 26 38 26 C 38.550781 26 39 25.550781 39 25 C 39 24.449219 38.550781 24 38 24 Z M 42 24 C 41.449219 24 41 24.449219 41 25 C 41 25.550781 41.449219 26 42 26 C 42.550781 26 43 25.550781 43 25 C 43 24.449219 42.550781 24 42 24 Z M 46 24 C 45.449219 24 45 24.449219 45 25 C 45 25.550781 45.449219 26 46 26 C 46.550781 26 47 25.550781 47 25 C 47 24.449219 46.550781 24 46 24 Z M 50 24 C 49.449219 24 49 24.449219 49 25 C 49 25.550781 49.449219 26 50 26 C 50.550781 26 51 25.550781 51 25 C 51 24.449219 50.550781 24 50 24 Z M 54 24 C 53.449219 24 53 24.449219 53 25 C 53 25.550781 53.449219 26 54 26 C 54.550781 26 55 25.550781 55 25 C 55 24.449219 54.550781 24 54 24 Z M 22 58 C 21.449219 58 21 58.449219 21 59 C 21 59.550781 21.449219 60 22 60 C 22.550781 60 23 59.550781 23 59 C 23 58.449219 22.550781 58 22 58 Z M 26 58 C 25.449219 58 25 58.449219 25 59 C 25 59.550781 25.449219 60 26 60 C 26.550781 60 27 59.550781 27 59 C 27 58.449219 26.550781 58 26 58 Z M 30 58 C 29.449219 58 29 58.449219 29 59 C 29 59.550781 29.449219 60 30 60 C 30.550781 60 31 59.550781 31 59 C 31 58.449219 30.550781 58 30 58 Z M 34 58 C 33.449219 58 33 58.449219 33 59 C 33 59.550781 33.449219 60 34 60 C 34.550781 60 35 59.550781 35 59 C 35 58.449219 34.550781 58 34 58 Z M 38 58 C 37.449219 58 37 58.449219 37 59 C 37 59.550781 37.449219 60 38 60 C 38.550781 60 39 59.550781 39 59 C 39 58.449219 38.550781 58 38 58 Z M 42 58 C 41.449219 58 41 58.449219 41 59 C 41 59.550781 41.449219 60 42 60 C 42.550781 60 43 59.550781 43 59 C 43 58.449219 42.550781 58 42 58 Z M 46 58 C 45.449219 58 45 58.449219 45 59 C 45 59.550781 45.449219 60 46 60 C 46.550781 60 47 59.550781 47 59 C 47 58.449219 46.550781 58 46 58 Z M 50 58 C 49.449219 58 49 58.449219 49 59 C 49 59.550781 49.449219 60 50 60 C 50.550781 60 51 59.550781 51 59 C 51 58.449219 50.550781 58 50 58 Z M 54 58 C 53.449219 58 53 58.449219 53 59 C 53 59.550781 53.449219 60 54 60 C 54.550781 60 55 59.550781 55 59 C 55 58.449219 54.550781 58 54 58 Z M 58 58 C 57.449219 58 57 58.449219 57 59 C 57 59.550781 57.449219 60 58 60 C 58.550781 60 59 59.550781 59 59 C 59 58.449219 58.550781 58 58 58 Z M 35 67 L 45 67 C 45 69.773438 42.773438 72 40 72 C 37.226563 72 35 69.773438 35 67 Z"/></svg>