<svg height="128" viewBox="0 0 128 128" width="128" xmlns="http://www.w3.org/2000/svg">
  <path d="M120.536,41.928H7.464a1.75,1.75,0,0,1-1.75-1.75V27.32a6.758,6.758,0,0,1,6.75-6.75H115.536a6.758,6.758,0,0,1,6.75,6.75V40.178A1.75,1.75,0,0,1,120.536,41.928ZM9.214,38.428H118.786V27.32a3.254,3.254,0,0,0-3.25-3.25H12.464a3.254,3.254,0,0,0-3.25,3.25Z"/>
  <path d="M115.536,107.43H15.867A10.165,10.165,0,0,1,5.714,97.276v-57.1a1.75,1.75,0,0,1,1.75-1.75H120.536a1.75,1.75,0,0,1,1.75,1.75v60.5A6.758,6.758,0,0,1,115.536,107.43ZM9.214,41.928V97.276a6.661,6.661,0,0,0,6.653,6.654h99.669a3.254,3.254,0,0,0,3.25-3.25V41.928Z"/>
  <path d="M89.367,33h-37.8a1.75,1.75,0,0,1,0-3.5h37.8A1.75,1.75,0,0,1,89.367,33Z"/>
  <path d="M42.567,33h-9.45a1.75,1.75,0,0,1,0-3.5h9.45A1.75,1.75,0,0,1,42.567,33Z"/>
  <path d="M24.117,33H14.892a1.75,1.75,0,0,1,0-3.5h9.225A1.75,1.75,0,0,1,24.117,33Z"/>
  <path d="M24.117,69.6a1.749,1.749,0,0,1-1.75-1.75V53.9a1.75,1.75,0,0,1,3.5,0V67.848A1.75,1.75,0,0,1,24.117,69.6Z"/>
  <path d="M54.267,69.6a1.75,1.75,0,0,1-1.75-1.75V53.9a1.75,1.75,0,0,1,3.5,0V67.848A1.75,1.75,0,0,1,54.267,69.6Z"/>
  <path d="M54.417,92.323a1.75,1.75,0,0,1-1.75-1.75V76.623a1.75,1.75,0,0,1,3.5,0v13.95A1.75,1.75,0,0,1,54.417,92.323Z"/>
  <path d="M65.292,69.6a1.75,1.75,0,0,1-1.75-1.75V53.9a1.75,1.75,0,1,1,3.5,0V67.848A1.75,1.75,0,0,1,65.292,69.6Z"/>
  <path d="M65.517,92.323a1.75,1.75,0,0,1-1.75-1.75V76.623a1.75,1.75,0,0,1,3.5,0v13.95A1.75,1.75,0,0,1,65.517,92.323Z"/>
  <path d="M96.117,69.6a1.75,1.75,0,0,1-1.75-1.75V53.9a1.75,1.75,0,0,1,3.5,0V67.848A1.75,1.75,0,0,1,96.117,69.6Z"/>
  <path d="M106.917,69.6a1.75,1.75,0,0,1-1.75-1.75V53.9a1.75,1.75,0,1,1,3.5,0V67.848A1.749,1.749,0,0,1,106.917,69.6Z"/>
  <path d="M106.917,91.423a1.75,1.75,0,0,1-1.75-1.75V75.723a1.75,1.75,0,1,1,3.5,0v13.95A1.749,1.749,0,0,1,106.917,91.423Z"/>
  <path d="M95.817,91.423a1.75,1.75,0,0,1-1.75-1.75V75.723a1.75,1.75,0,0,1,3.5,0v13.95A1.749,1.749,0,0,1,95.817,91.423Z"/>
  <path d="M24.117,92.323a1.749,1.749,0,0,1-1.75-1.75V76.623a1.75,1.75,0,0,1,3.5,0v13.95A1.75,1.75,0,0,1,24.117,92.323Z"/>
  <path d="M39.417,69.6c-3.252,0-5.8-3.833-5.8-8.726.189-11.565,11.412-11.564,11.6,0C45.217,65.765,42.669,69.6,39.417,69.6Zm0-13.951c-.916,0-2.3,2.084-2.3,5.225S38.5,66.1,39.417,66.1s2.3-2.084,2.3-5.226S40.332,55.647,39.417,55.647Z"/>
  <path d="M39.267,92.323c-3.253,0-5.8-3.833-5.8-8.725.189-11.566,11.411-11.564,11.6,0C45.067,88.49,42.519,92.323,39.267,92.323Zm0-13.95c-.916,0-2.3,2.084-2.3,5.225s1.384,5.225,2.3,5.225,2.3-2.084,2.3-5.225S40.182,78.373,39.267,78.373Z"/>
  <path d="M80.667,91.423c-3.252,0-5.8-3.833-5.8-8.726.189-11.565,11.412-11.563,11.6,0C86.467,87.59,83.919,91.423,80.667,91.423Zm0-13.95c-.916,0-2.3,2.084-2.3,5.224s1.384,5.226,2.3,5.226,2.3-2.084,2.3-5.226S81.582,77.473,80.667,77.473Z"/>
  <path d="M80.705,69.6c-3.253,0-5.8-3.833-5.8-8.726.189-11.565,11.411-11.563,11.6,0C86.505,65.765,83.957,69.6,80.705,69.6Zm0-13.951c-.916,0-2.3,2.084-2.3,5.225s1.384,5.226,2.3,5.226,2.3-2.084,2.3-5.226S81.62,55.647,80.705,55.647Z"/>
</svg>
