<svg height="128" viewBox="0 0 128 128" width="128" xmlns="http://www.w3.org/2000/svg">
  <g>
    <path d="M120.419,101.449h-3.357V40.663a12.411,12.411,0,0,0-12.4-12.4H42.833c-1.715-4.51-1.568-7.249-.643-8.2.866-.89,2.973-.456,5.364,1.1,4.251,2.77,9.371,5.491,12.086.649a1.751,1.751,0,0,0-3.125-1.578c-.253.5-.5.626-.706.682-1.575.429-5.165-1.916-6.343-2.685-8.786-5.661-13.819.779-10.34,10.026H23.336a12.412,12.412,0,0,0-12.4,12.4v60.786H7.581a1.749,1.749,0,0,0-1.75,1.75v6.636a8.76,8.76,0,0,0,8.75,8.75h98.838a8.76,8.76,0,0,0,8.75-8.75V103.2A1.749,1.749,0,0,0,120.419,101.449ZM14.437,40.663a8.909,8.909,0,0,1,8.9-8.9H40.51c5.645,12.412,7.379,5.245-2.709,15.009a1.751,1.751,0,0,0,.032,2.522l5.745,5.39c-10.715,17.332,2.174,40.14,22.567,40,20.711.167,33.545-23.754,21.87-40.954A26.186,26.186,0,0,0,62.171,42.3l-2.763-7.375a1.749,1.749,0,0,0-2.314-1,61.037,61.037,0,0,0-8.786,4.559,64.424,64.424,0,0,1-3.929-6.72h60.285a8.909,8.909,0,0,1,8.9,8.9v60.786H14.437ZM47.273,55.389C56.1,42.224,76.39,42.208,85.1,55.67c11.23,16.785-3.726,39.108-23.5,35.06C45.74,87.774,37.906,68.573,47.273,55.389ZM45.6,51.781l-4.024-3.774a57.127,57.127,0,0,1,15.2-10.124l1.935,5.164A26.61,26.61,0,0,0,45.6,51.781ZM78.581,105.04a5.26,5.26,0,0,1-4.95,3.5H54.369a5.26,5.26,0,0,1-4.95-3.5Zm40.088,4.795a5.257,5.257,0,0,1-5.25,5.25H14.581a5.256,5.256,0,0,1-5.25-5.25v-4.886H45.782a8.76,8.76,0,0,0,8.587,7.091H73.631a8.76,8.76,0,0,0,8.587-7.091h36.451Z"/>
    <path d="M61.762,17.979a1.731,1.731,0,0,0,.967-.293l3.292-2.192a1.75,1.75,0,1,0-1.939-2.914L60.79,14.772A1.758,1.758,0,0,0,61.762,17.979Z"/>
    <path d="M61.968,21.336A1.751,1.751,0,0,0,63.34,23.4l3.877.776A1.75,1.75,0,0,0,67.9,20.74l-3.877-.776A1.749,1.749,0,0,0,61.968,21.336Z"/>
    <path d="M57.128,14.071A1.752,1.752,0,0,0,59.187,12.7l.778-3.878a1.75,1.75,0,0,0-3.432-.687l-.777,3.878A1.748,1.748,0,0,0,57.128,14.071Z"/>
    <path d="M66.542,52.58a12.852,12.852,0,0,1,10.053,2.6,1.75,1.75,0,0,0,2.07-2.823,16.4,16.4,0,0,0-12.682-3.23,1.75,1.75,0,1,0,.559,3.455Z"/>
  </g>
</svg>
