<?xml version="1.0" encoding="utf-8"?>
<!-- Generator: Adobe Illustrator 16.0.0, SVG Export Plug-In . SVG Version: 6.00 Build 0)  -->
<!DOCTYPE svg PUBLIC "-//W3C//DTD SVG 1.1//EN" "http://www.w3.org/Graphics/SVG/1.1/DTD/svg11.dtd">
<svg enable-background="new 0 0 128 128" height="128px" id="Layer_1" version="1.1" viewBox="0 0 128 128"
     width="128px" x="0px" xml:space="preserve" xmlns="http://www.w3.org/2000/svg" y="0px">
<g>
	<g>
		<path d="M91.071,117.341L63.61,79.147l46.492,15.268l-1.041,2.073c-3.795,7.558-9.296,14.148-16.352,19.59
			L91.071,117.341z M74.019,86.774l17.864,24.846c5.178-4.29,9.375-9.278,12.513-14.87L74.019,86.774z" fill="#282D33"/>
	</g>
	<g>
		<path d="M123.773,92.417L57.294,70.581V0l2.035,0.036c7,0.123,13.168,1.176,19.999,3.418
			c17.643,5.791,31.999,18.18,40.424,34.886c8.175,16.215,9.813,34.721,4.61,52.11L123.773,92.417z M61.293,67.686l59.796,19.641
			c4.215-15.823,2.494-32.501-4.909-47.186C108.238,24.389,94.707,12.71,78.08,7.253c-5.847-1.919-10.979-2.892-16.787-3.156V67.686
			z" fill="#282D33"/>
	</g>
	<g>
		<path d="M57.845,128h-0.004c-15.287,0-29.655-6.011-40.458-16.925C-4.924,88.53-4.923,51.848,17.384,29.304
			c9.005-9.1,19.619-14.606,31.548-16.367l2.292-0.338v59.848l2.731,3.73l31.967,44.467l-2.063,1.062
			C75.859,125.823,66.863,128,57.845,128z M47.225,17.284c-10.126,1.969-19.2,6.952-26.998,14.832
			c-20.773,20.993-20.774,55.151-0.001,76.146c10.046,10.149,23.404,15.738,37.615,15.738h0.004c7.607,0,15.195-1.665,22.092-4.833
			L50.718,78.524l-3.493-4.772V17.284z" fill="#282D33"/>
	</g>
</g>
</svg>
