<?xml version="1.0" encoding="utf-8"?>
<!-- Generator: Adobe Illustrator 16.0.0, SVG Export Plug-In . SVG Version: 6.00 Build 0)  -->
<!DOCTYPE svg PUBLIC "-//W3C//DTD SVG 1.1//EN" "http://www.w3.org/Graphics/SVG/1.1/DTD/svg11.dtd">
<svg enable-background="new 0 0 128 128" height="128px" id="Layer_1" version="1.1" viewBox="0 0 128 128"
     width="128px" x="0px" xml:space="preserve" xmlns="http://www.w3.org/2000/svg" y="0px">
<g>
	<g>
		<path d="M64,128c-0.809,0-1.613-0.016-2.414-0.045l0.151-3.999c1.273,0.049,2.565,0.055,3.844,0.022l0.107,3.998
			C65.129,127.992,64.564,128,64,128z M69.783,127.737l-0.367-3.982c1.279-0.118,2.564-0.277,3.816-0.474l0.619,3.951
			C72.516,127.442,71.146,127.612,69.783,127.737z M57.496,127.666c-1.353-0.139-2.721-0.324-4.065-0.552l0.667-3.943
			c1.259,0.213,2.54,0.387,3.807,0.517L57.496,127.666z M77.883,126.464l-0.879-3.902c1.248-0.28,2.498-0.605,3.721-0.965
			l1.131,3.836C80.551,125.817,79.213,126.164,77.883,126.464z M49.408,126.301c-1.338-0.317-2.671-0.681-3.962-1.079l1.181-3.822
			c1.206,0.373,2.452,0.712,3.705,1.009L49.408,126.301z M85.752,124.144l-1.379-3.754c1.189-0.438,2.387-0.922,3.553-1.44
			l1.623,3.656C88.303,123.159,87.023,123.677,85.752,124.144z M41.562,123.887c-1.274-0.485-2.548-1.02-3.789-1.587l1.664-3.637
			c1.162,0.531,2.356,1.031,3.549,1.485L41.562,123.887z M93.24,120.822l-1.859-3.543c1.131-0.592,2.256-1.229,3.344-1.892
			l2.082,3.416C95.645,119.511,94.445,120.19,93.24,120.822z M34.096,120.469c-1.197-0.646-2.391-1.34-3.549-2.064l2.123-3.391
			c1.085,0.679,2.203,1.329,3.325,1.934L34.096,120.469z M100.236,116.558l-2.297-3.273c1.037-0.729,2.07-1.505,3.072-2.308
			l2.504,3.119C102.447,114.953,101.344,115.781,100.236,116.558z M27.142,116.114c-1.107-0.797-2.202-1.64-3.251-2.504l2.542-3.088
			c0.983,0.81,2.009,1.599,3.046,2.346L27.142,116.114z M106.629,111.428l-2.699-2.954c0.943-0.86,1.869-1.764,2.756-2.684
			l2.881,2.775C108.621,109.546,107.633,110.51,106.629,111.428z M20.807,110.906c-0.997-0.934-1.974-1.909-2.902-2.896l2.915-2.74
			c0.87,0.927,1.786,1.84,2.722,2.716L20.807,110.906z M112.316,105.52l-3.055-2.584c0.826-0.976,1.631-1.989,2.393-3.015
			l3.211,2.385C114.053,103.398,113.195,104.479,112.316,105.52z M15.194,104.934c-0.867-1.05-1.711-2.14-2.508-3.24l3.24-2.346
			c0.748,1.031,1.539,2.054,2.353,3.039L15.194,104.934z M117.205,98.935l-3.357-2.174c0.691-1.069,1.359-2.178,1.986-3.296
			l3.49,1.955C118.656,96.611,117.943,97.794,117.205,98.935z M10.39,98.298c-0.726-1.15-1.423-2.339-2.074-3.532l3.513-1.914
			c0.609,1.119,1.264,2.233,1.945,3.313L10.39,98.298z M121.213,91.774l-3.607-1.729c0.549-1.145,1.07-2.33,1.551-3.522l3.711,1.492
			C122.355,89.287,121.799,90.552,121.213,91.774z M6.472,91.107c-0.574-1.237-1.114-2.504-1.605-3.767l3.729-1.449
			c0.459,1.184,0.966,2.371,1.504,3.53L6.472,91.107z M124.275,84.156l-3.801-1.248c0.4-1.22,0.766-2.461,1.084-3.69l3.871,1.004
			C125.09,81.533,124.701,82.856,124.275,84.156z M3.504,83.473c-0.411-1.297-0.784-2.625-1.111-3.947l3.883-0.961
			c0.307,1.24,0.657,2.485,1.042,3.701L3.504,83.473z M126.332,76.223l-3.928-0.756c0.238-1.246,0.441-2.524,0.604-3.797
			l3.969,0.502C126.805,73.53,126.588,74.893,126.332,76.223z M1.536,75.516c-0.242-1.341-0.443-2.707-0.598-4.059l3.974-0.455
			c0.146,1.266,0.334,2.547,0.561,3.803L1.536,75.516z M127.361,68.092l-3.992-0.25c0.08-1.275,0.121-2.569,0.121-3.846h4
			C127.49,65.355,127.447,66.733,127.361,68.092z M0.597,67.375c-0.058-1.121-0.087-2.258-0.086-3.38l0.004-0.717l4,0.042
			L4.51,63.996c0,1.054,0.027,2.12,0.082,3.172L0.597,67.375z M123.439,61.494c-0.053-1.279-0.146-2.57-0.277-3.838l3.979-0.412
			c0.139,1.349,0.238,2.725,0.295,4.086L123.439,61.494z M4.677,59.479l-3.99-0.296c0.1-1.355,0.245-2.727,0.43-4.074l3.963,0.545
			C4.907,56.919,4.771,58.205,4.677,59.479z M122.643,53.849c-0.213-1.262-0.471-2.53-0.762-3.771l3.895-0.916
			c0.311,1.322,0.584,2.674,0.811,4.018L122.643,53.849z M5.728,51.864l-3.92-0.799c0.272-1.333,0.59-2.675,0.946-3.989l3.861,1.046
			C6.28,49.354,5.982,50.614,5.728,51.864z M120.883,46.367c-0.371-1.219-0.787-2.443-1.238-3.639l3.744-1.409
			c0.48,1.276,0.924,2.584,1.32,3.885L120.883,46.367z M7.739,44.446l-3.786-1.293c0.44-1.29,0.93-2.583,1.452-3.843L9.1,40.844
			C8.61,42.025,8.152,43.236,7.739,44.446z M118.18,39.179c-0.52-1.154-1.088-2.314-1.689-3.447l3.533-1.874
			c0.643,1.208,1.248,2.446,1.803,3.678L118.18,39.179z M10.689,37.339L7.102,35.57c0.604-1.226,1.253-2.443,1.931-3.623
			l3.468,1.995C11.865,35.047,11.256,36.189,10.689,37.339z M114.582,32.398c-0.668-1.086-1.381-2.165-2.117-3.207l3.266-2.309
			c0.787,1.111,1.545,2.262,2.258,3.419L114.582,32.398z M14.524,30.669l-3.333-2.212c0.752-1.134,1.552-2.259,2.376-3.345
			l3.186,2.42C15.979,28.55,15.23,29.605,14.524,30.669z M110.146,26.126c-0.799-0.988-1.643-1.968-2.51-2.911l2.947-2.708
			c0.924,1.007,1.824,2.052,2.676,3.107L110.146,26.126z M19.177,24.544l-3.023-2.618c0.889-1.026,1.825-2.04,2.782-3.014
			l2.852,2.806C20.889,22.631,20.01,23.582,19.177,24.544z M104.945,20.468c-0.918-0.88-1.881-1.744-2.861-2.568l2.576-3.061
			c1.045,0.88,2.072,1.802,3.053,2.74L104.945,20.468z M24.57,19.066l-2.666-2.982c1.016-0.907,2.074-1.793,3.145-2.633l2.468,3.147
			C26.514,17.386,25.522,18.216,24.57,19.066z M99.064,15.52c-1.027-0.759-2.094-1.492-3.166-2.182l2.16-3.366
			c1.145,0.735,2.283,1.519,3.379,2.327L99.064,15.52z M30.616,14.325l-2.261-3.3c1.124-0.771,2.287-1.514,3.456-2.207l2.042,3.439
			C32.759,12.907,31.669,13.603,30.616,14.325z M92.596,11.367c-1.117-0.619-2.27-1.209-3.424-1.754l1.707-3.617
			c1.234,0.582,2.463,1.212,3.654,1.872L92.596,11.367z M37.216,10.404L35.4,6.84c1.216-0.619,2.464-1.204,3.71-1.74l1.58,3.675
			C39.523,9.276,38.354,9.824,37.216,10.404z M85.639,8.086c-1.178-0.466-2.396-0.9-3.621-1.292l1.219-3.811
			c1.309,0.419,2.611,0.884,3.873,1.382L85.639,8.086z M44.263,7.375l-1.338-3.771c1.282-0.455,2.598-0.873,3.91-1.244l1.088,3.85
			C46.694,6.558,45.462,6.949,44.263,7.375z M78.322,5.743c-1.234-0.308-2.498-0.579-3.756-0.807L75.277,1
			c1.344,0.243,2.693,0.532,4.012,0.861L78.322,5.743z M51.652,5.288l-0.833-3.913c1.334-0.284,2.693-0.527,4.039-0.723l0.575,3.959
			C54.173,4.794,52.901,5.022,51.652,5.288z M70.766,4.377c-1.266-0.145-2.555-0.249-3.832-0.313l0.197-3.995
			c1.361,0.067,2.736,0.179,4.088,0.333L70.766,4.377z M59.251,4.181l-0.317-3.987C60.29,0.086,61.668,0.021,63.031,0l0.061,4
			C61.814,4.019,60.522,4.08,59.251,4.181z" fill="#282D33"/>
	</g>
	<g>
		<g>
			<g>
				<path d="M63.998,112.713c-0.484,0-0.968-0.175-1.35-0.524L11.894,65.756c-0.609-0.557-0.813-1.431-0.514-2.199
					c0.299-0.77,1.039-1.276,1.864-1.276h101.514c0.824,0,1.564,0.507,1.863,1.276c0.299,0.769,0.096,1.643-0.514,2.199
					l-50.76,46.433C64.965,112.538,64.481,112.713,63.998,112.713z M18.393,66.28l45.604,41.721l45.61-41.721H18.393z" fill="#282D33"/>
			</g>
			<g>
				<path d="M63.998,112.713L63.998,112.713c-0.768,0-1.468-0.439-1.802-1.132L39.823,65.148
					c-0.299-0.62-0.258-1.35,0.108-1.932c0.366-0.583,1.005-0.937,1.694-0.937h44.751c0.688,0,1.328,0.354,1.693,0.937
					s0.406,1.313,0.107,1.932l-22.379,46.433C65.465,112.273,64.766,112.713,63.998,112.713z M44.809,66.28l19.189,39.824
					L83.191,66.28H44.809z" fill="#282D33"/>
			</g>
		</g>
		<g>
			<g>
				<path d="M114.758,66.413H13.244c-0.762,0-1.458-0.433-1.794-1.116s-0.255-1.499,0.209-2.104l13.966-18.149
					c0.378-0.492,0.964-0.78,1.585-0.78h73.583c0.621,0,1.207,0.288,1.586,0.78l13.963,18.149c0.465,0.604,0.547,1.42,0.209,2.104
					C116.215,65.98,115.52,66.413,114.758,66.413z M17.307,62.413h93.389L99.809,48.264H28.194L17.307,62.413z" fill="#282D33"/>
			</g>
			<g>
				<path d="M86.377,66.413H41.625l-1.268-3.547L62.73,44.533h2.536l22.379,18.333L86.377,66.413z M47.222,62.413
					h33.558L63.998,48.666L47.222,62.413z" fill="#282D33"/>
			</g>
			<g>
				<path d="M41.443,66.413h-28.2c-0.762,0-1.458-0.433-1.794-1.116s-0.255-1.499,0.209-2.104l13.966-18.149
					c0.753-0.98,2.44-0.986,3.202-0.013l14.193,18.15c0.471,0.603,0.557,1.42,0.222,2.107S42.208,66.413,41.443,66.413z
					 M17.307,62.413H37.34L27.243,49.5L17.307,62.413z" fill="#282D33"/>
			</g>
			<g>
				<path d="M114.758,66.413H86.564c-0.766,0-1.463-0.437-1.799-1.124c-0.334-0.688-0.248-1.505,0.223-2.107
					l14.193-18.15c0.764-0.974,2.445-0.967,3.197,0.013l13.963,18.149c0.465,0.604,0.547,1.42,0.209,2.104
					C116.215,65.98,115.52,66.413,114.758,66.413z M90.666,62.413h20.029l-9.934-12.91L90.666,62.413z" fill="#282D33"/>
			</g>
		</g>
	</g>
	<g>
		<g>

				<rect fill="#282D33" height="21.155" transform="matrix(0.71 0.7042 -0.7042 0.71 36.6071 -46.1253)" width="4" x="72.31" y="10.809"/>
		</g>
		<g>

				<rect fill="#282D33" height="4" transform="matrix(0.7042 0.71 -0.71 0.7042 37.1657 -46.4343)" width="21.154" x="63.733" y="19.386"/>
		</g>
	</g>
	<g>
		<g>

				<rect fill="#282D33" height="13.177" transform="matrix(0.7101 0.7041 -0.7041 0.7101 35.4861 -24.0954)" width="4" x="45.004" y="24.457"/>
		</g>
		<g>

				<rect fill="#282D33" height="4" transform="matrix(0.7042 0.71 -0.71 0.7042 35.9454 -24.19)" width="13.178" x="40.416" y="29.045"/>
		</g>
	</g>
</g>
</svg>
