<?xml version="1.0" encoding="utf-8"?>
<!-- Generator: Adobe Illustrator 16.0.0, SVG Export Plug-In . SVG Version: 6.00 Build 0)  -->
<!DOCTYPE svg PUBLIC "-//W3C//DTD SVG 1.1//EN" "http://www.w3.org/Graphics/SVG/1.1/DTD/svg11.dtd">
<svg enable-background="new 0 0 128 128" height="128px" id="Layer_1" version="1.1" viewBox="0 0 128 128"
     width="128px" x="0px" xml:space="preserve" xmlns="http://www.w3.org/2000/svg" y="0px">
<g>
	<g>
		<path d="M64,128C29.028,128,0.576,99.289,0.576,63.999h4C4.576,97.084,31.233,124,64,124
			s59.424-26.916,59.424-60.001C123.424,30.916,96.767,4,64,4V0c34.972,0,63.424,28.71,63.424,63.999
			C127.424,99.289,98.972,128,64,128z" fill="#282D33"/>
	</g>
	<g>
		<g>
			<path d="M4.576,63.999h-4c0-0.672,0.01-1.345,0.031-2.012l3.998,0.124C4.585,62.737,4.576,63.368,4.576,63.999z" fill="#282D33"
				/>
		</g>
		<g>
			<path d="M4.85,58.2l-3.982-0.378c0.134-1.413,0.318-2.841,0.545-4.244l3.948,0.641
				C5.148,55.535,4.976,56.874,4.85,58.2z M6.136,50.281l-3.896-0.902c0.32-1.384,0.692-2.775,1.104-4.135l3.828,1.161
				C6.785,47.68,6.437,48.984,6.136,50.281z M8.466,42.602l-3.741-1.415c0.502-1.328,1.057-2.658,1.649-3.954l3.639,1.661
				C9.457,40.11,8.937,41.357,8.466,42.602z M11.802,35.3l-3.519-1.902c0.675-1.249,1.402-2.493,2.161-3.697l3.385,2.132
				C13.117,32.962,12.435,34.129,11.802,35.3z M16.082,28.51l-3.234-2.354c0.836-1.149,1.723-2.285,2.633-3.375l3.07,2.563
				C17.697,26.367,16.866,27.432,16.082,28.51z M21.225,22.351l-2.892-2.764c0.984-1.03,2.014-2.038,3.059-2.995l2.7,2.951
				C23.113,20.44,22.148,21.384,21.225,22.351z M27.142,16.933l-2.498-3.124c1.109-0.887,2.264-1.748,3.431-2.559l2.282,3.285
				C29.263,15.295,28.181,16.102,27.142,16.933z M33.726,12.359L31.67,8.927c1.218-0.729,2.478-1.427,3.743-2.074l1.819,3.563
				C36.047,11.021,34.867,11.675,33.726,12.359z M40.862,8.717l-1.571-3.679c1.306-0.558,2.648-1.078,3.989-1.546l1.318,3.776
				C43.343,7.708,42.085,8.195,40.862,8.717z M48.427,6.081l-1.056-3.858c1.371-0.375,2.773-0.708,4.168-0.988l0.789,3.922
				C51.022,5.418,49.71,5.73,48.427,6.081z M56.283,4.5l-0.519-3.966c1.37-0.179,2.765-0.315,4.146-0.404l0.257,3.992
				C58.873,4.205,57.566,4.333,56.283,4.5z" fill="#282D33"/>
		</g>
		<g>
			<path d="M62.112,4.029l-0.124-3.998C62.655,0.01,63.328,0,64,0v4C63.369,4,62.738,4.009,62.112,4.029z" fill="#282D33"/>
		</g>
	</g>
	<g>
		<path d="M79.518,94.626L64,78.965L48.481,94.626L33.657,79.664l15.518-15.663L33.657,48.34L48.48,33.374L64,49.036
			l15.518-15.662L94.343,48.34L78.825,64.001l15.518,15.663L79.518,94.626z M39.288,79.664l9.193,9.278L64,73.281l15.518,15.661
			l9.194-9.278L73.194,64.001L88.712,48.34l-9.194-9.282L64,54.72L48.481,39.058l-9.194,9.282l15.518,15.662L39.288,79.664z" fill="#282D33"/>
	</g>
</g>
</svg>
