<?xml version="1.0" encoding="utf-8"?>
<!-- Generator: Adobe Illustrator 16.0.0, SVG Export Plug-In . SVG Version: 6.00 Build 0)  -->
<!DOCTYPE svg PUBLIC "-//W3C//DTD SVG 1.1//EN" "http://www.w3.org/Graphics/SVG/1.1/DTD/svg11.dtd">
<svg enable-background="new 0 0 128 128" height="128px" id="Layer_1" version="1.1" viewBox="0 0 128 128"
     width="128px" x="0px" xml:space="preserve" xmlns="http://www.w3.org/2000/svg" y="0px">
<g>
	<g>
		<rect fill="#282D33" height="4" width="5.549" x="57.632" y="79.048"/>
	</g>
	<g>
		<path d="M116.245,83.048H77.368v-4l37.26,0.012c0.221-0.019,0.415-0.015,0.558-0.015l0.34,0.003
			c4.673,0,8.475-3.863,8.475-8.611c0-4.679-3.607-8.451-8.212-8.59l-2.178-0.065l0.251-2.163c0.105-0.911,0.156-1.733,0.156-2.515
			c0-11.675-9.364-21.173-20.875-21.173c-1.862,0-3.759,0.271-5.639,0.804l-2.219,0.63l-0.31-2.285
			C82.847,19.338,69.405,7.468,53.711,7.468c-17.409,0-31.573,14.354-31.573,31.997l0.005,2.007l-1.77,0.205
			C11.039,42.757,4,50.762,4,60.297c0,10.34,8.292,18.751,18.485,18.751h21.721v4H22.485C10.087,83.048,0,72.842,0,60.297
			C0,49.331,7.695,40.03,18.168,37.975C18.943,18.813,34.589,3.468,53.711,3.468c16.958,0,31.578,12.278,34.868,28.903
			c1.523-0.292,3.051-0.44,4.563-0.44c13.716,0,24.875,11.293,24.875,25.173c0,0.322-0.007,0.648-0.021,0.982
			C123.748,59.231,128,64.303,128,70.437c0,6.708-5.208,12.21-11.751,12.591L116.245,83.048z" fill="#282D33"/>
	</g>
	<g>
		<path d="M108.864,60.476l-3.973-0.459c0.07-0.612,0.104-1.138,0.104-1.607c0-7.357-5.896-13.342-13.143-13.342
			c-1.156,0-2.352,0.173-3.553,0.514l-1.092-3.848c1.557-0.442,3.119-0.666,4.645-0.666c9.452,0,17.143,7.779,17.143,17.342
			C108.996,59.033,108.953,59.709,108.864,60.476z" fill="#282D33"/>
	</g>
	<g>
		<path d="M27.167,40.932l-0.006-0.229c0-15.515,12.488-28.096,27.839-28.096v4c-13.146,0-23.84,10.786-23.84,24.045
			l0.005,0.179L27.167,40.932z" fill="#282D33"/>
	</g>
	<g>
		<path d="M13.021,61.601h-4c0-7.583,5.613-13.95,13.057-14.811l0.459,3.974
			C17.112,51.391,13.021,56.05,13.021,61.601z" fill="#282D33"/>
	</g>
	<g>
		<g>
			<polygon fill="#282D33" points="60.473,51.765 50.982,42.159 41.494,51.765 38.648,48.953 50.982,36.468 63.319,48.953 			"/>
		</g>
		<g>
			<rect fill="#282D33" height="43.207" width="4" x="48.983" y="40.259"/>
		</g>
	</g>
	<g>
		<g>
			<polygon fill="#282D33" points="70.102,124.532 57.765,112.048 60.609,109.235 70.102,118.841 79.591,109.236 82.437,112.047
				"/>
		</g>
		<g>
			<rect fill="#282D33" height="42.281" width="4" x="68.101" y="78.461"/>
		</g>
	</g>
</g>
</svg>
