<?xml version="1.0" encoding="utf-8"?>
<!-- Generator: Adobe Illustrator 16.0.0, SVG Export Plug-In . SVG Version: 6.00 Build 0)  -->
<!DOCTYPE svg PUBLIC "-//W3C//DTD SVG 1.1//EN" "http://www.w3.org/Graphics/SVG/1.1/DTD/svg11.dtd">
<svg enable-background="new 0 0 128 128" height="128px" id="Layer_1" version="1.1" viewBox="0 0 128 128"
     width="128px" x="0px" xml:space="preserve" xmlns="http://www.w3.org/2000/svg" y="0px">
<g>
	<g>
		<g>
			<path d="M115.209,89.563h-1.029v-4h0.381c5.402-1.919,9.439-7.948,9.439-14.168c0-5.52-3.031-10.412-7.912-12.77
				l-1.012-0.488l-0.107-1.118C113.697,44,102.967,34.182,90.01,34.182l-1.877,0.033l-0.461-1.403
				C82.949,18.48,69.746,8.853,54.817,8.853c-17.157,0-31.897,12.928-34.288,30.072l-0.167,1.196l-1.137,0.409
				C10.119,43.805,4,52.582,4,62.372C4,75.16,14.292,85.563,26.943,85.563v4C12.087,89.563,0,77.365,0,62.372
				C0,51.306,6.683,41.34,16.75,37.198C19.91,18.676,36.07,4.853,54.817,4.853c16.181,0,30.542,10.126,36.177,25.345
				c14.221,0.473,25.924,11.137,27.828,25.346c5.689,3.191,9.178,9.166,9.178,15.853c0,8.116-5.254,15.716-12.49,18.07
				L115.209,89.563z" fill="#282D33"/>
		</g>
		<g>
			<path d="M28.496,42.704l-0.005-0.206c0-13.931,11.243-25.226,25.063-25.226v4c-11.615,0-21.064,9.5-21.064,21.178
				l0.004,0.159L28.496,42.704z" fill="#282D33"/>
		</g>
		<g>
			<path d="M16.3,61.098h-4c0-6.86,5.093-12.621,11.846-13.401l0.459,3.974C19.871,52.217,16.3,56.27,16.3,61.098z" fill="#282D33"
				/>
		</g>
	</g>
	<g>
		<g>
			<path d="M77.301,123.147H63.299l-0.819-9.975c-2.514-0.741-4.904-1.805-7.138-3.175l-7.296,6.232l-9.88-9.979
				l6.397-7.633c-1.262-2.32-2.211-4.789-2.833-7.37l-9.522-0.802l0.004-14.089l9.871-0.831c0.736-2.545,1.795-4.968,3.161-7.233
				l-6.169-7.363l9.882-9.978l7.566,6.469c2.294-1.267,4.73-2.22,7.274-2.845l0.789-9.619h14l0.822,9.977
				c2.51,0.74,4.902,1.803,7.137,3.175l7.297-6.237l9.879,9.98l-6.395,7.632c1.262,2.323,2.209,4.794,2.83,7.374l9.52,0.799
				l-0.002,14.092l-9.871,0.832c-0.736,2.548-1.795,4.971-3.16,7.233l6.168,7.361l-9.881,9.978l-7.566-6.467
				c-2.297,1.268-4.732,2.221-7.275,2.845L77.301,123.147z M66.984,119.147h6.631l0.732-8.932l1.492-0.286
				c3.084-0.592,6.01-1.732,8.691-3.389l1.242-0.768l6.93,5.925l4.701-4.747l-5.736-6.845l0.842-1.248
				c1.766-2.623,3.035-5.521,3.773-8.615l0.336-1.407l9.055-0.765l0.002-6.736l-8.846-0.741l-0.283-1.495
				c-0.59-3.129-1.721-6.087-3.361-8.794l-0.74-1.224l5.869-7.005l-4.699-4.748l-6.773,5.788l-1.264-0.868
				c-2.6-1.783-5.467-3.063-8.52-3.805l-1.404-0.34l-0.752-9.146h-6.631l-0.732,8.934l-1.492,0.286
				c-3.09,0.595-6.015,1.735-8.692,3.39l-1.242,0.767l-6.931-5.925l-4.702,4.747l5.734,6.845l-0.839,1.248
				c-1.769,2.629-3.039,5.528-3.775,8.616l-0.335,1.407l-9.055,0.764l-0.002,6.733l8.847,0.745l0.283,1.494
				c0.591,3.13,1.723,6.086,3.363,8.787l0.744,1.225l-5.873,7.007l4.7,4.748l6.772-5.784l1.265,0.868
				c2.596,1.781,5.462,3.062,8.521,3.804l1.402,0.341L66.984,119.147z" fill="#282D33"/>
		</g>
		<g>
			<path d="M70.941,100.363c-8.916,0-16.17-7.316-16.17-16.31c0-8.994,7.254-16.311,16.17-16.311
				c8.918,0,16.172,7.316,16.172,16.311C87.113,93.047,79.859,100.363,70.941,100.363z M70.941,71.743
				c-6.71,0-12.17,5.522-12.17,12.311c0,6.787,5.459,12.31,12.17,12.31c6.713,0,12.172-5.522,12.172-12.31
				C83.113,77.266,77.654,71.743,70.941,71.743z" fill="#282D33"/>
		</g>
	</g>
</g>
</svg>
