<?xml version="1.0" encoding="utf-8"?>
<!-- Generator: Adobe Illustrator 16.0.0, SVG Export Plug-In . SVG Version: 6.00 Build 0)  -->
<!DOCTYPE svg PUBLIC "-//W3C//DTD SVG 1.1//EN" "http://www.w3.org/Graphics/SVG/1.1/DTD/svg11.dtd">
<svg enable-background="new 0 0 128 128" height="128px" id="Layer_1" version="1.1" viewBox="0 0 128 128"
     width="128px" x="0px" xml:space="preserve" xmlns="http://www.w3.org/2000/svg" y="0px">
<g>
	<g>
		<path d="M115.527,79.068c-0.355,0-0.705-0.025-1.057-0.056l0.002-0.025c-0.648,0.041-1.521,0.043-2.711,0.047
			l-29.336,0.034v-4h13.74c5.672-0.01,13.66-0.026,16.939-0.039l0.039-0.146l1.672,0.146c0.236,0.021,0.471,0.04,0.711,0.04
			c4.672,0,8.473-3.826,8.473-8.529c0-4.633-3.607-8.372-8.211-8.512l-2.172-0.065l0.244-2.158c0.109-0.958,0.16-1.752,0.16-2.497
			c0-11.577-9.365-20.996-20.877-20.996c-1.861,0-3.76,0.269-5.643,0.8l-2.215,0.624l-0.311-2.278
			C82.846,15.845,69.404,4.072,53.708,4.072c-17.407,0-31.568,14.233-31.568,31.729l0.003,2.013l-1.772,0.203
			C11.038,39.086,4,47.021,4,56.477c0,10.252,8.293,18.592,18.487,18.592h21.889v4H22.486C10.087,79.068,0,68.934,0,56.477
			c0-10.893,7.697-20.126,18.171-22.164c0.78-19.013,16.422-34.24,35.538-34.24c16.952,0,31.571,12.183,34.868,28.677
			c1.525-0.291,3.055-0.438,4.568-0.438c13.717,0,24.877,11.213,24.877,24.996c0,0.313-0.008,0.631-0.021,0.959
			c5.75,1.142,10,6.182,10,12.273C128,73.447,122.404,79.068,115.527,79.068z" fill="#282D33"/>
	</g>
	<g>
		<rect fill="#282D33" height="4" width="18.583" x="54.326" y="75.068"/>
	</g>
	<g>
		<rect fill="#282D33" height="85.209" width="4" x="42.808" y="42.719"/>
	</g>
	<g>
		<rect fill="#282D33" height="85.209" width="4" x="71.791" y="42.719"/>
	</g>
	<g>
		<rect fill="#282D33" height="4" width="22.927" x="51.729" y="48.109"/>
	</g>
	<g>
		<rect fill="#282D33" height="4" width="22.927" x="51.729" y="61.587"/>
	</g>
	<g>
		<rect fill="#282D33" height="4" width="22.927" x="51.729" y="75.064"/>
	</g>
	<g>
		<rect fill="#282D33" height="4" width="22.927" x="51.729" y="88.539"/>
	</g>
	<g>
		<rect fill="#282D33" height="4" width="22.927" x="51.729" y="102.019"/>
	</g>
	<g>
		<rect fill="#282D33" height="4" width="22.927" x="51.729" y="115.496"/>
	</g>
</g>
</svg>
