<?xml version="1.0" encoding="utf-8"?>
<!-- Generator: Adobe Illustrator 16.0.0, SVG Export Plug-In . SVG Version: 6.00 Build 0)  -->
<!DOCTYPE svg PUBLIC "-//W3C//DTD SVG 1.1//EN" "http://www.w3.org/Graphics/SVG/1.1/DTD/svg11.dtd">
<svg enable-background="new 0 0 128 128" height="128px" id="Layer_1" version="1.1" viewBox="0 0 128 128"
     width="128px" x="0px" xml:space="preserve" xmlns="http://www.w3.org/2000/svg" y="0px">
<g>
	<g>
		<path d="M38.456,41.759h-4l0.001-10.875l9.886-0.82c0.733-2.491,1.786-4.861,3.141-7.074l-6.181-7.249l9.91-9.834
			l7.565,6.357c2.296-1.249,4.736-2.187,7.283-2.802L66.856,0h13.995l0.825,9.813c2.514,0.729,4.908,1.777,7.147,3.129l7.297-6.129
			l9.907,9.835l-6.408,7.517c1.251,2.274,2.192,4.688,2.812,7.208l9.532,0.789v9.597h-4v-5.915l-8.848-0.732l-0.286-1.491
			c-0.589-3.067-1.718-5.97-3.354-8.628l-0.763-1.239l5.866-6.88l-4.683-4.648l-6.778,5.694l-1.25-0.843
			c-2.604-1.756-5.474-3.016-8.53-3.745l-1.408-0.335L77.174,4h-6.64l-0.738,8.787l-1.494,0.282c-3.095,0.584-6.021,1.706-8.7,3.333
			l-1.227,0.746l-6.938-5.83l-4.684,4.648l5.735,6.727l-0.866,1.263c-1.766,2.575-3.033,5.419-3.769,8.455l-0.341,1.403
			l-9.056,0.751L38.456,41.759z" fill="#282D33"/>
	</g>
	<g>
		<path d="M56.991,42.214c-0.291-1.247-0.438-2.501-0.438-3.73c0-9.125,7.472-16.549,16.657-16.549
			s16.658,7.424,16.658,16.549c0,1.224-0.147,2.478-0.438,3.729l-3.896-0.907c0.223-0.954,0.335-1.903,0.335-2.821
			c0-6.919-5.679-12.549-12.658-12.549s-12.657,5.629-12.657,12.549c0,0.923,0.112,1.872,0.334,2.82L56.991,42.214z" fill="#282D33"/>
	</g>
	<g>
		<g>
			<path d="M33.4,128c-7.831,0-14.203-6.33-14.203-14.111c0-7.782,6.372-14.113,14.203-14.113
				c7.832,0,14.203,6.331,14.203,14.113C47.604,121.67,41.232,128,33.4,128z M33.4,103.775c-5.626,0-10.203,4.537-10.203,10.113
				c0,5.575,4.577,10.111,10.203,10.111s10.203-4.536,10.203-10.111C43.604,108.313,39.026,103.775,33.4,103.775z" fill="#282D33"/>
		</g>
		<g>
			<path d="M93.915,128c-7.829,0-14.199-6.33-14.199-14.111c0-7.782,6.37-14.113,14.199-14.113
				c7.832,0,14.203,6.331,14.203,14.113C108.118,121.67,101.747,128,93.915,128z M93.915,103.775
				c-5.624,0-10.199,4.537-10.199,10.113c0,5.575,4.575,10.111,10.199,10.111c5.626,0,10.203-4.536,10.203-10.111
				C104.118,108.313,99.541,103.775,93.915,103.775z" fill="#282D33"/>
		</g>
		<g>
			<rect fill="#282D33" height="4" width="34.388" x="47.328" y="111.889"/>
		</g>
		<g>
			<polygon fill="#282D33" points="37.247,102.018 33.429,100.824 36.768,90.137 18.175,34.78 2.791,30.423 3.881,26.575
				21.295,31.506 40.972,90.092 			"/>
		</g>
		<g>
			<path d="M107.581,92.115H37.403l-14.537-46.11h102.343l-11.729,40.741
				C113.316,89.781,110.784,92.115,107.581,92.115z M40.336,88.115h67.245c0.947,0,1.906-0.577,1.906-1.68v-0.282l10.407-36.148
				H28.321L40.336,88.115z" fill="#282D33"/>
		</g>
		<g>
			<rect fill="#282D33" height="4" width="62.959" x="42.919" y="59.97"/>
		</g>
		<g>
			<rect fill="#282D33" height="4" width="54.419" x="47.309" y="73.534"/>
		</g>
	</g>
</g>
</svg>
