<?xml version="1.0" encoding="utf-8"?>
<!-- Generator: Adobe Illustrator 16.0.0, SVG Export Plug-In . SVG Version: 6.00 Build 0)  -->
<!DOCTYPE svg PUBLIC "-//W3C//DTD SVG 1.1//EN" "http://www.w3.org/Graphics/SVG/1.1/DTD/svg11.dtd">
<svg enable-background="new 0 0 128 128" height="128px" id="Layer_1" version="1.1" viewBox="0 0 128 128"
     width="128px" x="0px" xml:space="preserve" xmlns="http://www.w3.org/2000/svg" y="0px">
<g>
	<g>
		<rect fill="#282D33" height="17.933" width="4.017" x="107.84" y="26.344"/>
	</g>
	<g>
		<polygon fill="#282D33" points="26.071,44.276 22.054,44.276 22.054,0.721 85.943,0.721 85.943,4.738 26.071,4.738 		"/>
	</g>
	<g>
		<g>
			<path d="M93.911,9.423l9.112,9.003h-9.112V9.423 M89.975,0v22.363h22.638L89.975,0L89.975,0z" fill="#282D33"/>
		</g>
	</g>
	<g>
		<rect fill="#282D33" height="4.018" width="25.442" x="35.548" y="18.285"/>
	</g>
	<g>
		<rect fill="#282D33" height="4.018" width="60.425" x="35.083" y="29.016"/>
	</g>
	<g>
		<rect fill="#282D33" height="4.018" width="60.425" x="35.083" y="39.745"/>
	</g>
	<g>
		<rect fill="#282D33" height="4.018" width="60.425" x="35.083" y="82.671"/>
	</g>
	<g>
		<rect fill="#282D33" height="4.018" width="60.425" x="35.083" y="93.4"/>
	</g>
	<g>
		<g>
			<polygon fill="#282D33" points="23.962,76.016 20.298,76.016 1.307,63.216 20.299,50.422 23.96,50.418 23.964,54.436
				21.528,54.438 8.496,63.217 21.525,71.998 23.962,71.998 			"/>
		</g>
		<g>
			<path d="M108.354,53.902v18.629l-82.864-0.002V53.903L108.354,53.902 M112.29,49.965l-90.737,0.001v26.501
				l90.737,0.002V49.965L112.29,49.965z" fill="#282D33"/>
		</g>
		<g>
			<rect fill="#282D33" height="4.018" width="88.491" x="23.799" y="61.206"/>
		</g>
		<g>
			<path d="M123.125,75.87l-7.033-0.002l0.002-4.018l6.544,0.002c0.021-0.086,0.038-0.198,0.038-0.331l-0.002-16.602
				c0-0.138-0.017-0.252-0.038-0.34h-6.543v-4.018h7.027c0.845,0,1.657,0.349,2.29,0.982c0.816,0.816,1.283,2.048,1.281,3.378
				l0.002,16.602C126.689,73.957,125.122,75.865,123.125,75.87z" fill="#282D33"/>
		</g>
	</g>
	<g>
		<polygon fill="#282D33" points="97.517,128 73.65,114.394 22.054,114.394 22.054,82.156 26.071,82.156 26.071,110.376
			74.716,110.376 93.499,121.086 93.499,110.376 107.84,110.376 107.84,82.156 111.856,82.156 111.856,114.394 97.517,114.394 		"/>
	</g>
</g>
</svg>
