<?xml version="1.0" encoding="utf-8"?>
<!-- Generator: Adobe Illustrator 16.0.0, SVG Export Plug-In . SVG Version: 6.00 Build 0)  -->
<!DOCTYPE svg PUBLIC "-//W3C//DTD SVG 1.1//EN" "http://www.w3.org/Graphics/SVG/1.1/DTD/svg11.dtd">
<svg enable-background="new 0 0 128 128" height="128px" id="Layer_1" version="1.1" viewBox="0 0 128 128"
     width="128px" x="0px" xml:space="preserve" xmlns="http://www.w3.org/2000/svg" y="0px">
<g>
	<g>
		<path d="M24.365,87.701c-13.204,0-23.946-10.632-23.946-23.7c0-13.069,10.742-23.701,23.946-23.701
			s23.947,10.632,23.947,23.701C48.312,77.069,37.569,87.701,24.365,87.701z M24.365,44.3c-10.999,0-19.946,8.838-19.946,19.701
			c0,10.862,8.948,19.7,19.946,19.7s19.947-8.838,19.947-19.7C44.312,53.138,35.364,44.3,24.365,44.3z" fill="#282D33"/>
	</g>
	<g>
		<path d="M24.364,77.516c-7.524,0-13.645-6.063-13.645-13.515c0-7.452,6.121-13.514,13.645-13.514
			s13.645,6.063,13.645,13.514C38.009,71.453,31.888,77.516,24.364,77.516z M24.364,54.487c-5.318,0-9.645,4.268-9.645,9.514
			s4.327,9.515,9.645,9.515s9.645-4.269,9.645-9.515S29.682,54.487,24.364,54.487z" fill="#282D33"/>
	</g>
	<g>
		<g>
			<path d="M103.639,47.401c-13.204,0-23.947-10.632-23.947-23.7C79.691,10.632,90.435,0,103.639,0
				c13.202,0,23.942,10.632,23.942,23.701C127.581,36.769,116.841,47.401,103.639,47.401z M103.639,4
				C92.64,4,83.691,12.838,83.691,23.701c0,10.862,8.948,19.7,19.947,19.7c10.996,0,19.942-8.837,19.942-19.7
				C123.581,12.838,114.635,4,103.639,4z" fill="#282D33"/>
		</g>
		<g>
			<path d="M103.637,37.214c-7.524,0-13.646-6.062-13.646-13.513s6.121-13.513,13.646-13.513
				c7.523,0,13.645,6.062,13.645,13.513S111.16,37.214,103.637,37.214z M103.637,14.188c-5.318,0-9.646,4.268-9.646,9.513
				c0,5.245,4.327,9.513,9.646,9.513s9.645-4.268,9.645-9.513C113.281,18.456,108.955,14.188,103.637,14.188z" fill="#282D33"/>
		</g>
		<g>
			<path d="M103.639,128c-13.204,0-23.947-10.632-23.947-23.701c0-13.066,10.743-23.697,23.947-23.697
				c13.202,0,23.942,10.631,23.942,23.697C127.581,117.368,116.841,128,103.639,128z M103.639,84.602
				c-10.999,0-19.947,8.836-19.947,19.697c0,10.863,8.948,19.701,19.947,19.701c10.996,0,19.942-8.838,19.942-19.701
				C123.581,93.438,114.635,84.602,103.639,84.602z" fill="#282D33"/>
		</g>
		<g>
			<path d="M103.637,117.816c-7.524,0-13.646-6.063-13.646-13.518c0-7.451,6.121-13.514,13.646-13.514
				c7.523,0,13.645,6.063,13.645,13.514C117.281,111.753,111.16,117.816,103.637,117.816z M103.637,94.785
				c-5.318,0-9.646,4.268-9.646,9.514c0,5.248,4.327,9.518,9.646,9.518s9.645-4.27,9.645-9.518
				C113.281,99.053,108.955,94.785,103.637,94.785z" fill="#282D33"/>
		</g>
	</g>
	<g>

			<rect fill="#282D33" height="4" transform="matrix(0.8932 0.4497 -0.4497 0.8932 44.7089 -17.3657)" width="39.393" x="39.214" y="83.432"/>
	</g>
	<g>

			<rect fill="#282D33" height="37.263" transform="matrix(0.4498 0.8932 -0.8932 0.4498 71.0938 -36.4645)" width="4" x="63.141" y="20.836"/>
	</g>
</g>
</svg>
