<?xml version="1.0" encoding="utf-8"?>
<!-- Generator: Adobe Illustrator 16.0.0, SVG Export Plug-In . SVG Version: 6.00 Build 0)  -->
<!DOCTYPE svg PUBLIC "-//W3C//DTD SVG 1.1//EN" "http://www.w3.org/Graphics/SVG/1.1/DTD/svg11.dtd">
<svg enable-background="new 0 0 128 128" height="128px" id="Layer_1" version="1.1" viewBox="0 0 128 128"
     width="128px" x="0px" xml:space="preserve" xmlns="http://www.w3.org/2000/svg" y="0px">
<g>
	<g>
		<g>
			<g>
				<path d="M82.523,93.396H47.487c-2.57-0.003-4.658-2.087-4.658-4.644v-8.38c0-2.561,2.09-4.644,4.658-4.644
					l35.038,0.001c1.248,0,2.42,0.485,3.301,1.367c0.875,0.877,1.357,2.039,1.355,3.276l0.002,8.378
					C87.18,91.313,85.09,93.396,82.523,93.396z M47.487,79.725c-0.365,0-0.663,0.29-0.663,0.648v8.38
					c0,0.357,0.299,0.648,0.666,0.648h35.034c0.367,0,0.664-0.293,0.664-0.652l-0.002-8.378c0-0.219-0.102-0.366-0.186-0.451
					c-0.072-0.073-0.23-0.194-0.473-0.194L47.487,79.725z" fill="#282D33"/>
			</g>
      <g>
				<path d="M82.525,47.972l-35.039-0.001c-2.566,0-4.657-2.081-4.661-4.64v-8.382
					c0.003-2.562,2.094-4.645,4.66-4.645h35.038c1.248,0,2.42,0.486,3.303,1.368c0.875,0.877,1.357,2.042,1.355,3.279v8.377
					c0.002,1.235-0.48,2.4-1.355,3.277C84.945,47.486,83.773,47.972,82.525,47.972z M47.487,34.299
					c-0.367,0-0.666,0.293-0.667,0.652v8.377c0,0.355,0.298,0.647,0.664,0.647l35.039,0.001v1.998l0.002-1.998
					c0.244,0,0.402-0.122,0.475-0.194c0.084-0.085,0.186-0.233,0.186-0.451v-8.382c0-0.22-0.102-0.367-0.188-0.453
					c-0.072-0.073-0.23-0.196-0.475-0.196H47.487z" fill="#282D33"/>
			</g>
		</g>
    <g>
			<g>
				<rect fill="#282D33" height="33.11" width="3.995" x="48.882" y="45.293"/>
			</g>
      <g>
				<rect fill="#282D33" height="33.111" width="3.996" x="77.135" y="45.295"/>
			</g>
		</g>
    <g>
			<polygon fill="#282D33" points="52.877,69.114 6.096,69.114 6.096,65.119 48.882,65.119 48.882,58.58 6.096,58.583 6.096,54.587
				52.877,54.584 			"/>
		</g>
    <g>
			<rect fill="#282D33" height="10.034" width="3.995" x="19.063" y="56.832"/>
		</g>
    <g>
			<rect fill="#282D33" height="13.921" width="3.996" x="62.423" y="54.89"/>
		</g>
	</g>
  <g>
		<g>
			<g>
				<path d="M64.355,128l-4.085-1.187c-22.953-6.665-53.47-20.138-53.47-60h3.995
					c0,37.174,28.872,49.857,50.589,56.163l2.969,0.862l2.969-0.863c21.717-6.305,50.586-18.985,50.586-56.162V18.54L64.356,4.138
					l-53.561,14.4v27.016H6.8V15.476L64.356,0l57.548,15.478v51.336c0,39.865-30.516,53.335-53.467,59.998L64.355,128z"
              fill="#282D33"/>
			</g>
      <g>
				<path d="M64.346,115.766l-0.775-0.231c-31.51-9.146-44.959-23.72-44.959-48.723V55.334h3.995v11.477
					c0,22.812,12.49,36.222,41.75,44.79c29.254-8.567,41.743-21.977,41.743-44.788V27.529L64.356,16.304l-41.75,11.225v18.025
					h-3.995V24.466l45.745-12.299l45.74,12.3v42.347c0,25.003-13.447,39.575-44.967,48.725L64.346,115.766z"
              fill="#282D33"/>
			</g>
		</g>
	</g>
</g>
</svg>
