<?xml version="1.0" encoding="utf-8"?>
<!-- Generator: Adobe Illustrator 16.0.0, SVG Export Plug-In . SVG Version: 6.00 Build 0)  -->
<!DOCTYPE svg PUBLIC "-//W3C//DTD SVG 1.1//EN" "http://www.w3.org/Graphics/SVG/1.1/DTD/svg11.dtd">
<svg version="1.1" id="Layer_1" xmlns="http://www.w3.org/2000/svg" x="0px" y="0px"
     width="128px" height="128px" viewBox="0 0 128 128" enable-background="new 0 0 128 128" xml:space="preserve">
<g>
	<g>
		<g>
			<path fill="#282D33" d="M113.308,124.263l-15.912-1.072l-0.289-1.518c-0.76-3.992-2.22-7.771-4.339-11.232l-0.755-1.233
				l7.531-8.891l-6.67-6.665l-8.685,7.34l-1.255-0.852c-3.362-2.282-7.07-3.92-11.022-4.87l-1.405-0.338l-0.969-11.613h-9.437
				l-0.944,11.327l-1.493,0.284c-3.999,0.761-7.781,2.221-11.242,4.339l-1.232,0.754l-8.903-7.529l-6.673,6.665l7.349,8.679
				l-0.856,1.257c-2.282,3.353-3.923,7.057-4.876,11.007l-0.344,1.428l-16.193,1.098l-0.271-3.99l13.293-0.902
				c0.96-3.396,2.385-6.617,4.249-9.608l-7.785-9.193l11.882-11.867l9.526,8.057c3.084-1.729,6.38-3.004,9.832-3.806l1-11.997
				h16.797l1.037,12.429c3.407,0.959,6.641,2.384,9.646,4.251l9.199-7.774l11.877,11.866l-8.063,9.519
				c1.725,3.075,2.998,6.359,3.799,9.797l12.863,0.867L113.308,124.263z"/>
		</g>
		<g>
			<path fill="#282D33" d="M40.869,128h-4c0-14.946,12.171-27.105,27.132-27.105v4C51.246,104.895,40.869,115.26,40.869,128z"/>
		</g>
		<g>
			<path fill="#282D33" d="M80.549,128h-4c0-6.91-5.629-12.532-12.548-12.532S51.453,121.09,51.453,128h-4
				c0-9.116,7.423-16.532,16.548-16.532C73.126,111.468,80.549,118.884,80.549,128z"/>
		</g>
	</g>
	<g>
		<g>
			<rect x="108.696" y="34.403" fill="#282D33" width="4" height="76.673"/>
		</g>
		<g>
			<polygon fill="#282D33" points="19.303,111.076 15.303,111.076 15.303,0 78.267,0 78.267,4 19.303,4 			"/>
		</g>
		<g>
			<g>
				<path fill="#282D33" d="M111.703,28.911H84.228V1.458L111.703,28.911z M88.228,24.911h13.813L88.228,11.11V24.911z"/>
			</g>
		</g>
	</g>
	<g>
		<rect x="31.136" y="25.117" fill="#282D33" width="34.34" height="4"/>
	</g>
	<g>
		<path fill="#282D33" d="M58.473,71.548h-3.337v-4h3.337V71.548z M51.136,71.548h-4v-4h4V71.548z M43.136,71.548h-4v-4h4V71.548z
			 M35.136,71.548h-4v-4h4V71.548z"/>
	</g>
	<g>
		<rect x="31.136" y="39.261" fill="#282D33" width="63.26" height="4"/>
	</g>
	<g>
		<rect x="31.136" y="53.404" fill="#282D33" width="63.26" height="4"/>
	</g>
</g>
</svg>
