<svg height="128" viewBox="0 0 128 128" width="128" xmlns="http://www.w3.org/2000/svg">
  <g>
    <path d="M106.09,13.12H79.5a1.749,1.749,0,0,0-1.534.909l-9.43,17.2a1.749,1.749,0,0,0,.977,2.5l9.61,3.232L60.51,56.443,65.632,43.2a1.752,1.752,0,0,0-.987-2.259L55.889,37.47,61.9,15.328A1.763,1.763,0,0,0,60.21,13.12H21.91A11.764,11.764,0,0,0,10.16,24.87V81.71A11.92,11.92,0,0,0,21.91,94.82H53.544c-.764,5.611-4.088,11.34-9.92,17.061a1.762,1.762,0,0,0,1.226,3h38.3a1.75,1.75,0,0,0,1.226-3c-5.832-5.72-9.155-11.45-9.92-17.061H106.09a11.764,11.764,0,0,0,11.75-11.75V24.87A11.765,11.765,0,0,0,106.09,13.12ZM13.66,24.87a8.259,8.259,0,0,1,8.25-8.25H57.921L52.1,38.061a1.753,1.753,0,0,0,1.043,2.086l8.6,3.41L54.078,63.368a1.756,1.756,0,0,0,2.9,1.841l26.581-27.82a1.751,1.751,0,0,0-.708-2.868L72.61,31.078,80.536,16.62H106.09a8.259,8.259,0,0,1,8.25,8.25V79.96H13.66Zm65.423,86.51H48.917c4.792-5.471,7.53-11.022,8.164-16.56H70.919C71.553,100.358,74.291,105.91,79.083,111.38ZM106.09,91.32H21.91a8.26,8.26,0,0,1-8.241-7.86H114.331A8.26,8.26,0,0,1,106.09,91.32Z"/>
    <path d="M23.734,29.823H38.349a1.75,1.75,0,0,0,0-3.5H23.734A1.75,1.75,0,0,0,23.734,29.823Z"/>
    <path d="M108.68,36.771H94.065a1.75,1.75,0,0,0,0,3.5H108.68A1.75,1.75,0,0,0,108.68,36.771Z"/>
    <path d="M23.734,40.271h5.937a1.75,1.75,0,1,0,0-3.5H23.734A1.75,1.75,0,0,0,23.734,40.271Z"/>
    <path d="M34.543,38.521a1.751,1.751,0,0,0,1.75,1.75H42.23a1.75,1.75,0,0,0,0-3.5H36.293A1.75,1.75,0,0,0,34.543,38.521Z"/>
    <path d="M88.813,30.311H94.75a1.75,1.75,0,0,0,0-3.5H88.813A1.75,1.75,0,0,0,88.813,30.311Z"/>
    <path d="M74.2,68.111H68.262a1.75,1.75,0,0,0,0,3.5H74.2A1.75,1.75,0,0,0,74.2,68.111Z"/>
    <path d="M86.533,51.171H92.47a1.75,1.75,0,0,0,0-3.5H86.533A1.75,1.75,0,0,0,86.533,51.171Z"/>
    <path d="M102.719,30.311h5.937a1.75,1.75,0,0,0,0-3.5h-5.937A1.75,1.75,0,0,0,102.719,30.311Z"/>
    <path d="M109.112,68.111h-5.936a1.75,1.75,0,0,0,0,3.5h5.936A1.75,1.75,0,0,0,109.112,68.111Z"/>
    <path d="M23.734,50.718h9.591a1.75,1.75,0,0,0,0-3.5H23.734A1.75,1.75,0,0,0,23.734,50.718Z"/>
    <path d="M74.884,61.652H88.3a1.75,1.75,0,0,0,0-3.5H74.884A1.75,1.75,0,0,0,74.884,61.652Z"/>
    <path d="M109.112,58.152H95.7a1.75,1.75,0,0,0,0,3.5h13.415A1.75,1.75,0,0,0,109.112,58.152Z"/>
    <path d="M109.112,47.706h-9.59a1.75,1.75,0,0,0,0,3.5h9.59A1.75,1.75,0,0,0,109.112,47.706Z"/>
    <path d="M23.734,61.164h18.5a1.75,1.75,0,0,0,0-3.5h-18.5A1.75,1.75,0,0,0,23.734,61.164Z"/>
    <path d="M95.892,68.111H80.707a1.75,1.75,0,0,0,0,3.5H95.892A1.75,1.75,0,0,0,95.892,68.111Z"/>
    <path d="M32.982,68.111H23.734a1.75,1.75,0,0,0,0,3.5h9.248A1.75,1.75,0,0,0,32.982,68.111Z"/>
    <path d="M48.51,68.111H39.262a1.75,1.75,0,0,0,0,3.5H48.51A1.75,1.75,0,0,0,48.51,68.111Z"/>
  </g>
</svg>
