<?xml version="1.0" encoding="utf-8"?>
<!-- Generator: Adobe Illustrator 16.0.0, SVG Export Plug-In . SVG Version: 6.00 Build 0)  -->
<!DOCTYPE svg PUBLIC "-//W3C//DTD SVG 1.1//EN" "http://www.w3.org/Graphics/SVG/1.1/DTD/svg11.dtd">
<svg enable-background="new 0 0 128 128" height="128px" id="Layer_1" version="1.1" viewBox="0 0 128 128"
     width="128px" x="0px" xml:space="preserve" xmlns="http://www.w3.org/2000/svg" y="0px">
<g>
	<g>
		<g>
			<rect fill="#282D33" height="1.969" width="4" x="124" y="22.42"/>
		</g>
		<g>
			<path d="M128,115.532h-4v-4.146h4V115.532z M128,107.241h-4v-4.146h4V107.241z M128,98.949h-4v-4.146h4V98.949z
				 M128,90.657h-4v-4.146h4V90.657z M128,82.365h-4V78.22h4V82.365z M128,74.073h-4v-4.146h4V74.073z M128,65.782h-4v-4.146h4
				V65.782z M128,57.49h-4v-4.146h4V57.49z M128,49.198h-4v-4.146h4V49.198z M128,40.906h-4v-4.146h4V40.906z M128,32.615h-4v-4.146
				h4V32.615z" fill="#282D33"/>
		</g>
		<g>
			<polygon fill="#282D33" points="128,122.2 124.032,122.2 124.032,118.2 128,118.23 			"/>
		</g>
		<g>
			<path d="M120.158,122.2h-3.936v-4h3.936V122.2z M112.287,122.2h-3.936v-4h3.936V122.2z M104.416,122.2h-3.936v-4
				h3.936V122.2z M96.545,122.2h-3.936v-4h3.936V122.2z M88.674,122.2h-3.936v-4h3.936V122.2z M80.803,122.2h-3.935v-4h3.935V122.2z
				 M72.933,122.2h-3.936v-4h3.936V122.2z M65.062,122.2h-3.936v-4h3.936V122.2z M57.19,122.2h-3.936v-4h3.936V122.2z M49.319,122.2
				h-3.936v-4h3.936V122.2z M41.448,122.2h-3.936v-4h3.936V122.2z M33.577,122.2h-3.936v-4h3.936V122.2z M25.706,122.2h-3.936v-4
				h3.936V122.2z M17.835,122.2H13.9v-4h3.936V122.2z M9.964,122.2H6.029v-4h3.936V122.2z" fill="#282D33"/>
		</g>
		<g>
			<polygon fill="#282D33" points="3.968,122.2 0,122.2 0,118.23 4,118.23 			"/>
		</g>
		<g>
			<path d="M4,114.152H0v-4.146h4V114.152z M4,105.86H0v-4.146h4V105.86z M4,97.568H0v-4.146h4V97.568z M4,89.277H0
				v-4.146h4V89.277z M4,80.985H0v-4.146h4V80.985z M4,72.693H0v-4.146h4V72.693z M4,64.401H0v-4.146h4V64.401z M4,56.11H0v-4.146h4
				V56.11z M4,47.818H0v-4.146h4V47.818z M4,39.526H0V35.38h4V39.526z M4,31.234H0v-4.146h4V31.234z" fill="#282D33"/>
		</g>
		<g>
			<rect fill="#282D33" height="1.969" width="4" y="22.42"/>
		</g>
	</g>
	<g>
		<g>
			<path d="M128,24.421H0V5.8h128V24.421z M4,20.421h120V9.8H4V20.421z" fill="#282D33"/>
		</g>
		<g>
			<rect fill="#282D33" height="4" width="4.706" x="7.665" y="13.005"/>
		</g>
		<g>
			<rect fill="#282D33" height="4" width="4.708" x="15.813" y="13.005"/>
		</g>
		<g>
			<rect fill="#282D33" height="4" width="4.708" x="23.959" y="13.005"/>
		</g>
	</g>
	<g>
		<g>
			<polygon fill="#282D33" points="49.557,83.958 32.104,69.986 49.557,56.014 52.057,59.137 38.504,69.986 52.057,80.835 			"/>
		</g>
		<g>
			<polygon fill="#282D33" points="78.443,83.958 75.943,80.835 89.495,69.986 75.943,59.139 78.443,56.016 95.896,69.986 			"/>
		</g>
		<g>

				<rect fill="#282D33" height="40.344" transform="matrix(0.9609 0.2768 -0.2768 0.9609 21.897 -15.1208)" width="4" x="62.498" y="49.816"/>
		</g>
	</g>
</g>
</svg>
