<svg height="128" viewBox="0 0 128 128" width="128" xmlns="http://www.w3.org/2000/svg">
  <path d="M106.09,20.1H86.22V12.76a1.75,1.75,0,0,0-1.75-1.75h-12.2a1.752,1.752,0,0,0-1.223.5L65.022,17.4l0-9.5a1.75,1.75,0,0,0-3.5,0l-.005,9.5L55.5,11.508a1.752,1.752,0,0,0-1.223-.5H42.08a1.749,1.749,0,0,0-1.75,1.75V20.1H21.91A11.764,11.764,0,0,0,10.16,31.85v58.2A11.764,11.764,0,0,0,21.91,101.8H53.542c-.771,5.619-4.094,11.349-9.918,17.06a1.762,1.762,0,0,0,1.226,3h38.3a1.763,1.763,0,0,0,1.226-3c-5.824-5.711-9.147-11.441-9.918-17.06H106.09a11.764,11.764,0,0,0,11.75-11.75V31.85A11.764,11.764,0,0,0,106.09,20.1ZM72.983,14.51H82.72V26.54c0,.267-.3.7-.964,1.062l-3.78,2.048a17.083,17.083,0,0,0-11.92-8.367ZM49.91,55.3V39.99H76.64V55.3Zm.075-18.812c2.16-15.871,24.462-15.793,26.58,0ZM76.539,58.8c-.467,7.009-7.586,12.087-13.27,13.559-2.116-.6-12.15-3.939-13.255-13.559ZM43.83,14.51h9.737L60.5,21.282a17.051,17.051,0,0,0-11.925,8.364L44.8,27.6c-.672-.364-.973-.795-.973-1.061ZM13.66,31.85a8.259,8.259,0,0,1,8.25-8.25H40.33v2.94a4.8,4.8,0,0,0,2.806,4.139l4.061,2.2a17.258,17.258,0,0,0-.787,5.361c0,.024,0,18.806,0,18.828.013,14.889,16.306,18.771,16.47,18.809a1.771,1.771,0,0,0,.777,0c.163-.025,16.5-3.955,16.482-18.835V38.3a16.119,16.119,0,0,0-.786-5.415l4.075-2.208A4.8,4.8,0,0,0,86.22,26.54V23.6h19.87a8.259,8.259,0,0,1,8.25,8.25V86.94H13.66Zm65.424,86.51H48.916c4.785-5.464,7.522-11.016,8.163-16.56H70.921C71.561,107.344,74.3,112.9,79.084,118.36ZM106.09,98.3H21.91a8.261,8.261,0,0,1-8.241-7.86H114.331A8.261,8.261,0,0,1,106.09,98.3Z"/>
</svg>
