<svg height="128" viewBox="0 0 128 128" width="128" xmlns="http://www.w3.org/2000/svg">
  <g>
    <path d="M117.837,24.869a11.764,11.764,0,0,0-11.75-11.75H21.913a11.764,11.764,0,0,0-11.75,11.75c0,2.675,0-14.471,0,58.2A11.763,11.763,0,0,0,21.91,94.82H53.544c-.764,5.611-4.088,11.34-9.92,17.061a1.762,1.762,0,0,0,1.226,3h38.3a1.75,1.75,0,0,0,1.226-3c-5.832-5.721-9.156-11.45-9.92-17.061H106.09a11.763,11.763,0,0,0,11.75-11.75C117.837,10.4,117.837,27.538,117.837,24.869Zm-104.174,0a8.259,8.259,0,0,1,8.25-8.25h84.174a8.259,8.259,0,0,1,8.25,8.25V79.96H13.663Zm65.42,86.511H48.917c4.792-5.471,7.53-11.022,8.164-16.56H70.919C71.553,100.358,74.291,105.909,79.083,111.38ZM106.09,91.32H21.91a8.26,8.26,0,0,1-8.241-7.86H114.331A8.26,8.26,0,0,1,106.09,91.32Z"/>
    <path d="M77.451,45.779a1.752,1.752,0,0,0-.282,1.538l5.54,19.1A1.751,1.751,0,0,0,84.39,67.68h8.37a1.763,1.763,0,0,0,1.671-2.27l-5.94-19.1a1.751,1.751,0,0,0-1.671-1.23H78.85A1.751,1.751,0,0,0,77.451,45.779Zm8.08,2.8,4.852,15.6H85.705L81.18,48.58Z"/>
    <path d="M95.25,42.58a1.8,1.8,0,0,0,1.358-.646l4.89-6.021c3.413-4.1.4-10.081-4.934-10.737A4.075,4.075,0,0,0,92.92,22.9H26.8a1.75,1.75,0,0,0-1.75,1.75v7.02a3.932,3.932,0,0,0,4.64,3.78v2.9a4.229,4.229,0,0,0,4.22,4.23H44.219l.5,2.653c1.511,8.045,8.693,14.347,16.35,14.347H74.479l2.8,9.644A6.278,6.278,0,0,0,83.31,73.68H97.07a4.573,4.573,0,0,0,4.334-6.032L93.617,42.58Zm4.2-10.69c0,1.526-1.116,2.18-2.45,4.009V28.853A3.382,3.382,0,0,1,99.45,31.89Zm-70.9-.22V26.4H92.92a.576.576,0,0,1,.58.57v4.98H28.83A.28.28,0,0,1,28.55,31.67Zm4.64,6.68v-2.9H93.5v3.63H33.91A.717.717,0,0,1,33.19,38.35ZM61.07,56.08c-6.986-.038-12.57-6.254-13.288-13.5h3.152l.246,1.282c.9,4.807,5.337,8.718,9.89,8.718H72.445l1.015,3.5Zm0-7c-2.851,0-5.865-2.739-6.451-5.87l-.121-.63H69.546l1.886,6.5Zm37,19.63a1.091,1.091,0,0,1-.125,1.019,1.064,1.064,0,0,1-.874.451H83.31a2.786,2.786,0,0,1-2.679-1.958L73.19,42.58H89.951Z"/>
  </g>
</svg>
