<?xml version="1.0" encoding="utf-8"?>
<!-- Generator: Adobe Illustrator 16.0.0, SVG Export Plug-In . SVG Version: 6.00 Build 0)  -->
<!DOCTYPE svg PUBLIC "-//W3C//DTD SVG 1.1//EN" "http://www.w3.org/Graphics/SVG/1.1/DTD/svg11.dtd">
<svg enable-background="new 0 0 128 128" height="128px" id="Layer_1" version="1.1" viewBox="0 0 128 128"
     width="128px" x="0px" xml:space="preserve" xmlns="http://www.w3.org/2000/svg" y="0px">
<g>
	<g>
		<path d="M63.714,60.307c-0.345,0-0.69-0.089-0.999-0.268l-42.89-24.731c-0.618-0.356-0.999-1.014-1.001-1.727
			s0.376-1.373,0.992-1.732L62.879,6.708c0.621-0.363,1.387-0.364,2.009-0.004l42.787,24.73c0.616,0.356,0.997,1.014,0.999,1.726
			s-0.375,1.372-0.99,1.731l-42.96,25.142C64.412,60.215,64.063,60.307,63.714,60.307z M24.81,33.565l38.897,22.429l38.989-22.818
			L63.892,10.748L24.81,33.565z" fill="#282D33"/>
	</g>
	<g>
		<path d="M80.876,101.091l-2.018-3.455l26.304-15.358l-0.454-45.645L65.714,59.454v9.024h-4V58.307
			c0-0.71,0.377-1.367,0.99-1.726l42.96-25.142c0.614-0.36,1.376-0.366,1.996-0.014c0.62,0.352,1.007,1.007,1.014,1.72l0.5,50.255
			c0.007,0.718-0.371,1.385-0.991,1.747L80.876,101.091z" fill="#282D33"/>
	</g>
	<g>
		<path d="M47.451,101.252L20.315,85.568c-0.612-0.354-0.992-1.005-0.999-1.712l-0.492-50.261
			c-0.007-0.718,0.371-1.384,0.991-1.747c0.619-0.361,1.386-0.365,2.008-0.005l42.89,24.731c0.619,0.357,1.001,1.018,1.001,1.732
			v10.171h-4v-9.016L22.858,37.057l0.446,45.62l26.148,15.112L47.451,101.252z" fill="#282D33"/>
	</g>
	<g>
		<g>
			<g>
				<path d="M77.473,91.292h-4V85.79c0-4.402-3.529-7.984-7.867-7.984h-3.07c-4.339,0-7.87,3.582-7.87,7.984v5.502
					h-4V85.79c0-6.608,5.325-11.984,11.87-11.984h3.07c6.544,0,11.867,5.376,11.867,11.984V91.292z" fill="#282D33"/>
			</g>
		</g>
		<g>
			<path d="M78.409,92.438v25.188H49.728V92.438H78.409 M82.346,88.502h-3.937H49.728h-3.937v3.937v25.189v3.938
				h3.937h28.681h3.937v-3.938V92.438V88.502L82.346,88.502z" fill="#282D33"/>
		</g>
		<g>
			<rect fill="#282D33" height="9" width="4" x="62.07" y="100.233"/>
		</g>
	</g>
	<g>
		<g>

				<rect fill="#282D33" height="1.968" transform="matrix(0.5043 0.8635 -0.8635 0.5043 107.0581 -24.4654)" width="4.001" x="72.837" y="80.029"/>
		</g>
		<g>
			<path d="M79.938,80.353l-2.018-3.455l3.293-1.923l2.018,3.455L79.938,80.353z M86.524,76.508l-2.018-3.455
				L87.8,71.13l2.018,3.455L86.524,76.508z M93.11,72.662l-2.018-3.455l3.293-1.923l2.018,3.455L93.11,72.662z M99.696,68.817
				l-2.018-3.454l3.293-1.923l2.018,3.454L99.696,68.817z M106.283,64.972l-2.018-3.454l3.293-1.922l2.018,3.454L106.283,64.972z
				 M112.869,61.126l-2.018-3.454l3.293-1.922l2.018,3.454L112.869,61.126z M119.455,57.281l-2.018-3.454l3.293-1.922l2.018,3.454
				L119.455,57.281z" fill="#282D33"/>
		</g>
		<g>
			<path d="M125.308,53.864l-0.713-1.222l-1.301-0.752l0.43-0.741l-0.432-0.739l1.297-0.757l0.709-1.225l1.704,0.986
				c0.616,0.356,0.997,1.015,0.998,1.727c0.001,0.713-0.377,1.372-0.992,1.731L125.308,53.864z" fill="#282D33"/>
		</g>
		<g>

				<rect fill="#282D33" height="4" transform="matrix(0.8658 0.5004 -0.5004 0.8658 39.3708 -53.0598)" width="4.423" x="116.402" y="44.875"/>
		</g>
		<g>

				<rect fill="#282D33" height="4" transform="matrix(0.8658 0.5004 -0.5004 0.8658 36.6324 -50.3238)" width="1.968" x="111.155" y="41.135"/>
		</g>
	</g>
	<g>
		<g>

				<rect fill="#282D33" height="4.001" transform="matrix(0.8636 0.5041 -0.5041 0.8636 48.0908 -15.7516)" width="1.968" x="52.176" y="79.012"/>
		</g>
		<g>
			<path d="M48.061,80.353l-3.293-1.923l2.017-3.455l3.293,1.923L48.061,80.353z M41.475,76.508l-3.293-1.923
				l2.017-3.455l3.293,1.923L41.475,76.508z M34.889,72.662l-3.293-1.922l2.017-3.455l3.293,1.922L34.889,72.662z M28.303,68.817
				l-3.293-1.923l2.017-3.454l3.293,1.923L28.303,68.817z M21.717,64.972l-3.293-1.922l2.017-3.454l3.293,1.923L21.717,64.972z
				 M15.131,61.127l-3.293-1.922l2.017-3.454l3.293,1.922L15.131,61.127z M8.545,57.282l-3.292-1.922l2.017-3.454l3.292,1.922
				L8.545,57.282z" fill="#282D33"/>
		</g>
		<g>
			<path d="M2.691,53.864l-1.699-0.992C0.376,52.512-0.001,51.853,0,51.141s0.382-1.371,0.999-1.727l1.704-0.986
				l0.708,1.225l1.296,0.757l-0.431,0.738l0.429,0.742l-1.302,0.753L2.691,53.864z" fill="#282D33"/>
		</g>
		<g>

				<rect fill="#282D33" height="4.422" transform="matrix(0.5002 0.8659 -0.8659 0.5002 45.2809 15.2998)" width="4" x="7.387" y="44.664"/>
		</g>
		<g>

				<rect fill="#282D33" height="1.968" transform="matrix(0.5005 0.8657 -0.8657 0.5005 45.2662 7.8147)" width="4" x="13.861" y="42.151"/>
		</g>
	</g>
</g>
</svg>
