<svg height="128" viewBox="0 0 128 128" width="128" xmlns="http://www.w3.org/2000/svg">
  <g>
    <path d="M122.867,43.353c-18.567-19.142-15.141-16.771-17.5-17.594H69.252L55.527,11.343A1.833,1.833,0,0,0,54.26,10.8H11.36a6.758,6.758,0,0,0-6.75,6.75V95.49a6.758,6.758,0,0,0,6.75,6.75H55.72v8.21a6.758,6.758,0,0,0,6.75,6.75h54.17a6.758,6.758,0,0,0,6.75-6.75V44.6A1.834,1.834,0,0,0,122.867,43.353ZM107.12,31.89l10.434,10.96H107.12ZM78.78,74.09c-4.7,0-14.8,0-19.56,0V68.87H78.78a1.75,1.75,0,0,0,1.75-1.75V61.583l12.8,9.887-12.8,9.893V75.84A1.75,1.75,0,0,0,78.78,74.09ZM49.223,53.905H68.78v5.23H49.223a1.749,1.749,0,0,0-1.75,1.75v5.524l-12.8-9.894,12.8-9.887v5.527A1.749,1.749,0,0,0,49.223,53.905ZM66.445,27.89H56.01V16.927ZM8.11,95.49V17.55a3.254,3.254,0,0,1,3.25-3.25H52.51V29.64a1.75,1.75,0,0,0,1.75,1.75H68.78V50.405H50.973v-7.34a1.762,1.762,0,0,0-2.82-1.384L30.743,55.13a1.76,1.76,0,0,0,0,2.769l17.409,13.46a1.741,1.741,0,0,0,1.071.367,1.761,1.761,0,0,0,1.75-1.75V62.635H68.78V65.37H57.47a1.75,1.75,0,0,0-1.75,1.75v8.72a1.75,1.75,0,0,0,1.75,1.75H68.78v17.9a3.254,3.254,0,0,1-3.25,3.25H11.36A3.254,3.254,0,0,1,8.11,95.49Zm111.78,14.96a3.254,3.254,0,0,1-3.25,3.25H62.47a3.254,3.254,0,0,1-3.25-3.25v-8.21h6.31a6.758,6.758,0,0,0,6.75-6.75V77.59h4.75v7.34a1.75,1.75,0,0,0,.979,1.571,1.814,1.814,0,0,0,1.842-.187L97.26,72.854a1.762,1.762,0,0,0,0-2.769L79.85,56.635a1.75,1.75,0,0,0-2.82,1.385v7.35H72.28c0-2.849.006-10.278,0-13.215-.01-.031,0-22.481,0-22.516a3.432,3.432,0,0,0-.042-.379h31.379V44.6a1.75,1.75,0,0,0,1.753,1.75h14.52Z"/>
    <path d="M92.607,58.024a1.75,1.75,0,0,0,1.75,1.75h16.415a1.75,1.75,0,0,0,0-3.5H94.357A1.751,1.751,0,0,0,92.607,58.024Z"/>
    <path d="M110.772,69.729h-8.207a1.75,1.75,0,0,0,0,3.5h8.207A1.75,1.75,0,0,0,110.772,69.729Z"/>
    <path d="M110.772,83.185H94.357a1.75,1.75,0,0,0,0,3.5h16.415A1.75,1.75,0,0,0,110.772,83.185Z"/>
    <path d="M17.227,44.815H33.643a1.75,1.75,0,0,0,0-3.5H17.227A1.75,1.75,0,0,0,17.227,44.815Z"/>
    <path d="M17.227,58.27h8.208a1.75,1.75,0,0,0,0-3.5H17.227A1.75,1.75,0,0,0,17.227,58.27Z"/>
    <path d="M33.643,68.226H17.227a1.75,1.75,0,0,0,0,3.5H33.643A1.75,1.75,0,0,0,33.643,68.226Z"/>
  </g>
</svg>
