<?xml version="1.0" encoding="utf-8"?>
<!-- Generator: Adobe Illustrator 16.0.0, SVG Export Plug-In . SVG Version: 6.00 Build 0)  -->
<!DOCTYPE svg PUBLIC "-//W3C//DTD SVG 1.1//EN" "http://www.w3.org/Graphics/SVG/1.1/DTD/svg11.dtd">
<svg enable-background="new 0 0 128 128" height="128px" id="Layer_1" version="1.1" viewBox="0 0 128 128"
     width="128px" x="0px" xml:space="preserve" xmlns="http://www.w3.org/2000/svg" y="0px">
<g>
	<g>
		<path d="M64.002,103.006c-0.745,0-1.482-0.021-2.214-0.063l0.226-4.004c1.263,0.071,2.557,0.073,3.828,0.007
			l0.214,4.004C65.376,102.986,64.692,103.005,64.002,103.006z M70.302,102.483l-0.663-3.954c1.255-0.211,2.509-0.494,3.727-0.844
			l1.106,3.853C73.108,101.931,71.705,102.248,70.302,102.483z M57.539,102.455c-1.399-0.24-2.801-0.563-4.166-0.962l1.121-3.849
			c1.221,0.355,2.475,0.645,3.726,0.86L57.539,102.455z M78.51,100.129l-1.535-3.704c1.169-0.484,2.327-1.043,3.441-1.658
			l1.94,3.508C81.11,98.964,79.816,99.587,78.51,100.129z M49.342,100.067c-1.307-0.548-2.6-1.177-3.843-1.87l1.954-3.502
			c1.112,0.621,2.269,1.185,3.438,1.674L49.342,100.067z M85.973,96.004l-2.318-3.271c1.036-0.734,2.044-1.536,2.995-2.382
			l2.665,2.995C88.253,94.291,87.129,95.185,85.973,96.004z M41.891,95.909c-1.151-0.824-2.271-1.722-3.33-2.671l2.675-2.985
			c0.949,0.85,1.954,1.656,2.987,2.395L41.891,95.909z M92.345,90.338l-2.978-2.686c0.853-0.944,1.662-1.947,2.407-2.979
			l3.252,2.345C94.196,88.169,93.293,89.286,92.345,90.338z M35.544,90.218c-0.947-1.06-1.844-2.179-2.667-3.33l3.262-2.332
			c0.738,1.033,1.543,2.038,2.394,2.988L35.544,90.218z M97.332,83.427l-3.488-1.978c0.628-1.108,1.202-2.263,1.704-3.43
			l3.683,1.585C98.67,80.905,98.032,82.191,97.332,83.427z M30.588,83.288c-0.694-1.237-1.327-2.524-1.883-3.829l3.689-1.57
			c0.499,1.171,1.067,2.327,1.69,3.437L30.588,83.288z M100.7,75.597l-3.833-1.175c0.372-1.216,0.683-2.467,0.921-3.718l3.939,0.752
			C101.461,72.85,101.115,74.243,100.7,75.597z M27.25,75.447c-0.409-1.353-0.749-2.747-1.009-4.145l3.941-0.736
			c0.235,1.255,0.54,2.507,0.907,3.721L27.25,75.447z M102.299,67.23l-3.996-0.321c0.078-0.966,0.117-1.945,0.117-2.909
			c-0.001-0.306-0.005-0.618-0.012-0.928l4.007-0.097c0.009,0.339,0.013,0.678,0.014,1.019
			C102.429,65.071,102.385,66.157,102.299,67.23z M25.687,67.074c-0.078-1.017-0.118-2.052-0.118-3.074
			c0-0.397,0.006-0.792,0.018-1.187l4.008,0.121c-0.011,0.354-0.016,0.709-0.016,1.066c0,0.921,0.036,1.852,0.105,2.768
			L25.687,67.074z M98.106,59.255c-0.169-1.268-0.409-2.535-0.712-3.766l3.895-0.956c0.336,1.37,0.603,2.78,0.791,4.189
			L98.106,59.255z M29.911,59.113l-3.972-0.546c0.193-1.406,0.465-2.815,0.808-4.188l3.89,0.972
			C30.329,56.583,30.085,57.849,29.911,59.113z M96.28,51.827c-0.438-1.197-0.945-2.382-1.508-3.522l3.595-1.776
			c0.627,1.269,1.191,2.588,1.68,3.921L96.28,51.827z M31.767,51.691l-3.761-1.39c0.492-1.331,1.063-2.649,1.697-3.918l3.586,1.792
			C32.721,49.313,32.208,50.497,31.767,51.691z M92.892,44.972c-0.683-1.07-1.435-2.116-2.233-3.11l3.125-2.513
			c0.891,1.107,1.728,2.272,2.488,3.465L92.892,44.972z M35.186,44.847l-3.371-2.172c0.769-1.192,1.611-2.355,2.504-3.456
			l3.114,2.525C36.632,42.733,35.875,43.777,35.186,44.847z M88.099,39.014c-0.898-0.897-1.859-1.755-2.854-2.549l2.502-3.132
			c1.109,0.886,2.181,1.843,3.185,2.844L88.099,39.014z M40.006,38.908l-2.819-2.851c1.011-1,2.086-1.952,3.197-2.83l2.487,3.144
			C41.876,37.158,40.912,38.011,40.006,38.908z M82.128,34.245c-1.077-0.68-2.202-1.304-3.343-1.857l1.748-3.608
			c1.274,0.618,2.531,1.315,3.734,2.075L82.128,34.245z M45.997,34.165l-2.125-3.4c1.205-0.752,2.463-1.445,3.742-2.059l1.734,3.616
			C48.202,32.871,47.075,33.491,45.997,34.165z M75.256,30.917c-1.199-0.421-2.435-0.779-3.672-1.062l0.893-3.909
			c1.386,0.317,2.768,0.716,4.108,1.188L75.256,30.917z M52.881,30.869l-1.314-3.788c1.341-0.465,2.724-0.859,4.111-1.17
			l0.878,3.913C55.316,30.102,54.079,30.454,52.881,30.869z M67.816,29.217c-2.47-0.278-5.021-0.282-7.491-0.017l-0.429-3.986
			c2.76-0.297,5.606-0.292,8.366,0.018L67.816,29.217z" fill="#282D33"/>
	</g>
  <g>
		<g>
			<path d="M63.807,65.908c-0.348,0-0.695-0.092-1.007-0.271L41.826,53.458c-0.616-0.357-0.996-1.016-0.998-1.729
				c-0.001-0.712,0.375-1.373,0.99-1.733l21.11-12.382c0.622-0.366,1.395-0.368,2.021-0.004l20.979,12.18
				c0.616,0.357,0.996,1.017,0.998,1.729c0.002,0.713-0.376,1.374-0.99,1.733L64.82,65.632
				C64.508,65.815,64.157,65.908,63.807,65.908z M46.81,51.716l16.992,9.865l17.142-10.051l-16.995-9.867L46.81,51.716z"
            fill="#282D33"/>
		</g>
    <g>
			<g>
				<path d="M64.052,90.66c-0.34,0-0.681-0.087-0.987-0.261c-0.623-0.352-1.01-1.009-1.017-1.725l-0.246-24.752
					c-0.007-0.719,0.371-1.386,0.991-1.75l21.115-12.38c0.617-0.362,1.38-0.368,2.002-0.015c0.622,0.352,1.01,1.01,1.017,1.725
					l0.244,24.748c0.007,0.719-0.371,1.386-0.991,1.75L65.066,90.385C64.753,90.568,64.403,90.66,64.052,90.66z M65.822,65.045
					l0.2,20.131L83.148,75.13l-0.197-20.128L65.822,65.045z" fill="#282D33"/>
			</g>
		</g>
    <g>
			<g>
				<path d="M64.072,90.66c-0.007,0-0.013,0-0.02,0c-0.348,0-0.695-0.09-1.007-0.271L42.067,78.208
					c-0.612-0.355-0.991-1.006-0.998-1.714l-0.241-24.75c-0.007-0.72,0.373-1.39,0.996-1.752c0.623-0.363,1.392-0.363,2.016-0.001
					l20.974,12.177c0.611,0.355,0.99,1.006,0.997,1.713l0.243,24.469c0.015,0.099,0.022,0.2,0.022,0.304
					C66.076,89.763,65.18,90.66,64.072,90.66z M45.067,75.313l16.945,9.84l-0.199-20.09l-16.941-9.836L45.067,75.313z"
              fill="#282D33"/>
			</g>
		</g>
	</g>
  <g>
		<g>
			<g>
				<polygon fill="#282D33"
                 points="72.834,13.912 64.756,5.713 56.681,13.912 53.824,11.099 64.756,0 75.69,11.098 				"/>
			</g>
      <g>
				<rect fill="#282D33" height="16.334" width="4.01" x="62.752" y="4.766"/>
			</g>
		</g>
    <g>
			<g>
				<polygon fill="#282D33"
                 points="23.972,33.869 19.962,33.868 19.968,18.215 35.411,18.209 35.412,22.219 23.977,22.223 				"/>
			</g>
      <g>

					<rect fill="#282D33" height="4.009" transform="matrix(0.7016 0.7125 -0.7125 0.7016 28.1319 -12.4959)"
                width="16.204" x="20.885" y="25.34"/>
			</g>
		</g>
    <g>
			<g>
				<polygon fill="#282D33"
                 points="11.876,74.291 0.995,63.229 11.876,52.168 14.734,54.979 6.619,63.229 14.734,71.479 				"/>
			</g>
      <g>
				<rect fill="#282D33" height="4.009" width="16.08" x="5.687" y="61.223"/>
			</g>
		</g>
    <g>
			<g>
				<polygon fill="#282D33"
                 points="34.337,108.7 18.895,108.692 18.89,93.042 22.9,93.04 22.903,104.686 34.339,104.691 				"/>
			</g>
      <g>

					<rect fill="#282D33" height="16.208" transform="matrix(0.7129 0.7012 -0.7012 0.7129 77.8306 9.0083)"
                width="4.009" x="25.908" y="91.459"/>
			</g>
		</g>
    <g>
			<g>
				<polygon fill="#282D33" points="92.588,109.789 92.586,105.779 104.021,105.774 104.025,94.13 108.035,94.132 108.029,109.782
									"/>
			</g>
      <g>

					<rect fill="#282D33" height="4.009" transform="matrix(0.7018 0.7124 -0.7124 0.7018 101.2387 -40.5175)"
                width="16.204" x="90.909" y="98.651"/>
			</g>
		</g>
    <g>
			<g>
				<polygon fill="#282D33" points="116.122,75.83 113.264,73.02 121.381,64.771 113.264,56.52 116.122,53.708 127.005,64.771
					"/>
			</g>
      <g>
				<rect fill="#282D33" height="4.01" width="16.081" x="106.23" y="62.768"/>
			</g>
		</g>
    <g>
			<g>
				<polygon fill="#282D33" points="63.241,128 52.307,116.902 55.163,114.089 63.241,122.287 71.319,114.089 74.175,116.902
					"/>
			</g>
      <g>
				<rect fill="#282D33" height="16.336" width="4.009" x="61.235" y="106.9"/>
			</g>
		</g>
    <g>
			<g>
				<polygon fill="#282D33" points="105.098,34.959 105.094,23.314 93.658,23.308 93.66,19.299 109.101,19.306 109.106,34.958
					"/>
			</g>
      <g>

					<rect fill="#282D33" height="16.206" transform="matrix(0.7127 0.7015 -0.7015 0.7127 48.7027 -62.0372)"
                width="4.009" x="98.079" y="20.333"/>
			</g>
		</g>
	</g>
</g>
</svg>
