<svg height="128" viewBox="0 0 128 128" width="128" xmlns="http://www.w3.org/2000/svg">
  <g>
    <path d="M106.98,55.706a6.758,6.758,0,0,0-6.75-6.75H98.005v-6.8a1.75,1.75,0,0,0-3.5,0v6.8H89.326v-6.8a1.75,1.75,0,0,0-3.5,0v6.8H80.971v-6.8a1.75,1.75,0,0,0-3.5,0v6.8H72.128V41.11a3.748,3.748,0,0,0-3.744-3.745H63.826a3.749,3.749,0,0,0-3.745,3.745v7.846H53.8V47.342a1.75,1.75,0,0,0-3.5,0v1.614h-5.57V46.694a1.75,1.75,0,0,0-3.5,0v2.262H33.495v-6.8a1.75,1.75,0,1,0-3.5,0v6.8H27.77a6.758,6.758,0,0,0-6.75,6.75v58.23a6.758,6.758,0,0,0,6.75,6.75H84.935a1.755,1.755,0,0,0,1.382-.513l20.15-20.15C107.269,99.221,106.968,101.374,106.98,55.706Zm-43.4-14.6a.248.248,0,0,1,.245-.245h4.558a.247.247,0,0,1,.244.245v7.846H63.581ZM24.52,113.936V55.706a3.254,3.254,0,0,1,3.25-3.25h3.941c5.122.015,15.306-.011,20.375,0,13.533,0,30.6,0,44.2,0h3.941a3.254,3.254,0,0,1,3.25,3.25v41.33H90.04a6.758,6.758,0,0,0-6.75,6.75l.009,13.4H27.77A3.254,3.254,0,0,1,24.52,113.936ZM93.844,107.7l-7.052,7.051,0-10.962a3.254,3.254,0,0,1,3.25-3.25h10.965Z"/>
    <path d="M31.745,17.909a1.751,1.751,0,0,0,1.75-1.75V9.034a1.75,1.75,0,0,0-3.5,0v7.125A1.75,1.75,0,0,0,31.745,17.909Z"/>
    <path d="M31.745,37.433a1.751,1.751,0,0,0,1.75-1.75V22.988a1.75,1.75,0,1,0-3.5,0v12.7A1.75,1.75,0,0,0,31.745,37.433Z"/>
    <path d="M42.982,19.463a1.75,1.75,0,0,0,1.75-1.75V9.034a1.75,1.75,0,0,0-3.5,0v8.679A1.75,1.75,0,0,0,42.982,19.463Z"/>
    <path d="M52.346,19.463a1.749,1.749,0,0,0,1.75-1.75V9.034a1.75,1.75,0,0,0-3.5,0v8.679A1.75,1.75,0,0,0,52.346,19.463Z"/>
    <path d="M60.617,17.909a1.751,1.751,0,0,0,1.75-1.75V9.034a1.75,1.75,0,0,0-3.5,0v7.125A1.75,1.75,0,0,0,60.617,17.909Z"/>
    <path d="M69.476,22.832a1.751,1.751,0,0,0,1.75-1.75V9.034a1.75,1.75,0,0,0-3.5,0V21.082A1.75,1.75,0,0,0,69.476,22.832Z"/>
    <path d="M78.9,14.67a1.75,1.75,0,0,0,1.75-1.75V9.034a1.75,1.75,0,0,0-3.5,0V12.92A1.75,1.75,0,0,0,78.9,14.67Z"/>
    <path d="M87.576,14.67a1.75,1.75,0,0,0,1.75-1.75V9.034a1.75,1.75,0,0,0-3.5,0V12.92A1.75,1.75,0,0,0,87.576,14.67Z"/>
    <path d="M96.255,14.67a1.749,1.749,0,0,0,1.75-1.75V9.034a1.75,1.75,0,0,0-3.5,0V12.92A1.75,1.75,0,0,0,96.255,14.67Z"/>
    <path d="M96.255,37.433a1.75,1.75,0,0,0,1.75-1.75V19.677a1.75,1.75,0,1,0-3.5,0V35.683A1.751,1.751,0,0,0,96.255,37.433Z"/>
    <path d="M44.576,41.708h5.556a3.348,3.348,0,0,0,3.344-3.344V25.877a3.347,3.347,0,0,0-3.344-3.343H44.576a3.347,3.347,0,0,0-3.344,3.343V38.364A3.348,3.348,0,0,0,44.576,41.708Zm.156-15.674h5.244V38.208H44.732Z"/>
    <path d="M77.471,21.605V33.754a3.857,3.857,0,0,0,3.853,3.853h4.15a3.857,3.857,0,0,0,3.852-3.853V21.605a3.856,3.856,0,0,0-3.852-3.852h-4.15A3.857,3.857,0,0,0,77.471,21.605Zm3.5,0a.353.353,0,0,1,.353-.352h4.15a.353.353,0,0,1,.352.352V33.754a.353.353,0,0,1-.352.353h-4.15a.353.353,0,0,1-.353-.353Z"/>
    <path d="M69.476,34.94a1.751,1.751,0,0,0,1.75-1.75v-5.1a1.75,1.75,0,0,0-3.5,0v5.1A1.75,1.75,0,0,0,69.476,34.94Z"/>
    <path d="M60.632,21.238a1.751,1.751,0,0,0-1.75,1.75v10.2a1.75,1.75,0,0,0,3.5,0v-10.2A1.751,1.751,0,0,0,60.632,21.238Z"/>
    <path d="M80.489,62.606H47.509a1.75,1.75,0,0,0,0,3.5h32.98A1.75,1.75,0,0,0,80.489,62.606Z"/>
    <path d="M87.929,66.106h8.33a1.75,1.75,0,0,0,0-3.5h-8.33A1.75,1.75,0,0,0,87.929,66.106Z"/>
    <path d="M31.749,66.106h8.33a1.75,1.75,0,0,0,0-3.5h-8.33A1.75,1.75,0,0,0,31.749,66.106Z"/>
    <path d="M47.509,79.756h16.58a1.75,1.75,0,0,0,0-3.5H47.509A1.75,1.75,0,0,0,47.509,79.756Z"/>
    <path d="M87.929,79.756h8.33a1.75,1.75,0,0,0,0-3.5h-8.33A1.75,1.75,0,0,0,87.929,79.756Z"/>
    <path d="M80.489,76.256h-8.97a1.75,1.75,0,0,0,0,3.5h8.97A1.75,1.75,0,0,0,80.489,76.256Z"/>
    <path d="M31.749,79.756h8.33a1.75,1.75,0,0,0,0-3.5h-8.33A1.75,1.75,0,0,0,31.749,79.756Z"/>
    <path d="M57.759,89.916H47.449a1.75,1.75,0,0,0,0,3.5h10.31A1.75,1.75,0,0,0,57.759,89.916Z"/>
    <path d="M74.7,89.916h-9.62a1.75,1.75,0,0,0,0,3.5H74.7A1.75,1.75,0,0,0,74.7,89.916Z"/>
    <path d="M40.139,89.916h-8.39a1.75,1.75,0,1,0,0,3.5h8.39A1.75,1.75,0,0,0,40.139,89.916Z"/>
    <path d="M74.7,103.566h-9.56a1.75,1.75,0,0,0,0,3.5H74.7A1.75,1.75,0,0,0,74.7,103.566Z"/>
    <path d="M40.079,103.566h-8.33a1.75,1.75,0,0,0,0,3.5h8.33A1.75,1.75,0,0,0,40.079,103.566Z"/>
    <path d="M57.709,103.566h-10.2a1.75,1.75,0,0,0,0,3.5h10.2A1.75,1.75,0,0,0,57.709,103.566Z"/>
  </g>
</svg>
