<?xml version="1.0" encoding="utf-8"?>
<!-- Generator: Adobe Illustrator 16.0.0, SVG Export Plug-In . SVG Version: 6.00 Build 0)  -->
<!DOCTYPE svg PUBLIC "-//W3C//DTD SVG 1.1//EN" "http://www.w3.org/Graphics/SVG/1.1/DTD/svg11.dtd">
<svg enable-background="new 0 0 128 128" height="128px" id="Layer_1" version="1.1" viewBox="0 0 128 128"
     width="128px" x="0px" xml:space="preserve" xmlns="http://www.w3.org/2000/svg" y="0px">
<g>
	<g>
		<g>
			<polygon fill="#282D33" points="13.15,24.424 10.621,21.863 4.241,0 25.883,6.472 28.417,9.037 25.57,11.849 23.755,10.012
				10.143,5.94 14.179,19.771 15.997,21.612 			"/>
		</g>
		<g>
			<g>
				<path d="M27.162,12.396l88.196,89.309l-10.66,10.796l-88.2-89.312L27.162,12.396 M27.162,6.793L10.966,23.188
					l93.732,94.912l16.192-16.396L27.162,6.793L27.162,6.793z" fill="#282D33"/>
			</g>
		</g>
		<g>
			<path d="M113.646,124.737c-0.002,0-0.004,0-0.006,0c-0.935-0.001-1.799-0.357-2.435-1.003l-3.559-3.603
				l2.846-2.812l3.256,3.295l9.623-9.747l-3.288-3.326l2.844-2.813l3.566,3.607c1.402,1.427,1.285,3.768-0.262,5.331l-9.696,9.819
				C115.75,124.282,114.697,124.737,113.646,124.737z" fill="#282D33"/>
		</g>
	</g>
	<g>
		<g>
			<path d="M20.144,128L20.144,128c-1.222,0-2.368-0.481-3.229-1.354L1.848,111.392
				c-1.762-1.785-1.762-4.69-0.001-6.475l44.987-45.552c0.863-0.874,2.011-1.354,3.232-1.354c1.22,0,2.366,0.479,3.228,1.351
				l15.068,15.257c1.761,1.781,1.762,4.686,0.002,6.473l-44.988,45.555C22.512,127.519,21.364,128,20.144,128z M50.066,62.012
				c-0.102,0-0.251,0.028-0.386,0.165L4.694,107.728c-0.231,0.235-0.231,0.618,0.001,0.854l15.067,15.253
				c0.27,0.273,0.502,0.269,0.769-0.002L65.516,78.28c0.227-0.23,0.228-0.621,0-0.851L50.449,62.174
				C50.316,62.04,50.167,62.012,50.066,62.012z" fill="#282D33"/>
		</g>
		<g>
			<path d="M65.398,75.741L65.398,75.741c-0.99,0-1.896-0.368-2.555-1.037l-9.705-9.825
				c-1.521-1.539-1.308-4.167,0.484-5.982l5.946-6.02l15.164,15.359l-5.909,5.979C67.868,75.186,66.62,75.741,65.398,75.741z
				 M65.398,71.74v2V71.74L65.398,71.74z M56.145,62.23l9.369,9.483c0.11-0.038,0.281-0.125,0.462-0.308l3.134-3.172l-9.542-9.664
				l-3.099,3.138C56.275,61.904,56.18,62.104,56.145,62.23z" fill="#282D33"/>
		</g>
		<g>

				<rect fill="#282D33" height="58.369" transform="matrix(0.7119 0.7023 -0.7023 0.7119 54.4501 -47.1199)" width="4.001" x="82.656" y="13.622"/>
		</g>
		<g>
			<path d="M105.286,24.539l-2.592-2.624l0.043-10.766l14.195-8.272l7.191,7.279l-8.152,14.339L105.286,24.539z
				 M106.701,20.278l0.249,0.253l6.688-0.027l5.509-9.691l-2.881-2.916l-9.538,5.558L106.701,20.278z" fill="#282D33"/>
		</g>
		<g>

				<rect fill="#282D33" height="54.678" transform="matrix(0.7116 0.7026 -0.7026 0.7116 72.1162 3.533)" width="4" x="29.754" y="62.272"/>
		</g>
		<g>

				<rect fill="#282D33" height="54.676" transform="matrix(0.7114 0.7028 -0.7028 0.7114 78.8427 0.792)" width="4.001" x="36.457" y="69.061"/>
		</g>
	</g>
</g>
</svg>
