<?xml version="1.0" encoding="utf-8"?>
<!-- Generator: Adobe Illustrator 16.0.0, SVG Export Plug-In . SVG Version: 6.00 Build 0)  -->
<!DOCTYPE svg PUBLIC "-//W3C//DTD SVG 1.1//EN" "http://www.w3.org/Graphics/SVG/1.1/DTD/svg11.dtd">
<svg version="1.1" id="Layer_1" xmlns="http://www.w3.org/2000/svg" x="0px" y="0px"
     width="128px" height="128px" viewBox="0 0 128 128" enable-background="new 0 0 128 128" xml:space="preserve">
<g>
	<g>
		<g>
			<path fill="#282D33" d="M127.998,63.443h-17.729V17.1c0-4.193,3.445-7.604,7.682-7.604h2.365c4.236,0,7.683,3.411,7.683,7.604
				V63.443z M114.275,59.436h9.715V17.1c0-1.983-1.648-3.597-3.675-3.597h-2.365c-2.026,0-3.675,1.614-3.675,3.597V59.436z"/>
		</g>
		<g>
			<polygon fill="#282D33" points="126.341,106.442 111.925,106.442 111.925,62.874 115.932,62.874 115.932,102.435
				122.333,102.435 122.333,62.874 126.341,62.874 			"/>
		</g>
		<g>
			<path fill="#282D33" d="M104.898,56.715h-4.008v-29.16c0-4.192,3.446-7.604,7.682-7.604h17.422v4.007h-17.422
				c-2.026,0-3.674,1.613-3.674,3.596V56.715z"/>
		</g>
		<g>
			<rect x="112.271" y="59.668" fill="#282D33" width="13.962" height="4.007"/>
		</g>
		<g>
			<rect x="112.271" y="102.346" fill="#282D33" width="13.962" height="4.007"/>
		</g>
		<g>
			<g>
				<path fill="#282D33" d="M121.282,125.73h-4.007c0-3.342-1.712-7.424-2.669-7.809l-1.516-0.381l0.017-1.558v-6.946h4.008v5.746
					C120.008,116.96,121.282,122.742,121.282,125.73z"/>
			</g>
			<g>
				<path fill="#282D33" d="M121.282,125.73h-4.007c0-2.988,1.275-8.771,4.172-10.948v-5.746h4.007v8.51l-1.516,0.381
					C122.998,118.307,121.282,122.389,121.282,125.73z"/>
			</g>
		</g>
	</g>
	<g>
		<polygon fill="#282D33" points="93.097,128 0.002,128 0.002,0 58.713,0 58.713,4.007 4.009,4.007 4.009,123.992 89.089,123.992
			89.089,33.946 93.097,33.946 		"/>
	</g>
	<g>
		<g>
			<path fill="#282D33" d="M92.329,27.469H65.748V1.246L92.329,27.469z M69.756,23.462h12.806L69.756,10.829V23.462z"/>
		</g>
	</g>
	<g>
		<rect x="14.849" y="27.902" fill="#282D33" width="27.583" height="4.007"/>
	</g>
	<g>
		<rect x="14.343" y="44.8" fill="#282D33" width="58.564" height="4.007"/>
	</g>
	<g>
		<rect x="14.343" y="59.145" fill="#282D33" width="58.564" height="4.007"/>
	</g>
	<g>
		<rect x="14.343" y="73.49" fill="#282D33" width="58.564" height="4.007"/>
	</g>
	<g>
		<rect x="14.343" y="87.835" fill="#282D33" width="58.158" height="4.007"/>
	</g>
	<g>
		<rect x="14.343" y="102.305" fill="#282D33" width="18.832" height="4.007"/>
	</g>
</g>
</svg>
