<?xml version="1.0" encoding="utf-8"?>
<!-- Generator: Adobe Illustrator 16.0.0, SVG Export Plug-In . SVG Version: 6.00 Build 0)  -->
<!DOCTYPE svg PUBLIC "-//W3C//DTD SVG 1.1//EN" "http://www.w3.org/Graphics/SVG/1.1/DTD/svg11.dtd">
<svg enable-background="new 0 0 128 128" height="128px" id="Layer_1" version="1.1" viewBox="0 0 128 128"
     width="128px" x="0px" xml:space="preserve" xmlns="http://www.w3.org/2000/svg" y="0px">
<g>
	<g>
		<path d="M11.005,34.145h-4V11.574c0-3.049,2.295-5.529,5.115-5.529h103.764c2.818,0,5.111,2.48,5.111,5.529v14.188
			h-4V11.574c0-0.829-0.509-1.529-1.111-1.529H12.12c-0.604,0-1.115,0.7-1.115,1.529V34.145z" fill="#282D33"/>
	</g>
	<g>
		<g>
			<g>
				<g>
					<polygon fill="#282D33" points="20.383,34.145 16.383,34.145 16.383,16.896 111.62,16.896 111.62,25.762 107.62,25.762
						107.62,20.896 20.383,20.896 					"/>
				</g>
			</g>
		</g>
	</g>
	<g>
		<path d="M115.105,101.23H88.715v-4h26.391c0.603,0,1.112-0.701,1.112-1.531l0.018-0.264l7.762-58.088
			c-0.043-0.779-0.533-1.417-1.108-1.417H71.456l-4.48,8.238H5.114c-0.579,0-1.071,0.643-1.111,1.426l6.226,50.106
			c0,0.816,0.521,1.531,1.114,1.531h27.773v4H11.342c-2.777,0-5.045-2.408-5.112-5.395L0,45.696c0-3.049,2.294-5.529,5.114-5.529
			h59.485l4.48-8.238h53.81c2.818,0,5.111,2.48,5.111,5.528l-0.018,0.265l-7.767,58.124
			C120.144,98.828,117.879,101.23,115.105,101.23z" fill="#282D33"/>
	</g>
	<g>
		<g>
			<g>
				<path d="M77.84,85.533h-4V82.82c0-5.305-3.698-9.621-8.244-9.621h-3.188c-4.547,0-8.247,4.316-8.247,9.621v2.713
					h-4V82.82c0-7.512,5.494-13.621,12.247-13.621h3.188c6.751,0,12.244,6.109,12.244,13.621V85.533z" fill="#282D33"/>
			</g>
		</g>
		<g>
			<path d="M79.712,90.561v27.459H48.291V90.561H79.712 M83.646,86.623h-3.936h-31.42h-3.937v3.938v27.459v3.936
				h3.937h31.421h3.937v-3.936V90.561v-3.938H83.646z" fill="#282D33"/>
		</g>
		<g>
			<path d="M64.002,97.623c-1.599,0-2.898,1.469-2.898,3.289c0,1.197,0.567,2.24,1.412,2.814l-0.656,5.598h2.143
				h2.14l-0.654-5.598c0.845-0.574,1.414-1.617,1.414-2.814C66.9,99.092,65.602,97.623,64.002,97.623L64.002,97.623z" fill="#282D33"/>
		</g>
	</g>
	<g>
		<g>
			<g>

					<rect fill="#282D33" height="1.968" transform="matrix(0.2539 0.9672 -0.9672 0.2539 130.7704 -13.1618)" width="4" x="71.916" y="77.199"/>
			</g>
			<g>
				<path d="M78.92,78.939l-1.016-3.869l3.601-0.945l1.016,3.869L78.92,78.939z M86.121,77.049l-1.016-3.869
					l3.601-0.945l1.016,3.869L86.121,77.049z M93.322,75.16l-1.016-3.869l3.601-0.945l1.016,3.869L93.322,75.16z M100.524,73.27
					L99.509,69.4l3.601-0.945l1.016,3.869L100.524,73.27z M107.726,71.379l-1.016-3.869l3.601-0.943l1.016,3.869L107.726,71.379z
					 M114.927,69.49l-1.016-3.869l3.601-0.945l1.016,3.869L114.927,69.49z" fill="#282D33"/>
			</g>
			<g>

					<rect fill="#282D33" height="1.967" transform="matrix(0.2539 0.9672 -0.9672 0.2539 154.3823 -68.9527)" width="4" x="119.887" y="64.612"/>
			</g>
		</g>
		<g>
			<g>

					<rect fill="#282D33" height="4" transform="matrix(0.9672 0.254 -0.254 0.9672 21.5878 -10.8597)" width="1.969" x="51.871" y="76.183"/>
			</g>
			<g>
				<path d="M47.852,78.939l-3.601-0.945l1.016-3.869l3.601,0.945L47.852,78.939z M40.65,77.049l-3.601-0.945
					l1.016-3.869l3.601,0.945L40.65,77.049z M33.448,75.16l-3.601-0.945l1.016-3.869l3.601,0.945L33.448,75.16z M26.247,73.27
					l-3.601-0.945l1.015-3.869l3.601,0.945L26.247,73.27z M19.044,71.379l-3.601-0.945l1.016-3.869l3.601,0.945L19.044,71.379z
					 M11.842,69.49l-3.601-0.945l1.016-3.869l3.601,0.945L11.842,69.49z" fill="#282D33"/>
			</g>
			<g>

					<rect fill="#282D33" height="3.999" transform="matrix(0.9672 0.2541 -0.2541 0.9672 16.8306 0.913)" width="1.967" x="3.898" y="63.596"/>
			</g>
		</g>
	</g>
</g>
</svg>
