<?xml version="1.0" encoding="utf-8"?>
<!-- Generator: Adobe Illustrator 16.0.0, SVG Export Plug-In . SVG Version: 6.00 Build 0)  -->
<!DOCTYPE svg PUBLIC "-//W3C//DTD SVG 1.1//EN" "http://www.w3.org/Graphics/SVG/1.1/DTD/svg11.dtd">
<svg enable-background="new 0 0 128 128" height="128px" id="Layer_1" version="1.1" viewBox="0 0 128 128"
     width="128px" x="0px" xml:space="preserve" xmlns="http://www.w3.org/2000/svg" y="0px">
<g>
	<g>
		<g>
			<g>
				<path d="M38.923,84.466C17.461,84.466,0,66.797,0,45.078C0,23.361,17.461,5.693,38.923,5.693v4
					C19.667,9.693,4,25.566,4,45.078c0,19.513,15.667,35.388,34.923,35.388V84.466z" fill="#282D33"/>
			</g>
			<g>
				<path d="M38.923,84.466c-13.099,0-23.36-17.301-23.36-39.388c0-22.084,10.261-39.384,23.36-39.384
					c9.554,0,18.038,9.563,21.613,24.364l-3.888,0.939C53.569,18.255,46.446,9.694,38.923,9.694
					c-10.494,0-19.36,16.204-19.36,35.384c0,19.183,8.866,35.388,19.36,35.388V84.466z" fill="#282D33"/>
			</g>
			<g>
				<path d="M71.237,31.64C66.086,18.936,54.326,10.516,40.923,9.75v14.92h-4V5.693h2
					c15.86,0,30,9.595,36.021,24.443L71.237,31.64z" fill="#282D33"/>
			</g>
			<g>
				<path d="M30.863,60.256H3.008l-0.484-1.304C0.849,54.444,0,49.776,0,45.078c0-4.701,0.851-9.371,2.528-13.879
					l0.485-1.302h27.85v4H5.82C4.612,37.55,4,41.305,4,45.078c0,3.771,0.611,7.524,1.816,11.178h25.046V60.256z" fill="#282D33"/>
			</g>
		</g>
	</g>
	<g>
		<g>
			<g>
				<path d="M128,122.307H36.959V29.929H128V122.307z M40.959,118.307H124V33.929H40.959V118.307z" fill="#282D33"/>
			</g>
			<g>
				<rect fill="#282D33" height="4" width="87.041" x="38.959" y="49.519"/>
			</g>
			<g>
				<rect fill="#282D33" height="4" width="38.344" x="46.297" y="39.779"/>
			</g>
			<g>
				<rect fill="#282D33" height="4" width="4.99" x="112.473" y="39.779"/>
			</g>
		</g>
		<g>
			<rect fill="#282D33" height="4" width="56.705" x="52.793" y="89.684"/>
		</g>
		<g>
			<g>
				<path d="M105.563,66.741v11.041H56.729V66.741H105.563 M109.498,62.805H52.793v18.914h56.705V62.805
					L109.498,62.805z" fill="#282D33"/>
			</g>
		</g>
		<g>
			<rect fill="#282D33" height="4" width="56.705" x="52.793" y="101.166"/>
		</g>
	</g>
</g>
</svg>
