<svg height="128" viewBox="0 0 128 128" width="128" xmlns="http://www.w3.org/2000/svg">
  <g>
    <path d="M62.662,95.339a1.762,1.762,0,0,0,2.664,0l30.7-36.033a1.762,1.762,0,0,0-1.332-2.885H75.753V9.451A1.749,1.749,0,0,0,74,7.7H52.981a1.75,1.75,0,0,0-1.75,1.75v46.97H33.306a1.762,1.762,0,0,0-1.332,2.885ZM52.981,59.921a1.749,1.749,0,0,0,1.75-1.75V11.2H72.253v46.97A1.749,1.749,0,0,0,74,59.921H90.9L63.994,91.506,37.1,59.921Z"/>
    <path d="M115.286,86.711h-14a1.749,1.749,0,0,0-1.75,1.75V99.549a3.254,3.254,0,0,1-3.25,3.25H31.714a3.254,3.254,0,0,1-3.25-3.25V88.461a1.749,1.749,0,0,0-1.75-1.75h-14a1.749,1.749,0,0,0-1.75,1.75v20.088a11.764,11.764,0,0,0,11.75,11.75h82.572a11.764,11.764,0,0,0,11.75-11.75V88.461A1.749,1.749,0,0,0,115.286,86.711Zm-1.75,21.838a8.259,8.259,0,0,1-8.25,8.25H22.714a8.259,8.259,0,0,1-8.25-8.25V90.211h10.5v9.338a6.758,6.758,0,0,0,6.75,6.75H96.286a6.758,6.758,0,0,0,6.75-6.75V90.211h10.5Z"/>
  </g>
</svg>
