<?xml version="1.0" encoding="utf-8"?>
<!-- Generator: Adobe Illustrator 16.0.0, SVG Export Plug-In . SVG Version: 6.00 Build 0)  -->
<!DOCTYPE svg PUBLIC "-//W3C//DTD SVG 1.1//EN" "http://www.w3.org/Graphics/SVG/1.1/DTD/svg11.dtd">
<svg enable-background="new 0 0 128 128" height="128px" id="Layer_1" version="1.1" viewBox="0 0 128 128"
     width="128px" x="0px" xml:space="preserve" xmlns="http://www.w3.org/2000/svg" y="0px">
<g>
	<g>
		<g>
			<g>
				<g>
					<g>
						<path d="M64.009,128c-12.595,0-24.738-3.75-35.198-10.857l-21.003,9.935l7.266-22.551
							C5.814,93.113,0.729,78.768,0.729,64.003C0.729,28.711,29.116,0,64.009,0v4C31.321,4,4.729,30.917,4.729,64.003
							c0,14.197,5.013,27.979,14.115,38.808l0.712,0.848l-5.108,15.853l14.753-6.978l0.953,0.674
							C40.149,120.268,51.856,124,64.009,124c32.678,0,59.263-26.915,59.263-59.997h4C127.271,99.291,98.892,128,64.009,128z" fill="#282D33"/>
					</g>
				</g>
			</g>
		</g>
	</g>
	<g>
		<g>
			<path d="M127.271,64.003h-4c0-0.632-0.01-1.26-0.027-1.887L127.242,62
				C127.262,62.666,127.271,63.333,127.271,64.003z" fill="#282D33"/>
		</g>
		<g>
			<path d="M122.997,58.212c-0.126-1.333-0.297-2.674-0.51-3.987l3.949-0.639c0.227,1.4,0.409,2.83,0.543,4.25
				L122.997,58.212z M121.714,50.281c-0.3-1.302-0.647-2.608-1.033-3.882l3.828-1.159c0.411,1.359,0.782,2.752,1.104,4.143
				L121.714,50.281z M119.387,42.59c-0.47-1.245-0.99-2.495-1.546-3.715l3.641-1.657c0.592,1.3,1.146,2.632,1.647,3.959
				L119.387,42.59z M116.052,35.275c-0.636-1.178-1.317-2.346-2.026-3.473l3.385-2.131c0.757,1.202,1.483,2.448,2.161,3.704
				L116.052,35.275z M111.771,28.473c-0.785-1.08-1.617-2.147-2.472-3.172l3.072-2.562c0.911,1.092,1.798,2.23,2.634,3.381
				L111.771,28.473z M106.623,22.304c-0.923-0.968-1.889-1.914-2.869-2.811l2.699-2.951c1.048,0.958,2.079,1.968,3.064,3
				L106.623,22.304z M100.701,16.879c-1.041-0.832-2.125-1.64-3.221-2.401l2.281-3.285c1.17,0.812,2.325,1.674,3.436,2.561
				L100.701,16.879z M94.105,12.301c-1.148-0.687-2.33-1.34-3.513-1.941l1.814-3.565c1.263,0.643,2.525,1.34,3.751,2.074
				L94.105,12.301z M86.957,8.664c-1.225-0.521-2.483-1.007-3.742-1.443l1.311-3.779c1.344,0.466,2.689,0.984,3.998,1.542
				L86.957,8.664z M79.38,6.038c-1.285-0.348-2.601-0.656-3.908-0.916l0.779-3.924c1.397,0.278,2.802,0.607,4.176,0.979L79.38,6.038
				z M71.51,4.476c-1.213-0.155-2.45-0.274-3.677-0.354l0.258-3.991c1.31,0.084,2.631,0.211,3.927,0.377L71.51,4.476z" fill="#282D33"/>
		</g>
		<g>
			<path d="M65.894,4.029C65.268,4.009,64.639,4,64.009,4V0c0.671,0,1.341,0.01,2.008,0.031L65.894,4.029z" fill="#282D33"/>
		</g>
	</g>
	<g>
		<g>
			<path d="M62.999,97.421c-18.521,0-33.59-15.235-33.59-33.962c0-18.725,15.068-33.959,33.59-33.959
				c10.106,0,19.58,4.539,25.992,12.452l-3.107,2.519c-5.649-6.972-13.99-10.97-22.885-10.97c-16.316,0-29.59,13.439-29.59,29.959
				c0,16.521,13.273,29.962,29.59,29.962c6.49,0,12.652-2.091,17.822-6.046l2.43,3.178C77.378,95.046,70.375,97.421,62.999,97.421z" fill="#282D33"
				/>
		</g>
		<g>
			<path d="M57.293,79.64C57.292,79.64,57.293,79.64,57.293,79.64c-1.273,0-2.625-0.206-4.02-0.612
				c-4.127-1.199-7.145-4.559-8.278-9.218c-1.558-6.398,0.775-13.514,6.09-18.57c4.626-4.396,10.991-5.318,15.517-5.318
				c3.835,0,6.683,0.647,6.803,0.675l2.081,0.48l-0.616,2.045c-0.232,0.773-5.711,18.963-6.686,21.785
				C67.282,73.529,64.413,79.64,57.293,79.64z M66.602,49.921c-3.797,0-9.092,0.732-12.761,4.217
				c-5.114,4.866-5.916,10.797-4.959,14.726c0.786,3.229,2.794,5.533,5.509,6.322c1.032,0.301,2.008,0.453,2.901,0.453
				c4.381,0,6.335-3.782,7.109-6.037c0.754-2.181,4.454-14.4,5.979-19.451C69.371,50.029,68.065,49.921,66.602,49.921z" fill="#282D33"/>
		</g>
		<g>
			<path d="M76.264,79.34c-2.741,0-5.24-0.957-7.278-2.832c-4.414-4.059-0.247-20.375,1.136-25.279l3.85,1.085
				c-2.782,9.878-3.847,19.808-2.278,21.251c2.507,2.304,5.543,1.94,7.649,1.23c4.672-1.575,10.074-6.943,11.363-14.157
				c0.94-5.27,0.026-13.193-9.673-21.017l2.512-3.113c11.813,9.529,12.024,19.649,11.099,24.833
				c-1.401,7.842-7.167,14.933-14.022,17.245C79.125,79.09,77.662,79.34,76.264,79.34z" fill="#282D33"/>
		</g>
	</g>
</g>
</svg>
