<svg height="128" viewBox="0 0 128 128" width="128" xmlns="http://www.w3.org/2000/svg">
  <g>
    <path d="M64.006,10.009A54.059,54.059,0,0,0,10,64C12.97,135.62,115.042,135.611,118,64A54.053,54.053,0,0,0,64.006,10.009Zm0,104.482A50.554,50.554,0,0,1,13.5,64C16.277-2.977,111.733-2.969,114.5,64A50.548,50.548,0,0,1,64.006,114.491Z"/>
    <path d="M72.174,64.005,92.581,43.588a5.773,5.773,0,1,0-8.165-8.164L64.01,55.841,43.588,35.419a5.773,5.773,0,0,0-8.16,8.169L55.845,64.005l-20.412,20.4a5.773,5.773,0,1,0,8.159,8.17L64.01,72.17,84.416,92.577a5.774,5.774,0,0,0,8.165-8.165ZM90.11,90.1a2.285,2.285,0,0,1-3.219.005L65.248,68.458a1.75,1.75,0,0,0-2.475,0L41.122,90.1A2.292,2.292,0,0,1,37.9,90.1a2.266,2.266,0,0,1,0-3.215L59.558,65.244a1.761,1.761,0,0,0,0-2.475L37.9,41.108a2.266,2.266,0,0,1,0-3.2,2.3,2.3,0,0,1,3.22,0L62.773,59.554a1.8,1.8,0,0,0,2.475,0L86.891,37.9a2.273,2.273,0,1,1,3.214,3.214L68.462,62.769a1.75,1.75,0,0,0,0,2.474L90.106,86.887A2.282,2.282,0,0,1,90.11,90.1Z"/>
  </g>
</svg>
