<svg height="128" viewBox="0 0 128 128" width="128" xmlns="http://www.w3.org/2000/svg">
  <path d="M117.22,57.7V32.19a1.75,1.75,0,0,0-1.75-1.75H49.58V7.62a1.762,1.762,0,0,0-3.021-1.2l-35.3,37.331a1.75,1.75,0,0,0,0,2.4l21.186,22.4H12.53a1.749,1.749,0,0,0-1.75,1.75V95.81a1.749,1.749,0,0,0,1.75,1.75H78.42v22.82a1.762,1.762,0,0,0,3.021,1.2l35.3-37.32a1.751,1.751,0,0,0,0-2.405L95.554,59.45H115.47A1.75,1.75,0,0,0,117.22,57.7Zm-4.159,25.36L81.92,115.985V95.81a1.75,1.75,0,0,0-1.75-1.75H14.28V72.05H35.755l10.8,11.422a1.806,1.806,0,0,0,1.918.424,1.751,1.751,0,0,0,1.1-1.626V72.05H80.17a1.749,1.749,0,0,0,1.75-1.75V59.45h8.817ZM49.58,68.55v-9.1H78.42v9.1Zm64.14-12.6c-18.317,0-47.412,0-65.89,0a1.75,1.75,0,0,0-1.75,1.75V77.872l-8.3-8.774c-.011,0-22.834-24.143-22.844-24.148L46.08,12.015V32.19a1.751,1.751,0,0,0,1.75,1.75h65.89Z"/>
</svg>
