<?xml version="1.0" encoding="utf-8"?>
<!-- Generator: Adobe Illustrator 16.0.0, SVG Export Plug-In . SVG Version: 6.00 Build 0)  -->
<!DOCTYPE svg PUBLIC "-//W3C//DTD SVG 1.1//EN" "http://www.w3.org/Graphics/SVG/1.1/DTD/svg11.dtd">
<svg enable-background="new 0 0 128 128" height="128px" id="Layer_1" version="1.1" viewBox="0 0 128 128"
     width="128px" x="0px" xml:space="preserve" xmlns="http://www.w3.org/2000/svg" y="0px">
<g>
	<g>
		<path d="M64,128c-30.668,0-55.618-24.737-55.618-55.143c0-26.976,20.062-50.016,46.471-54.38
			c-1.536-1.968-2.405-4.414-2.405-7.009C52.449,5.145,57.631,0,64,0c6.371,0,11.552,5.145,11.552,11.468
			c0,2.595-0.869,5.041-2.406,7.009c26.41,4.365,46.471,27.405,46.471,54.381C119.617,103.263,94.668,128,64,128z M64,21.565
			l-4.168,0.33c-26.607,2.107-47.45,24.493-47.45,50.962C12.382,101.058,35.538,124,64,124s51.617-22.942,51.617-51.143
			c0-26.469-20.842-48.854-47.449-50.962L64,21.565z M64,4c-4.164,0-7.552,3.35-7.552,7.468c0,2.816,1.582,5.363,4.127,6.649
			l3.426,1.73l3.422-1.73c2.547-1.287,4.129-3.834,4.129-6.649C71.553,7.35,68.166,4,64,4z" fill="#282D33"/>
	</g>
	<g>
		<path d="M64,8.719c-1.532,0-2.773,1.231-2.773,2.75c0,1.521,1.241,2.749,2.773,2.749
			c1.531,0,2.773-1.229,2.773-2.749C66.773,9.95,65.531,8.719,64,8.719L64,8.719z" fill="#282D33"/>
	</g>
	<g>
		<path d="M64,118.836c-25.571,0-46.374-20.626-46.374-45.979c0-25.353,20.803-45.979,46.374-45.979
			c25.57,0,46.375,20.626,46.375,45.979C110.375,98.21,89.57,118.836,64,118.836z M64,30.878c-23.365,0-42.374,18.832-42.374,41.979
			S40.635,114.836,64,114.836c23.365,0,42.375-18.831,42.375-41.979S87.365,30.878,64,30.878z" fill="#282D33"/>
	</g>
	<g>
		<g>
			<rect fill="#282D33" height="7.331" width="4" x="62" y="33.357"/>
		</g>
		<g>
			<rect fill="#282D33" height="7.33" width="4" x="62" y="105.027"/>
		</g>
		<g>
			<rect fill="#282D33" height="4" width="7.396" x="96.457" y="70.857"/>
		</g>
		<g>
			<rect fill="#282D33" height="4" width="7.396" x="24.146" y="70.857"/>
		</g>
		<g>

				<rect fill="#282D33" height="7.364" transform="matrix(0.7037 0.7105 -0.7105 0.7037 60.3034 -49.5576)" width="4" x="87.567" y="43.837"/>
		</g>
		<g>

				<rect fill="#282D33" height="7.363" transform="matrix(0.7038 0.7104 -0.7104 0.7038 81.1423 1.7827)" width="4" x="36.433" y="94.515"/>
		</g>
		<g>

				<rect fill="#282D33" height="4" transform="matrix(0.7103 0.7038 -0.7038 0.7103 95.0591 -34.5992)" width="7.363" x="85.886" y="96.197"/>
		</g>
		<g>

				<rect fill="#282D33" height="4" transform="matrix(0.7104 0.7038 -0.7038 0.7104 44.5757 -13.2877)" width="7.362" x="34.752" y="45.519"/>
		</g>
	</g>
	<g>
		<g>
			<path d="M68.523,80.694L56.119,68.399l0.505-3.206l25.319-12.799l2.682,2.7L71.711,80.188L68.523,80.694z
				 M60.905,67.512l8.497,8.421l8.846-17.188L60.905,67.512z" fill="#282D33"/>
		</g>
		<g>
			<path d="M46.055,93.323l-2.681-2.7l12.915-25.097l3.186-0.506l12.406,12.295l-0.506,3.206L46.055,93.323z
				 M58.598,69.782l-8.845,17.188l17.341-8.768L58.598,69.782z" fill="#282D33"/>
		</g>
	</g>
</g>
</svg>
