<?xml version="1.0" encoding="utf-8"?>
<!-- Generator: Adobe Illustrator 16.0.0, SVG Export Plug-In . SVG Version: 6.00 Build 0)  -->
<!DOCTYPE svg PUBLIC "-//W3C//DTD SVG 1.1//EN" "http://www.w3.org/Graphics/SVG/1.1/DTD/svg11.dtd">
<svg enable-background="new 0 0 128 128" height="128px" id="Layer_1" version="1.1" viewBox="0 0 128 128"
     width="128px" x="0px" xml:space="preserve" xmlns="http://www.w3.org/2000/svg" y="0px">
<g>
	<g>
		<g>
			<g>
				<path d="M111.087,9.119h-3.985V3.985H96.687v5.134h-3.984v-5.83c0-1.814,1.606-3.289,3.58-3.289h11.234
					c1.969,0,3.57,1.475,3.57,3.289V9.119z" fill="#282D33"/>
			</g>
			<g>
				<polygon fill="#282D33" points="101.904,118.889 92.6,101.706 92.6,98.631 96.585,98.631 96.585,100.696 101.904,110.519
					107.221,100.696 107.221,98.631 111.205,98.631 111.205,101.706 				"/>
			</g>
			<g>
				<path d="M109.031,27.36v69.046H95.263V27.365l6.547,0.196l0.115,0.004l0.116-0.004L109.031,27.36 M112.964,23.31
					l-11.035,0.319L91.328,23.31v77.033h21.636V23.31L112.964,23.31z" fill="#282D33"/>
			</g>
			<g>
				<polygon fill="#282D33" points="112.991,25.959 109.007,25.959 109.007,16.46 95.287,16.46 95.287,25.959 91.303,25.959
					91.303,12.476 112.991,12.476 				"/>
			</g>
		</g>
	</g>
	<g>
		<g>
			<path d="M19.276,128v-27.633H1.241V23.979h125.518v76.388H49.184L19.276,128z M5.226,96.383h18.035v22.51
				l24.363-22.51h75.15V27.964H5.226V96.383z" fill="#282D33"/>
		</g>
		<g>
			<g>
				<rect fill="#282D33" height="3.984" width="62.318" x="19.484" y="44.219"/>
			</g>
			<g>
				<rect fill="#282D33" height="3.984" width="62.318" x="19.484" y="60.485"/>
			</g>
			<g>
				<rect fill="#282D33" height="3.984" width="62.318" x="19.484" y="76.764"/>
			</g>
		</g>
	</g>
</g>
</svg>
