<svg height="128" viewBox="0 0 128 128" width="128" xmlns="http://www.w3.org/2000/svg">
  <g>
    <path d="M107.01,32.564,86.54,8.394a1.854,1.854,0,0,0-1.335-.619H27.325a6.758,6.758,0,0,0-6.75,6.75v98.95a6.758,6.758,0,0,0,6.75,6.75h73.35a6.758,6.758,0,0,0,6.75-6.75V33.7A1.942,1.942,0,0,0,107.01,32.564ZM86.955,14.3,101.9,31.945H86.955Zm13.72,102.426H27.325a3.254,3.254,0,0,1-3.25-3.25V14.525a3.254,3.254,0,0,1,3.25-3.25h56.13V33.7a1.751,1.751,0,0,0,1.75,1.75h18.72v78.03A3.254,3.254,0,0,1,100.675,116.725Z"/>
    <path d="M87.9,41.424H40.1a1.75,1.75,0,0,0,0,3.5H87.9A1.75,1.75,0,0,0,87.9,41.424Z"/>
    <path d="M87.9,55.927H40.1a1.75,1.75,0,0,0,0,3.5H87.9A1.75,1.75,0,0,0,87.9,55.927Z"/>
    <path d="M87.9,70.431H40.1a1.75,1.75,0,0,0,0,3.5H87.9A1.75,1.75,0,0,0,87.9,70.431Z"/>
    <path d="M75.531,84.7H40.1a1.75,1.75,0,0,0,0,3.5H75.531A1.75,1.75,0,0,0,75.531,84.7Z"/>
  </g>
</svg>
