<?xml version="1.0" encoding="utf-8"?>
<!-- Generator: Adobe Illustrator 16.0.0, SVG Export Plug-In . SVG Version: 6.00 Build 0)  -->
<!DOCTYPE svg PUBLIC "-//W3C//DTD SVG 1.1//EN" "http://www.w3.org/Graphics/SVG/1.1/DTD/svg11.dtd">
<svg version="1.1" id="Layer_1" xmlns="http://www.w3.org/2000/svg" x="0px" y="0px"
     width="128px" height="128px" viewBox="0 0 128 128" enable-background="new 0 0 128 128" xml:space="preserve">
<g>
	<g>
		<g>
			<polygon fill="#282D33" points="98.922,124.598 6.47,124.598 6.47,88.019 10.47,88.019 10.47,120.598 94.923,120.598
				94.923,101.629 98.922,101.629 			"/>
		</g>
		<g>
			<polygon fill="#282D33" points="10.47,57.068 6.47,57.068 6.47,18.476 98.922,18.476 98.922,32.164 94.923,32.164 94.923,22.476
				10.47,22.476 			"/>
		</g>
		<g>
			<polygon fill="#282D33" points="98.922,20.476 94.923,20.476 94.923,7.402 10.47,7.402 10.47,20.476 6.47,20.476 6.47,3.402
				98.922,3.402 			"/>
		</g>
		<g>
			<rect x="14.305" y="10.83" fill="#282D33" width="4.845" height="4"/>
		</g>
		<g>
			<rect x="22.695" y="10.83" fill="#282D33" width="4.851" height="4"/>
		</g>
		<g>
			<rect x="31.085" y="10.83" fill="#282D33" width="4.852" height="4"/>
		</g>
	</g>
	<g>
		<rect x="16.2" y="107.824" fill="#282D33" width="42.467" height="4"/>
	</g>
	<g>
		<rect x="16.2" y="97.119" fill="#282D33" width="53.167" height="4"/>
	</g>
	<g>
		<rect x="16.2" y="86.417" fill="#282D33" width="53.167" height="4"/>
	</g>
	<g>
		<rect x="16.2" y="52.119" fill="#282D33" width="42.467" height="4"/>
	</g>
	<g>
		<rect x="16.2" y="41.415" fill="#282D33" width="53.167" height="4"/>
	</g>
	<g>
		<rect x="16.2" y="30.711" fill="#282D33" width="53.167" height="4"/>
	</g>
	<g>
		<rect x="37.812" y="75.712" fill="#282D33" width="31.555" height="4"/>
	</g>
	<g>
		<g>
			<rect y="64.084" fill="#282D33" width="86.884" height="4"/>
		</g>
		<g>
			<rect x="6.431" y="66.084" fill="#282D33" width="4" height="15.073"/>
		</g>
		<g>
			<rect x="27.178" y="66.084" fill="#282D33" width="4" height="15.072"/>
		</g>
		<g>
			<rect x="16.804" y="66.084" fill="#282D33" width="4" height="9.174"/>
		</g>
		<g>
			<g>
				<g>
					<path fill="#282D33" d="M90.257,68.78c-8.086,0-14.664-6.639-14.664-14.8c0-8.16,6.578-14.8,14.664-14.8
						c8.085,0,14.663,6.64,14.663,14.8C104.92,62.142,98.342,68.78,90.257,68.78z M90.257,43.181c-5.88,0-10.664,4.845-10.664,10.8
						s4.784,10.8,10.664,10.8c5.879,0,10.663-4.845,10.663-10.8S96.136,43.181,90.257,43.181z"/>
				</g>
				<g>
					<path fill="#282D33" d="M90.258,94.954c-8.087,0-14.666-6.641-14.666-14.803c0-8.161,6.579-14.801,14.666-14.801
						c8.086,0,14.665,6.64,14.665,14.801C104.923,88.313,98.344,94.954,90.258,94.954z M90.258,69.351
						c-5.881,0-10.666,4.845-10.666,10.801c0,5.957,4.785,10.803,10.666,10.803c5.88,0,10.665-4.846,10.665-10.803
						C100.923,74.195,96.138,69.351,90.258,69.351z"/>
				</g>
			</g>
			<g>
				<path fill="#282D33" d="M113.335,81.867c-8.086,0-14.665-6.64-14.665-14.802c0-8.161,6.579-14.8,14.665-14.8
					S128,58.904,128,67.065C128,75.228,121.421,81.867,113.335,81.867z M113.335,56.266c-5.881,0-10.665,4.845-10.665,10.8
					c0,5.956,4.784,10.802,10.665,10.802S124,73.021,124,67.065C124,61.11,119.216,56.266,113.335,56.266z"/>
			</g>
		</g>
	</g>
</g>
</svg>
