<svg height="128" viewBox="0 0 128 128" width="128" xmlns="http://www.w3.org/2000/svg">
  <path d="M61.48,117.847C18.182,107.261-6.939,43.472,28.742,16.291c23.341-17.3,57.481-3.966,73.817,19.212C132.743,75.273,109.972,130.255,61.48,117.847ZM30.821,19.106c-33.278,25.419-8.885,85.548,31.553,95.356,45.646,11.554,65.378-40.157,37.37-76.879C84.109,16.043,53.673,2.891,30.821,19.106Z"/>
  <path d="M25.958,68.613a1.757,1.757,0,0,1-1.72-2.084,51.236,51.236,0,0,1,45.654-41.1,1.75,1.75,0,0,1,.3,3.486A47.722,47.722,0,0,0,27.674,67.2,1.751,1.751,0,0,1,25.958,68.613Z"/>
  <path d="M34.207,83.933a1.751,1.751,0,0,1-1.729-1.492C28.3,56.194,50.7,31.929,77.2,34.042a1.75,1.75,0,0,1-.272,3.489C52.63,35.617,32.112,57.865,35.94,81.925A1.755,1.755,0,0,1,34.207,83.933Z"/>
  <path d="M74.357,101.162c-33.041-1.369-33.028-48.431,0-49.793A24.91,24.91,0,0,1,90.182,57.06a1.75,1.75,0,0,1-2.229,2.7,21.4,21.4,0,0,0-13.6-4.89c-28.4,1.175-28.388,41.622,0,42.793A1.75,1.75,0,0,1,74.357,101.162Z"/>
  <path d="M74.357,92.447c-21.479-.89-21.471-31.477,0-32.363a16.116,16.116,0,0,1,10.654,4.009A1.75,1.75,0,0,1,82.7,66.721a12.682,12.682,0,1,0-8.344,22.226A1.75,1.75,0,0,1,74.357,92.447Z"/>
  <path d="M52.753,101.414a1.742,1.742,0,0,1-1.186-.464A33.686,33.686,0,0,1,40.738,76.266c.007-31.127,39.259-45.484,59.3-21.661,10.647,14.454,4.623,21.846,2.445,23.59C97,82.859,85.95,82.274,76.906,73.231a3.967,3.967,0,1,0-2.549,7,1.75,1.75,0,0,1,0,3.5,7.467,7.467,0,1,1,0-14.933,7.253,7.253,0,0,1,4.983,1.916c7.522,7.55,16.691,8.375,20.87,4.816,1.548-1.319,5.908-6.562-2.891-18.717-17.977-21.285-53.077-8.4-53.081,19.452a30.179,30.179,0,0,0,9.7,22.112A1.761,1.761,0,0,1,52.753,101.414Z"/>
</svg>
