<svg height="128" viewBox="0 0 128 128" width="128" xmlns="http://www.w3.org/2000/svg">
  <g>
    <path d="M117.838,24.869a11.765,11.765,0,0,0-11.75-11.75H21.912a11.765,11.765,0,0,0-11.75,11.75c0,2.675,0-14.471,0,58.2A11.764,11.764,0,0,0,21.91,94.82H53.544c-.764,5.61-4.089,11.34-9.92,17.061a1.762,1.762,0,0,0,1.226,3h38.3a1.75,1.75,0,0,0,1.226-3c-5.832-5.721-9.156-11.451-9.92-17.061H106.09a11.764,11.764,0,0,0,11.75-11.75C117.837,10.4,117.838,27.538,117.838,24.869Zm-104.176,0a8.259,8.259,0,0,1,8.25-8.25h84.176a8.259,8.259,0,0,1,8.25,8.25V79.96H68.774C84.58,65.45,76.155,42.141,56.458,33.732a1.762,1.762,0,0,0-2.308,2.352c2.972,6.138-.245,11.536-3.651,17.251C43.24,64.4,43.466,72.358,56.342,79.96H13.662Zm45,13.954c12.51,7.235,18.9,20.962,12.21,33.1-.13-6.248-4.538-11.274-10.352-13.952a1.761,1.761,0,0,0-2.308,2.352c2.233,4.209-4.344,9.1-4.153,13.82C40.015,63.233,61.193,52.526,58.659,38.823Zm4.694,40.884c-11.6-5.542-2.236-8.694-1.2-16.749C68.131,67.046,69.5,75.417,63.353,79.707Zm15.73,31.673H48.917c4.792-5.471,7.529-11.022,8.164-16.56H70.919C71.554,100.358,74.291,105.909,79.083,111.38ZM106.09,91.32H21.91a8.26,8.26,0,0,1-8.241-7.86H114.331A8.26,8.26,0,0,1,106.09,91.32Z"/>
    <path d="M40.225,53.016H27.71V43.345H46.7a1.75,1.75,0,0,0,0-3.5H41.975V29.572H46.7a1.75,1.75,0,0,0,0-3.5H18.91a1.749,1.749,0,0,0-1.75,1.75V41.6a1.75,1.75,0,0,0,1.75,1.75h5.3v9.671h-5.3a1.749,1.749,0,0,0-1.75,1.75V68.539a1.749,1.749,0,0,0,1.75,1.75H40.225a1.75,1.75,0,0,0,1.75-1.75V54.766A1.75,1.75,0,0,0,40.225,53.016ZM20.66,29.572H38.475V39.845H20.66ZM38.475,66.789H20.66V56.516H38.475Z"/>
    <path d="M69.739,29.572H86.024V39.845H80.643a1.749,1.749,0,0,0-1.75,1.75v7.051a1.75,1.75,0,0,0,3.5,0v-5.3h18.061v9.671H82.91a1.75,1.75,0,0,0,0,3.5h3.114V66.789H82.91a1.75,1.75,0,0,0,0,3.5h26.18a1.749,1.749,0,0,0,1.75-1.75V54.766a1.749,1.749,0,0,0-1.75-1.75h-5.136V43.345h5.136a1.75,1.75,0,0,0,1.75-1.75V27.822a1.749,1.749,0,0,0-1.75-1.75H69.739A1.75,1.75,0,0,0,69.739,29.572Zm37.6,37.217H89.524V56.516H107.34Zm0-26.944H89.524V29.572H107.34Z"/>
  </g>
</svg>
