<svg height="128" viewBox="0 0 128 128" width="128" xmlns="http://www.w3.org/2000/svg">
  <g>
    <path d="M115.5,32.74h-.34V28.8a7.093,7.093,0,0,0-7.08-7.09H38.924L38.1,19.972a7.142,7.142,0,0,0-6.4-4.032H12.5a7.1,7.1,0,0,0-7.09,7.09v81.94a7.1,7.1,0,0,0,7.09,7.09h103a7.1,7.1,0,0,0,7.09-7.09V39.83A7.1,7.1,0,0,0,115.5,32.74ZM40.592,25.21H108.08a3.589,3.589,0,0,1,3.58,3.59v3.94H44.176Zm78.5,79.76a3.594,3.594,0,0,1-3.59,3.59H12.5a3.593,3.593,0,0,1-3.59-3.59V23.03a3.593,3.593,0,0,1,3.59-3.59H31.7a3.618,3.618,0,0,1,3.239,2.043L41.49,35.242a1.749,1.749,0,0,0,1.58,1H115.5a3.6,3.6,0,0,1,3.59,3.59Z"/>
    <path d="M29.661,26.035H16.656a1.75,1.75,0,0,0,0,3.5H29.661A1.75,1.75,0,0,0,29.661,26.035Z"/>
  </g>
</svg>
