<svg height="128" viewBox="0 0 128 128" width="128" xmlns="http://www.w3.org/2000/svg">
  <g>
    <path d="M108.838,19.163C69.994-17.456,12.919,31.23,42.769,75.309l-3.6,3.605L37.458,77.2a1.75,1.75,0,0,0-2.332-.128L12.985,94.825c-7.033,5.385-9.079,16.441-2.591,22.784,6.406,6.5,17.372,4.432,22.781-2.595l17.75-22.139a1.749,1.749,0,0,0-.128-2.332l-1.7-1.7,3.6-3.6a43.5,43.5,0,0,0,56.147-66.072ZM30.445,112.825c-4.162,5.384-12.64,7.312-17.577,2.309C7.86,110.2,9.791,101.719,15.175,97.556l20.917-16.77L47.214,91.909ZM46.619,86.364l-4.975-4.975,3.292-3.3a44.438,44.438,0,0,0,4.975,4.975ZM106.363,78.2C91.01,93.755,65.135,93.753,49.8,78.2c-15.549-15.337-15.557-41.211,0-56.564A39.879,39.879,0,0,1,78.08,9.948C113.216,9.709,131.524,53.134,106.363,78.2Z"/>
    <path d="M103.067,24.933C80.859,2.768,42.772,18.557,42.74,49.924,42.351,68.916,59.083,85.651,78.077,85.26,109.446,85.226,125.232,47.138,103.067,24.933Zm-2.474,47.5c-20,19.967-54.324,5.749-54.353-22.508-.351-17.11,14.72-32.2,31.836-31.844C106.335,18.108,120.565,52.434,100.593,72.432Z"/>
    <path d="M96.5,47.673l-.029-12.367A6.875,6.875,0,0,0,93.83,29.98a10.094,10.094,0,0,0-7.944-1.861A6.072,6.072,0,0,0,80.106,24L76.967,24A17.373,17.373,0,0,0,59.629,41.415l.016,6.258c-8.993,3.42-6.5,16.886,3.343,16.639,7.013,15.3,23.233,15.335,30.22,0C103,64.515,105.5,51.1,96.5,47.673Zm-13.682-6.6c.786,4.386,6.9,4.636,9.327,6.125a83.183,83.183,0,0,1-27.1.181l4.154-3.574C70.643,42.582,80.7,42.055,82.822,41.075ZM78.079,51.922A86.973,86.973,0,0,0,91.323,50.9l-2.132,3.6a5,5,0,0,1-6.739,1.841L81.116,55.6a6.267,6.267,0,0,0-6.075,0l-1.335.735a5,5,0,0,1-6.74-1.841l-2.131-3.6A86.953,86.953,0,0,0,78.079,51.922Zm14.9-16.607s.02,8.392.02,8.391c-2.856-1.338-6.751-1.672-6.755-3.58,0-.255-.025-8.693-.024-8.245C86.219,30.8,92.965,31.327,92.975,35.315Zm-25.8-3.727a13.8,13.8,0,0,1,9.8-4.085c.006,0,3.14-.009,3.146-.008a2.587,2.587,0,0,1,2.589,2.573c0,.1,0,1.923,0,1.821,0,4.039.038,3.942-.027,4.311a2.348,2.348,0,0,1-1.941,1.879c-9.98,1.506-11.742,1.3-13.821,3.066l-3.79,3.267-.008-3.005A13.781,13.781,0,0,1,67.171,31.588ZM57.54,55.73a5.084,5.084,0,0,1,2.225-4.212,39.138,39.138,0,0,0,1.781,9.194A5.109,5.109,0,0,1,57.54,55.73Zm20.6,16.62c-6.871.267-12.716-8.2-14.152-16.025,2.805,4.6,8.429,5.3,12.744,2.343a2.791,2.791,0,0,1,2.7,0C83.68,61.6,89.406,60.956,92.2,56.279,90.855,63.948,85.039,72.613,78.137,72.35ZM94.645,60.7A38.391,38.391,0,0,0,96.4,51.53,5.126,5.126,0,0,1,94.645,60.7Z"/>
    <path d="M83.993,55.728a1.75,1.75,0,0,0,0-3.5A1.75,1.75,0,0,0,83.993,55.728Z"/>
    <path d="M72.164,55.728a1.75,1.75,0,0,0,0-3.5A1.75,1.75,0,0,0,72.164,55.728Z"/>
  </g>
</svg>
