<?xml version="1.0" encoding="utf-8"?>
<!-- Generator: Adobe Illustrator 16.0.0, SVG Export Plug-In . SVG Version: 6.00 Build 0)  -->
<!DOCTYPE svg PUBLIC "-//W3C//DTD SVG 1.1//EN" "http://www.w3.org/Graphics/SVG/1.1/DTD/svg11.dtd">
<svg enable-background="new 0 0 128 128" height="128px" id="Layer_1" version="1.1" viewBox="0 0 128 128"
     width="128px" x="0px" xml:space="preserve" xmlns="http://www.w3.org/2000/svg" y="0px">
<g>
	<g>
		<path d="M60.343,124.896C27.07,124.896,0,97.578,0,64S27.07,3.104,60.344,3.104
			c33.274,0,60.346,27.318,60.346,60.896c0,2.989-0.273,6.154-0.836,9.675l-3.949-0.631c0.528-3.31,0.785-6.269,0.785-9.044
			c0-31.373-25.276-56.896-56.346-56.896C29.276,7.104,4,32.627,4,64s25.275,56.896,56.343,56.896
			c18.781,0,36.266-9.405,46.769-25.16l3.328,2.219C99.192,114.825,80.465,124.896,60.343,124.896z" fill="#282D33"/>
	</g>
	<g>
		<path d="M101.478,80.788c-16.078-6.247-33.658-8.777-50.831-7.303l-0.341-3.986
			c17.779-1.517,35.977,1.096,52.621,7.561L101.478,80.788z" fill="#282D33"/>
	</g>
	<g>
		<path d="M6.776,86.505L4.89,82.978c4.286-2.292,8.758-4.339,13.294-6.083l1.436,3.734
			C15.237,82.313,10.916,84.29,6.776,86.505z" fill="#282D33"/>
	</g>
	<g>
		<path d="M79.754,119.903l-4-0.014c0.056-16.912-3.3-33.355-9.971-48.871l3.674-1.58
			C76.347,85.46,79.811,102.439,79.754,119.903z" fill="#282D33"/>
	</g>
	<g>
		<path d="M62.7,64.404c-9.133-18.173-22.762-33.859-39.414-45.365l2.273-3.291
			c17.202,11.886,31.281,28.09,40.714,46.86L62.7,64.404z" fill="#282D33"/>
	</g>
	<g>
		<path d="M64.586,32.761c-9.038-6.803-17.062-14.876-23.849-23.994l3.209-2.389
			c6.559,8.813,14.313,16.613,23.046,23.187L64.586,32.761z" fill="#282D33"/>
	</g>
	<g>
		<path d="M117.718,55.166c-8.805-1.345-17.49-3.709-25.813-7.026l1.48-3.716c8.042,3.205,16.432,5.489,24.937,6.788
			L117.718,55.166z" fill="#282D33"/>
	</g>
	<g>
		<path d="M81.297,55.105c-8.003,0-14.514-6.565-14.514-14.635c0-8.072,6.511-14.64,14.514-14.64
			c8.004,0,14.516,6.567,14.516,14.64C95.813,48.54,89.301,55.105,81.297,55.105z M81.297,29.831
			c-5.797,0-10.514,4.773-10.514,10.64c0,5.864,4.717,10.635,10.514,10.635c5.798,0,10.516-4.771,10.516-10.635
			C91.813,34.604,87.095,29.831,81.297,29.831z" fill="#282D33"/>
	</g>
	<g>
		<path d="M113.484,99.787c-8.003,0-14.514-6.566-14.514-14.639c0-8.071,6.511-14.638,14.514-14.638
			c8.004,0,14.516,6.566,14.516,14.638C128,93.221,121.488,99.787,113.484,99.787z M113.484,74.511
			c-5.797,0-10.514,4.772-10.514,10.638c0,5.866,4.717,10.639,10.514,10.639c5.798,0,10.516-4.772,10.516-10.639
			C124,79.283,119.282,74.511,113.484,74.511z" fill="#282D33"/>
	</g>
	<g>
		<path d="M32.346,90.984c-8.004,0-14.515-6.565-14.515-14.635s6.511-14.634,14.515-14.634
			c8.003,0,14.515,6.564,14.515,14.634S40.35,90.984,32.346,90.984z M32.346,65.716c-5.798,0-10.515,4.771-10.515,10.634
			c0,5.864,4.717,10.635,10.515,10.635s10.515-4.771,10.515-10.635C42.861,70.486,38.144,65.716,32.346,65.716z" fill="#282D33"/>
	</g>
</g>
</svg>
