<svg height="128" viewBox="0 0 128 128" width="128" xmlns="http://www.w3.org/2000/svg">
  <g>
    <path d="M120.419,95.83h-3.357V35.044a12.413,12.413,0,0,0-12.4-12.4H74.582a12.69,12.69,0,0,0-23.259,0H23.336a12.413,12.413,0,0,0-12.4,12.4V95.83H7.581a1.75,1.75,0,0,0-1.75,1.75v6.636a8.76,8.76,0,0,0,8.75,8.75h98.838a8.76,8.76,0,0,0,8.75-8.75V97.58A1.75,1.75,0,0,0,120.419,95.83Zm-57.467-77.3a9.2,9.2,0,0,1,7.66,4.111H55.292A9.2,9.2,0,0,1,62.952,18.534ZM14.437,35.044a8.91,8.91,0,0,1,8.9-8.9H50.361a12.663,12.663,0,0,0-.111,1.591v9.2H44.92a7.763,7.763,0,0,0-7.67,8.47H32a5.757,5.757,0,0,0-5.75,5.75V67.12A5.756,5.756,0,0,0,32,72.87h5.25a7.763,7.763,0,0,0,7.67,8.47H81.08a7.764,7.764,0,0,0,7.67-8.47H96a5.756,5.756,0,0,0,5.75-5.75V51.16A5.757,5.757,0,0,0,96,45.41H88.75a7.763,7.763,0,0,0-7.67-8.47H53.75c.049-1.054-.135-9.941.147-10.795h18.11c.242,1.381.108,1.886.147,5.112a1.75,1.75,0,0,0,3.5,0,42.53,42.53,0,0,0-.11-5.112h29.12a8.909,8.909,0,0,1,8.9,8.9V95.83H14.437ZM40.75,72.87h44.5a4.3,4.3,0,0,1-4.17,4.97H44.92A4.3,4.3,0,0,1,40.75,72.87ZM32,69.37a2.253,2.253,0,0,1-2.25-2.25V51.16A2.253,2.253,0,0,1,32,48.91h7c6.413-.006,51.835,0,57,0a2.253,2.253,0,0,1,2.25,2.25V67.12A2.253,2.253,0,0,1,96,69.37ZM85.25,45.41H40.75v-.8a4.175,4.175,0,0,1,4.17-4.17H81.08A4.3,4.3,0,0,1,85.25,45.41ZM78.581,99.421a5.26,5.26,0,0,1-4.95,3.5H54.369a5.26,5.26,0,0,1-4.95-3.5Zm40.088,4.795a5.256,5.256,0,0,1-5.25,5.25H14.581a5.256,5.256,0,0,1-5.25-5.25V99.33H45.782a8.76,8.76,0,0,0,8.587,7.091H73.631a8.76,8.76,0,0,0,8.587-7.091h36.451Z"/>
    <path d="M48.22,57.391H46.488l1.225-1.225a1.75,1.75,0,0,0-2.475-2.475l-1.224,1.225V53.184a1.75,1.75,0,0,0-3.5,0v1.732l-1.225-1.225a1.75,1.75,0,0,0-2.475,2.475l1.225,1.225H36.307a1.75,1.75,0,0,0,0,3.5h1.732l-1.225,1.224a1.75,1.75,0,0,0,2.475,2.475l1.225-1.225V65.1a1.75,1.75,0,0,0,3.5,0V63.365l1.224,1.225a1.75,1.75,0,0,0,2.475-2.475l-1.225-1.224H48.22A1.75,1.75,0,0,0,48.22,57.391Z"/>
    <path d="M69.11,57.391H67.378L68.6,56.166a1.75,1.75,0,1,0-2.474-2.475L64.9,54.916V53.184a1.75,1.75,0,0,0-3.5,0v1.732l-1.224-1.225A1.75,1.75,0,0,0,57.7,56.166l1.225,1.225H57.2a1.75,1.75,0,0,0,0,3.5h1.732L57.7,62.115a1.75,1.75,0,0,0,2.475,2.475L61.4,63.365V65.1a1.75,1.75,0,0,0,3.5,0V63.365l1.225,1.225A1.75,1.75,0,0,0,68.6,62.115l-1.224-1.224H69.11A1.75,1.75,0,0,0,69.11,57.391Z"/>
    <path d="M90,57.391H88.269l1.224-1.225a1.75,1.75,0,0,0-2.474-2.475l-1.225,1.225V53.184a1.75,1.75,0,0,0-3.5,0v1.732l-1.225-1.225A1.75,1.75,0,1,0,78.6,56.166l1.224,1.225H78.087a1.75,1.75,0,0,0,0,3.5h1.732L78.6,62.115a1.75,1.75,0,1,0,2.474,2.475l1.225-1.225V65.1a1.75,1.75,0,0,0,3.5,0V63.365l1.225,1.225a1.75,1.75,0,0,0,2.474-2.475l-1.224-1.224H90A1.75,1.75,0,0,0,90,57.391Z"/>
  </g>
</svg>
