<svg height="128" viewBox="0 0 128 128" width="128" xmlns="http://www.w3.org/2000/svg">
  <g>
    <path d="M119.832,113.974l-10.339-31.46C106.67,73.925,97.909,67.8,87.849,67.182a37.8,37.8,0,0,0,8.095-18.289c-.02-.033.73-6.8.6-8.7C95.958,26.609,80.7,8.31,64,8.31c-16.31,0-30.992,17.358-32.429,30.406-1.005,8.958,1.839,20.073,8.58,28.466-10.06.619-18.821,6.744-21.644,15.332l-10.34,31.46a1.764,1.764,0,0,0,1.663,2.3H30.09l.045.59a6.7,6.7,0,0,0,6.625,6.2H91.24a6.7,6.7,0,0,0,6.625-6.2l.045-.594h20.26A1.762,1.762,0,0,0,119.832,113.974ZM83.225,67.12H76.342a22.063,22.063,0,0,1-3.193-5.687A24.238,24.238,0,0,0,83.235,50.687,9.056,9.056,0,0,0,89.855,36c1.828,1.138,2.8,2.271,3.1,3.2C93.993,48.088,90.585,59.473,83.225,67.12ZM43.439,46.911a5.6,5.6,0,0,1-.632-10.291A33.388,33.388,0,0,0,43.439,46.911Zm3.312-14.234a76.947,76.947,0,0,1,34.511.014c.814,4.987.976,10.918-.822,15.63-2.7,6.887-9.655,11.471-16.44,13.1C49.69,58,44.328,47.15,46.751,32.677ZM85.2,36.628c4.42,2.039,4.01,8.816-.639,10.287A33.322,33.322,0,0,0,85.2,36.628Zm-27.2,26.413A27.472,27.472,0,0,0,64,64.96a26.816,26.816,0,0,0,6.006-1.923,24.074,24.074,0,0,0,2.077,4.083H55.918A23.906,23.906,0,0,0,57.991,63.041ZM64,11.81c11.857,0,22.7,10.3,27.151,20.893-13.912-7.349-40.279-7.354-54.286-.032C41.338,22.054,52.173,11.81,64,11.81ZM35.034,39.246c.279-.935,1.247-2.078,3.091-3.231a9.075,9.075,0,0,0,6.666,14.672A24.276,24.276,0,0,0,54.853,61.423a21.94,21.94,0,0,1-3.195,5.7H44.775C37.445,59.505,34.1,47.923,35.034,39.246ZM91.24,119.56H36.76a3.224,3.224,0,0,1-3.136-2.964l-2.5-32.911c-.061-1.841.757-3.442,2.846-3.565H94.03c2.1.119,2.9,1.727,2.846,3.565l-2.5,32.915A3.222,3.222,0,0,1,91.24,119.56Zm6.938-6.79,2.187-28.816a7.056,7.056,0,0,0-1.783-5.341A6.141,6.141,0,0,0,94.03,76.62H33.97c-3.822-.062-6.7,3.565-6.335,7.332l2.187,28.818H12.248l9.584-29.164c2.513-7.646,10.736-12.986,20-12.986H86.17c9.262,0,17.485,5.34,20,12.986l9.585,29.164Z"/>
    <path d="M64,92.3a7.554,7.554,0,0,0-7.545,7.546c.354,9.986,14.738,9.984,15.09,0A7.554,7.554,0,0,0,64,92.3Zm0,11.591A4.046,4.046,0,0,1,64,95.8,4.046,4.046,0,0,1,64,103.888Z"/>
  </g>
</svg>
