<svg height="128" viewBox="0 0 128 128" width="128" xmlns="http://www.w3.org/2000/svg">
  <path d="M113.972,75.613c.032-.02-4.295-16.267-4.273-16.307l.9-6.91a1.761,1.761,0,0,0-1.511-1.961l-18.532-2.4c.231-.528.438-1.043.646-1.56,6.987-.108,9.124-9.639,2.868-12.688a25.05,25.05,0,0,0-.165-3.462,6.692,6.692,0,0,0-5.555-11.666A38.077,38.077,0,0,0,85.23,16.08a6.689,6.689,0,0,0-12.3-3.657,28.9,28.9,0,0,0-5.75.341A6.691,6.691,0,0,0,55.044,17.85q-.589.445-1.155.928a6.607,6.607,0,0,0-2.939-.7c-6.15-.069-9.076,7.921-4.322,11.8-.2.675-.377,1.365-.526,2.062l-17.749-2.3a1.742,1.742,0,0,0-1.959,1.51l-.9,6.926L17.217,52.764A31.309,31.309,0,0,0,30.384,96.9c2.581,6.647,11.94,8.4,16.721,3.059A30.56,30.56,0,0,0,55.673,97.9,31.128,31.128,0,0,0,70.12,112.4a10.136,10.136,0,0,0,16.724,3.039C105.853,114.016,119.615,93.869,113.972,75.613ZM52.8,80.243a31.28,31.28,0,0,0-.219,5.534,18.4,18.4,0,0,1-4.384,1.546,10.145,10.145,0,0,0-14.361-2.59c-16.86-11.145-7.253-37.142,12.748-34.787A19.019,19.019,0,0,1,61.256,60.6C57.7,67.5,53.936,71.5,52.8,80.243ZM106.409,57.46,68.87,52.609l.491-3.788,37.538,4.86ZM91.1,42.98c-4.714-.2-3.923-7.2.763-6.308A3.2,3.2,0,0,1,91.1,42.98Zm1.66-17.73a3.2,3.2,0,0,1-6.4,0A3.2,3.2,0,0,1,92.76,25.25ZM78.53,12.88a3.2,3.2,0,0,1,0,6.4A3.2,3.2,0,0,1,78.53,12.88Zm-16.94.33a3.2,3.2,0,0,1,0,6.4A3.2,3.2,0,0,1,61.59,13.21ZM50.95,21.58a3.2,3.2,0,0,1,0,6.4A3.2,3.2,0,0,1,50.95,21.58Zm-1.094,9.8c5.637,1.077,9.93-5.588,6.687-10.279.054-.043.106-.088.16-.131A6.685,6.685,0,0,0,68.29,16.41c0-.095-.021-.188-.025-.283a25.378,25.378,0,0,1,3.574-.241c0,.065-.009.129-.009.194a6.7,6.7,0,0,0,12.343,3.606c.291.216.574.438.847.669a6.678,6.678,0,0,0,4.54,11.6c1.195-.188,1,.074,1.01,1.157a6.7,6.7,0,0,0-2.783,12.474c-.269.653-.559,1.314-.865,1.984L70.4,45.425l-.417-1.6.9-6.908a1.761,1.761,0,0,0-1.511-1.961L49.6,32.4C49.677,32.053,49.763,31.716,49.856,31.381ZM67.178,38.2l-.491,3.779L29.148,37.128l.492-3.788ZM16.545,65.217A27.738,27.738,0,0,1,20.24,54.526l7.9-14,38.594,4.99c-.931.773-.509,1.529-1.511,8.042L63.282,57C52.3,39.121,24.582,44.924,21.824,65.9a22.42,22.42,0,0,0,9.513,21.387A10.516,10.516,0,0,0,29.6,92.513,27.679,27.679,0,0,1,16.545,65.217ZM39.75,99.64a6.665,6.665,0,0,1-6.66-6.66c.279-8.839,13.089-8.772,13.32,0A6.673,6.673,0,0,1,39.75,99.64Zm9.663-3.528A10.209,10.209,0,0,0,49.63,90.6a22,22,0,0,0,3.334-1.123C53.911,95.481,56.236,94.5,49.413,96.112Zm15.6-14.289a18.738,18.738,0,0,1,6.937-12.312,27.781,27.781,0,0,1-6.875,17.6A19.49,19.49,0,0,1,65.016,81.823ZM75.206,72.8a32.14,32.14,0,0,0,.217-5.53A18.778,18.778,0,0,1,86.3,65.426,19.057,19.057,0,0,1,101.405,77c4.682,10.538-2.245,23.612-13.48,25.817a10.145,10.145,0,0,0-14.36-2.605,18.91,18.91,0,0,1-7.414-9.147A31.27,31.27,0,0,0,75.206,72.8ZM79.48,115.12a6.666,6.666,0,0,1-6.66-6.66c.474-9.635,14.536-8.337,13.194,1.24A6.647,6.647,0,0,1,79.48,115.12Zm31.975-27.286a27.92,27.92,0,0,1-22.31,23.751,10.308,10.308,0,0,0,.217-5.5c23.922-6.581,21.952-40.411-2.618-44.127-16.089-2.27-29.471,13.776-24.3,29.176a22.425,22.425,0,0,0,8.613,11.634,10.357,10.357,0,0,0-1.728,5.228A27.82,27.82,0,0,1,56.266,80.7c1.04-7.978,4.605-11.712,8.477-19.156.021-.036.04-.073.057-.11l3.055-5.422,38.67,5,4.062,15.518A27.556,27.556,0,0,1,111.455,87.834Z"/>
</svg>
