<?xml version="1.0" encoding="utf-8"?>
<!-- Generator: Adobe Illustrator 16.0.0, SVG Export Plug-In . SVG Version: 6.00 Build 0)  -->
<!DOCTYPE svg PUBLIC "-//W3C//DTD SVG 1.1//EN" "http://www.w3.org/Graphics/SVG/1.1/DTD/svg11.dtd">
<svg enable-background="new 0 0 128 128" height="128px" id="Layer_1" version="1.1" viewBox="0 0 128 128"
     width="128px" x="0px" xml:space="preserve" xmlns="http://www.w3.org/2000/svg" y="0px">
<g>
	<g>
		<rect fill="#282D33" height="4" width="12.422" x="57.789"/>
	</g>
	<g>
		<rect fill="#282D33" height="4" width="12.422" x="57.789" y="124"/>
	</g>
	<g>
		<rect fill="#282D33" height="12.545" width="4" x="123.378" y="57.728"/>
	</g>
	<g>
		<rect fill="#282D33" height="12.545" width="4" x="0.622" y="57.728"/>
	</g>
	<g>
		<g>
			<g>
				<g>
					<path d="M77.956,37.313l-1.854-0.836c-3.829-1.729-7.902-2.605-12.105-2.605c-4.202,0-8.273,0.876-12.101,2.604
						l-1.854,0.837L39.444,12.772l1.803-0.806c7.208-3.221,14.862-4.854,22.75-4.854c7.891,0,15.547,1.633,22.755,4.854l1.803,0.806
						L77.956,37.313z M63.997,29.871c4.094,0,8.079,0.732,11.875,2.179l7.43-17.204c-6.155-2.479-12.64-3.734-19.305-3.734
						c-6.662,0-13.146,1.255-19.3,3.734l7.431,17.203C55.921,30.603,59.904,29.871,63.997,29.871z" fill="#282D33"/>
				</g>
				<g>
					<path d="M63.997,120.699c-7.73,0-15.232-1.564-22.298-4.648l-1.826-0.797l10.592-24.532l1.838,0.797
						c3.703,1.605,7.637,2.419,11.694,2.419c4.059,0,7.993-0.813,11.693-2.419l1.838-0.797l10.594,24.532l-1.826,0.797
						C79.231,119.135,71.729,120.699,63.997,120.699z M45.14,113.147c6.015,2.357,12.349,3.552,18.857,3.552
						c6.51,0,12.844-1.194,18.858-3.552l-7.435-17.217c-3.654,1.333-7.488,2.007-11.424,2.007c-3.934,0-7.768-0.675-11.423-2.007
						L45.14,113.147z" fill="#282D33"/>
				</g>
				<g>
					<path d="M13.501,88.983l-0.811-1.82c-3.274-7.352-4.934-15.177-4.934-23.257c0-7.7,1.502-15.171,4.464-22.208
						l0.789-1.875l24.31,10.712l-0.746,1.806c-1.518,3.676-2.288,7.567-2.288,11.565c0,4.353,0.91,8.563,2.706,12.515l0.837,1.841
						L13.501,88.983z M15.154,45.14c-2.255,5.985-3.397,12.288-3.397,18.766c0,6.848,1.281,13.497,3.812,19.795l16.999-7.491
						c-1.515-3.926-2.281-8.055-2.281-12.304c0-3.867,0.637-7.647,1.896-11.263L15.154,45.14z" fill="#282D33"/>
				</g>
				<g>
					<path d="M114.497,88.983L90.168,78.262l0.838-1.842c1.794-3.943,2.704-8.153,2.704-12.514
						c0-4-0.769-7.891-2.285-11.565l-0.745-1.806l24.311-10.713l0.789,1.875c2.961,7.034,4.463,14.506,4.463,22.208
						c0,8.079-1.66,15.904-4.935,23.258L114.497,88.983z M95.431,76.21l16.999,7.491c2.531-6.301,3.813-12.95,3.813-19.796
						c0-6.479-1.142-12.783-3.396-18.766l-17.029,7.504c1.258,3.614,1.894,7.394,1.894,11.263
						C97.71,68.16,96.944,72.29,95.431,76.21z" fill="#282D33"/>
				</g>
			</g>
		</g>
	</g>
	<g>
		<path d="M63.997,120.699c-31.011,0-56.24-25.478-56.24-56.793c0-31.316,25.229-56.794,56.24-56.794
			c31.013,0,56.244,25.478,56.244,56.794C120.241,95.222,95.01,120.699,63.997,120.699z M63.997,11.112
			c-28.805,0-52.24,23.684-52.24,52.794c0,29.11,23.435,52.793,52.24,52.793c28.808,0,52.244-23.683,52.244-52.793
			C116.241,34.795,92.805,11.112,63.997,11.112z M63.997,97.938c-18.588,0-33.711-15.267-33.711-34.031
			c0-18.767,15.123-34.034,33.711-34.034c18.589,0,33.713,15.268,33.713,34.034C97.71,82.671,82.586,97.938,63.997,97.938z
			 M63.997,33.872c-16.383,0-29.711,13.473-29.711,30.034c0,16.56,13.328,30.031,29.711,30.031
			c16.384,0,29.713-13.472,29.713-30.031C93.71,47.345,80.381,33.872,63.997,33.872z" fill="#282D33"/>
	</g>
</g>
</svg>
