<?xml version="1.0" encoding="utf-8"?>
<!-- Generator: Adobe Illustrator 16.0.0, SVG Export Plug-In . SVG Version: 6.00 Build 0)  -->
<!DOCTYPE svg PUBLIC "-//W3C//DTD SVG 1.1//EN" "http://www.w3.org/Graphics/SVG/1.1/DTD/svg11.dtd">
<svg enable-background="new 0 0 128 128" height="128px" id="Layer_1" version="1.1" viewBox="0 0 128 128"
     width="128px" x="0px" xml:space="preserve" xmlns="http://www.w3.org/2000/svg" y="0px">
<g>
	<g>
		<g>
			<polygon fill="#282D33" points="119.188,86.82 115.188,86.82 115.188,30.648 12.812,30.648 12.812,86.82 8.812,86.82
				8.812,26.648 119.188,26.648 			"/>
		</g>
		<g>
			<polygon fill="#282D33" points="128,96.445 110.266,96.445 110.266,92.445 124,92.445 124,21.754 4,21.754 4,92.445
				17.735,92.445 17.735,96.445 0,96.445 0,17.754 128,17.754 			"/>
		</g>
		<g>
			<path d="M128,21.754H0V3.141h128V21.754z M4,17.754h120V7.141H4V17.754z" fill="#282D33"/>
		</g>
		<g>
			<rect fill="#282D33" height="4" width="4.704" x="7.666" y="10.341"/>
		</g>
		<g>
			<rect fill="#282D33" height="4" width="4.709" x="15.812" y="10.341"/>
		</g>
		<g>
			<rect fill="#282D33" height="4" width="4.709" x="23.958" y="10.341"/>
		</g>
	</g>
	<g>
		<g>
			<path d="M64,124.859c-24.703,0-44.801-20.277-44.801-45.201S39.297,34.456,64,34.456s44.801,20.278,44.801,45.202
				S88.703,124.859,64,124.859z M64,38.456c-22.498,0-40.801,18.483-40.801,41.202S41.502,120.859,64,120.859
				c22.498,0,40.801-18.482,40.801-41.201S86.498,38.456,64,38.456z" fill="#282D33"/>
		</g>
		<g>
			<g>
				<path d="M64,124.357c-24.429,0-44.303-20.054-44.303-44.703c0-24.647,19.875-44.699,44.303-44.699
					c24.43,0.001,44.305,20.054,44.305,44.699C108.305,104.304,88.43,124.357,64,124.357z M64,38.955
					c-22.223,0-40.303,18.258-40.303,40.699c0,22.443,18.08,40.703,40.303,40.703c22.224,0,40.305-18.26,40.305-40.703
					C104.305,57.214,86.224,38.956,64,38.955z" fill="#282D33"/>
			</g>
			<g>
				<path d="M64,124.357c-14.845,0-26.474-19.636-26.474-44.703c0-24.647,11.876-44.699,26.474-44.699
					c14.838,0.001,26.461,19.636,26.461,44.699C90.461,104.722,78.838,124.357,64,124.357z M64,38.955
					c-12.392,0-22.474,18.258-22.474,40.699c0,22.443,10.082,40.703,22.474,40.703c12.385,0,22.461-18.26,22.461-40.703
					C86.461,57.214,76.385,38.956,64,38.955z" fill="#282D33"/>
			</g>
			<g>
				<path d="M64,124.357h-2V34.955h2c24.43,0,44.305,20.052,44.305,44.699C108.305,104.304,88.43,124.357,64,124.357
					z M66,39.005v81.303c21.3-1.055,38.305-18.887,38.305-40.653C104.305,57.89,87.3,40.061,66,39.005z" fill="#282D33"/>
			</g>
			<g>
				<path d="M104.935,96.707H23.056l-0.485-1.302c-1.907-5.118-2.874-10.417-2.874-15.751
					c0-5.338,0.969-10.639,2.879-15.754l0.485-1.301h81.875l0.485,1.3c1.914,5.115,2.884,10.416,2.884,15.755
					c0,5.34-0.97,10.64-2.884,15.754L104.935,96.707z M25.857,92.707h76.279c1.439-4.259,2.168-8.644,2.168-13.053
					s-0.729-8.794-2.168-13.055H25.861c-1.437,4.261-2.164,8.646-2.164,13.055C23.697,84.06,24.423,88.444,25.857,92.707z" fill="#282D33"/>
			</g>
		</g>
	</g>
</g>
</svg>
