<svg height="128" viewBox="0 0 128 128" width="128" xmlns="http://www.w3.org/2000/svg">
  <g>
    <path d="M115.5,32.74h-.34V28.8a7.093,7.093,0,0,0-7.08-7.09H38.925L38.1,19.971a7.143,7.143,0,0,0-6.4-4.031H12.5a7.1,7.1,0,0,0-7.09,7.09v81.94a7.1,7.1,0,0,0,7.09,7.09h103a7.1,7.1,0,0,0,7.09-7.09V39.83A7.1,7.1,0,0,0,115.5,32.74ZM40.591,25.21H108.08a3.589,3.589,0,0,1,3.58,3.59v3.94H44.175Zm78.5,79.76a3.594,3.594,0,0,1-3.59,3.59H12.5a3.593,3.593,0,0,1-3.59-3.59V23.03a3.593,3.593,0,0,1,3.59-3.59H31.7a3.621,3.621,0,0,1,3.24,2.042l6.55,13.76a1.748,1.748,0,0,0,1.58,1H115.5a3.6,3.6,0,0,1,3.59,3.59Z"/>
    <path d="M29.661,26.035H16.656a1.75,1.75,0,0,0,0,3.5H29.661A1.75,1.75,0,0,0,29.661,26.035Z"/>
    <path d="M82.4,74.846a1.75,1.75,0,0,0,1.483-.819l6.8-10.825a1.75,1.75,0,0,0-2.965-1.861L81.429,71.346H77.45V62.27a1.86,1.86,0,0,0-2.268-1.75,11.545,11.545,0,0,0-3.842-5.708A13.049,13.049,0,0,1,78.9,50.189a1.75,1.75,0,1,0-.769-3.414,16.609,16.609,0,0,0-9.837,6.249,11.937,11.937,0,0,0-8.6,0,16.61,16.61,0,0,0-9.839-6.252,1.75,1.75,0,0,0-.768,3.414,13.048,13.048,0,0,1,7.563,4.629,11.6,11.6,0,0,0-3.826,5.7,1.861,1.861,0,0,0-2.268,1.75v9.072H46.571L40.29,61.336A1.75,1.75,0,0,0,37.326,63.2l6.8,10.825a1.751,1.751,0,0,0,1.482.819H50.55v8.1H45.6a1.749,1.749,0,0,0-1.482.819l-6.8,10.825a1.75,1.75,0,0,0,2.964,1.861l6.281-10H50.6A12.912,12.912,0,0,0,64.74,98.24,12.718,12.718,0,0,0,77.4,86.447h4.025l6.281,10a1.75,1.75,0,0,0,2.965-1.861l-6.8-10.824a1.751,1.751,0,0,0-1.483-.82H77.45v-8.1ZM59.961,56.753A8.274,8.274,0,0,1,71.467,60.52H56.534A8.183,8.183,0,0,1,59.961,56.753Zm-5.909,27.94c0-2.225,0,6.148,0-20.673h8.2V94.685C57.8,94.2,54.038,90.688,54.052,84.693Zm11.7,9.992V64.02h8.2V85.53A9.223,9.223,0,0,1,65.75,94.685Z"/>
  </g>
</svg>
