<?xml version="1.0" encoding="utf-8"?>
<!-- Generator: Adobe Illustrator 16.0.0, SVG Export Plug-In . SVG Version: 6.00 Build 0)  -->
<!DOCTYPE svg PUBLIC "-//W3C//DTD SVG 1.1//EN" "http://www.w3.org/Graphics/SVG/1.1/DTD/svg11.dtd">
<svg enable-background="new 0 0 128 128" height="128px" id="Layer_1" version="1.1" viewBox="0 0 128 128"
     width="128px" x="0px" xml:space="preserve" xmlns="http://www.w3.org/2000/svg" y="0px">
<g>
	<g>
		<g>
			<g>
				<path d="M127.962,88.877H0v-75.37c0-2.997,2.42-5.436,5.396-5.436h117.168c2.977,0,5.397,2.438,5.397,5.436
					V88.877z M4,84.877h119.962v-71.37c0-0.792-0.627-1.436-1.397-1.436H5.396C4.626,12.071,4,12.715,4,13.507V84.877z" fill="#282D33"/>
			</g>
			<g>
				<polygon fill="#282D33" points="118.139,78.833 92.75,78.833 92.75,74.833 114.139,74.833 114.139,22.038 13.696,22.038
					13.696,74.833 35.376,74.833 35.376,78.833 9.696,78.833 9.696,18.038 118.139,18.038 				"/>
			</g>
			<g>
				<path d="M122.797,103.672H6.066c-3.056,0-6.055-3.114-6.055-6.288V84.805H128v12.754
					C128,100.563,126.054,103.672,122.797,103.672z M4.011,88.805v8.579c0,0.962,1.19,2.288,2.055,2.288h116.731
					c0.688,0,1.203-1.115,1.203-2.113v-8.754H4.011z" fill="#282D33"/>
			</g>
			<g>
				<path d="M45.286,119.911l-1.607-3.662c1.354-0.594,2.422-1.101,3.01-1.427l0.177-0.1
					c0.249-0.139,0.559-0.312,0.624-0.378c0.04-0.052,0.194-0.328,0.451-1.634c0.3-1.536,0.264-4.298,0.231-6.734
					c-0.022-1.676-0.043-3.259,0.047-4.381l3.987,0.322c-0.076,0.935-0.056,2.427-0.035,4.006c0.037,2.759,0.074,5.612-0.306,7.556
					c-0.581,2.962-1.205,3.708-3.052,4.737l-0.174,0.098C47.742,118.813,46.321,119.457,45.286,119.911z" fill="#282D33"/>
			</g>
			<g>
				<path d="M82.592,119.929c-0.852-0.374-2.423-1.081-3.377-1.607l-0.117-0.065
					c-1.958-1.099-2.468-1.902-3.029-4.777c-0.379-1.94-0.343-4.739-0.308-7.447c0.021-1.56,0.04-3.032-0.036-3.971l3.986-0.324
					c0.092,1.127,0.071,2.691,0.05,4.348c-0.031,2.387-0.066,5.094,0.233,6.628c0.246,1.262,0.384,1.601,0.444,1.689
					c0.059,0.053,0.367,0.226,0.616,0.365l0.106,0.061c0.583,0.321,1.696,0.849,3.04,1.439L82.592,119.929z" fill="#282D33"/>
			</g>
			<g>
				<rect fill="#282D33" height="4" width="45.863" x="41.08" y="115.868"/>
			</g>
		</g>
	</g>
	<g>
		<g>
			<g>
				<path d="M78.625,44.672h-4v-4.383c0-4.995-4.004-9.06-8.925-9.06h-3.4c-4.922,0-8.927,4.064-8.927,9.06v4.383h-4
					v-4.383c0-7.201,5.799-13.06,12.927-13.06h3.4c7.127,0,12.925,5.858,12.925,13.06V44.672z" fill="#282D33"/>
			</g>
		</g>
		<g>
			<path d="M80.754,47.654v26.131H47.246V47.654H80.754 M84.689,43.717h-3.937H47.246h-3.937v3.938v26.131v3.938
				h3.937h33.508h3.938v-3.938V47.654v-3.938H84.689z" fill="#282D33"/>
		</g>
		<g>
			<path d="M64.001,53.188c-1.707,0-3.092,1.397-3.092,3.127c0,1.14,0.605,2.133,1.506,2.68l-0.7,7.703h2.286h2.281
				l-0.697-7.703c0.901-0.547,1.507-1.541,1.507-2.68C67.092,54.587,65.706,53.188,64.001,53.188L64.001,53.188z" fill="#282D33"/>
		</g>
	</g>
	<g>
		<g>
			<g>

					<rect fill="#282D33" height="1.967" transform="matrix(0.23 0.9732 -0.9732 0.23 92.7274 -45.4202)" width="4" x="73.067" y="34.904"/>
			</g>
			<g>
				<path d="M80.028,36.77l-0.92-3.893l3.602-0.852l0.92,3.893L80.028,36.77z M87.231,35.065l-0.92-3.893
					l3.602-0.853l0.92,3.893L87.231,35.065z M94.435,33.36l-0.92-3.893l3.602-0.852l0.92,3.893L94.435,33.36z M101.638,31.656
					l-0.92-3.893l3.603-0.853l0.92,3.893L101.638,31.656z M108.843,29.952l-0.922-3.893l3.602-0.853l0.922,3.893L108.843,29.952z" fill="#282D33"/>
			</g>
			<g>

					<rect fill="#282D33" height="1.969" transform="matrix(0.2305 0.9731 -0.9731 0.2305 114.7505 -92.6799)" width="4" x="113.972" y="25.226"/>
			</g>
		</g>
		<g>
			<g>

					<rect fill="#282D33" height="4" transform="matrix(0.9732 0.2301 -0.2301 0.9732 9.6803 -11.2192)" width="1.969" x="51.95" y="33.888"/>
			</g>
			<g>
				<path d="M47.992,36.773l-3.582-0.848l0.921-3.893l3.582,0.848L47.992,36.773z M40.828,35.078l-3.582-0.848
					l0.921-3.893l3.582,0.848L40.828,35.078z M33.665,33.384l-3.582-0.848l0.921-3.893l3.582,0.848L33.665,33.384z M26.501,31.688
					l-3.582-0.848l0.921-3.893l3.582,0.848L26.501,31.688z M19.338,29.993l-3.582-0.848l0.921-3.893l3.582,0.848L19.338,29.993z" fill="#282D33"/>
			</g>
			<g>

					<rect fill="#282D33" height="4" transform="matrix(0.9731 0.2303 -0.2303 0.9731 6.3757 -2.114)" width="1.968" x="11.262" y="24.261"/>
			</g>
		</g>
	</g>
</g>
</svg>
