<svg height="128" viewBox="0 0 128 128" width="128" xmlns="http://www.w3.org/2000/svg">
  <g>
    <path d="M120.419,92.024h-3.356V31.238a12.412,12.412,0,0,0-12.4-12.4H23.336a12.412,12.412,0,0,0-12.4,12.4V92.024H7.581a1.75,1.75,0,0,0-1.75,1.75v6.636a8.76,8.76,0,0,0,8.75,8.75h98.838a8.76,8.76,0,0,0,8.75-8.75V93.774A1.75,1.75,0,0,0,120.419,92.024ZM14.437,31.238a8.909,8.909,0,0,1,8.9-8.9h81.328a8.909,8.909,0,0,1,8.9,8.9V92.024H14.437ZM78.581,95.615a5.258,5.258,0,0,1-4.95,3.5H54.369a5.258,5.258,0,0,1-4.95-3.5Zm40.088,4.8a5.256,5.256,0,0,1-5.25,5.25H14.581a5.255,5.255,0,0,1-5.25-5.25V95.524c1.084-.011,34.318.008,36.451,0a8.76,8.76,0,0,0,8.587,7.091H73.631a8.76,8.76,0,0,0,8.587-7.091h36.451Z"/>
    <path d="M81.959,41.537,43.751,74.606a1.75,1.75,0,0,0,2.29,2.647L84.249,44.184A1.75,1.75,0,0,0,81.959,41.537Z"/>
    <path d="M46.881,55a1.742,1.742,0,0,0,1.144-.427l17.12-14.817a1.75,1.75,0,0,0-2.29-2.646L45.735,51.928A1.762,1.762,0,0,0,46.881,55Z"/>
  </g>
</svg>
