<?xml version="1.0" encoding="utf-8"?>
<!-- Generator: Adobe Illustrator 16.0.0, SVG Export Plug-In . SVG Version: 6.00 Build 0)  -->
<!DOCTYPE svg PUBLIC "-//W3C//DTD SVG 1.1//EN" "http://www.w3.org/Graphics/SVG/1.1/DTD/svg11.dtd">
<svg enable-background="new 0 0 128 128" height="128px" id="Layer_1" version="1.1" viewBox="0 0 128 128"
     width="128px" x="0px" xml:space="preserve" xmlns="http://www.w3.org/2000/svg" y="0px">
<g>
	<g>
		<g>
			<path d="M49.531,127.535C22.219,127.535,0,105.633,0,78.713C0,54.55,18.272,33.769,42.503,30.375l0.556,3.969
				c-22.263,3.119-39.05,22.193-39.05,44.369c0,24.709,20.421,44.814,45.522,44.814c25.099,0,45.52-20.104,45.52-44.814
				c0-22.043-16.673-41.1-38.783-44.329l0.579-3.966c24.064,3.514,42.211,24.276,42.211,48.295
				C99.059,105.635,76.841,127.535,49.531,127.535z" fill="#fff"/>
		</g>
		<g>
			<g>
				<path d="M57.025,24.174H42.026c-1.093,0-2.119-0.425-2.887-1.197c-0.759-0.762-1.174-1.771-1.169-2.843
					l-0.005-9.593c0.01-2.233,1.831-4.042,4.061-4.042l15,0.007c1.099,0,2.128,0.426,2.897,1.2c0.758,0.763,1.172,1.773,1.167,2.845
					l0.006,9.59C61.083,22.371,59.257,24.174,57.025,24.174z M42.025,10.508l-0.047,9.634l15.047,0.024
					c0.047,0,0.063-0.023,0.063-0.034l-0.006-9.59L42.025,10.508z" fill="#fff"/>
			</g>
		</g>
		<g>
			<g>
				<g>
					<g>
						<g>
							<path d="M14.071,38.677l-3.41-4.947c-0.499-0.718-0.685-1.592-0.52-2.456c0.166-0.867,0.663-1.614,1.4-2.104
								l7.718-5.167c1.491-0.993,3.527-0.606,4.544,0.863l3.41,4.943l-3.299,2.276l-3.009-4.361l-6.512,4.359l2.976,4.318
								L14.071,38.677z" fill="#fff"/>
						</g>
					</g>
				</g>
			</g>
		</g>
		<g>
			<path d="M49.53,107.949c-16.349,0-29.649-13.115-29.649-29.236c0-16.124,13.301-29.24,29.649-29.24
				c16.348,0,29.649,13.116,29.649,29.24C79.179,94.834,65.878,107.949,49.53,107.949z M49.53,53.481
				c-14.139,0-25.642,11.32-25.642,25.232c0,13.91,11.503,25.229,25.642,25.229c14.138,0,25.64-11.318,25.64-25.229
				C75.17,64.801,63.668,53.481,49.53,53.481z" fill="#fff"/>
		</g>
		<g>
			<path d="M49.53,96.313c-9.835,0-17.837-7.895-17.837-17.6c0-9.707,8.002-17.603,17.837-17.603
				s17.837,7.896,17.837,17.603C67.367,88.418,59.365,96.313,49.53,96.313z M49.53,65.117c-7.625,0-13.83,6.1-13.83,13.596
				c0,7.494,6.204,13.592,13.83,13.592s13.829-6.098,13.829-13.592C63.359,71.217,57.155,65.117,49.53,65.117z" fill="#fff"/>
		</g>
		<g>
			<g>
				<rect fill="#fff" height="6.605" width="4.008" x="47.143" y="39.438"/>
			</g>
			<g>

					<rect fill="#fff" height="4.008" transform="matrix(0.5058 0.8627 -0.8627 0.5058 56.4811 -3.0973)" width="6.625" x="27.631" y="45.742"/>
			</g>
			<g>

					<rect fill="#fff" height="4.008" transform="matrix(0.8689 0.4949 -0.4949 0.8689 32.5393 -0.7683)" width="6.682" x="14.379" y="59.048"/>
			</g>
			<g>
				<rect fill="#fff" height="4.008" width="6.704" x="9.665" y="77.084"/>
			</g>
			<g>

					<rect fill="#fff" height="6.681" transform="matrix(0.4943 0.8693 -0.8693 0.4943 93.4912 33.3289)" width="4.008" x="16.094" y="93.682"/>
			</g>
			<g>

					<rect fill="#fff" height="6.632" transform="matrix(0.8626 0.5058 -0.5058 0.8626 60.0059 -0.8688)" width="4.008" x="29.599" y="106.734"/>
			</g>
			<g>
				<rect fill="#fff" height="6.605" width="4.008" x="47.907" y="111.38"/>
			</g>
			<g>

					<rect fill="#fff" height="4.009" transform="matrix(0.505 0.8631 -0.8631 0.505 128.3873 -4.4978)" width="6.628" x="64.801" y="107.672"/>
			</g>
			<g>

					<rect fill="#fff" height="4.006" transform="matrix(0.8688 0.4952 -0.4952 0.8688 58.4004 -27.6336)" width="6.677" x="78" y="94.369"/>
			</g>
			<g>
				<rect fill="#fff" height="4.008" width="6.703" x="82.688" y="76.333"/>
			</g>
			<g>

					<rect fill="#fff" height="6.678" transform="matrix(0.4941 0.8694 -0.8694 0.4941 93.4648 -39.8267)" width="4.008" x="78.952" y="57.063"/>
			</g>
			<g>

					<rect fill="#fff" height="6.627" transform="matrix(0.8625 0.5061 -0.5061 0.8625 33.2527 -27.625)" width="4.008" x="65.453" y="44.059"/>
			</g>
		</g>
		<g>
			<g>
				<path d="M49.532,85.162C49.532,85.162,49.532,85.162,49.532,85.162L49.532,85.162
					C49.531,85.162,49.531,85.162,49.532,85.162c-3.618,0-6.56-2.912-6.56-6.492c-0.003-1.734,0.681-3.369,1.929-4.598
					c1.237-1.221,2.879-1.893,4.623-1.895c3.616,0.006,6.557,2.918,6.562,6.49C56.081,82.252,53.141,85.162,49.532,85.162z
					 M49.523,76.186c-0.68,0-1.325,0.264-1.809,0.74c-0.475,0.469-0.736,1.086-0.734,1.74c0,1.373,1.144,2.488,2.55,2.488h0.002
					c1.402,0,2.544-1.115,2.546-2.486C52.076,77.305,50.93,76.188,49.523,76.186z" fill="#fff"/>
			</g>
		</g>
		<g>
			<rect fill="#fff" height="12.824" width="4.008" x="47.526" y="21.911"/>
		</g>
	</g>
	<g>
		<g>
			<g>
				<path d="M92.012,38.716l-5.05-14.915l23.685-23.337l5.049,14.922L92.012,38.716z M91.563,24.895l2.193,6.477
					l17.339-17.078L108.9,7.811L91.563,24.895z" fill="#fff"/>
			</g>
			<g>
				<path d="M104.279,40.896l-15.144-4.973l23.724-23.368L128,17.525L104.279,40.896z M96.632,34.165l6.574,2.16
					l17.298-17.042l-6.572-2.158L96.632,34.165z" fill="#fff"/>
			</g>
		</g>
		<g>
			<g>
				<path d="M92.012,38.716l-5.05-14.915l23.685-23.337l5.049,14.922L92.012,38.716z M91.563,24.895l2.193,6.477
					l17.339-17.078L108.9,7.811L91.563,24.895z" fill="#fff"/>
			</g>
			<g>
				<path d="M104.279,40.896l-15.144-4.973l23.724-23.368L128,17.525L104.279,40.896z M96.632,34.165l6.574,2.16
					l17.298-17.042l-6.572-2.158L96.632,34.165z" fill="#fff"/>
			</g>
		</g>
		<g>

				<rect fill="#fff" height="89.24" transform="matrix(0.7018 0.7123 -0.7123 0.7018 56.0332 -47.4615)" width="4.009" x="82.709" y="-1.415"/>
		</g>
	</g>
</g>
</svg>
