<?xml version="1.0" encoding="utf-8"?>
<!-- Generator: Adobe Illustrator 16.0.0, SVG Export Plug-In . SVG Version: 6.00 Build 0)  -->
<!DOCTYPE svg PUBLIC "-//W3C//DTD SVG 1.1//EN" "http://www.w3.org/Graphics/SVG/1.1/DTD/svg11.dtd">
<svg version="1.1" id="Layer_1" xmlns="http://www.w3.org/2000/svg" x="0px" y="0px"
     width="128px" height="128px" viewBox="0 0 128 128" enable-background="new 0 0 128 128" xml:space="preserve">
<g>
	<g>

			<rect x="92.415" y="17.727" transform="matrix(0.6967 0.7174 -0.7174 0.6967 53.0575 -57.4097)" fill="#282D33" width="4.001" height="32.616"/>
	</g>
	<g>

			<rect x="51.953" y="37.988" transform="matrix(0.8658 0.5004 -0.5004 0.8658 28.532 -26.4021)" fill="#282D33" width="23.062" height="4"/>
	</g>
	<g>

			<rect x="29.882" y="31.036" transform="matrix(0.7251 0.6887 -0.6887 0.7251 41.375 -8.9383)" fill="#282D33" width="4" height="32.629"/>
	</g>
	<g>
		<polygon fill="#282D33" points="61.253,108.873 57.253,108.873 57.253,54.953 39.015,54.953 39.015,108.873 35.015,108.873
			35.015,50.953 61.253,50.953 		"/>
	</g>
	<g>
		<polygon fill="#282D33" points="92.615,108.873 88.615,108.873 88.615,68.051 70.377,68.051 70.377,108.873 66.377,108.873
			66.377,64.05 92.615,64.05 		"/>
	</g>
	<g>
		<polygon fill="#282D33" points="123.979,108.873 119.979,108.873 119.979,42.097 101.738,42.097 101.738,108.873 97.738,108.873
			97.738,38.097 123.979,38.097 		"/>
	</g>
	<g>
		<polygon fill="#282D33" points="29.892,108.873 25.892,108.873 25.892,84.506 7.653,84.506 7.653,108.873 3.653,108.873
			3.653,80.506 29.892,80.506 		"/>
	</g>
	<g>
		<rect y="114.66" fill="#282D33" width="128" height="4"/>
	</g>
	<g>
		<path fill="#282D33" d="M16.165,72.385c-4.64,0-8.415-3.809-8.415-8.488c0-4.68,3.775-8.488,8.415-8.488s8.415,3.808,8.415,8.488
			C24.58,68.576,20.805,72.385,16.165,72.385z M16.165,59.409c-2.435,0-4.415,2.013-4.415,4.488s1.98,4.488,4.415,4.488
			s4.415-2.014,4.415-4.488S18.6,59.409,16.165,59.409z"/>
	</g>
	<g>
		<path fill="#282D33" d="M47.598,39.293c-4.64,0-8.415-3.808-8.415-8.488c0-4.681,3.775-8.488,8.415-8.488s8.415,3.808,8.415,8.488
			C56.013,35.486,52.238,39.293,47.598,39.293z M47.598,26.317c-2.435,0-4.415,2.014-4.415,4.488s1.98,4.488,4.415,4.488
			s4.415-2.013,4.415-4.488S50.033,26.317,47.598,26.317z"/>
	</g>
	<g>
		<path fill="#282D33" d="M79.032,57.462c-4.64,0-8.415-3.808-8.415-8.488c0-4.681,3.775-8.488,8.415-8.488s8.415,3.808,8.415,8.488
			C87.447,53.655,83.672,57.462,79.032,57.462z M79.032,44.486c-2.435,0-4.415,2.014-4.415,4.488s1.98,4.488,4.415,4.488
			s4.415-2.013,4.415-4.488S81.467,44.486,79.032,44.486z"/>
	</g>
	<g>
		<path fill="#282D33" d="M111.107,26.317c-4.641,0-8.416-3.808-8.416-8.489c0-4.681,3.775-8.489,8.416-8.489
			c4.64,0,8.414,3.808,8.414,8.489C119.521,22.509,115.747,26.317,111.107,26.317z M111.107,13.339
			c-2.435,0-4.416,2.014-4.416,4.489c0,2.475,1.981,4.489,4.416,4.489c2.434,0,4.414-2.014,4.414-4.489
			C115.521,15.353,113.541,13.339,111.107,13.339z"/>
	</g>
</g>
</svg>
