<?xml version="1.0" encoding="utf-8"?>
<!-- Generator: Adobe Illustrator 16.0.0, SVG Export Plug-In . SVG Version: 6.00 Build 0)  -->
<!DOCTYPE svg PUBLIC "-//W3C//DTD SVG 1.1//EN" "http://www.w3.org/Graphics/SVG/1.1/DTD/svg11.dtd">
<svg enable-background="new 0 0 128 128" height="128px" id="Layer_1" version="1.1" viewBox="0 0 128 128"
     width="128px" x="0px" xml:space="preserve" xmlns="http://www.w3.org/2000/svg" y="0px">
<g>
	<g>
		<rect fill="#282D33" height="8.569" width="4" x="60.127" y="-0.002"/>
	</g>
	<g>
		<rect fill="#282D33" height="4" transform="matrix(0.5 0.866 -0.866 0.5 26.7601 -23.1928)" width="8.569" x="29.182" y="9.579"/>
	</g>
	<g>
		<rect fill="#282D33" height="4" transform="matrix(0.866 0.5 -0.5 0.866 17.7608 -1.8289)" width="8.571" x="8.008" y="30.231"/>
	</g>
	<g>
		<rect fill="#282D33" height="4" width="8.568" y="58.699"/>
	</g>
	<g>
		<path d="M10.455,94.088" fill="none" stroke="#282D33" stroke-width="4"/>
	</g>
	<g>
		<path d="M17.876,89.804" fill="none" stroke="#282D33" stroke-width="4"/>
	</g>
	<g>
		<path d="M32.671,116.829" fill="none" stroke="#282D33" stroke-width="4"/>
	</g>
	<g>
		<path d="M36.958,109.408" fill="none" stroke="#282D33" stroke-width="4"/>
	</g>
	<g>
		<rect fill="#282D33" height="8.57" width="4" x="63.872" y="119.432"/>
	</g>
	<g>

			<rect fill="#282D33" height="4.001" transform="matrix(0.5 0.866 -0.866 0.5 148.0858 -23.6564)" width="8.57" x="90.245" y="114.42"/>
	</g>
	<g>

			<rect fill="#282D33" height="4.001" transform="matrix(0.866 0.5 -0.5 0.866 63.3891 -45.0218)" width="8.57" x="111.419" y="93.771"/>
	</g>
	<g>
		<rect fill="#282D33" height="4" width="8.568" x="119.432" y="65.301"/>
	</g>
	<g>
		<path d="M117.546,33.912" fill="none" stroke="#282D33" stroke-width="4"/>
	</g>
	<g>
		<path d="M110.122,38.196" fill="none" stroke="#282D33" stroke-width="4"/>
	</g>
	<g>
		<path d="M95.329,11.17" fill="none" stroke="#282D33" stroke-width="4"/>
	</g>
	<g>
		<path d="M91.044,18.592" fill="none" stroke="#282D33" stroke-width="4"/>
	</g>
	<g>
		<path d="M64.001,110.827v-4c23.611,0,42.82-19.212,42.82-42.827h4C110.821,89.821,89.819,110.827,64.001,110.827z" fill="#282D33"
			/>
	</g>
	<g>
		<path d="M21.175,64h-4c0-25.821,21.007-46.829,46.828-46.829v4C40.388,21.172,21.175,40.385,21.175,64z" fill="#282D33"/>
	</g>
	<g>
		<g>
			<path d="M27.25,124.24c-6.273,0-12.171-2.443-16.606-6.88c-4.434-4.435-6.876-10.331-6.876-16.603
				c0-6.273,2.442-12.169,6.876-16.603l20.093-20.097c4.435-4.435,10.332-6.876,16.604-6.876c2.667,0,5.279,0.44,7.764,1.309
				l-1.32,3.776c-2.06-0.72-4.228-1.085-6.444-1.085c-5.204,0-10.096,2.026-13.775,5.705L13.473,86.983
				c-3.679,3.678-5.705,8.57-5.705,13.774c0,5.203,2.026,10.096,5.704,13.774c3.68,3.681,8.574,5.708,13.778,5.708
				c5.202,0,10.093-2.027,13.771-5.708l20.093-20.09c5.274-5.274,7.073-13.24,4.583-20.292l3.771-1.332
				c3,8.496,0.83,18.095-5.526,24.452L43.85,117.36C39.417,121.797,33.521,124.24,27.25,124.24z M27.247,111.501
				c-2.754,0-5.507-1.047-7.604-3.142c-4.189-4.194-4.189-11.015-0.001-15.206l20.096-20.093l2.828,2.828L22.471,95.981
				c-2.629,2.632-2.629,6.916,0.001,9.55c2.634,2.63,6.919,2.63,9.552-0.002l20.09-20.089l2.829,2.828l-20.091,20.09
				C32.755,110.453,30.001,111.501,27.247,111.501z" fill="#282D33"/>
		</g>
		<g>
			<path d="M80.668,70.822c-2.967,0-5.857-0.544-8.588-1.618l1.463-3.723c2.264,0.89,4.66,1.341,7.125,1.341
				c5.204,0,10.095-2.028,13.774-5.71l20.094-20.09c3.674-3.674,5.698-8.567,5.698-13.777s-2.024-10.103-5.698-13.775
				c-3.68-3.682-8.57-5.708-13.773-5.708c-5.205,0-10.098,2.027-13.777,5.708L66.893,33.562c-3.679,3.68-5.706,8.572-5.706,13.775
				c0,2.215,0.365,4.384,1.086,6.446l-3.776,1.32c-0.869-2.487-1.31-5.1-1.31-7.766c0-6.272,2.443-12.169,6.878-16.604
				l20.092-20.092c4.436-4.437,10.332-6.88,16.605-6.88c6.271,0,12.168,2.443,16.602,6.88c4.431,4.428,6.87,10.324,6.87,16.603
				c0,6.278-2.439,12.176-6.87,16.605L97.271,63.94C92.837,68.378,86.94,70.822,80.668,70.822z M88.272,54.939l-2.828-2.829
				l20.092-20.09c2.631-2.634,2.633-6.918,0.002-9.55c-2.633-2.633-6.92-2.633-9.553,0L75.893,42.563l-2.828-2.828l20.093-20.092
				c4.191-4.193,11.016-4.193,15.209,0c4.189,4.191,4.189,11.013-0.002,15.206L88.272,54.939z" fill="#282D33"/>
		</g>
		<g>
			<path d="M47.138,91.613c-2.875,0-5.576-1.117-7.604-3.146c-4.191-4.192-4.191-11.014,0-15.206l33.354-33.353
				c2.027-2.028,4.729-3.145,7.604-3.145c2.876,0,5.575,1.117,7.603,3.145c4.191,4.193,4.191,11.013,0,15.204L54.74,88.468
				C52.714,90.496,50.014,91.613,47.138,91.613z M80.492,40.764c-1.807,0-3.502,0.701-4.775,1.973L42.363,76.09
				c-2.631,2.633-2.631,6.917,0,9.55c1.272,1.272,2.968,1.974,4.774,1.974s3.502-0.701,4.773-1.974l33.355-33.356
				c2.631-2.631,2.631-6.914,0-9.547C83.995,41.464,82.297,40.764,80.492,40.764z" fill="#282D33"/>
		</g>
	</g>
</g>
</svg>
