<?xml version="1.0" encoding="utf-8"?>
<!-- Generator: Adobe Illustrator 16.0.0, SVG Export Plug-In . SVG Version: 6.00 Build 0)  -->
<!DOCTYPE svg PUBLIC "-//W3C//DTD SVG 1.1//EN" "http://www.w3.org/Graphics/SVG/1.1/DTD/svg11.dtd">
<svg version="1.1" id="Layer_1" xmlns="http://www.w3.org/2000/svg" x="0px" y="0px"
     width="128px" height="128px" viewBox="0 0 128 128" enable-background="new 0 0 128 128" xml:space="preserve">
<g>
	<g>
		<g>
			<path fill="#282D33" d="M70.164,38.313h-4v-3.976c0-8.303,6.688-15.058,14.906-15.058v4c-6.014,0-10.906,4.96-10.906,11.058
				V38.313z"/>
		</g>
	</g>
	<g>
		<path fill="#282D33" d="M61.727,54.409h-4v-40.18C57.727,8.589,53.203,4,47.643,4V0c7.766,0,14.084,6.383,14.084,14.229V54.409z"
			/>
	</g>
	<g>
		<path fill="#282D33" d="M63.955,63.821c-3.434,0-6.228-2.816-6.228-6.278V46.226h4v11.317c0,1.256,1,2.278,2.228,2.278
			c1.227,0,2.225-1.022,2.225-2.278V37.646h4v19.897C70.18,61.004,67.387,63.821,63.955,63.821z"/>
	</g>
	<g>
		<g>
			<path fill="#282D33" d="M37.803,27.279h-4v-13.05C33.803,6.383,40.125,0,47.897,0v4c-5.566,0-10.095,4.589-10.095,10.229V27.279z
				"/>
		</g>
	</g>
	<g>
		<path fill="#282D33" d="M95.697,48.004h-4V34.337c0-6.098-4.891-11.058-10.902-11.058v-4c8.217,0,14.902,6.755,14.902,15.058
			V48.004z"/>
	</g>
	<g>
		<path fill="#282D33" d="M35.192,118.645c-12.608,0-23.346-9.938-24.444-22.624l-0.188-2.173h49.27l-0.188,2.173
			C58.543,108.707,47.804,118.645,35.192,118.645z M15.038,97.848c1.867,9.578,10.333,16.797,20.154,16.797
			c9.824,0,18.292-7.219,20.16-16.797H15.038z"/>
	</g>
	<g>
		<path fill="#282D33" d="M114.67,128H73.018c-1.943,0-3.572-0.825-4.471-2.264c-1.01-1.614-0.982-3.78,0.072-5.943l15.93-32.688
			V67.082H83.07V51.839h21.543v15.243h-1.475v20.027l15.926,32.685c1.057,2.159,1.084,4.326,0.076,5.94
			C118.24,127.174,116.611,128,114.67,128z M87.07,63.082h1.479v24.946l-16.334,33.518c-0.508,1.041-0.467,1.766-0.275,2.07
			c0.207,0.334,0.764,0.384,1.078,0.384h41.652c0.313,0,0.869-0.05,1.076-0.384c0.191-0.305,0.232-1.028-0.275-2.068L99.139,88.031
			V63.082h1.475v-7.243H87.07V63.082z"/>
	</g>
	<g>
		<g>
			<path fill="#282D33" d="M35.192,128c-18.628,0-33.784-15.324-33.784-34.16c0-15.495,10.074-28.8,24.69-32.898V48.036h-2.068
				V32.715h22.329v15.322h-2.068v12.905c14.616,4.1,24.691,17.404,24.691,32.898C68.982,112.676,53.824,128,35.192,128z
				 M28.031,44.036h2.068v20.049l-1.55,0.358C14.924,67.588,5.409,79.676,5.409,93.84c0,16.63,13.361,30.16,29.784,30.16
				c16.426,0,29.79-13.529,29.79-30.159c0-14.163-9.516-26.251-23.141-29.397l-1.55-0.358V44.037h2.068v-7.322H28.031V44.036z"/>
		</g>
	</g>
	<g>
		<path fill="#282D33" d="M11.792,24.274c-4.26,0-7.725-3.496-7.725-7.793s3.465-7.793,7.725-7.793s7.725,3.496,7.725,7.793
			S16.052,24.274,11.792,24.274z M11.792,12.688c-2.054,0-3.725,1.702-3.725,3.793s1.671,3.793,3.725,3.793s3.725-1.702,3.725-3.793
			S13.847,12.688,11.792,12.688z"/>
	</g>
	<g>
		<g>
			<g>
				<rect x="111.514" y="5.151" fill="#282D33" width="4" height="5.095"/>
			</g>
		</g>
		<g>
			<g>

					<rect x="100.879" y="11.345" transform="matrix(0.8634 0.5045 -0.5045 0.8634 20.8561 -50.3443)" fill="#282D33" width="5.051" height="4"/>
			</g>
		</g>
		<g>
			<g>

					<rect x="101.185" y="22.501" transform="matrix(0.5039 0.8638 -0.8638 0.5039 72.8057 -76.7118)" fill="#282D33" width="4" height="5.05"/>
			</g>
		</g>
		<g>
			<g>
				<rect x="111.074" y="28.512" fill="#282D33" width="4" height="5.094"/>
			</g>
		</g>
		<g>
			<g>

					<rect x="120.658" y="23.413" transform="matrix(0.8634 0.5044 -0.5044 0.8634 29.6409 -58.669)" fill="#282D33" width="5.049" height="4"/>
			</g>
		</g>
		<g>
			<g>

					<rect x="121.403" y="11.207" transform="matrix(0.5039 0.8638 -0.8638 0.5039 73.0809 -99.7788)" fill="#282D33" width="4" height="5.05"/>
			</g>
		</g>
	</g>
	<g>
		<rect x="77.121" y="104.911" fill="#282D33" width="35.215" height="4"/>
	</g>
</g>
</svg>
