<svg height="128" viewBox="0 0 128 128" width="128" xmlns="http://www.w3.org/2000/svg">
  <path d="M120.81,34.83a9.815,9.815,0,0,0-9.751-9.75H16.94a9.774,9.774,0,0,0-9.75,9.75V93.17a9.815,9.815,0,0,0,9.75,9.75h94.12a9.772,9.772,0,0,0,9.75-9.75ZM82.857,64l33.625-32.272a6.177,6.177,0,0,1,.828,3.1V93.17a6.181,6.181,0,0,1-.832,3.1Zm28.2-35.419a6.187,6.187,0,0,1,2.9.716L66.249,75.087a3.242,3.242,0,0,1-4.5,0L14.04,29.3a6.184,6.184,0,0,1,2.9-.716ZM11.522,96.27a6.169,6.169,0,0,1-.832-3.1V34.83a6.182,6.182,0,0,1,.827-3.1L45.144,64Zm5.418,3.15a6.183,6.183,0,0,1-2.9-.716l33.63-32.279L59.329,77.613a6.74,6.74,0,0,0,9.343,0L80.329,66.425,113.96,98.7a6.187,6.187,0,0,1-2.9.716Z"/>
</svg>
