<?xml version="1.0" encoding="utf-8"?>
<!-- Generator: Adobe Illustrator 16.0.0, SVG Export Plug-In . SVG Version: 6.00 Build 0)  -->
<!DOCTYPE svg PUBLIC "-//W3C//DTD SVG 1.1//EN" "http://www.w3.org/Graphics/SVG/1.1/DTD/svg11.dtd">
<svg enable-background="new 0 0 128 128" height="128px" id="Layer_1" version="1.1" viewBox="0 0 128 128"
     width="128px" x="0px" xml:space="preserve" xmlns="http://www.w3.org/2000/svg" y="0px">
<g>
	<g>
		<g>
			<path d="M63.994,128c-25.544,0-46.325-20.492-46.325-45.682c0-20.923,14.076-38.858,34.43-44.155V19.377h-2.884V0
				h29.564v19.378h-2.883v18.786c20.356,5.297,34.435,23.232,34.435,44.155C110.331,107.508,89.544,128,63.994,128z M53.215,15.377
				h2.884v25.959l-1.561,0.351c-19.353,4.354-32.869,21.062-32.869,40.631c0,22.982,18.987,41.682,42.325,41.682
				c23.345,0,42.337-18.699,42.337-41.682c0-19.568-13.519-36.276-32.874-40.631l-1.561-0.351V15.377h2.883V4H53.215V15.377z" fill="#282D33"/>
		</g>
	</g>
	<g>
		<path class="infinite-spinner" d="M70.049,118.121H56.742l-0.768-9.123c-2.299-0.668-4.489-1.621-6.539-2.84l-6.827,5.693l-9.428-9.293
			l6.001-6.994c-1.133-2.059-1.991-4.244-2.562-6.523l-8.928-0.732V75.137l9.264-0.764c0.678-2.252,1.636-4.396,2.86-6.4
			l-5.784-6.741l9.429-9.295l7.084,5.91c2.1-1.126,4.331-1.979,6.661-2.545l0.741-8.793h13.308l0.769,9.122
			c2.297,0.669,4.486,1.621,6.536,2.842l6.83-5.695l9.429,9.295l-6.004,6.992c1.131,2.059,1.988,4.244,2.561,6.523l8.93,0.732
			v13.174l-9.266,0.76c-0.676,2.248-1.634,4.393-2.859,6.402l5.784,6.74l-9.429,9.295l-7.085-5.91
			c-2.098,1.125-4.327,1.979-6.658,2.547L70.049,118.121z M60.42,114.121h5.953l0.688-8.119l1.494-0.283
			c2.883-0.543,5.601-1.576,8.078-3.074l1.22-0.736l6.459,5.387l4.187-4.127l-5.33-6.211l0.873-1.268
			c1.639-2.379,2.814-4.998,3.495-7.789l0.343-1.4l8.427-0.691v-5.803l-8.238-0.676l-0.288-1.49c-0.546-2.826-1.592-5.5-3.108-7.943
			l-0.773-1.246l5.455-6.352l-4.187-4.126l-6.312,5.263l-1.244-0.833c-2.415-1.618-5.08-2.779-7.922-3.452l-1.41-0.334l-0.7-8.308
			h-5.954l-0.684,8.122l-1.497,0.28c-2.879,0.54-5.598,1.573-8.081,3.072l-1.22,0.737l-6.458-5.387l-4.187,4.127l5.332,6.214
			l-0.875,1.268c-1.633,2.367-2.81,4.986-3.496,7.785l-0.343,1.4l-8.424,0.693v5.803l8.238,0.676l0.287,1.492
			c0.544,2.824,1.59,5.494,3.11,7.939l0.774,1.244l-5.453,6.355l4.185,4.125l6.309-5.262l1.244,0.834
			c2.414,1.617,5.08,2.779,7.923,3.451l1.411,0.334L60.42,114.121z" fill="#282D33"/>
	</g>
	<g>
		<path d="M64,98.326c-8.941,0-16.215-7.184-16.215-16.012S55.059,66.305,64,66.305
			c8.94,0,16.215,7.182,16.215,16.01S72.94,98.326,64,98.326z M64,70.305c-6.735,0-12.215,5.387-12.215,12.01
			S57.265,94.326,64,94.326s12.215-5.389,12.215-12.012S70.735,70.305,64,70.305z" fill="#282D33"/>
	</g>
	<g>
		<rect fill="#282D33" height="4" width="12.807" x="50.532" y="14.811"/>
	</g>
</g>
</svg>
