<?xml version="1.0" encoding="utf-8"?>
<!-- Generator: Adobe Illustrator 16.0.0, SVG Export Plug-In . SVG Version: 6.00 Build 0)  -->
<!DOCTYPE svg PUBLIC "-//W3C//DTD SVG 1.1//EN" "http://www.w3.org/Graphics/SVG/1.1/DTD/svg11.dtd">
<svg version="1.1" id="Layer_1" xmlns="http://www.w3.org/2000/svg" x="0px" y="0px"
     width="128px" height="128px" viewBox="0 0 128 128" enable-background="new 0 0 128 128" xml:space="preserve">
<g>
	<g>
		<g>
			<path fill="#282D33" d="M106.439,82.375c-0.334,0-0.672-0.083-0.983-0.26l-0.428-0.242c-0.961-0.544-1.299-1.765-0.755-2.726
				c0.545-0.963,1.763-1.3,2.726-0.755l0.428,0.242c0.961,0.544,1.299,1.765,0.755,2.726
				C107.813,82.011,107.137,82.375,106.439,82.375z"/>
		</g>
		<g>
			<path fill="#282D33" d="M119.214,89.598c-0.333,0-0.672-0.083-0.982-0.259l-0.715-0.404c-0.962-0.544-1.3-1.765-0.757-2.726
				c0.544-0.961,1.765-1.302,2.726-0.757l0.715,0.404c0.962,0.544,1.3,1.765,0.757,2.726
				C120.589,89.232,119.911,89.598,119.214,89.598z M112.781,85.961c-0.333,0-0.672-0.083-0.982-0.259l-0.715-0.404
				c-0.962-0.544-1.3-1.765-0.757-2.726c0.544-0.961,1.765-1.301,2.726-0.757l0.715,0.404c0.962,0.544,1.3,1.765,0.757,2.726
				C114.156,85.596,113.479,85.961,112.781,85.961z"/>
		</g>
		<g>
			<path fill="#282D33" d="M124.73,93.201c-0.695,0-1.371-0.362-1.74-1.011c-0.221-0.389-0.298-0.82-0.247-1.232
				c-0.051-0.41,0.025-0.84,0.244-1.227c0.543-0.962,1.763-1.302,2.725-0.758l0.429,0.242c0.627,0.354,1.016,1.018,1.017,1.737
				c0.001,0.721-0.385,1.386-1.011,1.742l-0.429,0.244C125.406,93.117,125.065,93.201,124.73,93.201z"/>
		</g>
		<g>
			<path fill="#282D33" d="M70.289,124.293c-0.695,0-1.37-0.362-1.739-1.009c-0.547-0.96-0.213-2.181,0.746-2.729l0.866-0.494
				c0.958-0.549,2.18-0.213,2.729,0.746c0.547,0.96,0.213,2.181-0.746,2.729l-0.866,0.494
				C70.966,124.209,70.625,124.293,70.289,124.293z M78.083,119.843c-0.694,0-1.368-0.361-1.738-1.007
				c-0.548-0.959-0.216-2.181,0.743-2.729l0.865-0.495c0.959-0.547,2.181-0.215,2.729,0.743c0.548,0.959,0.216,2.181-0.743,2.729
				l-0.865,0.495C78.761,119.758,78.42,119.843,78.083,119.843z M85.876,115.392c-0.695,0-1.37-0.362-1.739-1.009
				c-0.547-0.96-0.213-2.181,0.746-2.729l0.866-0.494c0.958-0.55,2.181-0.213,2.729,0.746c0.547,0.96,0.213,2.181-0.746,2.729
				l-0.866,0.494C86.553,115.308,86.212,115.392,85.876,115.392z M93.669,110.94c-0.695,0-1.37-0.362-1.739-1.009
				c-0.547-0.96-0.213-2.181,0.746-2.729l0.866-0.494c0.958-0.549,2.181-0.213,2.729,0.746c0.547,0.96,0.213,2.181-0.746,2.729
				l-0.866,0.494C94.346,110.856,94.005,110.94,93.669,110.94z M101.463,106.49c-0.694,0-1.368-0.361-1.738-1.007
				c-0.548-0.959-0.216-2.181,0.743-2.729l0.865-0.495c0.96-0.547,2.18-0.216,2.729,0.743c0.548,0.959,0.216,2.181-0.743,2.729
				l-0.865,0.495C102.141,106.405,101.8,106.49,101.463,106.49z M109.256,102.039c-0.695,0-1.37-0.362-1.739-1.009
				c-0.547-0.96-0.213-2.181,0.746-2.729l0.866-0.494c0.958-0.55,2.181-0.213,2.729,0.746c0.547,0.96,0.213,2.181-0.746,2.729
				l-0.866,0.494C109.933,101.955,109.592,102.039,109.256,102.039z M117.049,97.588c-0.695,0-1.37-0.362-1.739-1.009
				c-0.547-0.96-0.213-2.181,0.746-2.729l0.866-0.494c0.958-0.549,2.181-0.213,2.729,0.746c0.547,0.96,0.213,2.181-0.746,2.729
				l-0.866,0.494C117.726,97.504,117.385,97.588,117.049,97.588z"/>
		</g>
		<g>
			<path fill="#282D33" d="M63.798,128c-0.34,0-0.68-0.087-0.985-0.26l-0.428-0.242c-0.961-0.544-1.299-1.765-0.755-2.726
				c0.442-0.781,1.332-1.148,2.164-0.97c0.834-0.183,1.725,0.182,2.17,0.963c0.547,0.959,0.212,2.181-0.747,2.728l-0.429,0.244
				C64.481,127.912,64.14,128,63.798,128z"/>
		</g>
		<g>
			<path fill="#282D33" d="M56.596,123.93c-0.333,0-0.671-0.083-0.982-0.259l-0.86-0.486c-0.961-0.544-1.3-1.764-0.757-2.726
				c0.543-0.961,1.764-1.301,2.726-0.757l0.86,0.486c0.961,0.544,1.3,1.764,0.757,2.726C57.972,123.564,57.294,123.93,56.596,123.93
				z M48.855,119.553c-0.333,0-0.671-0.083-0.982-0.259l-0.86-0.486c-0.962-0.544-1.3-1.765-0.756-2.726
				c0.543-0.962,1.763-1.301,2.725-0.757l0.86,0.486c0.962,0.544,1.3,1.765,0.756,2.726
				C50.23,119.188,49.553,119.553,48.855,119.553z M41.114,115.175c-0.333,0-0.671-0.083-0.982-0.259l-0.86-0.486
				c-0.961-0.544-1.3-1.764-0.757-2.726c0.542-0.962,1.763-1.302,2.726-0.757l0.86,0.486c0.961,0.544,1.3,1.764,0.757,2.726
				C42.49,114.81,41.812,115.175,41.114,115.175z M33.373,110.798c-0.333,0-0.671-0.083-0.982-0.259l-0.86-0.486
				c-0.961-0.544-1.3-1.765-0.756-2.726c0.543-0.962,1.762-1.302,2.725-0.757l0.86,0.486c0.962,0.544,1.3,1.765,0.756,2.726
				C34.748,110.433,34.071,110.798,33.373,110.798z M25.632,106.421c-0.334,0-0.672-0.083-0.984-0.26l-0.86-0.487
				c-0.961-0.544-1.299-1.765-0.754-2.726c0.544-0.962,1.765-1.301,2.726-0.755l0.86,0.487c0.961,0.544,1.299,1.765,0.754,2.726
				C27.006,106.057,26.33,106.421,25.632,106.421z M17.891,102.043c-0.333,0-0.671-0.083-0.982-0.259l-0.86-0.486
				c-0.962-0.544-1.3-1.765-0.756-2.726c0.543-0.961,1.763-1.301,2.725-0.757l0.86,0.486c0.962,0.544,1.3,1.765,0.756,2.726
				C19.266,101.678,18.589,102.043,17.891,102.043z M10.15,97.666c-0.333,0-0.671-0.083-0.982-0.259l-0.86-0.486
				c-0.961-0.544-1.3-1.764-0.757-2.726c0.543-0.962,1.764-1.301,2.726-0.757l0.86,0.486c0.961,0.544,1.3,1.764,0.757,2.726
				C11.526,97.301,10.848,97.666,10.15,97.666z"/>
		</g>
		<g>
			<path fill="#282D33" d="M3.269,93.773c-0.333,0-0.669-0.083-0.979-0.258l-0.428-0.241c-0.627-0.354-1.017-1.017-1.019-1.737
				c-0.002-0.72,0.384-1.386,1.009-1.742l0.428-0.244c0.961-0.549,2.182-0.212,2.728,0.747c0.222,0.389,0.299,0.82,0.248,1.232
				c0.05,0.409-0.025,0.838-0.243,1.225C4.646,93.407,3.968,93.773,3.269,93.773z"/>
		</g>
		<g>
			<path fill="#282D33" d="M9.085,89.969c-0.694,0-1.369-0.361-1.738-1.008c-0.548-0.959-0.215-2.181,0.744-2.729l0.738-0.422
				c0.959-0.547,2.181-0.216,2.729,0.744c0.548,0.959,0.215,2.181-0.744,2.729l-0.738,0.422C9.762,89.884,9.421,89.969,9.085,89.969
				z M15.729,86.173c-0.694,0-1.369-0.361-1.738-1.008c-0.548-0.959-0.215-2.181,0.744-2.729l0.738-0.422
				c0.96-0.548,2.181-0.215,2.729,0.744c0.548,0.959,0.215,2.181-0.744,2.729l-0.738,0.422
				C16.406,86.088,16.065,86.173,15.729,86.173z"/>
		</g>
		<g>
			<path fill="#282D33" d="M22.162,82.499c-0.695,0-1.37-0.362-1.739-1.009c-0.548-0.959-0.214-2.181,0.746-2.729l0.428-0.244
				c0.958-0.546,2.181-0.213,2.728,0.746c0.548,0.959,0.214,2.181-0.746,2.729l-0.428,0.244
				C22.839,82.414,22.498,82.499,22.162,82.499z"/>
		</g>
	</g>
	<g>
		<g>
			<path fill="#282D33" d="M63.892,67.395c-0.339,0-0.679-0.086-0.984-0.259L21.997,44.001c-0.626-0.354-1.014-1.017-1.016-1.736
				s0.383-1.384,1.008-1.741l19.638-11.218c0.96-0.549,2.181-0.214,2.729,0.745c0.548,0.959,0.214,2.181-0.745,2.729l-16.583,9.472
				l36.858,20.842l37.135-21.21l-15.18-8.583c-0.962-0.544-1.3-1.764-0.757-2.726c0.544-0.96,1.762-1.301,2.726-0.757l18.243,10.315
				c0.626,0.354,1.014,1.018,1.016,1.737s-0.384,1.384-1.008,1.741L64.884,67.131C64.577,67.307,64.234,67.395,63.892,67.395z"/>
		</g>
		<g>
			<g>
				<path fill="#282D33" d="M64.365,114.415c-0.344,0-0.687-0.089-0.995-0.266c-0.615-0.353-0.998-1.005-1.005-1.714l-0.473-47.021
					c-0.007-0.726,0.378-1.397,1.008-1.757l41.178-23.52c0.617-0.352,1.374-0.351,1.987,0.002c0.615,0.353,0.997,1.005,1.005,1.714
					l0.479,47.012c0.007,0.726-0.378,1.397-1.008,1.757l-41.185,23.528C65.05,114.327,64.708,114.415,64.365,114.415z
					 M65.904,66.549l0.427,42.439l37.207-21.256l-0.433-42.432L65.904,66.549z"/>
			</g>
		</g>
		<g>
			<g>
				<path fill="#282D33" d="M64.365,114.415c-0.339,0-0.679-0.086-0.984-0.259L22.465,91.019c-0.622-0.352-1.008-1.008-1.016-1.722
					l-0.468-47.016c-0.007-0.715,0.368-1.379,0.984-1.743c0.615-0.363,1.378-0.371,2-0.018l40.912,23.134
					c0.621,0.351,1.008,1.007,1.015,1.72l0.474,47.021c0.007,0.715-0.368,1.38-0.983,1.743
					C65.068,114.322,64.717,114.415,64.365,114.415z M25.438,88.104l36.893,20.862l-0.427-42.399L25.016,45.709L25.438,88.104z"/>
			</g>
		</g>
	</g>
	<g>
		<g>
			<path fill="#282D33" d="M64.067,28.585c-0.339,0-0.679-0.086-0.984-0.259L41.527,16.135c-0.626-0.354-1.014-1.017-1.016-1.736
				s0.383-1.384,1.008-1.741L63.216,0.263c0.613-0.35,1.362-0.35,1.977-0.004l21.562,12.19c0.626,0.354,1.014,1.018,1.016,1.737
				s-0.384,1.384-1.008,1.741L65.059,28.322C64.752,28.497,64.409,28.585,64.067,28.585z M46.559,14.385l17.503,9.899l17.66-10.086
				L64.213,4.3L46.559,14.385z"/>
		</g>
		<g>
			<g>
				<path fill="#282D33" d="M64.318,53.363c-0.344,0-0.687-0.088-0.995-0.265c-0.615-0.353-0.998-1.005-1.005-1.714l-0.251-24.778
					c-0.007-0.725,0.378-1.397,1.008-1.757l21.702-12.395c0.617-0.352,1.374-0.351,1.987,0.002c0.615,0.353,0.998,1.005,1.005,1.715
					l0.25,24.774c0.007,0.725-0.378,1.397-1.008,1.756L65.31,53.099C65.003,53.275,64.66,53.363,64.318,53.363z M66.079,27.739
					l0.204,20.197L84.008,37.81l-0.204-20.194L66.079,27.739z"/>
			</g>
		</g>
		<g>
			<g>
				<path fill="#282D33" d="M64.318,53.363c-0.339,0-0.679-0.086-0.984-0.259L41.772,40.912c-0.622-0.351-1.008-1.007-1.016-1.721
					l-0.246-24.777c-0.007-0.715,0.368-1.379,0.984-1.743c0.614-0.363,1.378-0.371,2-0.018l21.556,12.191
					c0.621,0.351,1.008,1.007,1.015,1.721l0.251,24.778c0.008,0.715-0.367,1.379-0.983,1.743
					C65.021,53.27,64.67,53.363,64.318,53.363z M44.745,37.998l17.538,9.917l-0.204-20.156l-17.533-9.916L44.745,37.998z"/>
			</g>
		</g>
	</g>
</g>
</svg>
