<?xml version="1.0" encoding="utf-8"?>
<!-- Generator: Adobe Illustrator 16.0.0, SVG Export Plug-In . SVG Version: 6.00 Build 0)  -->
<!DOCTYPE svg PUBLIC "-//W3C//DTD SVG 1.1//EN" "http://www.w3.org/Graphics/SVG/1.1/DTD/svg11.dtd">
<svg version="1.1" id="Layer_1" xmlns="http://www.w3.org/2000/svg" x="0px" y="0px"
     width="128px" height="128px" viewBox="0 0 128 128" enable-background="new 0 0 128 128" xml:space="preserve">
<g>
	<g>
		<g>
			<g>
				<polygon fill="#282D33" points="63.998,123.965 22.458,99.709 22.458,79.791 26.46,79.791 26.46,97.41 63.998,119.33
					101.541,97.41 101.541,79.791 105.543,79.791 105.543,99.709 				"/>
			</g>
			<g>
				<rect x="61.999" y="80.861" fill="#282D33" width="4.002" height="37.484"/>
			</g>
			<g>
				<g>
					<path fill="#282D33" d="M82.544,94.215l-22.516-13.15l45.452-26.512L128,67.703L82.544,94.215z M67.968,81.066l14.578,8.516
						l37.515-21.881l-14.582-8.515L67.968,81.066z"/>
				</g>
				<g>
					<path fill="#282D33" d="M45.45,94.215L0,67.703l22.517-13.151l45.454,26.512L45.45,94.215z M7.938,67.701l37.511,21.881
						l14.582-8.516l-37.514-21.88L7.938,67.701z"/>
				</g>
			</g>
			<g>
				<g>
					<polygon fill="#282D33" points="22.517,59.136 0,45.984 44.441,20.061 46.458,23.518 7.938,45.986 22.518,54.502
						48.771,39.188 50.788,42.645 					"/>
				</g>
				<g>
					<polygon fill="#282D33" points="105.48,59.136 76.576,42.273 78.593,38.817 105.479,54.502 120.061,45.986 81.536,23.518
						83.553,20.061 128,45.984 					"/>
				</g>
			</g>
		</g>
	</g>
	<g>
		<polygon fill="#282D33" points="71.706,67.883 67.704,67.883 67.704,29.863 74.137,29.863 64,12.107 53.864,29.863 60.297,29.863
			60.297,67.883 56.295,67.883 56.295,33.865 46.971,33.865 64,4.035 81.029,33.865 71.706,33.865 		"/>
	</g>
</g>
</svg>
