<svg viewBox="0 0 48 48" xmlns="http://www.w3.org/2000/svg">
  <g data-name="08-network" id="_08-network">
    <path
      d="M45,41H3a3,3,0,0,1-3-3V10A3,3,0,0,1,3,7h9V9H3a1,1,0,0,0-1,1V38a1,1,0,0,0,1,1H45a1,1,0,0,0,1-1V10a1,1,0,0,0-1-1H36V7h9a3,3,0,0,1,3,3V38A3,3,0,0,1,45,41Z"/>
    <rect height="2" width="26" x="11" y="46"/>
    <rect height="2" transform="matrix(0.275, -0.961, 0.961, 0.275, -30.223, 46.925)" width="7.28" x="12.36" y="42.5"/>
    <rect height="7.28" transform="translate(-10.719 10.465) rotate(-15.945)" width="2" x="31" y="39.86"/>
    <path
      d="M25,31H23V21a1,1,0,0,1,1-1H34a4,4,0,0,0,0-8H32.941a1,1,0,0,1-.994-1.109A8.2,8.2,0,0,0,32,10a8,8,0,0,0-16,0,8.2,8.2,0,0,0,.053.891A1,1,0,0,1,15.059,12H14a4,4,0,0,0,0,8h7v2H14a6,6,0,0,1,0-12,10,10,0,0,1,20,0,6,6,0,0,1,0,12H25Z"/>
    <path d="M24,36a3,3,0,1,1,3-3A3,3,0,0,1,24,36Zm0-4a1,1,0,1,0,1,1A1,1,0,0,0,24,32Z"/>
    <path d="M9,36a3,3,0,1,1,3-3A3,3,0,0,1,9,36Zm0-4a1,1,0,1,0,1,1A1,1,0,0,0,9,32Z"/>
    <path d="M39,36a3,3,0,1,1,3-3A3,3,0,0,1,39,36Zm0-4a1,1,0,1,0,1,1A1,1,0,0,0,39,32Z"/>
    <path d="M40,31H38V28a1,1,0,0,0-1-1H11a1,1,0,0,0-1,1v3H8V28a3,3,0,0,1,3-3H37a3,3,0,0,1,3,3Z"/>
  </g>
</svg>
