<svg fill="#000000" xmlns="http://www.w3.org/2000/svg"  viewBox="0 0 50 50" width="128px" height="128px"><path d="M 31.546875 2 A 1.0001 1.0001 0 0 0 31.263672 2.0546875 L 5.6738281 10.853516 A 1.0001 1.0001 0 0 0 5 11.800781 L 5 38.199219 A 1.0001 1.0001 0 0 0 5.0058594 38.298828 A 1.0001 1.0001 0 0 0 5.0058594 38.300781 A 1.0001 1.0001 0 0 0 5.0449219 38.494141 A 1.0001 1.0001 0 0 0 5.0449219 38.496094 A 1.0001 1.0001 0 0 0 5.1230469 38.679688 A 1.0001 1.0001 0 0 0 5.3027344 38.916016 A 1.0001 1.0001 0 0 0 5.3789062 38.982422 A 1.0001 1.0001 0 0 0 5.546875 39.091797 A 1.0001 1.0001 0 0 0 5.6367188 39.132812 A 1.0001 1.0001 0 0 0 5.6386719 39.132812 A 1.0001 1.0001 0 0 0 5.6738281 39.146484 L 31.263672 47.945312 A 1.0001 1.0001 0 0 0 31.845703 47.966797 L 44.257812 44.666016 A 1.0001 1.0001 0 0 0 45 43.699219 L 45 6.3007812 A 1.0001 1.0001 0 0 0 44.257812 5.3339844 L 31.845703 2.0332031 A 1.0001 1.0001 0 0 0 31.546875 2 z M 31.625 4.0449219 L 43 7.0683594 L 43 42.931641 L 31.625 45.955078 L 15.753906 40.496094 L 30.869141 42.492188 A 1.0001 1.0001 0 0 0 32 41.5 L 32 9.5996094 A 1.0001 1.0001 0 0 0 30.798828 8.6210938 L 14.798828 11.919922 A 1.0001 1.0001 0 0 0 14 12.900391 L 14 34.201172 L 7 36.769531 L 7 12.513672 L 31.625 4.0449219 z M 30 10.828125 L 30 40.359375 L 10.158203 37.740234 L 15.34375 35.839844 A 1.0001 1.0001 0 0 0 16 34.900391 L 16 13.714844 L 30 10.828125 z"/></svg>