<?xml version="1.0" encoding="utf-8"?>
<!-- Generator: Adobe Illustrator 16.0.0, SVG Export Plug-In . SVG Version: 6.00 Build 0)  -->
<!DOCTYPE svg PUBLIC "-//W3C//DTD SVG 1.1//EN" "http://www.w3.org/Graphics/SVG/1.1/DTD/svg11.dtd">
<svg enable-background="new 0 0 128 128" height="128px" id="Layer_1" version="1.1" viewBox="0 0 128 128"
     width="128px" x="0px" xml:space="preserve" xmlns="http://www.w3.org/2000/svg" y="0px">
<g>
	<g>
		<g>
			<g>
				<rect fill="#282D33" height="4" width="5.191" x="50.814" y="84.05"/>
			</g>
			<g>
				<rect fill="#282D33" height="4" width="5.194" x="60.396" y="84.05"/>
			</g>
			<g>
				<rect fill="#282D33" height="4" width="5.192" x="69.979" y="84.05"/>
			</g>
		</g>
	</g>
	<g>
		<g>
			<path d="M109.723,99.314h-4V64.79c0-4.396-0.812-8.679-2.413-12.731l3.721-1.47
				c1.786,4.522,2.692,9.3,2.692,14.201V99.314z" fill="#282D33"/>
		</g>
		<g>
			<path d="M45.777,127.161c-19.209-2.326-28.949-11.695-28.949-27.847V64.79c0-5.617,1.177-11.036,3.5-16.105
				l3.637,1.666c-2.081,4.543-3.136,9.401-3.136,14.439v34.524c0,13.993,8.318,21.803,25.431,23.876L45.777,127.161z" fill="#282D33"/>
		</g>
		<g>
			<path d="M56.59,128h-8.393c-2.907,0-5.272-2.352-5.272-5.241c0-2.889,2.365-5.239,5.272-5.239h8.393
				c2.906,0,5.271,2.351,5.271,5.239C61.861,125.648,59.496,128,56.59,128z M48.197,121.52c-0.701,0-1.272,0.556-1.272,1.239
				c0,0.685,0.571,1.241,1.272,1.241h8.393c0.701,0,1.271-0.557,1.271-1.241c0-0.684-0.57-1.239-1.271-1.239H48.197z" fill="#282D33"/>
		</g>
		<g>
			<g>
				<path d="M24.18,52.43c-1.196,0-2.405-0.313-3.5-0.97c-1.562-0.937-2.661-2.423-3.094-4.183
					c-0.43-1.751-0.149-3.563,0.792-5.104c6.346-10.4,16.366-17.542,28.214-20.11l0.848,3.909
					c-10.768,2.334-19.876,8.828-25.648,18.286c-0.381,0.625-0.496,1.357-0.322,2.064c0.176,0.717,0.626,1.324,1.268,1.708
					c1.326,0.795,3.054,0.375,3.854-0.935c4.531-7.424,11.598-12.82,19.897-15.194l1.1,3.846
					c-7.332,2.097-13.576,6.868-17.583,13.432C28.729,51.271,26.48,52.43,24.18,52.43z" fill="#282D33"/>
			</g>
		</g>
		<g>
			<g>
				<path d="M20.817,107.232c-7.69,0-13.947-6.208-13.947-13.838V78.742c0-7.63,6.256-13.838,13.947-13.838v4
					c-5.485,0-9.947,4.413-9.947,9.838v14.652c0,5.425,4.462,9.838,9.947,9.838V107.232z" fill="#282D33"/>
			</g>
			<g>
				<path d="M27.612,110.294h-4.484c-3.318,0-6.017-2.683-6.017-5.979v-36.25c0-3.297,2.699-5.979,6.017-5.979h4.484
					c3.317,0,6.015,2.683,6.015,5.979v36.25C33.627,107.611,30.929,110.294,27.612,110.294z M23.128,66.085
					c-1.112,0-2.017,0.888-2.017,1.979v36.25c0,1.092,0.905,1.979,2.017,1.979h4.484c1.111,0,2.015-0.888,2.015-1.979v-36.25
					c0-1.092-0.904-1.979-2.015-1.979H23.128z" fill="#282D33"/>
			</g>
		</g>
		<g>
			<g>
				<path d="M106.087,107.479v-4c5.484,0,9.946-4.413,9.946-9.838V78.984c0-5.425-4.462-9.838-9.946-9.838v-4
					c7.69,0,13.946,6.208,13.946,13.838v14.656C120.033,101.271,113.777,107.479,106.087,107.479z" fill="#282D33"/>
			</g>
			<g>
				<path d="M103.777,110.295h-4.485c-3.317,0-6.017-2.682-6.017-5.979V68.064c0-3.295,2.699-5.976,6.017-5.976
					h4.485c3.317,0,6.017,2.681,6.017,5.976v36.252C109.794,107.613,107.095,110.295,103.777,110.295z M99.292,66.089
					c-1.112,0-2.017,0.887-2.017,1.976v36.252c0,1.091,0.904,1.979,2.017,1.979h4.485c1.112,0,2.017-0.888,2.017-1.979V68.064
					c0-1.089-0.904-1.976-2.017-1.976H99.292z" fill="#282D33"/>
			</g>
		</g>
		<g>
			<g>
				<path d="M60.789,71.057V52.745H45.27V0h75.86v52.745H79.267L60.789,71.057z M49.27,48.745h15.519v12.716
					L77.62,48.745h39.51V4H49.27V48.745z" fill="#282D33"/>
			</g>
			<g>
				<g>
					<rect fill="#282D33" height="4" width="41.751" x="62.323" y="18.69"/>
				</g>
				<g>
					<rect fill="#282D33" height="4" width="41.751" x="62.323" y="30.169"/>
				</g>
			</g>
		</g>
	</g>
</g>
</svg>
