<svg height="128" viewBox="0 0 128 128" width="128" xmlns="http://www.w3.org/2000/svg">
  <g>
    <path d="M96.4,55.55H94.19V35.99C94.518,19.763,80.242,5.463,64,5.8A30.223,30.223,0,0,0,33.81,35.99V55.55H31.6a8.92,8.92,0,0,0-8.91,8.91v48.83a8.92,8.92,0,0,0,8.91,8.91H96.4a8.921,8.921,0,0,0,8.91-8.91V64.46A8.921,8.921,0,0,0,96.4,55.55ZM37.31,35.99A26.72,26.72,0,0,1,64,9.3C78.36,9,90.982,21.643,90.69,35.99V55.55h-4.5V35.99C86.431,24.071,75.933,13.552,64,13.8A22.215,22.215,0,0,0,41.81,35.99V55.55h-4.5Zm8,19.56V35.99A18.711,18.711,0,0,1,64,17.3c10.049-.209,18.894,8.653,18.69,18.69V55.55Zm56.5,57.74a5.416,5.416,0,0,1-5.41,5.41H31.6a5.416,5.416,0,0,1-5.41-5.41V64.46a5.416,5.416,0,0,1,5.41-5.41H96.4a5.416,5.416,0,0,1,5.41,5.41Z"/>
    <path d="M64,69.577c-12.218.158-16.013,16.325-5.25,21.957v11.393a5.25,5.25,0,1,0,10.5,0V91.534C80.013,85.906,76.216,69.731,64,69.577Zm2.88,19.184A1.749,1.749,0,0,0,65.75,90.4v12.53a1.75,1.75,0,1,1-3.5,0V90.4a1.749,1.749,0,0,0-1.13-1.636A8.106,8.106,0,0,1,64,73.077C72.98,73.195,75.2,85.472,66.88,88.761Z"/>
  </g>
</svg>
