<?xml version="1.0" encoding="utf-8"?>
<!-- Generator: Adobe Illustrator 16.0.0, SVG Export Plug-In . SVG Version: 6.00 Build 0)  -->
<!DOCTYPE svg PUBLIC "-//W3C//DTD SVG 1.1//EN" "http://www.w3.org/Graphics/SVG/1.1/DTD/svg11.dtd">
<svg enable-background="new 0 0 128 128" height="128px" id="Layer_1" version="1.1" viewBox="0 0 128 128"
     width="128px" x="0px" xml:space="preserve" xmlns="http://www.w3.org/2000/svg" y="0px">
<g>
	<g>
		<g>
			<path d="M123.227,18.561H4.771V0h118.455V18.561z M8.771,14.561h110.455V4H8.771V14.561z" fill="#282D33"/>
		</g>
		<g>
			<rect fill="#282D33" height="4" width="4.781" x="12.526" y="7.175"/>
		</g>
		<g>
			<rect fill="#282D33" height="4" width="4.784" x="20.804" y="7.175"/>
		</g>
		<g>
			<rect fill="#282D33" height="4" width="4.782" x="29.08" y="7.175"/>
		</g>
		<g>
			<polygon fill="#282D33" points="123.229,85.038 110.52,85.038 110.52,81.038 119.229,81.038 119.229,18.561 8.771,18.561
				8.771,81.038 17.48,81.038 17.48,85.038 4.771,85.038 4.771,14.561 123.229,14.561 			"/>
		</g>
	</g>
	<g>
		<g>
			<path d="M63.359,128c-23.012,0-41.732-18.546-41.732-41.343c0-20.495,15.43-38.094,35.892-40.937l0.551,3.962
				c-18.495,2.569-32.442,18.465-32.442,36.975c0,20.591,16.927,37.343,37.732,37.343c20.807,0,37.734-16.752,37.734-37.343
				c0-18.474-13.914-34.365-32.365-36.965l0.559-3.961c20.413,2.876,35.807,20.471,35.807,40.926
				C105.094,109.454,86.372,128,63.359,128z" fill="#282D33"/>
		</g>
		<g>
			<path d="M83.641,87.791c-0.071-11.687-9.742-21.195-21.559-21.195l-0.325,0.008v-4l0.325-0.008
				c14.009,0,25.474,11.292,25.559,25.172L83.641,87.791z" fill="#282D33"/>
		</g>
		<g>
			<g>
				<path d="M69.627,41.151H57.086c-0.998,0-1.936-0.388-2.638-1.093c-0.698-0.7-1.08-1.629-1.077-2.616
					l-0.003-6.796c0.006-2.05,1.674-3.713,3.718-3.713l12.542,0.005c1.002,0,1.942,0.39,2.647,1.098
					c0.698,0.701,1.08,1.63,1.076,2.618l0.004,6.794C73.343,39.496,71.67,41.151,69.627,41.151z M57.371,37.151h11.984l-0.004-6.213
					l-11.983-0.005L57.371,37.151z" fill="#282D33"/>
			</g>
		</g>
		<g>
			<g>
				<g>
					<g>
						<g>
							<path d="M33.443,56.995l-2.85-4.158c-0.463-0.669-0.637-1.488-0.483-2.296
								c0.153-0.81,0.616-1.509,1.302-1.969l6.457-4.341c1.396-0.941,3.307-0.575,4.257,0.816l2.847,4.148l-3.298,2.264
								l-2.332-3.398l-4.911,3.302l2.312,3.373L33.443,56.995z" fill="#282D33"/>
						</g>
					</g>
				</g>
			</g>
			<g>
				<g>
					<g>
						<g>
							<path d="M93.276,56.996l-3.299-2.263l2.312-3.369l-4.91-3.303l-2.336,3.398l-3.297-2.266l2.854-4.151
								c0.944-1.383,2.852-1.75,4.251-0.812l6.459,4.344c0.684,0.46,1.146,1.159,1.3,1.967c0.154,0.806-0.018,1.623-0.482,2.299
								L93.276,56.996z" fill="#282D33"/>
						</g>
					</g>
				</g>
			</g>
		</g>
		<g>
			<g>
				<rect fill="#282D33" height="5.565" width="4" x="61.041" y="53.576"/>
			</g>
			<g>

					<rect fill="#282D33" height="4" transform="matrix(0.5035 0.864 -0.864 0.5035 76.0625 -11.2092)" width="5.576" x="44.996" y="58.576"/>
			</g>
			<g>

					<rect fill="#282D33" height="4" transform="matrix(0.8675 0.4974 -0.4974 0.8675 40.5627 -8.7449)" width="5.606" x="33.897" y="69.783"/>
			</g>
			<g>
				<rect fill="#282D33" height="4" width="5.619" x="29.949" y="84.977"/>
			</g>
			<g>

					<rect fill="#282D33" height="5.608" transform="matrix(0.4963 0.8681 -0.8681 0.4963 107.268 19.2828)" width="4" x="35.016" y="99.281"/>
			</g>
			<g>

					<rect fill="#282D33" height="5.579" transform="matrix(0.8632 0.5048 -0.5048 0.8632 63.6883 -8.937)" width="4" x="46.336" y="110.269"/>
			</g>
			<g>
				<rect fill="#282D33" height="5.564" width="4" x="61.679" y="114.177"/>
			</g>
			<g>

					<rect fill="#282D33" height="4.001" transform="matrix(0.5034 0.8641 -0.8641 0.5034 136.619 -12.2174)" width="5.578" x="76.149" y="110.742"/>
			</g>
			<g>

					<rect fill="#282D33" height="4" transform="matrix(0.8676 0.4972 -0.4972 0.8676 62.4035 -31.3198)" width="5.605" x="87.219" y="99.536"/>
			</g>
			<g>
				<rect fill="#282D33" height="4" transform="matrix(1 0.001 -0.001 1 0.0901 -0.0979)" width="5.621" x="91.15" y="84.345"/>
			</g>
			<g>

					<rect fill="#282D33" height="5.607" transform="matrix(0.4961 0.8682 -0.8682 0.4961 107.0479 -41.9901)" width="4" x="87.702" y="68.433"/>
			</g>
			<g>

					<rect fill="#282D33" height="5.576" transform="matrix(0.8634 0.5045 -0.5045 0.8634 41.1058 -31.3143)" width="3.999" x="76.387" y="57.472"/>
			</g>
		</g>
		<g>

				<rect fill="#282D33" height="16.773" transform="matrix(0.7103 0.7039 -0.7039 0.7103 75.7559 -27.4212)" width="4.001" x="69.189" y="69.932"/>
		</g>
		<g>
			<g>
				<path d="M63.361,91.91L63.361,91.91L63.361,91.91L63.361,91.91c-2.93,0-5.313-2.369-5.313-5.282
					c-0.003-1.396,0.542-2.717,1.536-3.714c1.005-1.009,2.345-1.564,3.771-1.566c2.935,0.006,5.317,2.376,5.317,5.283
					c0,1.412-0.556,2.74-1.564,3.739C66.105,91.363,64.775,91.91,63.361,91.91z M63.354,85.348c-0.352,0-0.687,0.139-0.937,0.39
					c-0.239,0.24-0.37,0.555-0.369,0.887c0,0.711,0.588,1.286,1.312,1.286h0.002l0,0c0.353,0,0.684-0.136,0.933-0.383
					c0.244-0.241,0.379-0.56,0.379-0.896C64.673,85.925,64.081,85.35,63.354,85.348z" fill="#282D33"/>
			</g>
		</g>
		<g>
			<rect fill="#282D33" height="11.006" width="4" x="61.359" y="38.931"/>
		</g>
	</g>
</g>
</svg>
