<svg height="128" viewBox="0 0 128 128" width="128" xmlns="http://www.w3.org/2000/svg">
  <g>
    <path d="M115.451,43.488H12.549a6.758,6.758,0,0,0-6.75,6.75V77.762a6.758,6.758,0,0,0,6.75,6.75h102.9a6.758,6.758,0,0,0,6.75-6.75V50.238A6.758,6.758,0,0,0,115.451,43.488Zm3.25,34.274a3.254,3.254,0,0,1-3.25,3.25H12.549a3.254,3.254,0,0,1-3.25-3.25V50.238a3.254,3.254,0,0,1,3.25-3.25h102.9a3.254,3.254,0,0,1,3.25,3.25Z"/>
    <path d="M33.474,62.25H28.638l3.42-3.42a1.75,1.75,0,0,0-2.475-2.475l-3.42,3.42V54.843a1.75,1.75,0,0,0-3.5,0v4.933l-3.42-3.421a1.75,1.75,0,0,0-2.475,2.475l3.42,3.42H15.352a1.75,1.75,0,0,0,0,3.5h4.836l-3.42,3.42a1.75,1.75,0,1,0,2.475,2.475l3.42-3.421v3.37a1.75,1.75,0,0,0,3.5,0V68.225l3.42,3.42a1.75,1.75,0,1,0,2.475-2.475l-3.42-3.42h4.836A1.75,1.75,0,0,0,33.474,62.25Z"/>
    <path d="M59.866,62.25H55.029l3.42-3.42a1.75,1.75,0,0,0-2.474-2.475l-3.421,3.421V54.843a1.75,1.75,0,0,0-3.5,0v4.932l-3.42-3.42A1.75,1.75,0,0,0,43.16,58.83l3.42,3.42H41.743a1.75,1.75,0,1,0,0,3.5H46.58l-3.42,3.42a1.75,1.75,0,0,0,2.474,2.475l3.42-3.42v3.369a1.75,1.75,0,0,0,3.5,0v-3.37l3.421,3.421a1.75,1.75,0,1,0,2.474-2.475l-3.42-3.42h4.837A1.75,1.75,0,0,0,59.866,62.25Z"/>
    <path d="M86.257,62.25H81.421l3.42-3.42a1.75,1.75,0,0,0-2.475-2.474l-3.421,3.42V54.843a1.75,1.75,0,0,0-3.5,0v4.932l-3.42-3.42a1.75,1.75,0,0,0-2.474,2.475l3.42,3.42H68.135a1.75,1.75,0,1,0,0,3.5h4.836l-3.42,3.42a1.75,1.75,0,0,0,2.474,2.475l3.42-3.42v3.369a1.75,1.75,0,0,0,3.5,0v-3.37l3.421,3.421a1.75,1.75,0,0,0,2.475-2.475l-3.42-3.42h4.836A1.75,1.75,0,0,0,86.257,62.25Z"/>
    <path d="M112.648,62.25h-4.837l3.42-3.42a1.75,1.75,0,0,0-2.474-2.475l-3.42,3.42V54.843a1.75,1.75,0,0,0-3.5,0v4.932l-3.42-3.42a1.75,1.75,0,1,0-2.475,2.475l3.42,3.42H94.525a1.75,1.75,0,0,0,0,3.5h4.837l-3.42,3.42a1.75,1.75,0,1,0,2.475,2.475l3.42-3.42v3.369a1.75,1.75,0,0,0,3.5,0V68.225l3.42,3.42a1.75,1.75,0,1,0,2.474-2.475l-3.42-3.42h4.837A1.75,1.75,0,0,0,112.648,62.25Z"/>
  </g>
</svg>
