<svg height="128" viewBox="0 0 128 128" width="128" xmlns="http://www.w3.org/2000/svg">
  <g>
    <path d="M121.127,29.4a4.715,4.715,0,0,0-1.39-3.356L101.243,7.549a4.731,4.731,0,0,0-6.721-.006L79.54,22.525l-2.073-2.072a6.736,6.736,0,0,0-9.544,0l-50.41,50.4c-10.67,10.238-10.675,28.667,0,38.9,10.241,10.669,28.674,10.674,38.914,0l50.4-50.4a6.753,6.753,0,0,0,0-9.544l-2.072-2.073,14.982-14.983A4.716,4.716,0,0,0,121.127,29.4ZM104.352,56.883l-50.4,50.4a23.863,23.863,0,0,1-16.983,7.033c-12.907.265-24.283-11.1-24.015-24.01a23.858,23.858,0,0,1,7.032-16.978L70.4,22.925a3.252,3.252,0,0,1,4.592,0l14.68,14.679,11.372,11.372,3.307,3.308A3.254,3.254,0,0,1,104.352,56.883Zm12.911-26.6L102.28,45.265,92.147,35.133,82.015,25,97,10.013a1.236,1.236,0,0,1,1.761.005l18.5,18.5A1.249,1.249,0,0,1,117.263,30.282Z"/>
    <path d="M25.912,82.091a1.749,1.749,0,0,0-2.475,0,15.276,15.276,0,0,0-4.5,10.873,15.452,15.452,0,0,0,15.378,15.379,15.282,15.282,0,0,0,10.874-4.505,1.751,1.751,0,0,0,0-2.475Zm8.4,22.752a11.8,11.8,0,0,1-8.4-3.48,11.934,11.934,0,0,1-1.147-15.47l16.617,16.618A11.787,11.787,0,0,1,34.311,104.843Z"/>
    <path d="M105.647,26.253,99.6,32.3a1.75,1.75,0,1,0,2.475,2.474l6.047-6.047A1.75,1.75,0,0,0,105.647,26.253Z"/>
    <path d="M101.022,19.153a1.751,1.751,0,0,0-2.475,0L92.5,25.2a1.75,1.75,0,0,0,2.475,2.475l6.047-6.047A1.749,1.749,0,0,0,101.022,19.153Z"/>
  </g>
</svg>
