<svg height="128" viewBox="0 0 128 128" width="128" xmlns="http://www.w3.org/2000/svg">
  <g>
    <path d="M55.157,19.291c-1.074-7.021-11.306-5.79-10.675,1.3C45.574,27.634,55.792,26.349,55.157,19.291ZM50.04,21.8a1.877,1.877,0,0,1-.45-3.726A1.877,1.877,0,0,1,50.04,21.8Z"/>
    <path d="M105.48,59.73h-4.894a39.562,39.562,0,0,0-3.25-22.038,4.752,4.752,0,0,0-8.6-.035L80.927,51.846A1.762,1.762,0,0,0,82.46,54.44h9.13a24.369,24.369,0,0,1-.579,5.29H60.471L56.881,30.1a12.375,12.375,0,0,0-8.55-22.449C35.565,9.313,33.428,26.8,45.386,31.5l3.42,28.228H22.52a7.159,7.159,0,0,0-7.15,7.15v46.41a7.159,7.159,0,0,0,7.15,7.15h82.96a7.159,7.159,0,0,0,7.15-7.15V66.88A7.159,7.159,0,0,0,105.48,59.73ZM85.42,50.94l6.413-11.656a1.317,1.317,0,0,1,.7-.776,1.221,1.221,0,0,1,1.608.615A35.391,35.391,0,0,1,96.773,61.1c-2.5,11.054-10.972,18.3-22.766,17.658a1.22,1.22,0,0,1,.131-2.436c9.8.575,17.212-5,19.925-14.356a28.1,28.1,0,0,0,.974-9.373A1.75,1.75,0,0,0,93.29,50.94ZM48.727,29.98A1.746,1.746,0,0,0,47.459,28.5c-9.308-2.66-8.3-16.134,1.293-17.377,9.613-1.077,13.807,11.752,5.4,16.557a1.746,1.746,0,0,0-.881,1.736l3.672,30.31H52.331Zm60.4,83.31a3.654,3.654,0,0,1-3.65,3.65H22.52a3.654,3.654,0,0,1-3.65-3.65V66.88a3.654,3.654,0,0,1,3.65-3.65c18.591,0,48.736,0,67.37,0-2.837,6.685-8.5,10.011-15.554,9.592a4.72,4.72,0,0,0-.531,9.426c9.519.51,17.265-3.412,22.1-10.424a30.433,30.433,0,0,0,3.947-8.594h5.633a3.654,3.654,0,0,1,3.65,3.65Z"/>
    <path d="M55.933,69.86H29.043a1.751,1.751,0,0,0-1.75,1.75v36.95a1.75,1.75,0,0,0,1.76,1.75h26.87a1.75,1.75,0,0,0,1.76-1.75V71.61A1.751,1.751,0,0,0,55.933,69.86Zm-1.75,3.5V97.939a15.246,15.246,0,0,0-5.695-3.873c5.835-5.3,1.968-15.325-6-15.277-7.967-.048-11.836,9.979-6,15.276a15.234,15.234,0,0,0-5.693,3.871V73.36ZM42.488,92.939c-7.038-.223-7.036-10.427,0-10.65C49.525,82.513,49.523,92.716,42.488,92.939Zm11.7,13.871H30.793c-.048-5.713,5.214-10.369,11.69-10.37S54.231,101.1,54.183,106.81Z"/>
    <path d="M98.957,88.314H70.593a1.75,1.75,0,0,0,0,3.5H98.957A1.75,1.75,0,0,0,98.957,88.314Z"/>
    <path d="M98.957,97.562H70.593a1.75,1.75,0,0,0,0,3.5H98.957A1.75,1.75,0,0,0,98.957,97.562Z"/>
    <path d="M89.5,106.81H70.593a1.75,1.75,0,0,0,0,3.5H89.5A1.75,1.75,0,0,0,89.5,106.81Z"/>
  </g>
</svg>
