<?xml version="1.0" encoding="utf-8"?>
<!-- Generator: Adobe Illustrator 16.0.0, SVG Export Plug-In . SVG Version: 6.00 Build 0)  -->
<!DOCTYPE svg PUBLIC "-//W3C//DTD SVG 1.1//EN" "http://www.w3.org/Graphics/SVG/1.1/DTD/svg11.dtd">
<svg enable-background="new 0 0 128 128" height="128px" id="Layer_1" version="1.1" viewBox="0 0 128 128"
     width="128px" x="0px" xml:space="preserve" xmlns="http://www.w3.org/2000/svg" y="0px">
<g>
	<g>
		<path d="M63.998,127.432c-0.303,0-0.604-0.002-0.905-0.006l0.054-4c1.271,0.016,2.57-0.005,3.851-0.067
			l0.193,3.996C66.131,127.405,65.058,127.432,63.998,127.432z M58.997,127.24c-1.361-0.104-2.733-0.253-4.079-0.443l0.561-3.961
			c1.26,0.179,2.546,0.318,3.823,0.416L58.997,127.24z M71.277,127.025l-0.445-3.975c1.262-0.142,2.543-0.327,3.808-0.551
			l0.697,3.939C73.989,126.678,72.623,126.875,71.277,127.025z M50.877,126.098c-1.341-0.277-2.683-0.601-3.989-0.959l1.06-3.857
			c1.225,0.337,2.482,0.639,3.739,0.898L50.877,126.098z M79.353,125.595l-0.951-3.885c1.246-0.306,2.494-0.652,3.708-1.032
			l1.195,3.816C82.011,124.899,80.682,125.271,79.353,125.595z M42.969,123.928c-1.292-0.445-2.585-0.938-3.841-1.463l1.544-3.689
			c1.177,0.492,2.388,0.953,3.6,1.371L42.969,123.928z M87.179,123.142l-1.438-3.732c1.183-0.455,2.372-0.958,3.537-1.494
			l1.674,3.633C89.709,122.12,88.439,122.656,87.179,123.142z M35.392,120.759c-1.213-0.602-2.43-1.255-3.618-1.941l2-3.463
			c1.116,0.644,2.259,1.257,3.396,1.82L35.392,120.759z M94.619,119.715l-1.904-3.518c1.122-0.607,2.239-1.259,3.319-1.936
			l2.125,3.389C97.006,118.373,95.815,119.067,94.619,119.715z M28.286,116.646c-1.132-0.755-2.255-1.558-3.339-2.386l2.428-3.181
			c1.017,0.777,2.071,1.531,3.132,2.24L28.286,116.646z M101.561,115.363l-2.336-3.246c1.036-0.747,2.062-1.535,3.047-2.346
			l2.539,3.093C103.759,113.728,102.666,114.568,101.561,115.363z M21.767,111.663c-1.027-0.895-2.039-1.834-3.007-2.791
			l2.813-2.844c0.908,0.898,1.856,1.779,2.821,2.619L21.767,111.663z M107.896,110.159l-2.73-2.922
			c0.935-0.874,1.852-1.787,2.725-2.715l2.912,2.742C109.871,108.254,108.894,109.228,107.896,110.159z M15.938,105.891
			c-0.908-1.022-1.791-2.084-2.624-3.154l3.156-2.457c0.78,1.002,1.607,1.996,2.459,2.955L15.938,105.891z M113.519,104.188
			l-3.083-2.551c0.814-0.983,1.607-2.006,2.355-3.04l3.24,2.346C115.232,102.047,114.388,103.139,113.519,104.188z M10.898,99.422
			c-0.764-1.123-1.503-2.288-2.196-3.464l3.445-2.031c0.649,1.101,1.342,2.192,2.059,3.245L10.898,99.422z M118.331,97.541
			l-3.385-2.133c0.68-1.078,1.333-2.194,1.943-3.318l3.516,1.906C119.755,95.197,119.057,96.39,118.331,97.541z M6.733,92.36
			c-0.611-1.211-1.192-2.461-1.729-3.717l3.68-1.568c0.502,1.177,1.047,2.348,1.619,3.48L6.733,92.36z M122.246,90.322l-3.633-1.674
			c0.533-1.157,1.036-2.35,1.495-3.546l3.734,1.434C123.354,87.813,122.815,89.087,122.246,90.322z M3.523,84.819
			c-0.451-1.288-0.865-2.605-1.229-3.917l3.854-1.073c0.341,1.229,0.729,2.462,1.151,3.668L3.523,84.819z M125.188,82.651
			l-3.82-1.187c0.376-1.21,0.718-2.458,1.017-3.706l3.891,0.932C125.955,80.023,125.59,81.357,125.188,82.651z M1.324,76.913
			c-0.278-1.332-0.516-2.692-0.707-4.044l3.961-0.559c0.179,1.265,0.401,2.538,0.661,3.784L1.324,76.913z M127.099,74.67
			l-3.943-0.676c0.215-1.251,0.391-2.532,0.524-3.808l3.979,0.416C127.516,71.965,127.327,73.333,127.099,74.67z M0.177,68.789
			c-0.103-1.354-0.162-2.733-0.177-4.1l4-0.043c0.014,1.281,0.069,2.573,0.165,3.842L0.177,68.789z M127.95,66.512l-3.996-0.16
			C123.985,65.571,124,64.788,124,64c0-0.499-0.007-0.997-0.019-1.494l3.998-0.099C127.993,62.937,128,63.468,128,64
			C128,64.841,127.983,65.679,127.95,66.512z M4.081,60.802l-3.994-0.214c0.072-1.359,0.19-2.735,0.352-4.088l3.972,0.472
			C4.26,58.239,4.149,59.528,4.081,60.802z M123.762,58.667c-0.113-1.27-0.271-2.553-0.469-3.815l3.953-0.616
			c0.21,1.347,0.378,2.718,0.5,4.074L123.762,58.667z M4.989,53.171l-3.933-0.73c0.248-1.339,0.545-2.688,0.881-4.01l3.877,0.986
			C5.5,50.656,5.222,51.918,4.989,53.171z M122.578,51.078c-0.28-1.248-0.604-2.5-0.963-3.722l3.838-1.128
			c0.383,1.305,0.729,2.642,1.027,3.975L122.578,51.078z M6.884,45.728l-3.803-1.24c0.423-1.297,0.895-2.598,1.401-3.864
			l3.714,1.485C7.722,43.295,7.28,44.513,6.884,45.728z M120.411,43.707c-0.439-1.198-0.924-2.396-1.438-3.559l3.658-1.62
			c0.55,1.242,1.066,2.521,1.536,3.8L120.411,43.707z M9.744,38.584l-3.609-1.726c0.588-1.23,1.226-2.458,1.894-3.646l3.487,1.958
			C10.891,36.283,10.294,37.432,9.744,38.584z M117.307,36.69c-0.591-1.128-1.227-2.253-1.892-3.345l3.416-2.08
			c0.71,1.164,1.389,2.365,2.019,3.569L117.307,36.69z M13.507,31.877l-3.354-2.18c0.741-1.141,1.531-2.274,2.348-3.368l3.206,2.392
			C14.942,29.746,14.202,30.808,13.507,31.877z M113.309,30.129c-0.728-1.038-1.505-2.072-2.309-3.074l3.122-2.502
			c0.856,1.068,1.686,2.172,2.462,3.28L113.309,30.129z M18.104,25.713l-3.046-2.593c0.885-1.039,1.813-2.062,2.76-3.038
			l2.872,2.784C19.803,23.78,18.934,24.738,18.104,25.713z M108.498,24.134c-0.862-0.944-1.765-1.872-2.684-2.755l2.773-2.882
			c0.98,0.943,1.944,1.933,2.863,2.939L108.498,24.134z M23.454,20.189l-2.689-2.961c1.008-0.915,2.058-1.81,3.122-2.659
			l2.496,3.126C25.384,18.492,24.398,19.331,23.454,20.189z M102.956,18.799c-0.974-0.824-1.987-1.629-3.015-2.392l2.385-3.212
			c1.095,0.813,2.177,1.672,3.216,2.551L102.956,18.799z M29.462,15.394l-2.29-3.279c1.118-0.781,2.273-1.534,3.434-2.238
			l2.076,3.419C31.594,13.956,30.511,14.662,29.462,15.394z M96.779,14.214c-1.075-0.695-2.185-1.364-3.298-1.988l1.955-3.489
			c1.187,0.664,2.37,1.378,3.517,2.119L96.779,14.214z M36.028,11.407l-1.854-3.545c1.206-0.631,2.448-1.229,3.69-1.781l1.622,3.657
			C38.323,10.253,37.159,10.815,36.028,11.407z M90.063,10.454c-1.15-0.551-2.336-1.072-3.525-1.55l1.492-3.712
			c1.268,0.51,2.533,1.066,3.76,1.654L90.063,10.454z M43.045,8.293L41.661,4.54c1.275-0.471,2.585-0.906,3.892-1.296l1.143,3.833
			C45.469,7.442,44.242,7.852,43.045,8.293z M82.919,7.582c-1.213-0.398-2.455-0.763-3.691-1.083l1.003-3.872
			c1.319,0.341,2.644,0.729,3.938,1.155L82.919,7.582z M50.414,6.099L49.52,2.199c1.325-0.304,2.679-0.568,4.025-0.788l0.644,3.948
			C52.926,5.564,51.656,5.813,50.414,6.099z M75.475,5.654c-1.257-0.241-2.535-0.444-3.8-0.604l0.502-3.969
			c1.348,0.17,2.711,0.387,4.05,0.644L75.475,5.654z M58.004,4.861l-0.391-3.98c1.355-0.133,2.731-0.225,4.091-0.271l0.139,3.998
			C60.567,4.651,59.275,4.737,58.004,4.861z M67.846,4.688c-1.277-0.079-2.571-0.12-3.848-0.12v-4c1.358,0,2.737,0.043,4.098,0.128
			L67.846,4.688z" fill="#282D33"/>
	</g>
  <g>
		<g>
			<rect fill="#282D33" height="21.099" width="4" x="61.998" y="28.924"/>
		</g>
    <g>
			<path d="M63.998,93.504c-16.444,0-29.821-13.261-29.821-29.562c0-12.551,8.048-23.76,20.026-27.894l1.305,3.781
				c-10.365,3.578-17.331,13.267-17.331,24.112c0,14.095,11.583,25.562,25.821,25.562c14.236,0,25.819-11.467,25.819-25.562
				c0-10.845-6.963-20.535-17.327-24.112l1.305-3.781c11.977,4.134,20.022,15.343,20.022,27.894
				C93.817,80.243,80.441,93.504,63.998,93.504z" fill="#282D33"/>
		</g>
	</g>
</g>
</svg>
