<?xml version="1.0" encoding="utf-8"?>
<!-- Generator: Adobe Illustrator 16.0.0, SVG Export Plug-In . SVG Version: 6.00 Build 0)  -->
<!DOCTYPE svg PUBLIC "-//W3C//DTD SVG 1.1//EN" "http://www.w3.org/Graphics/SVG/1.1/DTD/svg11.dtd">
<svg enable-background="new 0 0 128 128" height="128px" id="Layer_1" version="1.1" viewBox="0 0 128 128"
     width="128px" x="0px" xml:space="preserve" xmlns="http://www.w3.org/2000/svg" y="0px">
<g>
	<g>
		<path d="M128,123.459H0v-104.3h128V123.459z M4,119.459h120v-96.3H4V119.459z" fill="#282D33"/>
	</g>
	<g>
		<path d="M128,23.159H0V4.541h128V23.159z M4,19.159h120V8.541H4V19.159z" fill="#282D33"/>
	</g>
	<g>
		<rect fill="#282D33" height="4" width="4.706" x="7.665" y="11.744"/>
	</g>
	<g>
		<rect fill="#282D33" height="4" width="4.708" x="15.813" y="11.744"/>
	</g>
	<g>
		<rect fill="#282D33" height="4" width="4.708" x="23.959" y="11.744"/>
	</g>
	<g>
		<g>
			<g>
				<rect fill="#282D33" height="4" width="11.533" x="24.941" y="29.664"/>
			</g>
			<g>
				<rect fill="#282D33" height="4" width="23.596" x="51.504" y="29.664"/>
			</g>
			<g>
				<rect fill="#282D33" height="4" width="5.417" x="39.796" y="29.664"/>
			</g>
			<g>
				<rect fill="#282D33" height="4" width="13.281" x="28.786" y="52.136"/>
			</g>
			<g>
				<rect fill="#282D33" height="4" width="18.003" x="57.096" y="52.136"/>
			</g>
			<g>
				<rect fill="#282D33" height="4" width="8.075" x="45.25" y="52.136"/>
			</g>
			<g>
				<rect fill="#282D33" height="4" width="35.107" x="75.797" y="74.607"/>
			</g>
			<g>
				<rect fill="#282D33" height="4" width="26.178" x="45.25" y="74.607"/>
			</g>
			<g>
				<rect fill="#282D33" height="4" width="20.582" x="93.49" y="52.136"/>
			</g>
			<g>
				<rect fill="#282D33" height="4" width="9.611" x="80.166" y="52.136"/>
			</g>
			<g>
				<rect fill="#282D33" height="4" width="6.992" x="35.075" y="63.371"/>
			</g>
			<g>
				<rect fill="#282D33" height="4" width="26.693" x="45.25" y="63.371"/>
			</g>
			<g>
				<rect fill="#282D33" height="4" width="23.595" x="91.7" y="29.664"/>
			</g>
			<g>
				<rect fill="#282D33" height="4" width="5.418" x="79.992" y="29.664"/>
			</g>
			<g>
				<rect fill="#282D33" height="4" width="46.487" x="24.941" y="40.901"/>
			</g>
			<g>
				<rect fill="#282D33" height="4" width="63.963" x="24.941" y="86.029"/>
			</g>
			<g>
				<rect fill="#282D33" height="4" width="74.083" x="24.941" y="97.266"/>
			</g>
			<g>
				<rect fill="#282D33" height="4" width="32.155" x="24.941" y="108.501"/>
			</g>
			<g>
				<rect fill="#282D33" height="4" width="4.784" x="11.369" y="29.664"/>
			</g>
			<g>
				<rect fill="#282D33" height="4" width="4.784" x="11.369" y="40.901"/>
			</g>
			<g>
				<rect fill="#282D33" height="4" width="4.784" x="11.369" y="52.136"/>
			</g>
			<g>
				<rect fill="#282D33" height="4" width="4.784" x="11.369" y="63.371"/>
			</g>
			<g>
				<rect fill="#282D33" height="4" width="4.784" x="11.369" y="74.607"/>
			</g>
			<g>
				<rect fill="#282D33" height="4" width="4.784" x="11.369" y="85.842"/>
			</g>
			<g>
				<rect fill="#282D33" height="4" width="4.784" x="11.369" y="97.079"/>
			</g>
			<g>
				<rect fill="#282D33" height="4" width="4.784" x="11.369" y="108.316"/>
			</g>
		</g>
	</g>
</g>
</svg>
