<?xml version="1.0" encoding="utf-8"?>
<!-- Generator: Adobe Illustrator 16.0.0, SVG Export Plug-In . SVG Version: 6.00 Build 0)  -->
<!DOCTYPE svg PUBLIC "-//W3C//DTD SVG 1.1//EN" "http://www.w3.org/Graphics/SVG/1.1/DTD/svg11.dtd">
<svg version="1.1" id="Layer_1" xmlns="http://www.w3.org/2000/svg" x="0px" y="0px"
     width="128px" height="128px" viewBox="0 0 128 128" enable-background="new 0 0 128 128" xml:space="preserve">
<g>
	<g>
		<polygon fill="#282D33" points="47.864,123.755 29.852,123.755 17.338,82.022 21.169,80.874 32.828,119.755 43.864,119.755
			43.864,80.575 47.864,80.575 		"/>
	</g>
	<g>
		<polygon fill="#282D33" points="11.398,74.912 0,74.912 0,40.528 11.398,40.528 11.398,44.528 4,44.528 4,70.912 11.398,70.912
			"/>
	</g>
	<g>
		<polygon fill="#282D33" points="128,111.189 117.428,111.189 117.428,107.189 124,107.189 124,8.245 117.428,8.245 117.428,4.245
			128,4.245 		"/>
	</g>
	<g>
		<polygon fill="#282D33" points="115.768,104.418 54,79.247 55.51,75.542 111.768,98.469 111.768,16.969 55.51,39.894 54,36.19
			115.768,11.02 		"/>
	</g>
	<g>
		<path fill="#282D33" d="M58.532,82.832H10.164V32.605h48.368V82.832z M14.164,78.832h40.368V36.605H14.164V78.832z"/>
	</g>
	<g>
		<rect x="19.554" y="43.539" fill="#282D33" width="27.71" height="4"/>
	</g>
	<g>
		<polygon fill="#282D33" points="58.532,100.995 46.98,100.995 46.98,96.995 54.532,96.995 54.532,80.665 58.532,80.665 		"/>
	</g>
	<g>
		<rect x="22.025" y="92.783" fill="#282D33" width="14.558" height="4"/>
	</g>
	<g>
		<rect x="27.572" y="105.417" fill="#282D33" width="9.011" height="4"/>
	</g>
</g>
</svg>
