<svg height="128" viewBox="0 0 128 128" width="128" xmlns="http://www.w3.org/2000/svg">
  <g>
    <path d="M112.182,26.681a1.751,1.751,0,0,0-1.191-1.636L64.56,9.364a1.746,1.746,0,0,0-1.12,0L17.009,25.045a1.75,1.75,0,0,0-1.19,1.635c-.662,50.4,15.376,70.443,47.2,91.752a1.751,1.751,0,0,0,1.947,0C96.787,97.127,112.826,77.088,112.182,26.681ZM63.994,114.868c-29.873-20.192-45.048-39.526-44.688-86.9L64,12.869l44.694,15.1C109.038,75.347,93.861,94.68,63.994,114.868Z"/>
    <path d="M28.047,32.927a1.751,1.751,0,0,0-1.19,1.7c.932,38.078,13.412,54.119,36.117,70.4a1.748,1.748,0,0,0,2.04,0c22.7-16.279,35.182-32.32,36.126-70.4a1.749,1.749,0,0,0-1.19-1.7L64.56,20.975a1.746,1.746,0,0,0-1.12,0Zm69.557,2.9c-1.136,35.124-12.728,50.43-33.61,65.619-20.888-15.191-32.476-30.493-33.6-65.618L64,24.479Z"/>
    <path d="M46.72,79.64H82.05a3.98,3.98,0,0,0,3.969-3.98V52.5a4.755,4.755,0,0,0-4.75-4.75H79.84v-.6A15.858,15.858,0,0,0,64,31.31c-10.939.026-16.364,10.043-15.84,16.44H46.72a4.756,4.756,0,0,0-4.75,4.75V74.89A4.756,4.756,0,0,0,46.72,79.64Zm4.94-32.49a12.34,12.34,0,0,1,24.68,0v.6H72.575V46.176c-.451-11.371-16.7-11.365-17.153,0V47.75H51.66Zm7.262.281c-.764-8.419,10.92-8.414,10.153,0ZM45.47,52.5a1.251,1.251,0,0,1,1.25-1.25c.746.02,29.711-.014,31.37,0h3.179a1.25,1.25,0,0,1,1.25,1.25V75.66a.475.475,0,0,1-.469.48H46.72a1.252,1.252,0,0,1-1.25-1.25Z"/>
    <path d="M59.662,70a4.081,4.081,0,0,0,4.724,3.956A3.957,3.957,0,0,0,68.336,70V62.567a5.6,5.6,0,1,0-8.674,0ZM64,56.933a2.1,2.1,0,0,1,2.094,2.1c.122,1.193-1.309,1.69-1.26,2.845V70c0,.619-.841.43-1.224.456a.453.453,0,0,1-.45-.456V61.877c.048-1.154-1.383-1.653-1.26-2.845A2.1,2.1,0,0,1,64,56.933Z"/>
  </g>
</svg>
