<svg height="128" viewBox="0 0 128 128" width="128" xmlns="http://www.w3.org/2000/svg">
  <path d="M64,8.34A55.723,55.723,0,0,0,8.34,64c3.057,73.841,108.274,73.819,111.32,0A55.665,55.665,0,0,0,64,8.34ZM93.43,91.06a2.91,2.91,0,0,1-5.82,0A2.91,2.91,0,0,1,93.43,91.06Zm-.19-5.816a6.439,6.439,0,0,0-8.582,8.413c-23.927,16.957-57.552-1.19-56.811-30.323A6.322,6.322,0,0,0,31.66,57.55a6.4,6.4,0,0,0-2.071-4.674,36.368,36.368,0,0,1,32.66-24.989V40.415A23.683,23.683,0,0,0,40.343,64c1.3,31.387,46.019,31.374,47.314,0A23.665,23.665,0,0,0,76,43.626L81.536,32.41C100.276,42.294,106.07,68.369,93.24,85.244ZM28.16,57.55a2.8,2.8,0,0,1-5.59,0A2.8,2.8,0,0,1,28.16,57.55Zm44,6.45c-.41,10.806-15.9,10.8-16.314,0a8.168,8.168,0,0,1,6.406-7.963V64a1.75,1.75,0,0,0,3.32.774l3.521-7.137A8.14,8.14,0,0,1,72.157,64Zm-6.408-7.5c.024-.452-.1-.509.2-.409Zm-3.5-4.009C48.16,55.027,49.594,75.216,64,75.657a11.648,11.648,0,0,0,6.663-21.208l3.778-7.658C91.654,57.336,84.446,83.953,64,84.157a20.15,20.15,0,0,1-1.75-40.225Zm5.279.4a11.513,11.513,0,0,0-1.779-.4V43.932a19.941,19.941,0,0,1,5.557,1.3ZM65.749,40.415V27.889a35.525,35.525,0,0,1,12.656,2.957L72.866,42.074A23.482,23.482,0,0,0,65.749,40.415Zm14.2-12.708a39.03,39.03,0,0,0-14.2-3.318v-12.5A51.312,51.312,0,0,1,85.481,16.5ZM64,116.16C-4.14,113.5-5.63,16.755,62.25,11.884v12.5A39.889,39.889,0,0,0,26.411,51.347a6.3,6.3,0,0,0-1.051-.1c-7.686.175-8.564,11.109-1.014,12.5A39.7,39.7,0,0,0,64,103.66a39.207,39.207,0,0,0,22.91-7.312,6.405,6.405,0,0,0,8.972-8.8,39.576,39.576,0,0,0-12.8-58.278l5.541-11.23C136.082,43.923,118.057,115.618,64,116.16Z"/>
</svg>
