<svg height="128" viewBox="0 0 128 128" width="128" xmlns="http://www.w3.org/2000/svg">
  <path d="M117.837,55.207a1.614,1.614,0,0,0,0-.989V24.869a11.763,11.763,0,0,0-11.75-11.75H21.913a11.763,11.763,0,0,0-11.75,11.75c.045,15.153-.034,43.115,0,58.2A11.763,11.763,0,0,0,21.91,94.82H53.544c-.764,5.61-4.088,11.34-9.92,17.06a1.751,1.751,0,0,0,1.226,3h38.3a1.762,1.762,0,0,0,1.225-3c-5.831-5.72-9.155-11.45-9.919-17.06H106.09a11.763,11.763,0,0,0,11.75-11.75c0-.024,0-1.362,0-1.384ZM16.467,56.462a3.839,3.839,0,0,0,3.645,2.668h5.409a3.83,3.83,0,0,0,3.636-2.668h3.168a3.832,3.832,0,0,0,3.637,2.668H41.38a3.83,3.83,0,0,0,3.636-2.668H47.26v9.445a4.515,4.515,0,0,0,4.51,4.509H76.745a4.515,4.515,0,0,0,4.51-4.509V56.462h1.49a3.83,3.83,0,0,0,3.636,2.668H91.8a3.83,3.83,0,0,0,3.636-2.668h3.408a3.83,3.83,0,0,0,3.636,2.668h5.409a3.839,3.839,0,0,0,3.645-2.668h2.8v23.5H13.663v-23.5Zm9.392-1.17a.343.343,0,0,1-.338.338H20.112a.342.342,0,0,1-.347-.338v-1.15a.338.338,0,0,1,.347-.338h5.409a.334.334,0,0,1,.338.338Zm15.859-.584c-.023.281.123.928-.338.922H35.962a.343.343,0,0,1-.339-.338v-1.15a.339.339,0,0,1,.339-.338H41.38C41.833,53.794,41.7,54.429,41.718,54.708ZM71.932,42.576H56.592V36.111a7.67,7.67,0,0,1,15.34,0Zm-17.09,3.5c2.06,0,20.415,0,21.9,0a1.011,1.011,0,0,1,1.01,1.009v5.877H50.76V47.085a1.011,1.011,0,0,1,1.01-1.009ZM77.755,56.462v9.445a1.011,1.011,0,0,1-1.01,1.009H51.77a1.011,1.011,0,0,1-1.01-1.009V56.462Zm14.382-1.17a.343.343,0,0,1-.338.338H86.381a.343.343,0,0,1-.338-.338v-1.15a.334.334,0,0,1,.338-.338H91.8a.334.334,0,0,1,.338.338Zm16.1,0a.342.342,0,0,1-.347.338h-5.409a.343.343,0,0,1-.338-.338v-1.15a.334.334,0,0,1,.338-.338h5.409a.338.338,0,0,1,.347.338ZM21.913,16.619h84.174a8.259,8.259,0,0,1,8.25,8.25V52.962H111.53a3.838,3.838,0,0,0-3.642-2.658h-5.409a3.83,3.83,0,0,0-3.633,2.658H95.432A3.829,3.829,0,0,0,91.8,50.3H86.381a3.83,3.83,0,0,0-3.633,2.658H81.255V47.085a4.515,4.515,0,0,0-4.51-4.509H75.432V36.111c-.589-14.807-21.725-14.828-22.34,0v6.465H51.77a4.515,4.515,0,0,0-4.51,4.509v5.877H45.014A3.831,3.831,0,0,0,41.38,50.3H35.962a3.83,3.83,0,0,0-3.634,2.658H29.154A3.83,3.83,0,0,0,25.521,50.3H20.112a3.838,3.838,0,0,0-3.642,2.658H13.663V24.869A8.259,8.259,0,0,1,21.913,16.619Zm57.17,94.761H48.917c4.792-5.471,7.53-11.022,8.164-16.56H70.919C71.553,100.358,74.291,105.909,79.083,111.38ZM106.09,91.32H21.91a8.26,8.26,0,0,1-8.241-7.86H114.331A8.261,8.261,0,0,1,106.09,91.32Z"/>
</svg>
