<svg height="128" viewBox="0 0 128 128" width="128" xmlns="http://www.w3.org/2000/svg">
  <g>
    <path d="M50.556,93.67H77.432a6.135,6.135,0,0,0,6.127-6.128V52.26a1.85,1.85,0,0,0-.572-1.294l-10.372-9.44a1.84,1.84,0,0,0-1.178-.456H51.191a6.758,6.758,0,0,0-6.75,6.75V87.542A6.128,6.128,0,0,0,50.556,93.67Zm26.73-43.16h-4.1V46.779ZM47.941,47.82a3.254,3.254,0,0,1,3.25-3.25h18.5v7.69a1.75,1.75,0,0,0,1.75,1.75h8.622V87.542a2.631,2.631,0,0,1-2.627,2.628H50.556a2.624,2.624,0,0,1-2.615-2.628Z"/>
    <path d="M55.173,61.036H72.827a1.75,1.75,0,0,0,0-3.5H55.173A1.75,1.75,0,0,0,55.173,61.036Z"/>
    <path d="M55.173,70.073H72.827a1.75,1.75,0,0,0,0-3.5H55.173A1.75,1.75,0,0,0,55.173,70.073Z"/>
    <path d="M55.173,79.112H67.568a1.75,1.75,0,0,0,0-3.5H55.173A1.75,1.75,0,0,0,55.173,79.112Z"/>
    <path d="M72.936,14.646q-.77-.132-1.546-.242V8.9A1.762,1.762,0,0,0,68.8,7.368L45.705,20.107a1.762,1.762,0,0,0,0,3.065L68.8,35.9A1.749,1.749,0,0,0,71.39,34.37V28.076c31.5,5.758,43.719,45.859,20.411,68C67.7,119.8,26.2,103.533,24.1,69.945a39.8,39.8,0,0,1,9.344-28.326,6.7,6.7,0,0,0-1.7-10.1,6.885,6.885,0,0,0-8.741,1.549C5.147,53.634,6.768,86.891,26.694,105.618c19.816,20.018,54.337,20.237,74.3.337C132.668,76.063,115.967,21.56,72.936,14.646ZM98.57,103.43c-30.429,29.31-81.562,9.347-84.438-32.676A49.8,49.8,0,0,1,25.688,35.313,3.4,3.4,0,0,1,28.3,34.089a3.2,3.2,0,0,1,2.474,5.271C7.337,66.684,26.714,109.733,62.6,110.828a43.253,43.253,0,0,0,31.637-12.24C120.292,73.8,105.409,28.926,69.863,24.3A1.76,1.76,0,0,0,67.89,26.03v5.377L50.173,21.639,67.89,11.864V15.95a1.75,1.75,0,0,0,1.562,1.74C111.34,22,129.145,74.512,98.57,103.43Z"/>
  </g>
</svg>
