<?xml version="1.0" encoding="utf-8"?>
<!-- Generator: Adobe Illustrator 16.0.0, SVG Export Plug-In . SVG Version: 6.00 Build 0)  -->
<!DOCTYPE svg PUBLIC "-//W3C//DTD SVG 1.1//EN" "http://www.w3.org/Graphics/SVG/1.1/DTD/svg11.dtd">
<svg enable-background="new 0 0 128 128" height="128px" id="Layer_1" version="1.1" viewBox="0 0 128 128"
     width="128px" x="0px" xml:space="preserve" xmlns="http://www.w3.org/2000/svg" y="0px">
<g>
	<g>
		<g>
			<g>
				<path d="M61.596,80.057H0V6.32c0-2.955,2.42-5.359,5.394-5.359h117.172c2.975,0,5.396,2.404,5.396,5.359v71.737
					h-4V6.32c0-0.75-0.626-1.359-1.396-1.359H5.394C4.625,4.961,4,5.57,4,6.32v69.737h57.596V80.057z" fill="#282D33"/>
			</g>
			<g>
				<polygon fill="#282D33" points="61.596,70.238 9.694,70.238 9.694,10.705 118.139,10.705 118.139,50.039 114.139,50.039
					114.139,14.705 13.694,14.705 13.694,66.238 61.596,66.238 				"/>
			</g>
			<g>
				<path d="M61.596,94.523H6.063c-3.055,0-6.054-3.067-6.054-6.193V75.984h61.587v4H4.009v8.346
					c0,0.923,1.19,2.193,2.054,2.193h55.533V94.523z" fill="#282D33"/>
			</g>
			<g>
				<path d="M45.268,110.403l-1.574-3.678c1.327-0.567,2.424-1.076,3.011-1.394l0.177-0.097
					c0.247-0.135,0.555-0.303,0.623-0.369c0.036-0.049,0.187-0.32,0.437-1.567c0.298-1.49,0.262-4.179,0.23-6.551
					c-0.022-1.647-0.043-3.203,0.049-4.31l3.986,0.334c-0.076,0.912-0.057,2.374-0.036,3.922c0.037,2.696,0.074,5.484-0.308,7.39
					c-0.584,2.919-1.212,3.653-3.068,4.664l-0.175,0.096C47.714,109.335,46.298,109.962,45.268,110.403z" fill="#282D33"/>
			</g>
			<g>
				<rect fill="#282D33" height="4" width="20.518" x="41.078" y="106.357"/>
			</g>
		</g>
	</g>
	<g>
		<g>
			<path d="M113.559,127.038H70.373c-2.521,0-4.573-2.037-4.573-4.542V60.218c0-2.507,2.052-4.546,4.573-4.546
				h43.186c2.52,0,4.569,2.039,4.569,4.546v14.392h-4V60.218c0-0.301-0.256-0.546-0.569-0.546H70.373
				c-0.316,0-0.573,0.245-0.573,0.546v62.278c0,0.299,0.257,0.542,0.573,0.542h43.186V127.038z" fill="#282D33"/>
		</g>
		<g>
			<polygon fill="#282D33" points="92.561,117.965 74.09,117.965 74.09,64.277 109.154,64.277 109.154,68.277 78.09,68.277
				78.09,113.965 92.561,113.965 			"/>
		</g>
	</g>
	<g>
		<g>
			<path d="M124.38,127.039h-22.67c-1.996,0-3.62-1.615-3.62-3.602V76.177c0-1.987,1.624-3.604,3.62-3.604h22.67
				c1.996,0,3.62,1.616,3.62,3.604v47.261C128,125.424,126.376,127.039,124.38,127.039z M102.09,123.039H124V76.573h-21.91V123.039z
				" fill="#282D33"/>
		</g>
		<g>
			<rect fill="#282D33" height="4" width="23.867" x="101.968" y="113.488"/>
		</g>
	</g>
	<g>
		<g>
			<g>
				<polygon fill="#282D33" points="80.486,34.961 80.481,24.358 69.745,24.357 69.745,20.357 84.479,20.359 84.486,34.959 				"/>
			</g>
			<g>

					<rect fill="#282D33" height="17.545" transform="matrix(0.7036 0.7106 -0.7106 0.7036 43.7709 -43.5157)" width="4" x="72.044" y="21.934"/>
			</g>
		</g>
		<g>
			<g>
				<polygon fill="#282D33" points="59.338,59.859 44.602,59.858 44.596,45.258 48.596,45.256 48.6,55.858 59.338,55.859 				"/>
			</g>
			<g>

					<rect fill="#282D33" height="17.549" transform="matrix(0.7033 0.7109 -0.7109 0.7033 51.5252 -24.4374)" width="4" x="53.039" y="40.736"/>
			</g>
		</g>
	</g>
</g>
</svg>
