<svg height="128" viewBox="0 0 128 128" width="128" xmlns="http://www.w3.org/2000/svg">
  <g>
    <path d="M120.419,102.465H117.06V41.68a12.415,12.415,0,0,0-12.4-12.4h-18.3C79.937,13.869,69.786,8.4,62.6,8.4c-7,.049-17.222,5.567-23.571,20.877H23.34a12.415,12.415,0,0,0-12.4,12.4v60.785H7.581a1.749,1.749,0,0,0-1.75,1.75v6.637a8.76,8.76,0,0,0,8.75,8.75h98.838a8.76,8.76,0,0,0,8.75-8.75v-6.637A1.749,1.749,0,0,0,120.419,102.465ZM43.869,64.1c-.2-.383-.379-.775-.562-1.167a20.409,20.409,0,0,0,9.513,2.629,14.317,14.317,0,0,0,9.882-3.88c5.778,5.248,13.216,4.613,19.369,1.286C72.976,82.892,53.386,83.464,43.869,64.1Zm-3.892-.011c-4.274,1.191-6.769-2.461-6.637-6a9.586,9.586,0,0,1,3.1-5.453A48.236,48.236,0,0,0,39.977,64.085Zm1.167-6.83a42.07,42.07,0,0,1-1.252-5.268c3.332-3.01,10.414-6.294,15.622-5.48a7.067,7.067,0,0,1,5.629,3.941,1.774,1.774,0,0,0,1.517.947,1.8,1.8,0,0,0,1.6-.947c4.15-7.908,16.6-2.6,21.247,1.53a43.6,43.6,0,0,1-1.259,5.289c-9.332,8.028-17.095,4.287-20.239.759a1.762,1.762,0,0,0-2.613,0C55.876,64.715,46.421,61.935,41.144,57.255ZM85.4,64.114a48.373,48.373,0,0,0,3.5-11.187A9.929,9.929,0,0,1,91.66,58.08C91.813,61.408,89.383,65.224,85.4,64.114ZM86.19,44.15c0,1.232-.072,2.489-.179,3.756a28.651,28.651,0,0,0-7.759-3.874,49.8,49.8,0,0,0-.547-9.151,62.735,62.735,0,0,1,7.706,2.847A29.855,29.855,0,0,1,86.19,44.15Zm-11.412-.977c-3.567-.63-7.468-.283-10.332,1.808V32.672a53.117,53.117,0,0,1,9.522,1.235A45.5,45.5,0,0,1,74.778,43.173ZM64.446,29.158V14.444A40.548,40.548,0,0,1,73.064,30.15,55.951,55.951,0,0,0,64.446,29.158Zm-3.5-.013a55.023,55.023,0,0,0-8.592.918,40.549,40.549,0,0,1,8.592-15.619Zm0,3.514V44.974c-2.866-2.088-6.765-2.432-10.332-1.8a45.492,45.492,0,0,1,.825-9.347A51.843,51.843,0,0,1,60.946,32.659Zm-13.8,11.375a28.542,28.542,0,0,0-7.76,3.881c-.107-1.239-.181-2.492-.181-3.765a29.983,29.983,0,0,1,.8-6.507,59.348,59.348,0,0,1,7.7-2.874A49.7,49.7,0,0,0,47.141,44.034ZM57.147,81.06a19.106,19.106,0,0,0,10.735.112c0,.025,3.345,13.055,3.345,13.055L71,94.254a67.356,67.356,0,0,1-17.214-.076S57.145,81.078,57.147,81.06Zm26.017,9.12c-.143,1.034-5.421,3.081-8.463,3.5L72.73,85.988C80.611,87.252,83.429,89.247,83.164,90.18ZM50.3,93.68a25.156,25.156,0,0,1-6.789-2.137c-.807-.494-1.419-.763-1.743-1.533,0-.683,2.65-2.833,10.5-4.023Zm-10.714-.714C44.4,97.3,53.755,97.9,60.4,98.228c7.48.042,19.429-.295,25.015-5.267,9.752,2.355,14.144,6.133,16.052,9.5H23.528C25.437,99.093,29.831,95.314,39.587,92.966ZM104.66,32.78a8.91,8.91,0,0,1,8.9,8.9v60.78h-8.212C103.564,98.041,98.8,92.7,86.7,89.673c-.42-4.81-9.733-6.68-14.906-7.347l-.62-2.419c4.889-2.362,9.281-6.744,12.584-12.572C89.7,69.289,95.3,64.912,95.16,58.08c0-2.047-2-7.154-5.748-9a35.419,35.419,0,0,0-.865-13.3c-.256-1-.558-2.006-.875-3ZM83.551,31.67c.227.579.438,1.159.638,1.74a64.044,64.044,0,0,0-7.266-2.378,44.08,44.08,0,0,0-9.171-18.116C74.662,15.686,80.45,23.7,83.551,31.67ZM57.635,12.923a44.075,44.075,0,0,0-9.142,18.01,60.909,60.909,0,0,0-7.258,2.378q.285-.822.605-1.645C44.945,23.71,50.732,15.7,57.635,12.923ZM14.44,41.68a8.91,8.91,0,0,1,8.9-8.9H37.719A44.893,44.893,0,0,0,36.462,37.4a35.011,35.011,0,0,0-.5,11.5c-4.023,1.71-6.123,7.221-6.123,9.181,0,5.717,3.541,9.71,8.61,9.71a8.781,8.781,0,0,0,3.12-.578c3.224,5.747,7.517,10.113,12.3,12.521l-.664,2.592c-5.18.668-14.511,2.54-14.919,7.358C26.2,92.705,21.435,98.04,19.651,102.46H14.44Zm104.229,69.172a5.257,5.257,0,0,1-5.25,5.25H14.581a5.256,5.256,0,0,1-5.25-5.25v-4.887H45.782a8.76,8.76,0,0,0,8.587,7.091H73.631a8.76,8.76,0,0,0,8.587-7.091h36.451Zm-40.088-4.8a5.26,5.26,0,0,1-4.95,3.5H54.369a5.26,5.26,0,0,1-4.95-3.5Z"/>
    <path d="M56.126,53.194a3.591,3.591,0,0,0-7.182,0A3.591,3.591,0,0,0,56.126,53.194Zm-3.682,0a.091.091,0,0,1,.182,0C52.626,53.294,52.444,53.294,52.444,53.194Z"/>
    <path d="M72.717,56.785a3.591,3.591,0,0,0,0-7.182A3.591,3.591,0,0,0,72.717,56.785Zm0-3.682a.092.092,0,0,1,.091.091C72.753,53.393,72.485,53.157,72.717,53.1Z"/>
  </g>
</svg>
