<?xml version="1.0" encoding="utf-8"?>
<!-- Generator: Adobe Illustrator 16.0.0, SVG Export Plug-In . SVG Version: 6.00 Build 0)  -->
<!DOCTYPE svg PUBLIC "-//W3C//DTD SVG 1.1//EN" "http://www.w3.org/Graphics/SVG/1.1/DTD/svg11.dtd">
<svg version="1.1" id="Layer_1" xmlns="http://www.w3.org/2000/svg" x="0px" y="0px"
     width="128px" height="128px" viewBox="0 0 128 128" enable-background="new 0 0 128 128" xml:space="preserve">
<g>
	<g>
		<g>
			<path fill="none" stroke="#282D33" stroke-width="4" d="M69.499,69.553"/>
		</g>
	</g>
	<g>
		<path fill="#282D33" d="M43.827,87.275c-23.812,0-43.191-19.572-43.201-43.629C0.624,32.045,5.099,21.111,13.227,12.856
			C21.398,4.566,32.261,0,43.814,0C55.373,0,66.22,4.542,74.396,12.789c8.17,8.243,12.669,19.195,12.669,30.84
			c0,11.603-4.472,22.533-12.592,30.781C66.285,82.707,55.41,87.275,43.85,87.275H43.827z M43.852,4
			C33.34,4,23.489,8.143,16.076,15.663C8.691,23.164,4.624,33.102,4.626,43.645c0.008,21.851,17.594,39.63,39.201,39.63v2l0.022-2
			c10.482,0,20.346-4.146,27.775-11.674c7.377-7.492,11.44-17.427,11.44-27.972c0-10.583-4.088-20.536-11.511-28.024
			C64.136,8.122,54.298,4,43.852,4z"/>
	</g>
	<g>
		<path fill="#282D33" d="M43.825,76.264c-8.62,0-16.73-3.398-22.837-9.57c-6.101-6.167-9.46-14.354-9.458-23.051
			c0.001-8.682,3.349-16.857,9.426-23.02c6.114-6.203,14.24-9.621,22.883-9.624c8.644,0,16.759,3.4,22.863,9.575
			c6.105,6.156,9.473,14.343,9.479,23.052c0.002,8.674-3.344,16.845-9.422,23.008c-6.121,6.209-14.256,9.629-22.907,9.631H43.825z
			 M43.85,14.999c-7.574,0.003-14.689,2.997-20.046,8.432c-5.334,5.411-8.273,12.589-8.274,20.213
			c-0.002,7.637,2.946,14.824,8.302,20.236c5.35,5.408,12.45,8.384,19.994,8.384v2l0.023-2c7.573-0.002,14.697-2.998,20.061-8.439
			c5.334-5.41,8.272-12.583,8.27-20.198c-0.006-7.646-2.96-14.834-8.32-20.239C58.51,17.977,51.405,14.999,43.85,14.999z"/>
	</g>
	<g>
		<path fill="#282D33" d="M107.059,125.922L70.613,89.104l18.24-18.42l36.438,36.814L107.059,125.922z M76.242,89.104l30.816,31.133
			l12.606-12.738L88.854,76.369L76.242,89.104z"/>
	</g>
	<g>

			<rect x="93.952" y="98.575" transform="matrix(0.7034 0.7108 -0.7108 0.7034 101.9458 -43.147)" fill="#282D33" width="17.437" height="4.001"/>
	</g>
	<g>

			<rect x="88.937" y="81.667" transform="matrix(0.711 0.7032 -0.7032 0.711 87.839 -38.6462)" fill="#282D33" width="4" height="11.75"/>
	</g>
	<g>
		<path fill="#282D33" d="M109.157,128l-4.276-4.324l2.848-2.809l3.074,3.107c6.741-0.41,12.153-5.891,12.548-12.711
			c-1.03-1.043-2.061-2.082-3.09-3.117l2.838-2.82c1.231,1.24,2.463,2.484,3.698,3.732l0.577,0.586v0.82
			c0,9.666-7.797,17.533-17.382,17.535H109.157z"/>
	</g>
	<g>
		<g>

				<rect x="72.331" y="75.345" transform="matrix(0.7035 0.7107 -0.7107 0.7035 77.7789 -31.7329)" fill="#282D33" width="9.176" height="4.001"/>
		</g>
	</g>
</g>
</svg>
