<?xml version="1.0" encoding="utf-8"?>
<!-- Generator: Adobe Illustrator 16.0.0, SVG Export Plug-In . SVG Version: 6.00 Build 0)  -->
<!DOCTYPE svg PUBLIC "-//W3C//DTD SVG 1.1//EN" "http://www.w3.org/Graphics/SVG/1.1/DTD/svg11.dtd">
<svg enable-background="new 0 0 128 128" height="128px" id="Layer_1" version="1.1" viewBox="0 0 128 128"
     width="128px" x="0px" xml:space="preserve" xmlns="http://www.w3.org/2000/svg" y="0px">
<g>
	<g>
		<g>
			<g>
				<path d="M60.826,77.566" fill="none" stroke="#282D33" stroke-width="4"/>
			</g>
		</g>
		<g>
			<path d="M70.438,124.967H51.215V91.774h19.223V124.967z M55.212,120.97h11.228V95.771H55.212V120.97z" fill="#282D33"/>
		</g>
		<g>
			<g>
				<g>
					<rect fill="#282D33" height="7.7" width="3.998" x="63.303" y="83.912"/>
				</g>
			</g>
			<g>
				<g>
					<rect fill="#282D33" height="7.7" width="3.997" x="54.351" y="83.912"/>
				</g>
			</g>
		</g>
		<g>
			<path d="M60.853,86.139c-9.464,0-18.346-3.712-25.009-10.452C22.08,61.79,22.075,39.16,35.834,25.242
				c6.639-6.716,15.488-10.429,24.918-10.455c9.521,0,18.389,3.71,25.048,10.446c6.66,6.727,10.33,15.685,10.334,25.224
				c0.006,9.533-3.659,18.494-10.322,25.229c-6.642,6.715-15.486,10.428-24.905,10.452H60.853z M60.83,18.784
				c-8.424,0.024-16.269,3.315-22.153,9.269C26.451,40.42,26.455,60.527,38.685,72.875c5.908,5.976,13.78,9.266,22.168,9.266v1.999
				l0.046-1.999c8.345-0.022,16.184-3.313,22.071-9.265c5.917-5.982,9.173-13.943,9.167-22.417
				c-0.004-8.479-3.264-16.439-9.179-22.414C77.055,22.072,69.197,18.784,60.83,18.784z" fill="#282D33"/>
		</g>
		<g>
			<g>
				<path d="M60.801,76.889c-6.979,0-13.543-2.754-18.486-7.752c-4.937-4.993-7.654-11.621-7.652-18.662
					c0-7.027,2.709-13.646,7.627-18.638c4.947-5.025,11.526-7.795,18.525-7.797c6.994,0,13.565,2.754,18.509,7.756
					c4.938,4.982,7.661,11.611,7.67,18.662c0.002,7.025-2.705,13.642-7.623,18.633c-4.961,5.025-11.547,7.796-18.548,7.798H60.801z
					 M60.815,28.038c-5.919,0.002-11.487,2.347-15.679,6.604c-4.177,4.239-6.477,9.862-6.477,15.834
					c-0.002,5.982,2.306,11.61,6.497,15.85c4.186,4.234,9.741,6.565,15.644,6.565v1.999l0.02-1.999
					c5.924-0.002,11.501-2.348,15.703-6.606c4.175-4.237,6.475-9.856,6.473-15.823c-0.007-5.99-2.321-11.621-6.515-15.854
					C72.294,30.37,66.73,28.038,60.815,28.038z" fill="#282D33"/>
			</g>
		</g>
	</g>
	<g>
		<path d="M124.733,44.582C107.66,20.367,85.085,7.031,61.168,7.031V3.033c25.254,0,48.989,13.938,66.832,39.246
			L124.733,44.582z" fill="#282D33"/>
	</g>
	<g>
		<path d="M94.268,76.462l-2.064-3.422c9.333-5.635,17.816-13.674,25.231-23.908
			c-15.374-21.22-35.31-32.886-56.266-32.886c-20.958,0-40.894,11.666-56.267,32.886c7.254,10.017,15.548,17.938,24.67,23.561
			l-2.098,3.402C17.543,69.974,8.572,61.29,0.813,50.284L0,49.132l0.813-1.151c16.251-23.042,37.686-35.732,60.356-35.732
			c22.669,0,44.104,12.69,60.357,35.732l0.812,1.151l-0.813,1.152C113.597,61.522,104.426,70.331,94.268,76.462z" fill="#282D33"/>
	</g>
</g>
</svg>
