<svg xmlns="http://www.w3.org/2000/svg" width="128" height="128" viewBox="0 0 128 128">
  <g>
    <path d="M114.066,25.167a1.749,1.749,0,0,0-1.19-1.636L64.56,7.214a1.759,1.759,0,0,0-1.12,0L15.125,23.531a1.75,1.75,0,0,0-1.19,1.635c-.689,52.417,15.99,73.257,49.084,95.416a1.749,1.749,0,0,0,1.948,0C98.058,98.427,114.737,77.587,114.066,25.167ZM63.993,117.019C32.852,95.977,17.036,75.838,17.422,26.45L64,10.719l46.579,15.73C110.947,75.843,95.132,95.98,63.993,117.019Z"/>
    <path d="M63.44,19.3,26.61,31.733a1.748,1.748,0,0,0-1.189,1.7c.969,39.6,13.945,56.274,37.553,73.2a1.749,1.749,0,0,0,2.039,0c23.6-16.927,36.582-33.606,37.564-73.2a1.749,1.749,0,0,0-1.189-1.7L64.56,19.3A1.759,1.759,0,0,0,63.44,19.3Zm35.6,15.338c-1.176,36.639-13.263,52.585-35.049,68.422C42.2,87.218,30.119,71.273,28.955,34.635L64,22.8Z"/>
    <path d="M53.258,53.428c-5.988-5.623-14.428,2.8-8.8,8.8l12.181,12.18a6.25,6.25,0,0,0,8.8,0L86.048,53.8c5.633-5.981-2.8-14.438-8.8-8.8L61.04,61.21Zm26.469-5.955a2.72,2.72,0,0,1,3.846,3.847L62.964,71.93a2.787,2.787,0,0,1-3.848,0L46.935,59.75A2.721,2.721,0,0,1,50.783,55.9l9.02,9.019a1.748,1.748,0,0,0,2.474,0Z"/>
  </g>
</svg>
