<?xml version="1.0" encoding="utf-8"?>
<!-- Generator: Adobe Illustrator 16.0.0, SVG Export Plug-In . SVG Version: 6.00 Build 0)  -->
<!DOCTYPE svg PUBLIC "-//W3C//DTD SVG 1.1//EN" "http://www.w3.org/Graphics/SVG/1.1/DTD/svg11.dtd">
<svg enable-background="new 0 0 128 128" height="128px" id="Layer_1" version="1.1" viewBox="0 0 128 128"
     width="128px" x="0px" xml:space="preserve" xmlns="http://www.w3.org/2000/svg" y="0px">
<g>
	<g>
		<g>
			<g>
				<path d="M53.331,71.037" fill="none" stroke="#282D33" stroke-width="4"/>
			</g>
		</g>
		<g>
			<path d="M53.34,76.418c-8.055,0-15.618-3.15-21.297-8.873c-11.729-11.81-11.733-31.038-0.011-42.863
				c5.657-5.705,13.198-8.86,21.234-8.883c8.112,0,15.669,3.152,21.341,8.877c5.674,5.709,8.803,13.32,8.809,21.428
				c0.006,8.1-3.117,15.713-8.795,21.438c-5.664,5.707-13.201,8.859-21.225,8.877H53.34z M53.328,19.799
				c-7.017,0.02-13.552,2.754-18.455,7.699C24.69,37.769,24.694,54.469,34.882,64.727c4.922,4.961,11.478,7.691,18.458,7.691v2
				l0.049-2c6.952-0.016,13.484-2.748,18.395-7.693c4.928-4.97,7.639-11.582,7.633-18.617c-0.006-7.046-2.721-13.657-7.648-18.614
				C66.852,22.53,60.304,19.799,53.328,19.799z" fill="#282D33"/>
		</g>
		<g>
			<g>
				<path d="M53.311,68.24c-5.861,0-11.375-2.305-15.526-6.49c-4.147-4.181-6.431-9.731-6.43-15.63
					c0-5.885,2.275-11.429,6.405-15.609c4.157-4.206,9.684-6.524,15.561-6.527c5.871,0,11.391,2.306,15.543,6.493
					c4.148,4.176,6.438,9.728,6.443,15.631c0.004,5.881-2.271,11.423-6.406,15.604c-4.162,4.209-9.691,6.529-15.571,6.529H53.311z
					 M53.321,27.983c-4.799,0.002-9.315,1.898-12.716,5.339c-3.386,3.427-5.251,7.973-5.251,12.798
					c-0.001,4.836,1.871,9.387,5.27,12.813c3.395,3.422,7.9,5.307,12.687,5.307v2l0.017-2c4.805-0.001,9.324-1.897,12.729-5.342
					c3.389-3.427,5.254-7.968,5.25-12.788c-0.006-4.841-1.881-9.393-5.283-12.815C62.627,29.869,58.116,27.983,53.321,27.983z" fill="#282D33"/>
			</g>
		</g>
		<g>
			<path d="M62.082,114.377H44.579V82.58h17.503V114.377z M48.579,110.377h9.503V86.58h-9.503V110.377z" fill="#282D33"/>
		</g>
		<g>
			<path d="M53.333,122.094c-2.706,0-5.249-1.063-7.16-2.99l-0.58-0.584v-3.596h4v1.881
				c1.066,0.836,2.369,1.289,3.74,1.289c0.001,0,0.001,0,0.002,0c1.368-0.002,2.668-0.453,3.731-1.287l0.001-1.885h4l-0.004,3.604
				l-0.577,0.582c-1.907,1.924-4.447,2.984-7.151,2.986C53.335,122.094,53.334,122.094,53.333,122.094z" fill="#282D33"/>
		</g>
		<g>
			<g>
				<g>
					<rect fill="#282D33" height="8.715" width="4" x="55.669" y="74.627"/>
				</g>
			</g>
			<g>
				<g>
					<rect fill="#282D33" height="8.715" width="4" x="46.991" y="74.627"/>
				</g>
			</g>
		</g>
	</g>
	<g>
		<path d="M115.527,86.631c-0.084,0-0.168-0.002-0.252-0.004l-0.65,0.004H66.186v-4h47.166l0.068-0.145l1.375,0.105
			c0.25,0.02,0.488,0.039,0.732,0.039c4.672,0,8.473-3.84,8.473-8.559c0-4.65-3.605-8.4-8.211-8.537l-2.176-0.064l0.248-2.164
			c0.105-0.904,0.156-1.722,0.156-2.501c0-11.611-9.363-21.059-20.873-21.059c-0.834,0-1.686,0.059-2.604,0.179l-1.828,0.24
			l-0.387-1.803c-1.455-6.771-4.807-12.951-9.693-17.87C71.861,13.664,62.855,9.906,53.266,9.906c-0.028,0-0.056,0-0.085,0
			C43.596,9.933,34.6,13.695,27.849,20.501c-6.4,6.458-10.118,15.059-10.468,24.217L17.33,46.05l-1.248,0.466
			C8.855,49.211,4,56.231,4,63.983c0,10.282,8.292,18.647,18.484,18.647h17.994v4H22.484C10.087,86.631,0,76.471,0,63.983
			c0-8.967,5.354-17.129,13.454-20.715c0.675-9.676,4.749-18.718,11.555-25.584c7.504-7.565,17.506-11.749,28.162-11.778
			c0.031,0,0.063,0,0.095,0c10.666,0,20.68,4.178,28.207,11.769c5.006,5.039,8.561,11.271,10.352,18.112
			c0.445-0.026,0.883-0.04,1.32-0.04c13.715,0,24.873,11.241,24.873,25.059c0,0.317-0.008,0.639-0.021,0.966
			C123.748,62.912,128,67.963,128,74.072c0,6.752-5.318,12.275-11.959,12.547v0.002l-0.064,0.002
			C115.828,86.627,115.678,86.631,115.527,86.631z" fill="#282D33"/>
	</g>
</g>
</svg>
