<svg height="128" viewBox="0 0 128 128" width="128" xmlns="http://www.w3.org/2000/svg">
  <g>
    <path d="M118.667,35.182V17.545A11.764,11.764,0,0,0,106.917,5.8H21.15A11.764,11.764,0,0,0,9.4,17.545V35.182a11.741,11.741,0,0,0,5.578,9.979A11.743,11.743,0,0,0,9.333,55.182V72.818a11.743,11.743,0,0,0,5.645,10.021A11.741,11.741,0,0,0,9.4,92.818v17.637a11.764,11.764,0,0,0,11.75,11.75h85.767a11.764,11.764,0,0,0,11.75-11.75V92.818a11.741,11.741,0,0,0-5.646-10.02,11.741,11.741,0,0,0,5.579-9.98V55.182a11.741,11.741,0,0,0-5.579-9.98A11.741,11.741,0,0,0,118.667,35.182Zm-11.75,49.386a8.26,8.26,0,0,1,8.25,8.25v17.637a8.259,8.259,0,0,1-8.25,8.25H21.15a8.26,8.26,0,0,1-8.25-8.25V92.818a8.261,8.261,0,0,1,8.25-8.25C21.175,84.557,106.891,84.577,106.917,84.568Zm8.183-11.75a8.26,8.26,0,0,1-8.25,8.25H21.15a8.261,8.261,0,0,1-8.317-8.25V55.182a8.259,8.259,0,0,1,8.25-8.25c.033-.007,85.72,0,85.767,0a8.26,8.26,0,0,1,8.25,8.25Zm.067-37.636a8.26,8.26,0,0,1-8.25,8.25c-.031,0-85.721,0-85.767,0a8.261,8.261,0,0,1-8.25-8.25V17.545A8.26,8.26,0,0,1,21.15,9.3h85.767a8.259,8.259,0,0,1,8.25,8.25Z"/>
    <path d="M49.008,20.523H26.1a1.75,1.75,0,0,0,0,3.5H49.008A1.75,1.75,0,0,0,49.008,20.523Z"/>
    <path d="M48.94,29.907H26.031a1.75,1.75,0,0,0,0,3.5H48.94A1.75,1.75,0,0,0,48.94,29.907Z"/>
    <path d="M48.94,57.128H26.031a1.75,1.75,0,1,0,0,3.5H48.94A1.75,1.75,0,0,0,48.94,57.128Z"/>
    <path d="M48.94,67.765H26.031a1.75,1.75,0,1,0,0,3.5H48.94A1.75,1.75,0,0,0,48.94,67.765Z"/>
    <path d="M26.1,98.33H49.008a1.75,1.75,0,0,0,0-3.5H26.1A1.75,1.75,0,0,0,26.1,98.33Z"/>
    <path d="M26.1,109.627H49.008a1.75,1.75,0,0,0,0-3.5H26.1A1.75,1.75,0,0,0,26.1,109.627Z"/>
    <path d="M75.189,16.977A9.4,9.4,0,0,0,65.8,26.364c.506,12.448,18.269,12.445,18.773,0A9.4,9.4,0,0,0,75.189,16.977Zm0,15.273c-7.779-.247-7.777-11.526,0-11.773C82.969,20.725,82.967,32,75.189,32.25Z"/>
    <path d="M100.008,16.977a9.4,9.4,0,0,0-9.387,9.387c.506,12.448,18.269,12.445,18.773,0A9.4,9.4,0,0,0,100.008,16.977Zm0,15.273c-7.78-.247-7.778-11.526,0-11.773C107.787,20.725,107.786,32,100.008,32.25Z"/>
    <path d="M75.122,54.614A9.4,9.4,0,0,0,65.736,64C66.242,76.449,84,76.444,84.509,64A9.4,9.4,0,0,0,75.122,54.614Zm0,15.272c-7.778-.247-7.777-11.526,0-11.772C82.9,58.361,82.9,69.64,75.122,69.886Z"/>
    <path d="M99.94,54.614A9.4,9.4,0,0,0,90.554,64c.506,12.449,18.269,12.445,18.773,0A9.4,9.4,0,0,0,99.94,54.614Zm0,15.272c-7.779-.247-7.777-11.526,0-11.772C107.72,58.361,107.718,69.64,99.94,69.886Z"/>
    <path d="M75.189,111.023a9.4,9.4,0,0,0,9.387-9.387c-.506-12.448-18.269-12.445-18.773,0A9.4,9.4,0,0,0,75.189,111.023Zm0-15.273c7.78.247,7.778,11.526,0,11.773C67.41,107.275,67.411,96,75.189,95.75Z"/>
    <path d="M100.008,111.023a9.4,9.4,0,0,0,9.386-9.387c-.506-12.448-18.269-12.445-18.773,0A9.4,9.4,0,0,0,100.008,111.023Zm0-15.273c7.779.247,7.778,11.526,0,11.773C92.228,107.275,92.23,96,100.008,95.75Z"/>
  </g>
</svg>
