<?xml version="1.0" encoding="utf-8"?>
<!-- Generator: Adobe Illustrator 16.0.0, SVG Export Plug-In . SVG Version: 6.00 Build 0)  -->
<!DOCTYPE svg PUBLIC "-//W3C//DTD SVG 1.1//EN" "http://www.w3.org/Graphics/SVG/1.1/DTD/svg11.dtd">
<svg version="1.1" id="Layer_1" xmlns="http://www.w3.org/2000/svg" x="0px" y="0px"
     width="128px" height="128px" viewBox="0 0 128 128" enable-background="new 0 0 128 128" xml:space="preserve">
<g>
	<g>
		<path fill="#282D33" d="M73.359,128H52.491l-1.347-16.365c-4.702-1.293-9.154-3.282-13.27-5.929l-11.966,10.25L11.172,101.03
			L21.64,88.502c-2.428-4.288-4.189-8.896-5.25-13.732l-15.619-1.32l0.005-21.078l16.156-1.363c1.279-4.774,3.25-9.292,5.875-13.469
			L12.688,25.43l14.739-14.925l12.381,10.609c4.223-2.446,8.761-4.223,13.528-5.297L54.639,0H75.51l1.348,16.367
			c4.709,1.298,9.16,3.287,13.27,5.928l11.969-10.253l14.738,14.925l-10.473,12.527c2.43,4.294,4.191,8.902,5.252,13.736
			l15.615,1.318l-0.002,21.078l-16.158,1.364c-1.281,4.778-3.252,9.297-5.875,13.469l10.119,12.109l-14.738,14.926l-12.385-10.61
			c-4.23,2.448-8.768,4.226-13.525,5.299L73.359,128z M56.176,124h13.5l1.25-15.146l1.488-0.287
			c5.303-1.021,10.326-2.986,14.93-5.838l1.244-0.771l11.758,10.073l9.566-9.688l-9.697-11.604l0.838-1.246
			c3.035-4.521,5.217-9.513,6.48-14.838l0.334-1.409l15.359-1.296l0.002-13.726l-14.961-1.264l-0.281-1.496
			c-1.012-5.381-2.953-10.476-5.771-15.142l-0.738-1.222l9.957-11.912l-9.566-9.687l-11.455,9.813l-1.266-0.872
			c-4.459-3.068-9.385-5.274-14.641-6.557l-1.4-0.342L71.826,4H58.324l-1.248,15.145l-1.49,0.288
			c-5.315,1.025-10.338,2.989-14.931,5.837l-1.244,0.771L27.655,15.967l-9.566,9.687l9.698,11.606l-0.837,1.246
			c-3.04,4.527-5.221,9.519-6.482,14.837l-0.334,1.41L4.775,56.048L4.772,69.773l14.963,1.264l0.281,1.496
			c1.011,5.387,2.953,10.479,5.771,15.137l0.74,1.222l-9.956,11.914l9.565,9.688l11.452-9.81l1.267,0.872
			c4.468,3.075,9.393,5.281,14.637,6.556l1.403,0.341L56.176,124z"/>
	</g>
	<g>
		<path fill="#282D33" d="M33.074,64.001h-4c0-19.488,15.668-35.343,34.928-35.343v4C46.948,32.658,33.074,46.719,33.074,64.001z"/>
	</g>
	<g>
		<path fill="#282D33" d="M64,85.305c-11.613,0-21.061-9.557-21.061-21.304c0-11.747,9.448-21.303,21.061-21.303
			c11.613,0,21.06,9.556,21.06,21.303C85.061,75.748,75.613,85.305,64,85.305z M64,46.698c-9.408,0-17.061,7.762-17.061,17.303
			c0,9.541,7.653,17.304,17.061,17.304s17.06-7.763,17.06-17.304C81.061,54.46,73.408,46.698,64,46.698z"/>
	</g>
</g>
</svg>
