<svg height="128" viewBox="0 0 128 128" width="128" xmlns="http://www.w3.org/2000/svg">
  <g>
    <path d="M112.182,26.681a1.752,1.752,0,0,0-1.191-1.636L64.56,9.364a1.759,1.759,0,0,0-1.12,0L17.009,25.045a1.751,1.751,0,0,0-1.19,1.635c-.662,50.4,15.376,70.443,47.2,91.752a1.751,1.751,0,0,0,1.947,0C96.787,97.127,112.826,77.087,112.182,26.681ZM63.994,114.869C34.121,94.676,18.946,75.342,19.306,27.963L64,12.87l44.694,15.093C109.038,75.346,93.861,94.679,63.994,114.869Z"/>
    <path d="M63.5,20.966c-.05-.058-35.4,11.987-35.449,11.961a1.753,1.753,0,0,0-1.19,1.7,133.8,133.8,0,0,0,1.765,19.411c4.215,24.592,15.949,37.837,34.352,50.989a1.762,1.762,0,0,0,2.04,0c22.7-16.28,35.182-32.32,36.126-70.4a1.751,1.751,0,0,0-1.19-1.7L64.56,20.975A1.719,1.719,0,0,0,63.5,20.966ZM62.25,25.071V42.843L31.805,51.678A129.548,129.548,0,0,1,30.393,35.83ZM32.412,55.146,62.25,46.488V100.16C46.65,88.506,36.533,76.448,32.412,55.146ZM65.75,100.151V46.489L95.576,55.16C91.448,76.447,81.335,88.5,65.75,100.151ZM96.184,51.692,65.75,42.844V25.071L97.6,35.828A129.491,129.491,0,0,1,96.184,51.692Z"/>
  </g>
</svg>
