<svg height="128" viewBox="0 0 128 128" width="128" xmlns="http://www.w3.org/2000/svg">
  <g>
    <path d="M90.148,16.248c-10.376-5.2-18.363,9.387-8.416,15.344A36.958,36.958,0,0,1,100.93,64c-2.024,48.985-71.835,48.988-73.86,0a36.958,36.958,0,0,1,19.2-32.408,8.75,8.75,0,0,0-8.416-15.344A54.439,54.439,0,0,0,64,118.431C120.191,117.843,139.112,43.687,90.148,16.248ZM64,114.931C11.419,114.38-6.282,44.99,39.537,19.316a5.25,5.25,0,0,1,5.047,9.207C8.208,48.9,22.261,104,64,104.431c41.744-.439,55.791-55.525,19.415-75.908a5.251,5.251,0,0,1,5.05-9.207C134.282,44.987,116.574,114.391,64,114.931Z"/>
    <path d="M64,72.727a8.76,8.76,0,0,0,8.75-8.75V18.319a8.75,8.75,0,0,0-17.5,0V63.977A8.76,8.76,0,0,0,64,72.727ZM58.75,18.319c.215-6.925,10.277-6.948,10.5,0V63.977c-.215,6.925-10.277,6.948-10.5,0Z"/>
  </g>
</svg>
