<svg height="128" viewBox="0 0 128 128" width="128" xmlns="http://www.w3.org/2000/svg">
  <g>
    <path d="M103.8,43.634C99.062,13.058,79.541,6.64,64,6.64S28.938,13.058,24.2,43.634a84.976,84.976,0,0,0-.744,18.407c.315,4.637.742,6.957,1.194,8.154-1.206,5.936-4.946,22,12.333,28.674V109.61a11.763,11.763,0,0,0,11.75,11.75h27.1a11.763,11.763,0,0,0,11.75-11.75V99.954c19.143-5.5,16.85-23.053,15.762-29.73.456-1.188.887-3.509,1.2-8.183A84.976,84.976,0,0,0,103.8,43.634ZM84.08,109.61a8.259,8.259,0,0,1-8.25,8.25H48.73a8.259,8.259,0,0,1-8.25-8.25V99.991a65.664,65.664,0,0,0,6.87,1.427v4.242a5.757,5.757,0,0,0,5.75,5.75H71.46a5.757,5.757,0,0,0,5.75-5.75v-3.789c2.448-.271,5.005-.679,6.87-1.063Zm1.331-12.689A69.93,69.93,0,0,1,75.3,98.548a1.75,1.75,0,0,0-1.587,1.742v5.37a2.253,2.253,0,0,1-2.25,2.25H69.894v-3.637a1.75,1.75,0,0,0-3.5,0v3.637H64.03v-3.637a1.75,1.75,0,0,0-3.5,0v3.637H58.166v-3.637a1.75,1.75,0,0,0-3.5,0v3.637H53.1a2.253,2.253,0,0,1-2.25-2.25V99.9a1.749,1.749,0,0,0-1.52-1.734c-11.853-2.126-26.214-3.626-21.144-27.849l3.126-8.351a1.75,1.75,0,0,0-3.278-1.227l-.943,2.52C24.615,34.493,35.1,10.14,64,10.14c29.19,0,39.518,24.877,36.87,53.574L99.845,61.23a1.75,1.75,0,0,0-3.236,1.335l3.2,7.76C100.835,76.505,103.373,92.518,85.411,96.921Z"/>
    <path d="M58.462,69.511a7.28,7.28,0,0,0,1.064-6.184c-1.746-6.652-12.737-7.307-19.754-7.192-6.657.164-9.649,8.823-4.46,13.012a67.967,67.967,0,0,0,9.05,6.365,7.378,7.378,0,0,0,3.724,1.013C52.4,76.361,56.14,72.55,58.462,69.511ZM55.6,67.5c-1.743,2.27-6.073,7.064-9.466,5a64.505,64.505,0,0,1-8.582-6.035,3.848,3.848,0,0,1-.5-5.408c1.072-1.473,3.03-1.494,4.687-1.451C47.011,59.644,59.431,60.641,55.6,67.5Z"/>
    <path d="M85.694,56.135c-7.014-.117-18,.538-19.754,7.192A7.279,7.279,0,0,0,67,69.511c2.322,3.039,6.063,6.85,10.377,7.015A7.374,7.374,0,0,0,81.1,75.511a67.868,67.868,0,0,0,9.05-6.364C95.308,65.019,92.367,56.286,85.694,56.135Zm2.22,10.323a64.44,64.44,0,0,1-8.582,6.035c-3.394,2.071-7.72-2.726-9.466-5a3.869,3.869,0,0,1,1.68-5.76c3.688-1.6,8.407-2.3,14.021-2.1a3.869,3.869,0,0,1,2.347,6.825Z"/>
    <path d="M66.5,80.622a4.9,4.9,0,0,0-8.443,0l-3.9,6.747a4.9,4.9,0,0,0,4.218,7.314h7.8A4.874,4.874,0,0,0,70.4,87.368Zm.869,9.873a1.349,1.349,0,0,1-1.19.688h-7.8A1.375,1.375,0,0,1,57.19,89.12l3.9-6.75a1.374,1.374,0,0,1,2.38,0l3.9,6.749A1.351,1.351,0,0,1,67.371,90.5Z"/>
  </g>
</svg>
