<?xml version="1.0" encoding="utf-8"?>
<!-- Generator: Adobe Illustrator 16.0.0, SVG Export Plug-In . SVG Version: 6.00 Build 0)  -->
<!DOCTYPE svg PUBLIC "-//W3C//DTD SVG 1.1//EN" "http://www.w3.org/Graphics/SVG/1.1/DTD/svg11.dtd">
<svg enable-background="new 0 0 128 128" height="128px" id="Layer_1" version="1.1" viewBox="0 0 128 128"
     width="128px" x="0px" xml:space="preserve" xmlns="http://www.w3.org/2000/svg" y="0px">
<g>
	<g>
		<polygon fill="#282D33" points="113.693,115.412 95.359,96.662 43.76,96.662 43.76,92.662 97.043,92.662 109.693,105.6
			109.693,92.662 124,92.662 124,36.953 118.577,36.953 118.577,32.953 128,32.953 128,96.662 113.693,96.662 		"/>
	</g>
	<g>
		<path d="M17.274,106.6V83.125H0V12.588h113.046v70.537H42.652L17.274,106.6z M4,79.125h17.274v18.326
			l19.812-18.326h67.96V16.588H4V79.125z" fill="#282D33"/>
	</g>
	<g>
		<path d="M103.693,73.566H9.35V22.149h94.343V73.566z M13.35,69.566h86.343V26.149H13.35V69.566z" fill="#282D33"/>
	</g>
	<g>
		<g>
			<path d="M34.808,54.548c-3.819,0-6.926-3.156-6.926-7.035c0-3.879,3.107-7.035,6.926-7.035
				c3.819,0,6.926,3.156,6.926,7.035C41.734,51.393,38.627,54.548,34.808,54.548z M34.808,44.479c-1.614,0-2.926,1.361-2.926,3.035
				c0,1.674,1.313,3.035,2.926,3.035c1.613,0,2.926-1.361,2.926-3.035C37.734,45.84,36.421,44.479,34.808,44.479z" fill="#282D33"/>
		</g>
		<g>
			<path d="M56.522,54.548c-3.818,0-6.925-3.156-6.925-7.035c0-3.879,3.106-7.035,6.925-7.035
				s6.925,3.156,6.925,7.035C63.447,51.393,60.34,54.548,56.522,54.548z M56.522,44.479c-1.613,0-2.925,1.361-2.925,3.035
				c0,1.674,1.312,3.035,2.925,3.035s2.925-1.361,2.925-3.035C59.447,45.84,58.135,44.479,56.522,44.479z" fill="#282D33"/>
		</g>
		<g>
			<path d="M78.236,54.548c-3.817,0-6.924-3.156-6.924-7.035c0-3.879,3.106-7.035,6.924-7.035
				c3.819,0,6.926,3.156,6.926,7.035C85.162,51.393,82.056,54.548,78.236,54.548z M78.236,44.479c-1.612,0-2.924,1.361-2.924,3.035
				c0,1.674,1.312,3.035,2.924,3.035c1.613,0,2.926-1.361,2.926-3.035C81.162,45.84,79.85,44.479,78.236,44.479z" fill="#282D33"/>
		</g>
	</g>
</g>
</svg>
