<?xml version="1.0" encoding="utf-8"?>
<!-- Generator: Adobe Illustrator 16.0.0, SVG Export Plug-In . SVG Version: 6.00 Build 0)  -->
<!DOCTYPE svg PUBLIC "-//W3C//DTD SVG 1.1//EN" "http://www.w3.org/Graphics/SVG/1.1/DTD/svg11.dtd">
<svg enable-background="new 0 0 128 128" height="128px" id="Layer_1" version="1.1" viewBox="0 0 128 128"
     width="128px" x="0px" xml:space="preserve" xmlns="http://www.w3.org/2000/svg" y="0px">
<g>
	<g>
		<path d="M128,23.104H0V4.486h128V23.104z M4,19.104h120V8.486H4V19.104z" fill="#282D33"/>
	</g>
	<g>
		<g>
			<rect fill="#282D33" height="1.968" width="4" x="124" y="20.043"/>
		</g>
		<g>
			<path d="M128,117.091h-4v-3.964h4V117.091z M128,109.162h-4v-3.964h4V109.162z M128,101.233h-4V97.27h4V101.233z
				 M128,93.306h-4v-3.965h4V93.306z M128,85.377h-4v-3.965h4V85.377z M128,77.448h-4v-3.965h4V77.448z M128,69.52h-4v-3.965h4
				V69.52z M128,61.591h-4v-3.964h4V61.591z M128,53.662h-4v-3.964h4V53.662z M128,45.733h-4V41.77h4V45.733z M128,37.806h-4v-3.965
				h4V37.806z M128,29.877h-4v-3.965h4V29.877z" fill="#282D33"/>
		</g>
		<g>
			<polygon fill="#282D33" points="128,123.514 124.032,123.514 124.032,119.514 128,119.546 			"/>
		</g>
		<g>
			<path d="M120.158,123.514h-3.936v-4h3.936V123.514z M112.287,123.514h-3.936v-4h3.936V123.514z M104.416,123.514
				h-3.936v-4h3.936V123.514z M96.545,123.514h-3.936v-4h3.936V123.514z M88.674,123.514h-3.936v-4h3.936V123.514z M80.803,123.514
				h-3.935v-4h3.935V123.514z M72.933,123.514h-3.936v-4h3.936V123.514z M65.062,123.514h-3.936v-4h3.936V123.514z M57.19,123.514
				h-3.936v-4h3.936V123.514z M49.319,123.514h-3.936v-4h3.936V123.514z M41.448,123.514h-3.936v-4h3.936V123.514z M33.577,123.514
				h-3.936v-4h3.936V123.514z M25.706,123.514h-3.936v-4h3.936V123.514z M17.835,123.514H13.9v-4h3.936V123.514z M9.964,123.514
				H6.029v-4h3.936V123.514z" fill="#282D33"/>
		</g>
		<g>
			<polygon fill="#282D33" points="3.968,123.514 0,123.514 0,119.546 4,119.546 			"/>
		</g>
		<g>
			<path d="M4,115.645H0v-3.964h4V115.645z M4,107.716H0v-3.964h4V107.716z M4,99.787H0v-3.964h4V99.787z M4,91.858
				H0v-3.964h4V91.858z M4,83.93H0v-3.964h4V83.93z M4,76.002H0v-3.965h4V76.002z M4,68.073H0v-3.965h4V68.073z M4,60.145H0v-3.964
				h4V60.145z M4,52.216H0v-3.964h4V52.216z M4,44.287H0v-3.964h4V44.287z M4,36.358H0v-3.964h4V36.358z M4,28.431H0v-3.965h4
				V28.431z" fill="#282D33"/>
		</g>
		<g>
			<rect fill="#282D33" height="1.968" width="4" y="20.043"/>
		</g>
	</g>
	<g>
		<rect fill="#282D33" height="4" width="4.706" x="7.665" y="11.689"/>
	</g>
	<g>
		<rect fill="#282D33" height="4" width="4.708" x="15.813" y="11.689"/>
	</g>
	<g>
		<rect fill="#282D33" height="4" width="4.708" x="23.959" y="11.689"/>
	</g>
	<g>
		<g>
			<g>
				<polygon fill="#282D33" points="60.584,113.529 48.578,113.529 59.333,75.783 63.179,76.879 53.876,109.529 58.175,109.529
					76.289,75.299 79.824,77.17 				"/>
			</g>
			<g>
				<polygon fill="#282D33" points="76.162,65.898 58.175,31.904 53.878,31.904 63.108,64.31 59.262,65.405 48.58,27.904
					60.584,27.904 79.697,64.027 				"/>
			</g>
		</g>
		<g>
			<path d="M33.279,89.866H22.39l5.34-18.741v-0.814l-5.34-18.741h10.889l6.316,11.935h57.015
				c3.389,0,9.611,2.739,9.611,7.214c0,4.474-6.221,7.212-9.607,7.212l-57.019,0.002L33.279,89.866z M27.688,85.866h3.181
				l6.316-11.935l59.424-0.002c2.257,0,5.611-1.921,5.611-3.212c0-1.292-3.356-3.214-5.611-3.214H37.186L30.87,55.569h-3.181
				l4.042,14.183v1.932L27.688,85.866z" fill="#282D33"/>
		</g>
		<g>
			<rect fill="#282D33" height="4" width="11.986" x="23.78" y="68.718"/>
		</g>
		<g>
			<g>
				<g>
					<rect fill="#282D33" height="4" width="13.823" x="38.183" y="48.623"/>
				</g>
				<g>
					<rect fill="#282D33" height="4" width="6.892" x="42.668" y="41.143"/>
				</g>
			</g>
			<g>
				<g>
					<rect fill="#282D33" height="4" width="13.823" x="38.183" y="88.813"/>
				</g>
				<g>
					<rect fill="#282D33" height="4" width="6.892" x="42.668" y="96.293"/>
				</g>
			</g>
		</g>
	</g>
</g>
</svg>
