<?xml version="1.0" encoding="utf-8"?>
<!-- Generator: Adobe Illustrator 16.0.0, SVG Export Plug-In . SVG Version: 6.00 Build 0)  -->
<!DOCTYPE svg PUBLIC "-//W3C//DTD SVG 1.1//EN" "http://www.w3.org/Graphics/SVG/1.1/DTD/svg11.dtd">
<svg version="1.1" id="Layer_1" xmlns="http://www.w3.org/2000/svg" x="0px" y="0px"
     width="128px" height="128px" viewBox="0 0 128 128" enable-background="new 0 0 128 128" xml:space="preserve">
<g>
	<g>
		<path fill="#282D33" d="M65.823,127.936H0.68V62.059h24.78c0.464-0.087,0.804-0.495,0.804-0.978c0-0.408-0.246-0.668-0.394-0.787
			c-2.945-2.313-4.646-5.811-4.646-9.579c0-6.696,5.395-12.145,12.025-12.145c6.633,0,12.028,5.448,12.028,12.145
			c0,3.772-1.704,7.271-4.676,9.597c-0.115,0.095-0.363,0.358-0.363,0.768c0,0.483,0.339,0.891,0.801,0.978h24.784v24.577
			c0.345,0.572,0.801,1.134,1.072,1.305c0.331-0.044,0.544-0.271,0.626-0.375c2.282-2.987,5.754-4.713,9.51-4.713
			c6.627,0,12.019,5.448,12.019,12.145c0,6.695-5.392,12.144-12.019,12.144c-3.756,0-7.229-1.729-9.526-4.742
			c-0.082-0.103-0.292-0.309-0.61-0.349c-0.27,0.169-0.726,0.726-1.071,1.298V127.936z M4.68,123.936h57.144v-21.573l0.21-0.421
			c0.455-0.915,2.142-3.898,4.752-3.898c1.507,0,2.92,0.692,3.877,1.9c1.559,2.043,3.871,3.197,6.369,3.197
			c4.422,0,8.019-3.653,8.019-8.144c0-4.491-3.597-8.145-8.019-8.145c-2.499,0-4.813,1.152-6.348,3.161
			c-0.97,1.236-2.385,1.934-3.898,1.934c-2.611,0-4.299-2.992-4.753-3.909l-0.209-0.42v-21.56l-21.135-0.011
			c-2.537-0.274-4.45-2.409-4.45-4.967c0-1.506,0.681-2.924,1.866-3.892c2.028-1.588,3.173-3.938,3.173-6.473
			c0-4.491-3.602-8.145-8.028-8.145c-4.425,0-8.025,3.654-8.025,8.145c0,2.532,1.145,4.883,3.139,6.45
			c1.216,0.981,1.901,2.402,1.901,3.916c0,2.558-1.914,4.692-4.452,4.967l-0.215,0.011H4.68V123.936z"/>
	</g>
	<g>
		<path fill="#282D33" d="M26.832,65.88H0.68V0h65.144v25.067c0.087,0.475,0.479,0.823,0.941,0.823c0.384,0,0.631-0.241,0.745-0.384
			c2.28-2.985,5.75-4.712,9.497-4.712c3.216,0,6.238,1.266,8.512,3.564c2.267,2.293,3.515,5.339,3.514,8.578
			c0,6.698-5.396,12.148-12.027,12.148c-3.744,0-7.214-1.727-9.52-4.738c-0.073-0.093-0.327-0.361-0.723-0.361
			c-0.463,0-0.854,0.349-0.942,0.823v25.069H39.663l-0.379-0.163c-0.158-0.068-0.307-0.144-0.455-0.226l-0.266-0.157
			c-0.04-0.024-0.08-0.05-0.119-0.076l-0.215-0.062l-0.305-0.341c-0.258-0.229-0.495-0.492-0.71-0.781l-0.089-0.118
			c-0.088-0.123-0.168-0.258-0.24-0.397c-0.09-0.151-0.168-0.309-0.232-0.467c-0.038-0.083-0.092-0.212-0.135-0.346
			c-0.059-0.181-0.104-0.329-0.139-0.48c-0.026-0.107-0.047-0.201-0.062-0.293c-0.055-0.301-0.081-0.582-0.081-0.857
			c0-1.507,0.682-2.925,1.869-3.891c2.025-1.586,3.17-3.937,3.17-6.471c0-4.491-3.602-8.146-8.028-8.146
			c-4.425,0-8.025,3.654-8.025,8.146c0,2.534,1.144,4.883,3.137,6.445c1.218,0.984,1.903,2.405,1.903,3.917
			c0,0.284-0.03,0.556-0.072,0.828l-0.097,0.441c-0.036,0.123-0.072,0.242-0.113,0.367c-0.062,0.171-0.105,0.285-0.155,0.394
			c-0.063,0.146-0.139,0.291-0.217,0.428c-0.049,0.091-0.103,0.185-0.161,0.275l-0.211,0.288c-0.161,0.226-0.395,0.484-0.656,0.716
			l-0.268,0.302l-0.208,0.071c-0.055,0.038-0.11,0.076-0.166,0.112l-0.438,0.245c-0.095,0.048-0.192,0.094-0.293,0.138L26.832,65.88
			z M4.68,61.88h21.189l0.32-0.403l0.043-0.142c0.007-0.03,0.014-0.059,0.021-0.088c-0.004,0.006,0.01-0.029,0.01-0.132
			c0-0.408-0.247-0.668-0.394-0.788c-2.944-2.307-4.646-5.803-4.646-9.575c0-6.697,5.395-12.146,12.025-12.146
			c6.633,0,12.028,5.449,12.028,12.146c0,3.772-1.704,7.27-4.675,9.598c-0.118,0.096-0.364,0.356-0.364,0.764
			c0,0.056,0.01,0.108,0.02,0.161l0.188,0.398l0.185,0.206h21.191l0.012-21.419c0.275-2.55,2.395-4.473,4.93-4.473
			c1.511,0,2.926,0.695,3.881,1.907c1.561,2.037,3.872,3.192,6.361,3.192c4.427,0,8.027-3.656,8.027-8.149
			c0.001-2.179-0.837-4.226-2.358-5.765c-1.516-1.533-3.528-2.377-5.667-2.377c-2.491,0-4.802,1.155-6.341,3.168
			c-0.978,1.235-2.392,1.928-3.901,1.928c-2.535,0-4.654-1.923-4.93-4.474l-0.012-0.214V4H4.68V61.88z"/>
	</g>
	<g>
		<g>
			<path fill="#282D33" d="M127.25,128l-65.197-0.066l0.038-25.423c0.274-2.553,2.396-4.482,4.933-4.489
				c1.536,0.01,2.949,0.711,3.894,1.924c1.554,2.035,3.868,3.193,6.359,3.193c4.436,0,8.042-3.656,8.047-8.147
				c0.002-4.497-3.6-8.159-8.026-8.162c-2.517,0-4.818,1.149-6.346,3.153c-0.977,1.239-2.395,1.935-3.911,1.935
				c-2.553-0.007-4.671-1.944-4.933-4.507l-0.01-0.205l0.028-25.216l25.707,0.035l0.27,0.077c2.132,0.612,3.615,2.592,3.605,4.815
				c0.01,1.504-0.677,2.933-1.883,3.897c-2.02,1.572-3.166,3.922-3.166,6.464c-0.006,4.498,3.594,8.162,8.025,8.17
				c4.431,0,8.035-3.653,8.04-8.145c0.003-2.544-1.138-4.898-3.13-6.462c-1.222-0.989-1.903-2.414-1.897-3.927
				c0.003-2.252,1.457-4.182,3.617-4.798l0.271-0.077l25.735,0.029L127.25,128z M66.057,123.938l57.197,0.059l0.063-57.933
				l-21.095-0.023c-0.282,0.151-0.523,0.455-0.524,0.886c-0.002,0.41,0.244,0.67,0.392,0.789c2.941,2.308,4.641,5.812,4.636,9.593
				c-0.007,6.694-5.406,12.141-12.035,12.141c-6.648-0.012-12.04-5.473-12.03-12.173c0-3.781,1.709-7.281,4.688-9.601
				c0.123-0.099,0.364-0.352,0.361-0.754c0.002-0.389-0.204-0.728-0.52-0.897l-21.067-0.028L66.098,87.08
				c0.083,0.481,0.479,0.836,0.947,0.837c0.384,0,0.632-0.241,0.745-0.385c2.271-2.979,5.731-4.703,9.478-4.703
				c6.664,0.005,12.058,5.462,12.056,12.165c-0.007,6.696-5.408,12.144-12.039,12.145c-3.757,0-7.229-1.731-9.535-4.751
				c-0.099-0.126-0.341-0.364-0.733-0.366c-0.452,0.001-0.85,0.356-0.937,0.839L66.057,123.938z"/>
		</g>
	</g>
	<g>
		<g>
			<rect x="63.154" y="0.001" fill="#282D33" width="1.948" height="4"/>
		</g>
		<g>
			<path fill="#282D33" d="M120.869,4.001h-3.991v-4h3.991V4.001z M112.887,4.001h-3.991v-4h3.991V4.001z M104.904,4.001h-3.991v-4
				h3.991V4.001z M96.922,4.001h-3.99v-4h3.99V4.001z M88.94,4.001h-3.99v-4h3.99V4.001z M80.959,4.001h-3.991v-4h3.991V4.001z
				 M72.977,4.001h-3.991v-4h3.991V4.001z"/>
		</g>
		<g>
			<polygon fill="#282D33" points="125.318,4.001 123.372,4.001 123.372,3.947 123.318,3.947 123.318,2.001 123.372,2.001
				123.372,0.001 127.318,0.001 127.318,3.947 125.318,3.947 			"/>
		</g>
		<g>
			<path fill="#282D33" d="M127.318,60.431h-4v-4.042h4V60.431z M127.318,52.346h-4v-4.042h4V52.346z M127.318,44.262h-4V40.22h4
				V44.262z M127.318,36.177h-4v-4.042h4V36.177z M127.318,28.092h-4V24.05h4V28.092z M127.318,20.008h-4v-4.042h4V20.008z
				 M127.318,11.923h-4V7.881h4V11.923z"/>
		</g>
		<g>
			<rect x="123.318" y="62.967" fill="#282D33" width="4" height="1.948"/>
		</g>
	</g>
</g>
</svg>
