<svg height="128" viewBox="0 0 128 128" width="128" xmlns="http://www.w3.org/2000/svg">
  <g>
    <path d="M44.01,67.079H83.99a3.772,3.772,0,0,0,3.248-5.625L67.247,26.828a3.75,3.75,0,0,0-6.494,0L40.762,61.454A3.772,3.772,0,0,0,44.01,67.079ZM43.793,63.2,63.782,28.58a.251.251,0,0,1,.435,0L84.207,63.2a.25.25,0,0,1-.217.375H44.01a.25.25,0,0,1-.217-.375Z"/>
    <path d="M64,53.114a1.749,1.749,0,0,0,1.75-1.75V40.669a1.75,1.75,0,0,0-3.5,0v10.7A1.749,1.749,0,0,0,64,53.114Z"/>
    <path d="M120.81,53.68a9.729,9.729,0,0,0-4.706-8.327L106.39,37.72V25.48a6.759,6.759,0,0,0-6.75-6.75H82.225L68.451,7.912a6.765,6.765,0,0,0-8.831-.059L45.745,18.73H28.36a6.759,6.759,0,0,0-6.75,6.75V37.648l-10.5,8.226A9.818,9.818,0,0,0,7.19,53.68v58.33a9.8,9.8,0,0,0,9.75,9.75h94.12a9.759,9.759,0,0,0,9.75-9.75ZM82.859,82.848c7.2-6.91,26.7-25.622,33.622-32.269a6.2,6.2,0,0,1,.829,3.1v58.33a6.214,6.214,0,0,1-.82,3.1C111.656,110.469,88.181,87.959,82.859,82.848Zm31.119-34.719-7.588,7.283V42.17ZM61.852,10.549a3.305,3.305,0,0,1,4.367.057L76.56,18.73H51.417ZM25.11,25.48a3.254,3.254,0,0,1,3.25-3.25H99.64a3.254,3.254,0,0,1,3.25,3.25c0,7.739,0,25.4,0,33.291L80.331,80.423,68.675,69.24a6.714,6.714,0,0,0-9.347,0L47.669,80.423,25.11,58.771C25.112,50.846,25.109,33.251,25.11,25.48Zm-13.6,89.632a6.214,6.214,0,0,1-.82-3.1V53.68a6.25,6.25,0,0,1,.829-3.1c6.832,6.559,26.512,25.446,33.622,32.269C39.815,87.96,16.343,110.474,11.51,115.112Zm10.1-59.7L13.971,48.08l7.639-5.986Zm89.45,62.848H16.94a6.217,6.217,0,0,1-2.909-.716C26.934,105.168,48.892,84.1,61.755,71.76a3.226,3.226,0,0,1,4.493,0L80.33,85.275l25.225,24.2,8.414,8.072A6.217,6.217,0,0,1,111.06,118.26Z"/>
  </g>
</svg>
