<?xml version="1.0" encoding="utf-8"?>
<!-- Generator: Adobe Illustrator 16.0.0, SVG Export Plug-In . SVG Version: 6.00 Build 0)  -->
<!DOCTYPE svg PUBLIC "-//W3C//DTD SVG 1.1//EN" "http://www.w3.org/Graphics/SVG/1.1/DTD/svg11.dtd">
<svg enable-background="new 0 0 128 128" height="128px" id="Layer_1" version="1.1" viewBox="0 0 128 128"
     width="128px" x="0px" xml:space="preserve" xmlns="http://www.w3.org/2000/svg" y="0px">
<g>
	<g>
		<path d="M29.408,89.67l-12.004-6.859l1.646-5.039c-1.057-0.943-2.063-1.939-3.012-2.979l-5.356,1.712L2.937,63.227
			l4.297-3.837c-0.371-1.205-0.686-2.429-0.939-3.661l-5.987-1.269l0.001-15.347l6.325-1.339c0.255-1.03,0.548-2.045,0.878-3.036
			l-5.059-4.524l7.742-13.278l6.879,2.198c0.577-0.586,1.183-1.164,1.812-1.731l-2.326-7.126l13.396-7.656l5.239,5.746
			c0.647-0.186,1.298-0.354,1.949-0.506L38.845,0H54.3L56,7.859c0.569,0.132,1.138,0.277,1.702,0.435l5.619-6.159l11.98,6.85
			l-1.986,3.473l-9.198-5.26l-5.16,5.656l-1.215-0.378c-1.255-0.391-2.538-0.718-3.813-0.971l-1.288-0.256L51.072,4h-9.001
			l-1.568,7.248l-1.287,0.256c-1.348,0.268-2.706,0.62-4.038,1.047l-1.223,0.392l-4.797-5.259l-7.786,4.45l2.143,6.561l-1.025,0.869
			c-1.217,1.032-2.349,2.113-3.363,3.213l-0.864,0.937l-6.229-1.99l-4.481,7.686l4.642,4.152l-0.478,1.28
			c-0.602,1.608-1.094,3.305-1.464,5.042l-0.271,1.271l-5.674,1.202l-0.001,8.863l5.447,1.154l0.229,1.339
			c0.325,1.909,0.813,3.809,1.446,5.647l0.435,1.258l-3.826,3.417l4.482,7.685l4.813-1.538l0.863,1.013
			c1.343,1.576,2.84,3.056,4.449,4.399l1.04,0.868l-1.468,4.495l9.175,5.242L29.408,89.67z M35.051,67.438
			c-7.691-4.297-12.47-12.396-12.47-21.137c0-13.372,10.981-24.251,24.479-24.251c9.616,0,18.38,5.613,22.327,14.3l-3.643,1.654
			C62.446,30.742,55.111,26.05,47.061,26.05c-11.292,0-20.479,9.084-20.479,20.251c0,7.292,3.993,14.054,10.421,17.645
			L35.051,67.438z" fill="#282D33"/>
	</g>
	<g>
		<g>
			<path d="M82.419,128c-24.964,0-45.273-20.115-45.273-44.84c0-24.723,20.31-44.836,45.273-44.836
				c24.965,0,45.274,20.113,45.274,44.836C127.693,107.885,107.384,128,82.419,128z M82.419,42.324
				c-22.758,0-41.273,18.319-41.273,40.836c0,22.52,18.516,40.84,41.273,40.84c22.759,0,41.274-18.32,41.274-40.84
				C123.693,60.643,105.178,42.324,82.419,42.324z" fill="#282D33"/>
		</g>
		<g>
			<g>
				<path d="M89.243,34.727H75.588c-1.04,0-2.016-0.404-2.748-1.139c-0.727-0.729-1.125-1.695-1.122-2.722
					l-0.003-8.781c0.006-2.134,1.743-3.865,3.873-3.865l13.656,0.008c1.046,0,2.026,0.406,2.761,1.143
					c0.726,0.729,1.122,1.696,1.117,2.723l0.005,8.777C93.117,33.002,91.375,34.727,89.243,34.727z M75.715,22.22l0.003,8.544
					l13.409-0.036l-0.005-8.535L75.715,22.22z" fill="#282D33"/>
			</g>
		</g>
		<g>
			<g>
				<g>
					<g>
						<path d="M47.368,49.215l-3.104-4.526c-0.479-0.692-0.657-1.535-0.499-2.368
							c0.159-0.835,0.638-1.557,1.347-2.031l7.028-4.726c1.438-0.965,3.404-0.591,4.386,0.832l3.105,4.525l-3.298,2.264
							l-2.639-3.845l-5.646,3.796l2.618,3.817L47.368,49.215z" fill="#282D33"/>
					</g>
				</g>
			</g>
		</g>
		<g>
			<g>
				<g>
					<g>
						<path d="M117.474,49.215l-3.299-2.262l2.616-3.816l-5.644-3.794l-2.642,3.845l-3.297-2.266l3.106-4.521
							c0.975-1.426,2.942-1.805,4.383-0.835l7.035,4.729c0.703,0.47,1.181,1.189,1.34,2.021c0.16,0.832-0.018,1.676-0.499,2.377
							L117.474,49.215z" fill="#282D33"/>
					</g>
				</g>
			</g>
		</g>
		<g>
			<path d="M102.986,82.966c-0.104-11.113-9.33-20.155-20.567-20.155l-0.115,0.007
				c-0.108,0.007-0.215,0.014-0.323,0.016l-0.074-3.999l0.111-0.007c0.133-0.01,0.266-0.018,0.401-0.018
				c13.422,0,24.443,10.819,24.567,24.118L102.986,82.966z" fill="#282D33"/>
		</g>
		<g>
			<g>
				<rect fill="#282D33" height="5.947" width="4" x="80.077" y="47.798"/>
			</g>
			<g>

					<rect fill="#282D33" height="4" transform="matrix(0.5037 0.8639 -0.8639 0.5037 80.3908 -29.3775)" width="5.959" x="62.785" y="53.281"/>
			</g>
			<g>

					<rect fill="#282D33" height="3.999" transform="matrix(0.8678 0.4969 -0.4969 0.8678 40.5516 -17.8977)" width="5.996" x="50.914" y="65.262"/>
			</g>
			<g>
				<rect fill="#282D33" height="4" width="6.009" x="46.695" y="81.5"/>
			</g>
			<g>

					<rect fill="#282D33" height="5.994" transform="matrix(0.4961 0.8682 -0.8682 0.4961 113.856 3.1054)" width="4" x="52.253" y="96.653"/>
			</g>
			<g>

					<rect fill="#282D33" height="5.959" transform="matrix(0.8634 0.5045 -0.5045 0.8634 65.2516 -18.2614)" width="3.999" x="64.353" y="108.402"/>
			</g>
			<g>
				<rect fill="#282D33" height="5.947" width="4" x="80.76" y="112.578"/>
			</g>
			<g>

					<rect fill="#282D33" height="4" transform="matrix(0.5026 0.8645 -0.8645 0.5026 145.2793 -30.4188)" width="5.963" x="96.093" y="109.043"/>
			</g>
			<g>

					<rect fill="#282D33" height="3.999" transform="matrix(0.8679 0.4968 -0.4968 0.8679 63.8676 -42.0162)" width="5.992" x="107.929" y="97.065"/>
			</g>
			<g>
				<rect fill="#282D33" height="4" width="6.009" x="112.134" y="80.826"/>
			</g>
			<g>

					<rect fill="#282D33" height="5.992" transform="matrix(0.4956 0.8686 -0.8686 0.4956 113.6953 -62.4156)" width="4" x="108.583" y="63.68"/>
			</g>
			<g>

					<rect fill="#282D33" height="5.961" transform="matrix(0.8638 0.5039 -0.5039 0.8638 41.1031 -42.1411)" width="4" x="96.484" y="51.962"/>
			</g>
		</g>
		<g>

				<rect fill="#282D33" height="13.576" transform="matrix(0.7103 0.7039 -0.7039 0.7103 79.0088 -41.2375)" width="4.001" x="87.6" y="68.574"/>
		</g>
		<g>
			<g>
				<path d="M82.423,89.229L82.423,89.229h-0.006c-3.387,0-6.144-2.738-6.144-6.104
					c-0.006-3.358,2.747-6.1,6.138-6.108c3.392,0.009,6.147,2.748,6.153,6.106C88.562,86.492,85.807,89.229,82.423,89.229z
					 M82.411,81.016c-1.176,0.003-2.14,0.947-2.138,2.104c0,1.164,0.963,2.108,2.146,2.108h0.004c1.18,0,2.141-0.944,2.142-2.104
					C84.563,81.967,83.597,81.019,82.411,81.016z" fill="#282D33"/>
			</g>
		</g>
		<g>
			<rect fill="#282D33" height="6.468" width="4" x="80.419" y="32.488"/>
		</g>
	</g>
</g>
</svg>
