<svg height="128" viewBox="0 0 128 128" width="128" xmlns="http://www.w3.org/2000/svg">
  <path d="M120.419,97.982H117.06V37.2a12.415,12.415,0,0,0-12.4-12.4h-22.5L80.2,17.669a6.515,6.515,0,0,0-7.6-4.652l-8.6,1.8-8.6-1.8A6.506,6.506,0,0,0,47.8,17.666L45.839,24.8H23.34a12.414,12.414,0,0,0-12.4,12.4V97.982H7.581a1.75,1.75,0,0,0-1.75,1.75v6.636a8.76,8.76,0,0,0,8.75,8.75h98.838a8.76,8.76,0,0,0,8.75-8.75V99.732A1.75,1.75,0,0,0,120.419,97.982ZM51.179,18.59a3,3,0,0,1,3.5-2.147l8.96,1.87a1.718,1.718,0,0,0,.714,0l8.958-1.87a3.008,3.008,0,0,1,3.507,2.151c-.114.042,5.084,17.681,4.721,17.567a54.182,54.182,0,0,1-35.193-.029Zm-.413,22.443a57.476,57.476,0,0,0,31.81-1.526l1.446,5.252a54.391,54.391,0,0,1-37.451.94c-.869-.3-1.737-.592-2.59-.938l.045-.165.828-3.013.57-2.074C47.257,40.121,49.056,40.634,50.766,41.033ZM87.874,45.77a2.464,2.464,0,0,0-.057-.415l-1.382-5.023c10.685,2.094,14.645,5.149,14.645,6.808.145,2.581-8.545,5.693-13.308,6.532-16.676,3.251-36.509,3.3-52.87-1.4C29.01,50.4,26.92,48.334,26.92,47.14c0-1.66,3.958-4.717,14.642-6.809l-.088.323-1.29,4.7a1.8,1.8,0,0,0,1.024,2.1,58.47,58.47,0,0,0,43.417.838C85.848,47.745,87.922,47.5,87.874,45.77Zm2.032,14.851-.25-3.66q0-.061-.012-.12c1.01-.24,2.016-.5,3.008-.774a6.7,6.7,0,0,1,.2,3.016,5.834,5.834,0,0,1-3.222,4.577A9.861,9.861,0,0,0,89.906,60.621ZM47.4,70.931c3.94.217,8.334.629,11.947-1.194a7.083,7.083,0,0,0,3.285-4.6,10.253,10.253,0,0,1,3.389.008,6.123,6.123,0,0,0,.873,2.231,7.109,7.109,0,0,0,4.867,3.282,35.519,35.519,0,0,0,9.015.322,31.086,31.086,0,0,1-4.74,6.43L69.8,78.623a8.113,8.113,0,0,0-5.445,3.854L64,83.092l-.36-.617A8.116,8.116,0,0,0,58.2,78.622l-6.221-1.214a30.763,30.763,0,0,1-4.784-6.5Q47.3,70.921,47.4,70.931Zm-2.558-4.582a6.245,6.245,0,0,1-2.616-5.49L42.36,58.9c.937.047,1.888.1,2.787.176,8.121.663,11.7,2.277,13.294,3.522,1.959,1.5-.06,4.286-2.16,4.61a31.161,31.161,0,0,1-8.526.243A6.085,6.085,0,0,1,44.842,66.349Zm15.1-6.987c2.919.078,5.876.07,8.791-.019A6.271,6.271,0,0,0,66.5,61.665a13.927,13.927,0,0,0-4.361,0A6.144,6.144,0,0,0,59.938,59.362Zm-2.414,22.7a4.61,4.61,0,0,1,3.095,2.186l1.87,3.2a1.75,1.75,0,0,0,3.022,0l1.869-3.2a4.607,4.607,0,0,1,3.095-2.187l6.77-1.32c.007,0,6.111-1.193,6.119-1.2l-2.539,6.622a46.76,46.76,0,0,1-33.651,0l-2.539-6.622ZM76.069,67.588a29.471,29.471,0,0,1-3.751-.389c-1.933-.235-4.128-3.1-2.109-4.612,3.278-2.131,5.636-2.637,12.608-3.454,1.093-.1,2.268-.18,3.463-.239l.134,1.96a6.261,6.261,0,0,1-3.278,5.912C81,67.841,78.342,67.586,76.069,67.588ZM38.745,61.965a10.344,10.344,0,0,0,.322,1.906c-1.9-.355-3.555-2.274-3.947-4.788a6.68,6.68,0,0,1,.205-3.023c.65.177,1.3.352,1.957.521.563.136,1.131.269,1.7.4C38.932,57.976,38.637,61.02,38.745,61.965ZM14.44,37.2a8.91,8.91,0,0,1,8.9-8.9H44.873s-.18.64-.171.634l-2.1,7.647C34.957,37.924,23.42,40.973,23.42,47.14c0,3.1,2.895,5.728,8.588,7.834a10.184,10.184,0,0,0-.347,4.646c.7,4.516,4.2,7.808,8.055,7.808a5.972,5.972,0,0,0,1.128-.1A9.373,9.373,0,0,0,42.4,68.88a32.517,32.517,0,0,0,4.12,7.465L42.205,75.5a1.762,1.762,0,0,0-1.969,2.344l3.95,10.3a1.747,1.747,0,0,0,1,1,50.261,50.261,0,0,0,37.631,0,1.744,1.744,0,0,0,1-1l3.951-10.3A1.763,1.763,0,0,0,85.8,75.5l-4.309.841A32.742,32.742,0,0,0,85.353,69.5a9.53,9.53,0,0,0,2.406-2.113c.166.012.333.038.5.038,3.852,0,7.349-3.3,8.053-7.811a10.193,10.193,0,0,0-.339-4.633c5.709-2.108,8.609-4.741,8.609-7.845,0-6.163-11.533-9.213-19.176-10.558-.129-.535-2.211-7.983-2.278-8.282H104.66a8.91,8.91,0,0,1,8.9,8.9V97.98H14.44Zm64.141,64.373a5.26,5.26,0,0,1-4.95,3.5H54.369a5.258,5.258,0,0,1-4.95-3.5Zm40.088,4.8a5.256,5.256,0,0,1-5.25,5.25H14.581a5.255,5.255,0,0,1-5.25-5.25v-4.886H45.782a8.761,8.761,0,0,0,8.587,7.091H73.631a8.761,8.761,0,0,0,8.587-7.091h36.451Z"/>
</svg>
