<svg height="128" viewBox="0 0 128 128" width="128" xmlns="http://www.w3.org/2000/svg">
  <g>
    <path d="M106.09,21.61H98.232C87.414,16.862,72.647,11.7,66.749,9.685A87.534,87.534,0,0,0,37.25,4.63H11.91a1.75,1.75,0,0,0-1.75,1.75V23.37a1.75,1.75,0,0,0,1.75,1.75h1.629a11.714,11.714,0,0,0-3.379,8.24V91.57a11.763,11.763,0,0,0,11.75,11.75H53.542c-.772,5.621-4.094,11.347-9.917,17.05a1.762,1.762,0,0,0,1.225,3h38.3a1.762,1.762,0,0,0,1.225-3c-5.822-5.711-9.145-11.438-9.917-17.051H106.09A11.921,11.921,0,0,0,117.84,90.2V33.36A11.764,11.764,0,0,0,106.09,21.61Zm-1.785,6.812a2.958,2.958,0,0,1,1.607,2.917c-.051.391-.15.552-.854.572a3.663,3.663,0,0,1-2.461-.943c-1.365-1.182-7.84-6.06-11.636-8.621A137.747,137.747,0,0,1,104.305,28.422ZM13.66,8.13H37.25a84.321,84.321,0,0,1,26.094,4.1,271.123,271.123,0,0,1,24.23,12.636c7.4,4.417,11.7,7.5,19.828,15.033a2.344,2.344,0,0,1,.8,1.92c.022,1.492-2.708.9-3.706.235l-31.17-18.79a1.752,1.752,0,0,0-2.057,2.815c2.7,2.349,9.874,9.774,12.977,16.414H78.87c-3.7-6.331-10.263-13.338-17.057-13.171-7.65.66-5.951,10.416-3.614,15.5,2.177,5.363,3.679,6.438,2.864,8.073-.637,1.321-2.713.282-3.579-.836A139.9,139.9,0,0,0,48.162,36.8a72.178,72.178,0,0,0-5.5-6.621A27.835,27.835,0,0,0,22.45,21.62H13.66ZM56.88,56.112V67.166a10.77,10.77,0,0,0-2.21-1.429,6.433,6.433,0,0,0,1.469-4.1c-.3-8.552-12.62-8.549-12.921,0a6.429,6.429,0,0,0,1.467,4.094,10.861,10.861,0,0,0-2.205,1.426V52.74H53.8A8.072,8.072,0,0,0,56.88,56.112Zm-7.2,8.49a2.961,2.961,0,0,1,0-5.922A2.961,2.961,0,0,1,49.678,64.6Zm0,3.5c3.767,0,6.868,2.527,7.179,5.735H42.5C42.813,70.629,45.911,68.1,49.675,68.1Zm2.218-18.914c.2.124-11.189.02-11.163.052a1.75,1.75,0,0,0-1.75,1.75c0,5.095,0,24.5,0,24.6a1.75,1.75,0,0,0,1.75,1.75h17.9a1.75,1.75,0,0,0,1.75-1.75V57a4.381,4.381,0,0,0,3.847-2.615c1.495-3.221-.307-5.475-1.688-8.4,16.168,0,12.493.034,29.081,0a1.842,1.842,0,0,1,1.84,1.84V78.74a1.842,1.842,0,0,1-1.84,1.84H36.38a1.842,1.842,0,0,1-1.84-1.84V47.83a1.842,1.842,0,0,1,1.84-1.84H50.044C50.74,47.15,51.375,48.257,51.893,49.188Zm22.857-6.7h-13.7c-1.327-3.541-2.547-10.149,1.171-9.655C67.64,33.545,71.848,38.043,74.75,42.49ZM22.45,25.12c12.2-.069,19.287,7.992,25.4,17.37H36.38a5.346,5.346,0,0,0-5.34,5.34V78.74a5.345,5.345,0,0,0,5.34,5.34H91.62a5.346,5.346,0,0,0,5.34-5.34V47.83a5.347,5.347,0,0,0-5.34-5.34H88.051a41.935,41.935,0,0,0-5.916-9.83l20.563,12.4a7.876,7.876,0,0,0,5.322,1.081,4.257,4.257,0,0,0,3.661-3.969c.444-3.162-2.352-5.337-4.512-7.21a4.035,4.035,0,0,0,2.226-3.264c.289-2.371-.816-4.942-3.854-6.584h.549a8.259,8.259,0,0,1,8.25,8.25V88.45H13.66V33.36A8.251,8.251,0,0,1,22.45,25.12Zm56.633,94.75H48.92c4.783-5.457,7.519-11,8.159-16.55H70.921C71.561,108.859,74.3,114.407,79.083,119.87ZM106.09,99.82H21.91a8.261,8.261,0,0,1-8.241-7.87H114.331A8.261,8.261,0,0,1,106.09,99.82Z"/>
    <path d="M68.391,59.978H87.276a1.75,1.75,0,0,0,0-3.5H68.391A1.75,1.75,0,0,0,68.391,59.978Z"/>
    <path d="M68.391,68.657H87.276a1.75,1.75,0,0,0,0-3.5H68.391A1.75,1.75,0,0,0,68.391,68.657Z"/>
    <path d="M68.391,77.337h12.59a1.75,1.75,0,0,0,0-3.5H68.391A1.75,1.75,0,0,0,68.391,77.337Z"/>
  </g>
</svg>
