<?xml version="1.0" encoding="utf-8"?>
<!-- Generator: Adobe Illustrator 16.0.0, SVG Export Plug-In . SVG Version: 6.00 Build 0)  -->
<!DOCTYPE svg PUBLIC "-//W3C//DTD SVG 1.1//EN" "http://www.w3.org/Graphics/SVG/1.1/DTD/svg11.dtd">
<svg enable-background="new 0 0 128 128" height="128px" id="Layer_1" version="1.1" viewBox="0 0 128 128"
     width="128px" x="0px" xml:space="preserve" xmlns="http://www.w3.org/2000/svg" y="0px">
<g>
	<g>
		<g>
			<path d="M18.055,91.439h-4V31.086c0-2.896,2.342-5.253,5.222-5.253h87.892c2.88,0,5.224,2.356,5.224,5.253v4.067
				h-4v-4.067c0-0.691-0.549-1.253-1.224-1.253H19.277c-0.674,0-1.222,0.562-1.222,1.253V91.439z" fill="#282D33"/>
		</g>
		<g>
			<polygon fill="#282D33" points="87.498,84.695 22.201,84.695 22.201,34.483 105.532,34.483 105.532,38.337 103.532,38.337
				103.532,38.483 26.201,38.483 26.201,80.695 87.498,80.695 			"/>
		</g>
		<g>
			<path d="M117.102,102.166H9.344c-3.674,0-8.059-3.223-8.547-3.59L0,97.975v-8.834h124.445v4H4v2.797
				c1.552,1.025,3.86,2.229,5.344,2.229h107.758V102.166z" fill="#282D33"/>
		</g>
	</g>
	<g>
		<rect fill="#282D33" height="4" width="28.908" x="95.52" y="42.898"/>
	</g>
	<g>
		<g>
			<g>
				<polygon fill="#282D33" points="78.46,63.73 71.23,56.443 64.003,63.73 61.163,60.913 71.23,50.764 81.3,60.913 				"/>
			</g>
		</g>
		<g>
			<path d="M87.498,77.967h-7.771c-5.912,0-10.723-4.844-10.723-10.797V56.35h4v10.82
				c0,3.748,3.016,6.797,6.723,6.797h7.771V77.967z" fill="#282D33"/>
		</g>
	</g>
	<g>
		<path d="M123.997,102.166H95.949c-2.208,0-4.004-1.805-4.004-4.021V60.383h4v37.761l28.052,0.021L124,38.495
			l-28.051-0.021l-0.004,8.936h-4v-8.915c0-2.217,1.796-4.021,4.004-4.021h28.048c2.207,0,4.003,1.804,4.003,4.021v59.65
			C128,100.361,126.204,102.166,123.997,102.166z" fill="#282D33"/>
	</g>
	<g>
		<rect fill="#282D33" height="4" width="31.008" x="94.471" y="89.07"/>
	</g>
	<g>
		<rect fill="#282D33" height="4" width="31.008" x="94.471" y="43.091"/>
	</g>
	<g>
		<g>
			<g>
				<polygon fill="#282D33" points="110.077,78.807 100.01,68.658 102.85,65.842 110.077,73.127 117.307,65.84 120.146,68.658
					"/>
			</g>
		</g>
		<g>
			<path d="M112.305,73.223h-4v-10.82c0-3.749-3.016-6.799-6.723-6.799c-4.736,0-9.932,0.098-9.983,0.099
				l-0.076-3.999c0.053-0.001,5.285-0.1,10.06-0.1c5.912,0,10.723,4.844,10.723,10.799V73.223z" fill="#282D33"/>
		</g>
	</g>
</g>
</svg>
