<?xml version="1.0" encoding="utf-8"?>
<!-- Generator: Adobe Illustrator 16.0.0, SVG Export Plug-In . SVG Version: 6.00 Build 0)  -->
<!DOCTYPE svg PUBLIC "-//W3C//DTD SVG 1.1//EN" "http://www.w3.org/Graphics/SVG/1.1/DTD/svg11.dtd">
<svg enable-background="new 0 0 128 128" height="128px" id="Layer_1" version="1.1" viewBox="0 0 128 128"
     width="128px" x="0px" xml:space="preserve" xmlns="http://www.w3.org/2000/svg" y="0px">
<g>
	<g>
		<g>
			<polygon fill="#282D33" points="119.213,106.281 13.622,106.281 13.622,74.18 17.622,74.18 17.622,102.281 115.213,102.281
				115.213,37.565 17.622,37.565 17.622,64.898 13.622,64.898 13.622,33.565 119.213,33.565 			"/>
		</g>
		<g>
			<polygon fill="#282D33" points="81.613,30.563 77.613,30.563 77.613,25.719 55.217,25.719 55.217,30.563 51.217,30.563
				51.217,21.719 81.613,21.719 			"/>
		</g>
	</g>
	<g>
		<g>
			<path d="M123.605,84.007H64.012c-2.362,0-4.294-1.884-4.391-4.235h-7.203V59.229h7.203
				c0.097-2.352,2.03-4.236,4.391-4.236h59.594c2.424,0,4.395,1.983,4.395,4.42v20.172C128,82.023,126.029,84.007,123.605,84.007z
				 M63.617,74.49v5.096c0,0.232,0.177,0.421,0.395,0.421h59.594c0.217,0,0.395-0.189,0.395-0.422V59.413
				c0-0.231-0.178-0.42-0.395-0.42H64.012c-0.218,0-0.395,0.189-0.395,0.422v5.109l-2.795-1.21c-0.13-0.057-0.271-0.085-0.417-0.085
				h-3.987v12.542h3.987c0.145,0,0.288-0.03,0.426-0.089L63.617,74.49z" fill="#282D33"/>
		</g>
		<g>
			<rect fill="#282D33" height="4" width="33.858" x="20.509" y="67.5"/>
		</g>
		<g>
			<path d="M14.898,77.198L0,73.868v-8.736l14.898-3.331l7.261,5.976v3.447L14.898,77.198z M4,70.663l9.865,2.205
				l4.093-3.368l-4.093-3.369L4,68.337V70.663z" fill="#282D33"/>
		</g>
		<g>
			<rect fill="#282D33" height="4" width="50.893" x="68.361" y="72.341"/>
		</g>
		<g>
			<rect fill="#282D33" height="4" width="50.893" x="68.361" y="62.658"/>
		</g>
		<g>
			<rect fill="#282D33" height="18.155" width="4" x="59.901" y="59.415"/>
		</g>
	</g>
</g>
</svg>
