<?xml version="1.0" encoding="utf-8"?>
<!-- Generator: Adobe Illustrator 16.0.0, SVG Export Plug-In . SVG Version: 6.00 Build 0)  -->
<!DOCTYPE svg PUBLIC "-//W3C//DTD SVG 1.1//EN" "http://www.w3.org/Graphics/SVG/1.1/DTD/svg11.dtd">
<svg enable-background="new 0 0 128 128" height="128px" id="Layer_1" version="1.1" viewBox="0 0 128 128"
     width="128px" x="0px" xml:space="preserve" xmlns="http://www.w3.org/2000/svg" y="0px">
<g>
	<g>
		<path d="M74.758,127.375l-20.167-0.002l-1.522-7.035c-2.297-0.417-4.547-0.969-6.717-1.647l-5.037,5.521
			l-17.471-9.996l2.246-6.882c-1.692-1.485-3.303-3.08-4.808-4.759l-7.327,2.341L3.859,87.598l5.875-5.257
			c-0.607-1.923-1.113-3.905-1.51-5.922L0,74.672V54.657l8.642-1.829c0.395-1.618,0.894-3.286,1.509-5.044L3.178,41.55
			l10.108-17.315l9.451,3.021c1.055-1.099,2.09-2.101,3.129-3.029l-3.197-9.779L40.146,4.46l7.183,7.866
			c1.22-0.362,2.405-0.672,3.58-0.936l2.331-10.766h20.167l2.332,10.764c1.102,0.248,2.189,0.524,3.254,0.829l7.691-8.429
			l17.473,9.989l-3.399,10.423c0.822,0.732,1.638,1.506,2.463,2.335l10.819-3.459l10.108,17.317l-7.796,6.968
			c0.435,1.232,0.825,2.483,1.168,3.739L128,53.326l-0.004,20.007l-9.373,1.989c-0.285,1.642-0.621,3.186-1.015,4.669l7.216,6.452
			l-10.11,17.321l-8.145-2.605c-1.209,1.439-2.521,2.846-3.917,4.2l2.676,8.191l-17.472,9.989l-5.161-5.651
			c-2.098,0.768-4.207,1.405-6.297,1.903L74.758,127.375z M57.819,123.373l13.712,0.002l1.5-6.94l1.267-0.269
			c2.718-0.577,5.486-1.415,8.228-2.491l1.28-0.502l4.846,5.305l11.862-6.782l-2.452-7.511l0.937-0.87
			c1.956-1.817,3.745-3.742,5.32-5.72l0.859-1.08l7.698,2.463l6.847-11.729l-6.65-5.947l0.356-1.212
			c0.61-2.079,1.089-4.284,1.463-6.739l0.209-1.368l8.896-1.889L124,56.566l-9.746-2.069l-0.301-1.215
			c-0.483-1.953-1.095-3.902-1.816-5.793l-0.49-1.287l7.398-6.612L112.2,27.865l-10.131,3.238l-0.863-0.902
			c-1.372-1.433-2.698-2.687-4.054-3.832l-1.027-0.868l3.218-9.867L87.478,8.851l-7.235,7.93l-1.215-0.378
			c-1.723-0.536-3.528-0.996-5.365-1.366l-1.283-0.258l-2.2-10.153H56.465l-2.2,10.161l-1.289,0.255
			c-1.839,0.364-3.691,0.847-5.664,1.475l-1.22,0.389l-6.743-7.383l-11.866,6.782l3.016,9.222l-1.029,0.869
			c-1.547,1.307-3.076,2.781-4.673,4.509l-0.864,0.935l-8.81-2.816L8.28,40.746l6.561,5.865l-0.476,1.279
			c-0.942,2.534-1.63,4.84-2.103,7.049l-0.271,1.27L4,57.899v13.533l7.689,1.634l0.23,1.335c0.468,2.717,1.146,5.377,2.016,7.907
			l0.431,1.256l-5.408,4.839l6.836,11.726l6.785-2.168l0.863,1.011c1.902,2.227,4.004,4.305,6.246,6.179l1.039,0.868l-2.07,6.342
			l11.863,6.789l4.629-5.075l1.239,0.422c2.754,0.937,5.668,1.65,8.659,2.121l1.354,0.213L57.819,123.373z" fill="#282D33"/>
	</g>
	<g>
		<g>
			<path d="M64,104.604c-22.607,0-40.999-18.215-40.999-40.604c0-22.389,18.392-40.604,40.999-40.604
				c22.605,0.001,40.997,18.216,40.997,40.604C104.997,86.389,86.605,104.604,64,104.604z M64,27.395
				c-20.401,0-36.999,16.42-36.999,36.604S43.599,100.604,64,100.604c20.4,0,36.997-16.421,36.997-36.604
				C100.997,43.816,84.4,27.396,64,27.395z" fill="#282D33"/>
		</g>
		<g>
			<path d="M64,104.604c-13.772,0-24.56-17.836-24.56-40.604S50.228,23.395,64,23.395
				c13.767,0.001,24.55,17.836,24.55,40.604C88.55,86.768,77.767,104.604,64,104.604z M64,27.395
				c-11.337,0-20.56,16.42-20.56,36.604s9.223,36.604,20.56,36.604c11.331,0,20.55-16.421,20.55-36.604
				C84.55,43.816,75.331,27.396,64,27.395z" fill="#282D33"/>
		</g>
		<g>
			<path d="M64,104.604c-1.104,0-2-0.896-2-2V25.395c0-1.104,0.896-2,2-2c22.605,0,40.997,18.215,40.997,40.604
				C104.997,86.389,86.605,104.604,64,104.604z M66,27.448v73.103c19.474-1.031,34.997-17.032,34.997-36.552
				S85.474,28.479,66,27.448z" fill="#282D33"/>
		</g>
		<g>
			<path d="M100.457,79.604h-72.92c-0.83,0-1.574-0.513-1.869-1.288c-1.77-4.648-2.667-9.465-2.667-14.316
				c0-4.855,0.899-9.674,2.671-14.322c0.295-0.775,1.039-1.288,1.869-1.288h72.916c0.829,0,1.573,0.512,1.868,1.287
				c1.773,4.646,2.672,9.465,2.672,14.323c0,4.859-0.898,9.677-2.672,14.318C102.029,79.092,101.286,79.604,100.457,79.604z
				 M28.942,75.604h70.112c1.29-3.784,1.943-7.682,1.943-11.604s-0.653-7.822-1.944-11.61H28.945
				c-1.291,3.79-1.944,7.689-1.944,11.61C27.001,67.917,27.653,71.814,28.942,75.604z" fill="#282D33"/>
		</g>
	</g>
</g>
</svg>
