<?xml version="1.0" encoding="UTF-8"?>
<svg version="1.1" id="Layer_1" xmlns="http://www.w3.org/2000/svg" x="0px" y="0px"
     width="128px" height="128px" viewBox="0 0 128 128" enable-background="new 0 0 128 128" xml:space="preserve">
<g id="surface1">
<path d="M 116.871094 14.222656 C 114.804688 14.21875 112.777344 14.792969 111.019531 15.886719 C 100.148438 6.652344 86.089844 2.738281 73.285156 5.328125 C 70.207031 0.292969 63.730469 -1.453125 58.539062 1.351562 C 53.347656 4.15625 51.253906 10.53125 53.777344 15.863281 C 48.777344 20.824219 45.089844 27.019531 43.285156 33.449219 C 39.539062 33.8125 36.234375 36.050781 34.507812 39.394531 C 29.738281 37.441406 25.105469 34.671875 20.617188 31.089844 C 22.976562 27.210938 22.734375 22.28125 20.003906 18.652344 C 17.273438 15.023438 12.605469 13.421875 8.222656 14.613281 C 3.839844 15.804688 0.625 19.542969 0.105469 24.054688 C -0.414062 28.566406 1.867188 32.941406 5.863281 35.097656 C 3.277344 49.035156 6.863281 63.105469 15.4375 72.90625 C 12.574219 78.074219 14.265625 84.578125 19.277344 87.703125 C 24.292969 90.824219 30.875 89.472656 34.253906 84.628906 C 37.890625 85.636719 41.648438 86.152344 45.425781 86.15625 C 48.648438 86.164062 51.859375 85.769531 54.984375 84.980469 C 57.0625 87.890625 60.421875 89.617188 64 89.613281 C 64.167969 89.613281 64.34375 89.613281 64.511719 89.601562 C 65.207031 94.71875 65.121094 100.121094 64.257812 105.804688 C 64.171875 105.804688 64.089844 105.796875 64.007812 105.796875 C 57.875 105.796875 52.90625 110.765625 52.90625 116.898438 C 52.90625 123.027344 57.875 127.996094 64.007812 127.996094 C 70.136719 127.996094 75.105469 123.027344 75.105469 116.898438 C 75.105469 116.789062 75.105469 116.679688 75.097656 116.574219 C 88.460938 111.839844 98.851562 101.699219 103.058594 89.375 C 108.964844 89.269531 113.75 84.554688 113.949219 78.652344 C 114.152344 72.75 109.691406 67.726562 103.808594 67.222656 C 102.027344 60.304688 98.480469 53.917969 93.746094 49.074219 C 95.300781 45.648438 95.011719 41.671875 92.980469 38.507812 C 97.058594 35.359375 101.777344 32.742188 107.128906 30.648438 C 109.730469 35.402344 115.382812 37.585938 120.503906 35.808594 C 125.625 34.035156 128.714844 28.820312 127.816406 23.476562 C 126.914062 18.132812 122.289062 14.222656 116.871094 14.222656 Z M 56.507812 19.460938 C 60.085938 22.589844 65.265625 23.085938 69.375 20.695312 L 69.414062 20.75 C 72.796875 25.125 75.648438 29.886719 77.90625 34.933594 C 77.90625 34.949219 77.921875 34.960938 77.925781 34.976562 C 75.898438 36.1875 74.3125 38.015625 73.394531 40.191406 C 70.261719 40.265625 67.207031 40.832031 64.078125 41.421875 C 61.269531 41.945312 58.425781 42.472656 55.320312 42.726562 C 55.125 41.503906 54.726562 40.324219 54.136719 39.234375 C 54.0625 39.105469 53.988281 38.96875 53.910156 38.832031 C 53.621094 38.339844 53.292969 37.875 52.925781 37.433594 L 52.917969 37.421875 C 52.429688 36.835938 51.882812 36.300781 51.285156 35.824219 C 50.246094 34.992188 49.066406 34.355469 47.800781 33.945312 C 49.429688 28.707031 52.484375 23.621094 56.507812 19.460938 Z M 69.402344 68.816406 C 67.75 67.894531 65.890625 67.410156 64 67.410156 C 62.96875 67.40625 61.9375 67.550781 60.945312 67.839844 C 58.949219 64.875 56.835938 62.40625 54.863281 60.101562 C 53.058594 57.992188 51.410156 56.066406 50.058594 54.027344 C 52.59375 52.511719 54.421875 50.050781 55.132812 47.1875 C 58.710938 46.9375 61.90625 46.339844 64.894531 45.777344 C 67.621094 45.265625 70.105469 44.804688 72.535156 44.65625 C 72.574219 47.605469 73.789062 50.421875 75.914062 52.46875 C 74.34375 55.6875 73.265625 58.757812 72.25 61.625 C 71.332031 64.253906 70.488281 66.636719 69.402344 68.816406 Z M 10.136719 36.378906 C 10.460938 36.40625 10.789062 36.421875 11.125 36.421875 C 13.441406 36.425781 15.699219 35.703125 17.582031 34.347656 C 22.621094 38.417969 27.859375 41.53125 33.292969 43.699219 C 33.269531 43.964844 33.261719 44.230469 33.261719 44.5 C 33.257812 46.941406 34.066406 49.320312 35.558594 51.257812 L 35.320312 51.574219 C 33.640625 53.859375 32.097656 56.242188 30.695312 58.707031 C 29.191406 61.359375 27.84375 64.097656 26.664062 66.90625 C 26.617188 67.027344 26.5625 67.148438 26.515625 67.265625 C 26.0625 67.207031 25.605469 67.175781 25.144531 67.179688 C 22.6875 67.175781 20.292969 67.992188 18.351562 69.5 C 11.058594 60.847656 8.003906 48.601562 10.136719 36.378906 Z M 36.035156 80.476562 C 36.179688 79.753906 36.25 79.015625 36.25 78.277344 C 36.253906 74.324219 34.152344 70.671875 30.734375 68.691406 C 30.742188 68.671875 30.753906 68.65625 30.761719 68.636719 C 31.875 65.984375 33.140625 63.402344 34.558594 60.902344 C 35.875 58.585938 37.328125 56.351562 38.902344 54.203125 C 38.910156 54.1875 38.921875 54.179688 38.929688 54.167969 C 40.585938 55.109375 42.460938 55.601562 44.367188 55.597656 C 44.828125 55.597656 45.289062 55.570312 45.742188 55.507812 C 47.382812 58.195312 49.40625 60.558594 51.488281 62.988281 C 53.335938 65.152344 55.21875 67.347656 56.992188 69.90625 C 56.03125 70.691406 55.210938 71.628906 54.558594 72.683594 C 54.472656 72.820312 54.390625 72.953125 54.316406 73.09375 C 54.03125 73.597656 53.785156 74.125 53.585938 74.671875 L 53.578125 74.691406 C 53.320312 75.398438 53.136719 76.125 53.027344 76.867188 C 52.941406 77.414062 52.902344 77.964844 52.902344 78.515625 C 52.898438 79.289062 52.980469 80.0625 53.144531 80.820312 C 47.734375 82.054688 41.722656 81.9375 36.035156 80.476562 Z M 74.070312 112.222656 C 72.953125 109.820312 71.011719 107.894531 68.601562 106.792969 C 69.605469 100.394531 69.6875 94.28125 68.855469 88.496094 C 71.296875 87.304688 73.222656 85.265625 74.269531 82.757812 C 74.394531 82.777344 74.535156 82.792969 74.667969 82.808594 C 77.328125 83.097656 80.003906 83.242188 82.679688 83.238281 L 83.191406 83.238281 C 86.222656 83.21875 89.246094 83.015625 92.25 82.632812 C 92.378906 82.617188 92.507812 82.605469 92.632812 82.585938 C 93.777344 85.285156 95.941406 87.429688 98.652344 88.542969 C 94.792969 99.195312 85.71875 107.964844 74.070312 112.226562 Z M 99.3125 67.753906 C 94.808594 69.265625 91.765625 73.480469 91.742188 78.230469 C 91.71875 78.230469 91.703125 78.230469 91.679688 78.238281 C 88.851562 78.597656 86 78.785156 83.148438 78.808594 C 80.472656 78.828125 77.800781 78.691406 75.140625 78.402344 C 75.125 78.402344 75.109375 78.402344 75.09375 78.402344 C 75.074219 76.019531 74.285156 73.707031 72.839844 71.8125 C 74.339844 69.054688 75.371094 66.121094 76.433594 63.113281 C 77.382812 60.425781 78.351562 57.695312 79.679688 54.882812 C 80.847656 55.328125 82.085938 55.570312 83.335938 55.597656 C 83.4375 55.605469 83.527344 55.605469 83.625 55.605469 C 83.671875 55.605469 83.714844 55.605469 83.753906 55.605469 C 84.347656 55.601562 84.941406 55.546875 85.527344 55.441406 C 86.273438 55.316406 87.007812 55.113281 87.714844 54.828125 C 88.941406 54.34375 90.074219 53.640625 91.054688 52.753906 C 94.835938 56.824219 97.738281 62.09375 99.3125 67.753906 Z M 105.816406 26.386719 C 99.773438 28.71875 94.457031 31.695312 89.867188 35.3125 C 88.027344 34.0625 85.855469 33.390625 83.632812 33.394531 C 83.128906 33.394531 82.628906 33.425781 82.132812 33.496094 C 82.078125 33.367188 82.023438 33.238281 81.964844 33.117188 C 79.5625 27.753906 76.535156 22.691406 72.941406 18.039062 L 72.699219 17.734375 C 74.132812 15.820312 74.90625 13.492188 74.902344 11.101562 C 74.902344 10.585938 74.867188 10.074219 74.789062 9.566406 C 85.96875 7.507812 98.175781 10.972656 107.777344 18.96875 C 106.46875 20.832031 105.769531 23.050781 105.769531 25.328125 C 105.769531 25.6875 105.789062 26.042969 105.824219 26.390625 Z M 105.816406 26.386719 "/>
</g>
</svg>
