<?xml version="1.0" encoding="utf-8"?>
<!-- Generator: Adobe Illustrator 16.0.0, SVG Export Plug-In . SVG Version: 6.00 Build 0)  -->
<!DOCTYPE svg PUBLIC "-//W3C//DTD SVG 1.1//EN" "http://www.w3.org/Graphics/SVG/1.1/DTD/svg11.dtd">
<svg enable-background="new 0 0 128 128" height="128px" id="Layer_1" version="1.1" viewBox="0 0 128 128"
     width="128px" x="0px" xml:space="preserve" xmlns="http://www.w3.org/2000/svg" y="0px">
<g>
	<g>
		<path d="M69.146,128L13.895,72.874l-3.186-30.21l21.052-21.005l30.273,3.178l55.257,55.13L69.146,128z
			 M17.729,71.041l51.418,51.302l42.474-42.375L60.208,28.673l-26.969-2.832L14.894,44.147L17.729,71.041z" fill="#282D33"/>
	</g>
	<g>
		<path d="M32.6,49.445c-1.589,0-3.084-0.618-4.209-1.74c-1.125-1.124-1.745-2.616-1.744-4.204
			c0-1.586,0.619-3.079,1.744-4.201c1.126-1.122,2.619-1.739,4.207-1.739c1.589,0,3.082,0.618,4.207,1.739
			c1.125,1.123,1.745,2.616,1.745,4.203c0,1.588-0.619,3.081-1.745,4.204C35.68,48.828,34.187,49.445,32.6,49.445z M32.598,41.566
			c-0.52,0-1.01,0.203-1.379,0.57c-0.365,0.365-0.567,0.85-0.567,1.366c0,0.516,0.202,1.002,0.568,1.368
			c0.735,0.734,2.02,0.735,2.757,0.001c0.366-0.366,0.568-0.852,0.568-1.368c0-0.516-0.202-1.002-0.569-1.368
			C33.607,41.769,33.118,41.566,32.598,41.566z" fill="#282D33"/>
	</g>
	<g>
		<g>
			<g>
				<polygon fill="#282D33" points="56.743,87.594 47.279,78.151 67.293,58.184 76.751,67.62 73.921,70.456 67.293,63.842
					52.949,78.151 59.571,84.758 				"/>
			</g>
			<g>

					<rect fill="#282D33" height="4.005" transform="matrix(0.7079 0.7064 -0.7064 0.7079 69.0581 -22.2857)" width="7.818" x="57.562" y="70.34"/>
			</g>
		</g>
		<g>
			<g>
				<path d="M48.979,64.073l-3.033-6.878c-0.725-3.247,0.255-5.056,1.204-6.001l2.102-2.098
					c2.481-2.475,6.522-2.478,9.008-0.003l2.481,2.479c1.203,1.2,1.866,2.798,1.865,4.499c0,1.701-0.663,3.299-1.869,4.501
					l-0.983,0.979l-2.827-2.837l0.983-0.979c0.446-0.444,0.691-1.035,0.691-1.664c0.001-0.629-0.245-1.22-0.69-1.664l-2.48-2.477
					c-0.922-0.919-2.426-0.918-3.35,0.003l-2.103,2.098c-0.308,0.306-0.365,1.085-0.163,2.106l2.82,6.302L48.979,64.073z" fill="#282D33"/>
			</g>
			<g>
				<path d="M45.195,73.443c-1.631,0-3.261-0.619-4.502-1.857l-2.482-2.473c-1.204-1.202-1.867-2.8-1.867-4.499
					c-0.001-1.7,0.662-3.299,1.865-4.501l0.985-0.982l2.828,2.836l-0.983,0.981c-0.445,0.444-0.69,1.037-0.69,1.666
					c0,0.629,0.245,1.219,0.69,1.663l2.481,2.473c0.924,0.922,2.426,0.923,3.348,0.001l2.105-2.1
					c0.253-0.253,0.392-1.029,0.157-2.211l-2.678-6.018l3.659-1.628l2.89,6.588c0.585,2.625,0.171,4.735-1.199,6.103l-2.105,2.102
					C48.456,72.824,46.825,73.443,45.195,73.443z" fill="#282D33"/>
			</g>
		</g>
		<g>
			<path d="M71.767,99.893c-1.748,0-3.391-0.68-4.626-1.914l-2.505-2.498c-1.24-1.239-1.921-2.883-1.919-4.63
				c0.001-1.744,0.682-3.383,1.917-4.614L75.399,75.49c1.236-1.231,2.879-1.91,4.626-1.91c1.749,0,3.393,0.68,4.629,1.913
				l2.506,2.501c1.237,1.235,1.917,2.878,1.917,4.624c-0.001,1.744-0.681,3.384-1.917,4.618L76.394,97.981
				C75.156,99.214,73.514,99.893,71.767,99.893z M80.025,77.585c-0.68,0-1.317,0.263-1.797,0.741L67.463,89.072
				c-0.479,0.476-0.74,1.108-0.741,1.781c0,0.677,0.264,1.313,0.744,1.792l2.504,2.499c0.962,0.959,2.637,0.956,3.595,0.001
				L84.33,84.4c0.479-0.476,0.742-1.11,0.742-1.784c0-0.675-0.264-1.31-0.742-1.788l-2.506-2.5
				C81.345,77.849,80.706,77.585,80.025,77.585z" fill="#282D33"/>
		</g>
	</g>
	<g>
		<path d="M35.337,42.958l-3.929-0.779c0.188-0.947,4.702-23.284,13.815-32.373C54.93,0.121,67.144-2.868,73.026,3
			c4.947,4.938,3.64,14.638-3.177,23.59l-3.186-2.426c5.479-7.196,6.965-14.904,3.533-18.329C66.045,1.69,55.9,4.809,48.052,12.641
			C39.802,20.869,35.381,42.738,35.337,42.958z" fill="#282D33"/>
	</g>
</g>
</svg>
