<?xml version="1.0" encoding="utf-8"?>
<!-- Generator: Adobe Illustrator 16.0.0, SVG Export Plug-In . SVG Version: 6.00 Build 0)  -->
<!DOCTYPE svg PUBLIC "-//W3C//DTD SVG 1.1//EN" "http://www.w3.org/Graphics/SVG/1.1/DTD/svg11.dtd">
<svg enable-background="new 0 0 128 128" height="128px" id="Layer_1" version="1.1" viewBox="0 0 128 128"
     width="128px" x="0px" xml:space="preserve" xmlns="http://www.w3.org/2000/svg" y="0px">
<g>
	<g>
		<g>
			<rect fill="#282D33" height="7.641" width="4" x="50.688"/>
		</g>
		<g>

				<rect fill="#282D33" height="4" transform="matrix(0.7096 0.7046 -0.7046 0.7096 18.1679 -24.6194)" width="7.667" x="35.121" y="7.733"/>
		</g>
		<g>
			<rect fill="#282D33" height="4" width="7.694" x="29.606" y="21.557"/>
		</g>
		<g>

				<rect fill="#282D33" height="7.667" transform="matrix(0.7047 0.7095 -0.7095 0.7047 38.0282 -16.9766)" width="4" x="37.407" y="33.359"/>
		</g>
		<g>

				<rect fill="#282D33" height="4" transform="matrix(0.7096 0.7047 -0.7047 0.7096 45.3692 -36.5845)" width="7.666" x="63.23" y="34.743"/>
		</g>
		<g>
			<rect fill="#282D33" height="4" width="7.693" x="68.719" y="20.919"/>
		</g>
		<g>

				<rect fill="#282D33" height="7.666" transform="matrix(0.7047 0.7095 -0.7095 0.7047 26.2599 -44.5228)" width="4" x="64.613" y="5.45"/>
		</g>
	</g>
	<g>
		<path d="M87.301,104.836h-4v-8.24l0.808-0.6c3.133-2.326,4.929-5.871,4.929-9.727V61.686l-0.262-5.334
			c-0.002-1.9-1.485-3.367-3.309-3.367c-3.299,0-3.307,1.361-3.307,1.947v0.004h-4v-1.317c0-1.801-1.481-3.266-3.303-3.266
			c-1.823,0-3.307,1.465-3.307,3.266h-4v-2.634c0-1.8-1.483-3.265-3.306-3.265c-1.822,0-3.304,1.464-3.304,3.265v2.7
			c0,0.001,0,0.002,0,0.003h-4c0-1.273-0.048-30.08-0.048-30.08c0-1.906-1.566-3.455-3.49-3.455c-1.922,0-3.486,1.548-3.486,3.451
			L49.89,76.847l-3.998,0.085l-0.111-2.596l-0.002-10.973c0-3.332-2.74-6.042-6.107-6.042h-0.696v7.928l0.203,1.51l-0.203,0.071
			v11.218l14.683,17.327c1.214,0.742,3.964,2.299,5.583,2.69l1.529,0.371v6.399h-4v-3.378c-2.445-0.953-5.142-2.631-5.5-2.856
			l-0.261-0.164L34.976,79.515l-0.001-13.957l-0.109-1.526l0.111-0.039v-6.872l-0.105-0.012l0.105-3.617l0.06-0.005l0.009-0.165
			l4.627-0.001c2.348,0,4.511,0.799,6.229,2.139l0.016-31.856c0-4.107,3.358-7.45,7.486-7.45c4.13,0,7.49,3.343,7.49,7.451
			c0,0,0.02,12.05,0.034,20.909c0.996-0.507,2.124-0.793,3.318-0.793c2.813,0,5.259,1.588,6.479,3.91
			c1.176-0.806,2.6-1.277,4.133-1.277c2.659,0,4.991,1.422,6.269,3.542c1.153-0.594,2.616-0.91,4.341-0.91
			c4.029,0,7.307,3.261,7.307,7.27l0.262,5.334l0.002,24.681c0,4.792-2.078,9.22-5.736,12.299V104.836z" fill="#282D33"/>
	</g>
	<g>
		<g>
			<polygon fill="#282D33" points="98.395,128 94.395,128 94.395,113.428 51.783,113.428 51.783,128 47.783,128 47.783,109.428
				98.395,109.428 			"/>
		</g>
	</g>
	<g>
		<rect fill="#282D33" height="5.411" width="4" x="85.346" y="118.002"/>
	</g>
</g>
</svg>
