<?xml version="1.0" encoding="utf-8"?>
<!-- Generator: Adobe Illustrator 16.0.0, SVG Export Plug-In . SVG Version: 6.00 Build 0)  -->
<!DOCTYPE svg PUBLIC "-//W3C//DTD SVG 1.1//EN" "http://www.w3.org/Graphics/SVG/1.1/DTD/svg11.dtd">
<svg enable-background="new 0 0 128 128" height="128px" id="Layer_1" version="1.1" viewBox="0 0 128 128"
     width="128px" x="0px" xml:space="preserve" xmlns="http://www.w3.org/2000/svg" y="0px">
<g>
	<g>
		<path d="M128,19.371H0V0.763h128V19.371z M4,15.371h120V4.763H4V15.371z" fill="#282D33"/>
	</g>
	<g>
		<polygon fill="#282D33" points="128,95.055 78.949,95.055 78.949,91.055 124,91.055 124,40.557 114.451,51.424 107.235,46.713
			94.853,59.299 92.001,56.493 106.681,41.573 113.734,46.179 128,29.945 		"/>
	</g>
	<g>
		<polygon fill="#282D33" points="48.736,95.055 0,95.055 0,63.376 13.364,71.828 34.947,57.713 37.137,61.061 13.4,76.584
			4,70.639 4,91.055 48.736,91.055 		"/>
	</g>
	<g>
		<rect fill="#282D33" height="4" width="4.706" x="7.665" y="7.962"/>
	</g>
	<g>
		<rect fill="#282D33" height="4" width="4.708" x="15.813" y="7.962"/>
	</g>
	<g>
		<rect fill="#282D33" height="4" width="4.708" x="23.959" y="7.962"/>
	</g>
	<g>
		<g>
			<path d="M64.154,81.327" fill="none" stroke="#282D33" stroke-width="4"/>
		</g>
	</g>
	<g>
		<path d="M64.167,88.051c-8.389,0-16.268-3.288-22.186-9.258c-12.215-12.314-12.22-32.365-0.01-44.696
			c5.896-5.952,13.751-9.241,22.12-9.263c8.451,0,16.319,3.287,22.229,9.256c5.911,5.956,9.171,13.893,9.176,22.348
			c0.006,8.445-3.247,16.384-9.161,22.353c-5.897,5.95-13.75,9.239-22.11,9.261H64.167z M64.164,28.834
			c-7.36,0.019-14.21,2.887-19.351,8.077c-10.672,10.777-10.668,28.303,0.008,39.065c5.162,5.207,12.032,8.074,19.346,8.074v2
			l0.049-2c7.288-0.02,14.134-2.887,19.277-8.076c5.166-5.214,8.009-12.151,8.003-19.534c-0.005-7.394-2.852-14.331-8.017-19.535
			C78.324,31.7,71.466,28.834,64.164,28.834z" fill="#282D33"/>
	</g>
	<g>
		<path d="M64.142,80.232c-6.293,0-12.214-2.479-16.671-6.978c-4.453-4.495-6.905-10.463-6.903-16.803
			c0-6.328,2.443-12.286,6.879-16.777c4.461-4.523,10.394-7.015,16.704-7.015c6.309,0,12.234,2.479,16.69,6.979
			c4.457,4.489,6.913,10.457,6.915,16.803c0.003,6.324-2.438,12.28-6.876,16.771c-4.466,4.524-10.404,7.018-16.719,7.02H64.142z
			 M64.157,36.66c-5.238,0-10.159,2.068-13.864,5.825c-3.693,3.738-5.726,8.698-5.726,13.968
			c-0.001,5.278,2.039,10.246,5.745,13.986c3.701,3.735,8.612,5.793,13.83,5.793v2l0.016-2c5.238-0.002,10.166-2.072,13.875-5.831
			c3.693-3.736,5.726-8.692,5.723-13.957C83.753,51.16,81.709,46.192,78,42.456C74.299,38.718,69.384,36.66,64.157,36.66z" fill="#282D33"/>
	</g>
	<g>
		<path d="M71.838,127.237H56.473V98.451h15.365V127.237z M60.473,123.237h7.365v-20.786h-7.365V123.237z" fill="#282D33"/>
	</g>
	<g>
		<polygon fill="#282D33" points="60.434,98.272 56.434,98.271 56.437,90.615 71.876,90.617 71.876,98.271 67.876,98.271
			67.876,94.617 60.436,94.615 		"/>
	</g>
	<g>
		<g>
			<rect fill="#282D33" height="6.259" width="4" x="62.599" y="84.91"/>
		</g>
	</g>
	<g>
		<polygon fill="#282D33" points="57.073,69.669 42.375,64.218 43.766,60.468 55.957,64.989 73.404,46.157 86.834,54.759
			84.676,58.127 74.064,51.33 		"/>
	</g>
	<g>
		<rect fill="#282D33" height="43.19" width="4" y="16.188"/>
	</g>
	<g>
		<rect fill="#282D33" height="9.104" width="4" x="124" y="16.188"/>
	</g>
</g>
</svg>
