<svg xmlns="http://www.w3.org/2000/svg" width="128" height="128" viewBox="0 0 128 128">
  <g>
    <path d="M117.837,24.869a11.763,11.763,0,0,0-11.75-11.75H21.913a11.763,11.763,0,0,0-11.75,11.75c0,2.67,0-14.471,0,58.2A11.763,11.763,0,0,0,21.91,94.82H53.544c-.764,5.61-4.088,11.34-9.92,17.06a1.763,1.763,0,0,0,1.226,3h38.3a1.75,1.75,0,0,0,1.225-3c-5.831-5.72-9.155-11.45-9.919-17.06H106.09a11.763,11.763,0,0,0,11.75-11.75C117.837,10.4,117.837,27.538,117.837,24.869Zm-104.174,0a8.259,8.259,0,0,1,8.25-8.25h84.174a8.259,8.259,0,0,1,8.25,8.25v55.09H13.663Zm65.42,86.511H48.917c4.792-5.471,7.53-11.022,8.164-16.56H70.919C71.553,100.358,74.29,105.909,79.083,111.38ZM106.09,91.32H21.91a8.26,8.26,0,0,1-8.241-7.86H114.331A8.261,8.261,0,0,1,106.09,91.32Z"/>
    <path d="M94.026,41.064A9.731,9.731,0,0,0,82.1,34.314l-5.886,1.629A12.924,12.924,0,0,0,69.83,34.26H58.871C54.726,25.283,48.22,22.05,43.39,22.05H28.1a2.389,2.389,0,0,0-1.381,4.319l2.771,1.96V34.31A3.9,3.9,0,0,0,30.591,37,10.007,10.007,0,0,1,33.1,42.112,3.439,3.439,0,0,0,36.46,44.85h2.1v.59a8.512,8.512,0,0,0,5.45,7.769V63.333c-5.213,4.433-1.919,13.32,4.97,13.237a7.558,7.558,0,0,0,5.881-2.83H77.753A7.546,7.546,0,1,0,88.6,63.333V56.31a4.56,4.56,0,0,0-4.55-4.56H82.83V47.26a13.02,13.02,0,0,0-.7-4.139l1.1-.3a1.4,1.4,0,0,1,1.717.981l.721,2.718a7.7,7.7,0,0,0,3.641,4.711c1.785,1.17,7.672,2.066,7.145-1.416ZM78.67,63.337a7.4,7.4,0,0,0-.913.953h-22.9a7.329,7.329,0,0,0-.9-.945V53.93H65.931A10.847,10.847,0,0,0,76.62,63.01h2.05ZM48.98,73.07a4.052,4.052,0,1,1,4.05-4.05A4.067,4.067,0,0,1,48.98,73.07Zm7.45-2.83a7.628,7.628,0,0,0,0-2.45H76.181a7.628,7.628,0,0,0,0,2.45Zm27.21,2.83a4.052,4.052,0,1,1,2.241-7.423A4.074,4.074,0,0,1,83.64,73.07Zm.41-17.82a1.057,1.057,0,0,1,1.05,1.06v5.3a7.641,7.641,0,0,0-2.93,0,1.812,1.812,0,0,0-1.75-2.1h-3.8a7.338,7.338,0,0,1-7.33-7.33,1.751,1.751,0,0,0-1.75-1.75H52.2a1.751,1.751,0,0,0-1.75,1.75v9.434a7.614,7.614,0,0,0-2.94,0V52.17a1.75,1.75,0,0,0-.913-1.537l-2.131-1.16A4.594,4.594,0,0,1,42.06,45.44v-2.3c0-.014,0-.026,0-.039V35.129a1.75,1.75,0,0,0-3.5,0V41.35H36.522a13.535,13.535,0,0,0-3.394-6.765.444.444,0,0,1-.138-.275V28.04a2.969,2.969,0,0,0-1.368-2.49H43.39c4.892,0,9.887,4.371,12.726,11.137A1.751,1.751,0,0,0,57.73,37.76h12.1a9.5,9.5,0,0,1,8.379,5.029c1.675,3.114.941,5.6,1.121,9.271a3.194,3.194,0,0,0,3.19,3.19Zm7-7.061c-1.89-.9-2.224-3.519-2.718-5.3A4.919,4.919,0,0,0,83.6,39.269a12.015,12.015,0,0,0-3.035.653c-.116-.138-.865-1.138-.993-1.275l3.47-.961A6.218,6.218,0,0,1,90.654,42l1.862,6.7A4.27,4.27,0,0,1,91.046,48.189Z"/>
  </g>
</svg>
