<svg height="128" viewBox="0 0 128 128" width="128" xmlns="http://www.w3.org/2000/svg">
  <g>
    <path d="M93.1,53.55H42.01V33.99A18.711,18.711,0,0,1,60.7,15.3c10.05-.208,18.893,8.652,18.689,18.69v7.69a1.749,1.749,0,0,0,1.75,1.75h8a1.75,1.75,0,0,0,1.75-1.75V33.99C91.217,17.763,76.944,3.464,60.7,3.8A30.224,30.224,0,0,0,30.51,33.99V53.55H28.3a8.92,8.92,0,0,0-8.91,8.91v48.83a8.92,8.92,0,0,0,8.91,8.91H93.1a8.92,8.92,0,0,0,8.91-8.91V62.46A8.92,8.92,0,0,0,93.1,53.55ZM34.01,33.99A26.72,26.72,0,0,1,60.7,7.3C75.06,7,87.68,19.644,87.389,33.99v5.94h-4.5V33.99C83.13,22.069,72.634,11.553,60.7,11.8A22.215,22.215,0,0,0,38.51,33.99V53.55h-4.5Zm64.5,77.3a5.416,5.416,0,0,1-5.41,5.41H28.3a5.416,5.416,0,0,1-5.41-5.41V62.46a5.416,5.416,0,0,1,5.41-5.41h3.96c3.185.005,55.907,0,60.84,0a5.416,5.416,0,0,1,5.41,5.41Z"/>
    <path d="M106.861,39.068H97.406a1.75,1.75,0,0,0,0,3.5h9.455A1.75,1.75,0,0,0,106.861,39.068Z"/>
    <path d="M97.406,36.568a1.748,1.748,0,0,0,1.238-.512l6.685-6.686a1.75,1.75,0,0,0-2.475-2.474l-6.685,6.685A1.761,1.761,0,0,0,97.406,36.568Z"/>
    <path d="M98.644,45.581a1.75,1.75,0,0,0-2.475,2.475l6.685,6.685a1.75,1.75,0,1,0,2.475-2.474Z"/>
    <path d="M60.7,67.577c-12.217.158-16.013,16.325-5.25,21.957v11.393a5.25,5.25,0,0,0,10.5,0V89.534C76.712,83.908,72.915,67.73,60.7,67.577Zm2.88,19.184A1.749,1.749,0,0,0,62.45,88.4v12.53a1.75,1.75,0,0,1-3.5,0V88.4a1.749,1.749,0,0,0-1.13-1.636A8.106,8.106,0,0,1,60.7,71.077C69.68,71.194,71.9,83.472,63.58,86.761Z"/>
  </g>
</svg>
