<?xml version="1.0" encoding="utf-8"?>
<!-- Generator: Adobe Illustrator 16.0.0, SVG Export Plug-In . SVG Version: 6.00 Build 0)  -->
<!DOCTYPE svg PUBLIC "-//W3C//DTD SVG 1.1//EN" "http://www.w3.org/Graphics/SVG/1.1/DTD/svg11.dtd">
<svg version="1.1" id="Layer_1" xmlns="http://www.w3.org/2000/svg" x="0px" y="0px"
     width="128px" height="128px" viewBox="0 0 128 128" enable-background="new 0 0 128 128" xml:space="preserve">
<g>
	<g>
		<g>
			<path fill="#282D33" d="M73.372,128H52.483l-1.351-16.366c-4.711-1.296-9.168-3.286-13.284-5.931l-11.978,10.252L11.12,101.03
				l10.479-12.529c-2.429-4.284-4.191-8.891-5.255-13.731l-15.635-1.32l0.007-21.078l16.172-1.363
				c1.282-4.776,3.255-9.295,5.881-13.471L12.638,25.431l14.756-14.928l12.391,10.613c4.228-2.447,8.772-4.225,13.546-5.3L54.634,0
				h20.885l1.352,16.369c4.715,1.297,9.172,3.286,13.285,5.929l11.975-10.251l14.754,14.923l-10.481,12.528
				c2.429,4.289,4.192,8.896,5.257,13.734l15.632,1.316l-0.002,21.081l-16.174,1.361c-1.283,4.777-3.256,9.296-5.879,13.471
				l10.126,12.108l-14.754,14.923l-12.393-10.609c-4.229,2.446-8.771,4.224-13.542,5.298L73.372,128z M56.167,124h13.521
				l1.245-15.149l1.491-0.287c5.318-1.024,10.347-2.988,14.945-5.837l1.242-0.771l11.77,10.076l9.578-9.688l-9.703-11.604
				l0.837-1.246c3.038-4.524,5.221-9.518,6.487-14.841l0.335-1.408l15.373-1.295l0.002-13.726l-14.976-1.261l-0.282-1.495
				c-1.015-5.387-2.959-10.481-5.778-15.14l-0.74-1.223l9.967-11.913l-9.578-9.688L90.44,27.319l-1.267-0.872
				c-4.462-3.069-9.392-5.275-14.652-6.556L73.12,19.55L71.835,4H58.317l-1.248,15.146l-1.49,0.287
				c-5.323,1.026-10.353,2.99-14.948,5.839l-1.244,0.771L27.62,15.964l-9.579,9.69l9.708,11.602l-0.838,1.247
				c-3.042,4.526-5.225,9.519-6.488,14.84l-0.335,1.409L4.715,56.048L4.71,69.773l14.978,1.264l0.281,1.495
				c1.015,5.392,2.959,10.483,5.777,15.136l0.741,1.223l-9.965,11.915l9.576,9.688l11.465-9.813l1.267,0.871
				c4.467,3.072,9.396,5.279,14.652,6.559l1.401,0.341L56.167,124z"/>
		</g>
	</g>
	<g>
		<path fill="#282D33" d="M64.001,97.674c-18.367,0-33.311-15.105-33.311-33.673h4c0,16.361,13.148,29.673,29.311,29.673
			s29.311-13.312,29.311-29.673h4C97.312,82.568,82.368,97.674,64.001,97.674z"/>
	</g>
	<g>
		<g>
			<path fill="#282D33" d="M34.69,64.001h-4c0-0.693,0.021-1.381,0.062-2.064l3.993,0.236C34.71,62.778,34.69,63.387,34.69,64.001z"
				/>
		</g>
		<g>
			<path fill="#282D33" d="M93.098,60.397c-0.127-1.054-0.313-2.113-0.551-3.148l3.896-0.9c0.271,1.175,0.482,2.377,0.625,3.572
				L93.098,60.397z M35.17,58.639l-3.937-0.712c0.246-1.36,0.579-2.717,0.99-4.033l3.818,1.192
				C35.68,56.246,35.387,57.441,35.17,58.639z M91.506,53.742c-0.416-1.141-0.907-2.267-1.461-3.347l3.561-1.823
				c0.628,1.227,1.186,2.505,1.658,3.8L91.506,53.742z M37.344,51.667L33.7,50.015c0.57-1.257,1.224-2.491,1.943-3.668l3.413,2.087
				C38.422,49.471,37.846,50.559,37.344,51.667z M88.183,47.25c-0.685-1.009-1.437-1.983-2.234-2.895l3.012-2.634
				c0.904,1.034,1.756,2.139,2.533,3.283L88.183,47.25z M41.152,45.435l-3.132-2.488c0.859-1.082,1.793-2.12,2.775-3.084
				l2.803,2.854C42.733,43.566,41.91,44.48,41.152,45.435z M83.38,41.755c-0.91-0.813-1.876-1.575-2.872-2.264l2.277-3.289
				c1.13,0.783,2.227,1.647,3.259,2.569L83.38,41.755z M46.36,40.318l-2.432-3.176c1.098-0.841,2.257-1.619,3.445-2.313l2.019,3.453
				C48.347,38.893,47.327,39.578,46.36,40.318z M77.379,37.602c-1.074-0.561-2.197-1.06-3.337-1.482l1.391-3.751
				c1.296,0.48,2.574,1.048,3.798,1.687L77.379,37.602z M52.652,36.641l-1.57-3.679c1.273-0.543,2.591-1.01,3.918-1.387l1.093,3.848
				C54.928,35.754,53.771,36.164,52.652,36.641z M70.546,35.071c-1.18-0.273-2.391-0.474-3.601-0.597l0.404-3.979
				c1.377,0.14,2.756,0.368,4.099,0.68L70.546,35.071z M59.658,34.651l-0.597-3.955c1.362-0.206,2.755-0.327,4.138-0.36l0.097,3.999
				C62.079,34.364,60.855,34.471,59.658,34.651z"/>
		</g>
		<g>
			<path fill="#282D33" d="M97.312,64.001h-4c0-0.612-0.019-1.219-0.056-1.822l3.992-0.248
				C97.291,62.616,97.312,63.306,97.312,64.001z"/>
		</g>
	</g>
	<g>
		<path fill="#282D33" d="M64.002,72.159c-6.138,0-11.131-5.041-11.131-11.237c0-6.196,4.993-11.237,11.131-11.237
			s11.131,5.041,11.131,11.237C75.133,67.118,70.14,72.159,64.002,72.159z M64.002,53.685c-3.933,0-7.131,3.247-7.131,7.237
			s3.198,7.237,7.131,7.237c3.932,0,7.131-3.247,7.131-7.237S67.934,53.685,64.002,53.685z"/>
	</g>
	<g>
		<path fill="#282D33" d="M81.981,91.08h-4V80.423c0-3.989-3.199-7.235-7.131-7.235H57.152c-3.932,0-7.131,3.246-7.131,7.235V91.08
			h-4V80.423c0-6.195,4.993-11.235,11.131-11.235h13.698c6.138,0,11.131,5.04,11.131,11.235V91.08z"/>
	</g>
</g>
</svg>
