<svg height="128" viewBox="0 0 128 128" width="128" xmlns="http://www.w3.org/2000/svg">
  <title>USER</title>
  <path
    d="M64,4.557A59.443,59.443,0,1,0,123.443,64,59.51,59.51,0,0,0,64,4.557Zm-30.666,106.2v-26.1A9.2,9.2,0,0,1,39.885,75.8L46.4,73.815,62.545,97.973a1.75,1.75,0,0,0,2.91,0L81.6,73.815,88.115,75.8a9.2,9.2,0,0,1,6.551,8.847v26.1a55.77,55.77,0,0,1-61.332,0Zm16-56.776A8.71,8.71,0,0,0,57.127,49.2l.506-.991.506.991a8.714,8.714,0,0,0,7.795,4.775H82.471a18.553,18.553,0,0,1-36.942,0Zm-3.8-3.5a18.553,18.553,0,0,1,36.942,0H65.934a5.228,5.228,0,0,1-4.678-2.865l-2.065-4.048a1.749,1.749,0,0,0-3.117,0l-2.065,4.048a5.225,5.225,0,0,1-4.676,2.865ZM64,74.288a21.932,21.932,0,0,0,10.47-2.647L78.1,72.748,64,93.851l-14.1-21.1,3.629-1.107A21.932,21.932,0,0,0,64,74.288Zm34.166,33.965v-23.6a12.681,12.681,0,0,0-9.029-12.195l-10.96-3.344a22.06,22.06,0,1,0-28.354,0l-10.96,3.344a12.681,12.681,0,0,0-9.029,12.195v23.6a55.943,55.943,0,1,1,68.332,0Z"/>
</svg>
