<?xml version="1.0" encoding="utf-8"?>
<!-- Generator: Adobe Illustrator 16.0.0, SVG Export Plug-In . SVG Version: 6.00 Build 0)  -->
<!DOCTYPE svg PUBLIC "-//W3C//DTD SVG 1.1//EN" "http://www.w3.org/Graphics/SVG/1.1/DTD/svg11.dtd">
<svg version="1.1" id="Layer_1" xmlns="http://www.w3.org/2000/svg" x="0px" y="0px"
     width="128px" height="128px" viewBox="0 0 128 128" enable-background="new 0 0 128 128" xml:space="preserve">
<g>
	<g>
		<path fill="#282D33" d="M29.452,128c-16.237,0-29.447-13.099-29.447-29.2s13.21-29.201,29.447-29.201
			c16.235,0,29.443,13.1,29.443,29.201S45.687,128,29.452,128z M29.452,73.614C15.428,73.614,4.02,84.912,4.02,98.8
			c0,13.887,11.408,25.185,25.432,25.185c14.021,0,25.428-11.298,25.428-25.185C54.879,84.912,43.472,73.614,29.452,73.614z"/>
	</g>
	<g>
		<path fill="#282D33" d="M64.126,62.442c-17.36,0-31.483-14.006-31.483-31.221C32.643,14.006,46.766,0,64.126,0
			c17.36,0,31.483,14.006,31.483,31.221C95.609,48.436,81.486,62.442,64.126,62.442z M64.126,4.016
			c-15.146,0-27.467,12.205-27.467,27.206S48.98,58.426,64.126,58.426s27.468-12.204,27.468-27.205S79.271,4.016,64.126,4.016z"/>
	</g>
	<g>
		<path fill="#282D33" d="M64.127,38.516c-5.52,0-10.01-4.458-10.01-9.938c0-5.48,4.49-9.938,10.01-9.938s10.01,4.458,10.01,9.938
			C74.137,34.058,69.646,38.516,64.127,38.516z M64.127,22.657c-3.305,0-5.995,2.657-5.995,5.922s2.689,5.922,5.995,5.922
			c3.307,0,5.994-2.657,5.994-5.922S67.434,22.657,64.127,22.657z"/>
	</g>
	<g>
		<path fill="#282D33" d="M64.126,53.497c-5.724,0-11.184-2.154-15.375-6.064l-0.638-0.596V45.32c0-5.48,4.492-9.938,10.013-9.938
			h12.001c5.518,0,10.008,4.458,10.01,9.937v1.517L79.5,47.431C75.313,51.343,69.854,53.497,64.126,53.497z M52.134,45.07
			c3.351,2.85,7.577,4.411,11.992,4.411c4.417,0,8.644-1.561,11.989-4.411c-0.133-3.15-2.768-5.672-5.988-5.672H58.125
			C54.904,39.398,52.267,41.92,52.134,45.07z"/>
	</g>
	<g>
		<path fill="#282D33" d="M29.453,106.095c-5.52,0-10.01-4.459-10.01-9.938s4.49-9.938,10.01-9.938s10.01,4.458,10.01,9.938
			S34.972,106.095,29.453,106.095z M29.453,90.234c-3.305,0-5.994,2.657-5.994,5.922c0,3.267,2.689,5.923,5.994,5.923
			s5.994-2.656,5.994-5.923C35.447,92.892,32.758,90.234,29.453,90.234z"/>
	</g>
	<g>
		<path fill="#282D33" d="M45.463,122.047h-4.016v-9.149c0-3.266-2.689-5.922-5.995-5.922H23.449c-3.304,0-5.993,2.656-5.993,5.922
			v9.149h-4.016v-9.149c0-5.48,4.489-9.938,10.008-9.938h12.003c5.52,0,10.01,4.457,10.01,9.938V122.047z"/>
	</g>
	<g>
		<path fill="#282D33" d="M98.553,128c-16.236,0-29.447-13.099-29.447-29.2s13.211-29.201,29.447-29.201
			c16.234,0,29.443,13.1,29.443,29.201S114.787,128,98.553,128z M98.553,73.614c-14.023,0-25.432,11.298-25.432,25.186
			c0,13.887,11.408,25.185,25.432,25.185c14.021,0,25.428-11.298,25.428-25.185C123.98,84.912,112.574,73.614,98.553,73.614z"/>
	</g>
	<g>
		<path fill="#282D33" d="M98.553,106.095c-5.518,0-10.008-4.459-10.008-9.938s4.49-9.938,10.008-9.938
			c5.52,0,10.01,4.458,10.01,9.938S104.072,106.095,98.553,106.095z M98.553,90.234c-3.305,0-5.992,2.657-5.992,5.922
			c0,3.267,2.688,5.923,5.992,5.923s5.994-2.656,5.994-5.923C104.547,92.892,101.857,90.234,98.553,90.234z"/>
	</g>
	<g>
		<path fill="#282D33" d="M114.563,122.047h-4.016v-9.149c0-3.266-2.689-5.922-5.994-5.922H92.551c-3.305,0-5.994,2.656-5.994,5.922
			v9.149h-4.016v-9.149c0-5.48,4.49-9.938,10.01-9.938h12.002c5.52,0,10.01,4.457,10.01,9.938V122.047z"/>
	</g>
	<g>
		<rect x="62.118" y="51.175" fill="#282D33" width="4.015" height="24.415"/>
	</g>
	<g>
		<g>

				<rect x="54.582" y="69.149" transform="matrix(0.4965 0.868 -0.868 0.4965 95.581 -10.2082)" fill="#282D33" width="4.016" height="16.276"/>
		</g>
		<g>

				<rect x="63.52" y="75.279" transform="matrix(0.868 0.4965 -0.4965 0.868 47.8322 -25.3807)" fill="#282D33" width="16.279" height="4.016"/>
		</g>
	</g>
</g>
</svg>
