<svg height="128" viewBox="0 0 128 128" width="128" xmlns="http://www.w3.org/2000/svg">
  <g>
    <path d="M121.685,62.763l-16.019-16.02V24.1a1.749,1.749,0,0,0-1.75-1.75H81.269L65.237,6.315a1.748,1.748,0,0,0-2.474,0L46.73,22.347H24.083a1.75,1.75,0,0,0-1.75,1.75V46.743L6.314,62.763a1.75,1.75,0,0,0,0,2.474l16.019,16.02v22.659a1.75,1.75,0,0,0,1.75,1.75h22.66l16.02,16.019a1.748,1.748,0,0,0,2.474,0l16.02-16.019h22.659a1.749,1.749,0,0,0,1.75-1.75V81.257l16.019-16.02A1.748,1.748,0,0,0,121.685,62.763ZM102.679,79.3a1.75,1.75,0,0,0-.513,1.237v21.634H80.532a1.75,1.75,0,0,0-1.237.513L64,117.974l-15.3-15.3a1.75,1.75,0,0,0-1.237-.513H25.833V80.532a1.749,1.749,0,0,0-.512-1.237L10.026,64l15.3-15.3a1.749,1.749,0,0,0,.512-1.237V25.847H47.455a1.75,1.75,0,0,0,1.237-.513L64,10.026,79.308,25.334a1.75,1.75,0,0,0,1.237.513h21.621V47.468a1.75,1.75,0,0,0,.513,1.237l15.3,15.3Z"/>
    <path d="M64,30.464A33.58,33.58,0,0,0,30.452,64C32.3,108.5,95.7,108.5,97.536,64A33.575,33.575,0,0,0,64,30.464Zm0,63.585A30.082,30.082,0,0,1,33.952,64c1.65-39.843,58.44-39.842,60.084,0A30.077,30.077,0,0,1,64,94.049Z"/>
    <path d="M74.794,50.461,60.16,65.1l-6.967-6.967c-5.591-5.267-13.5,2.617-8.225,8.225L56.047,77.433a5.845,5.845,0,0,0,8.225,0L83.019,58.685C88.276,53.087,80.409,45.2,74.794,50.461Zm5.751,5.75L61.8,74.958a2.372,2.372,0,0,1-3.276,0L47.443,63.879A2.316,2.316,0,0,1,50.718,60.6l8.2,8.205a1.8,1.8,0,0,0,2.475,0L77.269,52.936A2.316,2.316,0,0,1,80.545,56.211Z"/>
  </g>
</svg>
