<?xml version="1.0" encoding="utf-8"?>
<!-- Generator: Adobe Illustrator 16.0.0, SVG Export Plug-In . SVG Version: 6.00 Build 0)  -->
<!DOCTYPE svg PUBLIC "-//W3C//DTD SVG 1.1//EN" "http://www.w3.org/Graphics/SVG/1.1/DTD/svg11.dtd">
<svg enable-background="new 0 0 128 128" height="128px" id="Layer_1" version="1.1" viewBox="0 0 128 128"
     width="128px" x="0px" xml:space="preserve" xmlns="http://www.w3.org/2000/svg" y="0px">
<g>
	<g>
		<path d="M127.43,99.15H0V10.588h127.43V99.15z M4,95.15h119.43V14.588H4V95.15z" fill="#282D33"/>
	</g>
	<g>
		<path d="M117.143,88.742H10.286V20.996h106.856V88.742z M14.286,84.742h98.856V24.996H14.286V84.742z" fill="#282D33"/>
	</g>
	<g>
		<path d="M53.762,67.646V42.095L75.63,54.871L53.762,67.646z M57.762,49.063v11.612L67.7,54.87L57.762,49.063z" fill="#282D33"/>
	</g>
	<g>
		<rect fill="#282D33" height="4" width="11.296" x="19.357" y="107.829"/>
	</g>
	<g>
		<rect fill="#282D33" height="4" width="68.832" x="45.393" y="107.829"/>
	</g>
	<g>
		<rect fill="#282D33" height="4" width="7.288" x="120.712" y="107.829"/>
	</g>
	<g>
		<rect fill="#282D33" height="9.432" width="4" y="105.113"/>
	</g>
	<g>
		<rect fill="#282D33" height="9.432" width="4" x="7.714" y="105.113"/>
	</g>
	<g>
		<path d="M37.034,117.412c-4.146,0-7.519-3.401-7.519-7.583s3.373-7.583,7.519-7.583s7.519,3.401,7.519,7.583
			S41.18,117.412,37.034,117.412z M37.034,106.246c-1.94,0-3.519,1.607-3.519,3.583s1.579,3.583,3.519,3.583
			s3.519-1.607,3.519-3.583S38.975,106.246,37.034,106.246z" fill="#282D33"/>
	</g>
</g>
</svg>
