<svg height="128" viewBox="0 0 128 128" width="128" xmlns="http://www.w3.org/2000/svg">
  <g>
    <path d="M120.419,102.364H117.06V41.58a12.415,12.415,0,0,0-12.4-12.4H95.11V15.25A6.758,6.758,0,0,0,88.36,8.5H39.64a6.758,6.758,0,0,0-6.75,6.75V29.18H23.34a12.415,12.415,0,0,0-12.4,12.4v60.784H7.581a1.75,1.75,0,0,0-1.75,1.75v6.637a8.76,8.76,0,0,0,8.75,8.75h98.838a8.76,8.76,0,0,0,8.75-8.75v-6.637A1.75,1.75,0,0,0,120.419,102.364ZM36.39,15.25A3.254,3.254,0,0,1,39.64,12H88.36a3.254,3.254,0,0,1,3.25,3.25V62.48a3.254,3.254,0,0,1-3.25,3.25H39.64a3.254,3.254,0,0,1-3.25-3.25C36.391,52.057,36.389,25.319,36.39,15.25Zm27.543,73.2a4.272,4.272,0,0,1,0,8.543A4.272,4.272,0,0,1,63.933,88.454ZM14.44,41.58a8.911,8.911,0,0,1,8.9-8.9h9.55v29.8a6.758,6.758,0,0,0,6.75,6.75H52.754v6.092L47.259,80.6a7.718,7.718,0,0,0-4.047-1.149c-10.281.382-10.305,15.15,0,15.543,6.022.12,9.881-6.98,6.546-11.943l5.958-5.722a1.753,1.753,0,0,0,.538-1.263V69.23H62.4V85.107a7.785,7.785,0,0,0-6.237,7.618c.386,10.286,15.151,10.3,15.543,0a7.778,7.778,0,0,0-5.806-7.51V69.23h6.145v6.837a1.753,1.753,0,0,0,.538,1.263l5.957,5.722a7.724,7.724,0,0,0-1.225,4.171c.382,10.284,15.153,10.3,15.543,0A7.756,7.756,0,0,0,81.038,80.6l-5.495-5.279V69.23H88.36a6.758,6.758,0,0,0,6.75-6.75V32.68h9.55a8.911,8.911,0,0,1,8.9,8.9v60.78H14.44ZM47.483,87.223a4.272,4.272,0,0,1-8.543,0A4.272,4.272,0,0,1,47.483,87.223Zm37.6-4.271a4.272,4.272,0,0,1,0,8.543A4.272,4.272,0,0,1,85.085,82.952Zm33.584,27.8a5.256,5.256,0,0,1-5.25,5.25H14.581a5.256,5.256,0,0,1-5.25-5.25v-4.887h36.45a8.762,8.762,0,0,0,8.588,7.092H73.631a8.761,8.761,0,0,0,8.587-7.092h36.451Zm-40.088-4.8a5.26,5.26,0,0,1-4.95,3.5H54.369a5.26,5.26,0,0,1-4.95-3.5Z"/>
    <path d="M46.135,40.315a1.748,1.748,0,0,0,1.545.928h3.93c.017,4.043-.031,5.189.037,6.516h-3.7a1.752,1.752,0,0,0-1.546.93l-4.772,8.983a1.751,1.751,0,0,0,3.092,1.642L49,51.259H52.33c3.866,10.915,19.5,10.92,23.336,0h3.326l4.278,8.055a1.75,1.75,0,1,0,3.092-1.642L81.59,48.689a1.752,1.752,0,0,0-1.546-.93H76.352c.068-1.324.021-2.583.038-6.516h3.93a1.749,1.749,0,0,0,1.545-.928l4.774-8.984a1.75,1.75,0,1,0-3.09-1.643l-4.28,8.055H76.39V30.51a1.883,1.883,0,0,0-2.343-1.75,11.087,11.087,0,0,0-4.586-4.973,10.687,10.687,0,0,1,5.217-2.821,1.75,1.75,0,0,0-.579-3.452c-2.816.472-5.611,2.159-8.322,4.991a11.242,11.242,0,0,0-3.786.019c-2.13-2.462-9.319-7.481-10.355-3.574a1.751,1.751,0,0,0,1.436,2.016,10.752,10.752,0,0,1,5.268,2.87,11.128,11.128,0,0,0-4.524,4.924,1.842,1.842,0,0,0-2.206,1.75v7.233H48.731l-4.28-8.055a1.75,1.75,0,1,0-3.09,1.643Zm9.2,8.8c-.27-1.155-.235-15.735-.224-16.852h7.01V55.793A8.852,8.852,0,0,1,55.334,49.112ZM65.62,55.845V32.26h7.269c0,16.135.08,15.579-.235,16.86A8.8,8.8,0,0,1,65.62,55.845ZM69.96,28.76H57.9A7.7,7.7,0,0,1,69.96,28.76Z"/>
  </g>
</svg>
