<?xml version="1.0" encoding="utf-8"?>
<!-- Generator: Adobe Illustrator 16.0.0, SVG Export Plug-In . SVG Version: 6.00 Build 0)  -->
<!DOCTYPE svg PUBLIC "-//W3C//DTD SVG 1.1//EN" "http://www.w3.org/Graphics/SVG/1.1/DTD/svg11.dtd">
<svg version="1.1" id="Layer_1" xmlns="http://www.w3.org/2000/svg" x="0px" y="0px"
     width="128px" height="128px" viewBox="0 0 128 128" enable-background="new 0 0 128 128" xml:space="preserve">
<g>
	<g>

			<rect x="61.302" y="91.679" transform="matrix(0.2614 0.9652 -0.9652 0.2614 155.0044 21.7315)" fill="#282D33" width="4" height="40.949"/>
	</g>
	<g>

			<rect x="61.302" y="61.4" transform="matrix(0.2933 0.956 -0.956 0.2933 120.8399 -4.261)" fill="#282D33" width="3.999" height="36.406"/>
	</g>
	<g>

			<rect x="61.303" y="45.757" transform="matrix(0.2929 0.9561 -0.9561 0.2929 105.311 -15.7472)" fill="#282D33" width="3.999" height="35.148"/>
	</g>
	<g>

			<rect x="61.302" y="76.18" transform="matrix(0.2614 0.9652 -0.9652 0.2614 139.2967 9.711)" fill="#282D33" width="4" height="39.398"/>
	</g>
	<g>
		<g>

				<rect x="46.85" y="86.125" transform="matrix(0.0688 0.9976 -0.9976 0.0688 165.1391 -0.6705)" fill="#282D33" width="72.157" height="4"/>
		</g>
		<g>

				<rect x="41.675" y="52.047" transform="matrix(0.9976 0.0689 -0.0689 0.9976 6.172 -2.7983)" fill="#282D33" width="3.999" height="72.157"/>
		</g>
	</g>
	<g>
		<path fill="#282D33" d="M87.413,53.394h-48.22V35.089h48.22V53.394z M43.192,49.394h40.222V39.089H43.192V49.394z"/>
	</g>
	<g>
		<path fill="#282D33" d="M80.337,39.089H46.269V18.998h34.068V39.089z M50.268,35.089h26.069V22.998H50.268V35.089z"/>
	</g>
	<g>
		<polygon fill="#282D33" points="43.616,19.745 41.375,16.433 63.303,1.596 85.229,16.433 82.988,19.745 63.303,6.425 		"/>
	</g>
	<g>
		<rect x="32.643" y="122.404" fill="#282D33" width="61.318" height="4"/>
	</g>
	<g>
		<rect x="61.304" y="27.853" fill="#282D33" width="3.999" height="9.537"/>
	</g>
	<g>
		<polygon fill="#282D33" points="125.984,51.203 86.888,28.387 86.888,24.933 125.982,2.115 127.998,5.568 91.862,26.66
			128,47.749 		"/>
	</g>
	<g>
		<polygon fill="#282D33" points="2.016,51.204 0,47.75 36.136,26.661 0,5.571 2.016,2.116 41.112,24.934 41.112,28.388 		"/>
	</g>
</g>
</svg>
