<?xml version="1.0" encoding="utf-8"?>
<!-- Generator: Adobe Illustrator 16.0.0, SVG Export Plug-In . SVG Version: 6.00 Build 0)  -->
<!DOCTYPE svg PUBLIC "-//W3C//DTD SVG 1.1//EN" "http://www.w3.org/Graphics/SVG/1.1/DTD/svg11.dtd">
<svg enable-background="new 0 0 128 128" height="128px" id="Layer_1" version="1.1" viewBox="0 0 128 128"
     width="128px" x="0px" xml:space="preserve" xmlns="http://www.w3.org/2000/svg" y="0px">
<g>
	<g>
		<g>
			<polygon fill="#282D33" points="128,118.952 87.604,118.952 87.604,114.952 124,114.952 124,18.722 4,18.722 4,114.952
				40.396,114.952 40.396,118.952 0,118.952 0,14.722 128,14.722 			"/>
		</g>
		<g>
			<path d="M128,18.721H0V0.114h128V18.721z M4,14.721h120V4.114H4V14.721z" fill="#282D33"/>
		</g>
		<g>
			<rect fill="#282D33" height="4" width="4.705" x="7.666" y="7.313"/>
		</g>
		<g>
			<rect fill="#282D33" height="4" width="4.708" x="15.813" y="7.313"/>
		</g>
		<g>
			<rect fill="#282D33" height="4" width="4.708" x="23.959" y="7.313"/>
		</g>
	</g>
	<g>
		<g>
			<path d="M81.155,109.686H46.783l-0.125-1.866c-0.243-3.605-1.043-6.488-2.254-8.117
				C32.319,84.012,31.981,68.978,31.981,68.83c0-17.804,14.363-32.288,32.018-32.288c17.655,0,32.019,14.484,32.019,32.288
				c0,0.147-0.339,15.169-12.444,30.898c-1.216,1.629-2.011,4.439-2.281,8.104L81.155,109.686z M50.474,105.686h27.013
				c0.456-3.592,1.428-6.403,2.898-8.373C91.701,82.608,92.018,68.964,92.018,68.83c0-15.598-12.569-28.288-28.019-28.288
				S35.981,53.232,35.981,68.83c0,0.134,0.316,13.79,11.611,28.458C49.077,99.284,50.039,102.098,50.474,105.686z" fill="#282D33"/>
		</g>
		<g>
			<path d="M43.943,68.716h-4C39.945,55.406,50.737,44.578,64,44.578v4C52.942,48.578,43.945,57.612,43.943,68.716z" fill="#282D33"
				/>
		</g>
		<g>
			<g>

					<rect fill="#282D33" height="4" transform="matrix(0.1758 0.9844 -0.9844 0.1758 133.2664 22.7498)" width="33.813" x="36.141" y="88.958"/>
			</g>
			<g>

					<rect fill="#282D33" height="33.815" transform="matrix(0.9844 0.1758 -0.1758 0.9844 17.157 -11.76)" width="4" x="72.956" y="74.051"/>
			</g>
		</g>
		<g>
			<polygon fill="#282D33" points="54.838,80.745 49.472,78.439 51.051,74.764 54.838,76.392 59.415,74.425 63.992,76.392
				68.57,74.425 73.154,76.392 76.949,74.764 78.527,78.439 73.154,80.745 68.57,78.778 63.991,80.745 59.415,78.778 			"/>
		</g>
		<g>
			<g>
				<rect fill="#282D33" height="4" width="39.04" x="44.482" y="106.043"/>
			</g>
			<g>
				<rect fill="#282D33" height="4" width="39.04" x="44.482" y="114.963"/>
			</g>
			<g>
				<rect fill="#282D33" height="4" width="25.962" x="51.02" y="123.886"/>
			</g>
			<g>
				<rect fill="#282D33" height="6.779" width="4" x="47.011" y="108.449"/>
			</g>
		</g>
		<g>
			<g>
				<rect fill="#282D33" height="6.005" width="4" x="62.003" y="26.956"/>
			</g>
			<g>

					<rect fill="#282D33" height="4" transform="matrix(0.2566 0.9665 -0.9665 0.2566 70.4305 -29.0116)" width="6.001" x="51.074" y="29.277"/>
			</g>
			<g>

					<rect fill="#282D33" height="4" transform="matrix(0.4966 0.868 -0.868 0.4966 53.0699 -21.215)" width="5.993" x="41.827" y="33.143"/>
			</g>
			<g>

					<rect fill="#282D33" height="4" transform="matrix(0.7039 0.7103 -0.7103 0.7039 40.2495 -13.9685)" width="5.979" x="33.89" y="39.294"/>
			</g>
			<g>

					<rect fill="#282D33" height="4" transform="matrix(0.8639 0.5036 -0.5036 0.8639 29.0218 -8.7942)" width="5.964" x="27.802" y="47.307"/>
			</g>
			<g>

					<rect fill="#282D33" height="4" transform="matrix(0.9654 0.2607 -0.2607 0.9654 16.2171 -4.9983)" width="5.957" x="23.974" y="56.641"/>
			</g>
			<g>
				<rect fill="#282D33" height="4" width="5.954" x="22.667" y="66.656"/>
			</g>
			<g>

					<rect fill="#282D33" height="5.955" transform="matrix(0.2608 0.9654 -0.9654 0.2608 95.8747 32.1388)" width="4" x="24.952" y="75.695"/>
			</g>
			<g>

					<rect fill="#282D33" height="5.966" transform="matrix(0.5031 0.8642 -0.8642 0.5031 91.3506 17.1241)" width="4" x="28.783" y="85.024"/>
			</g>
			<g>

					<rect fill="#282D33" height="5.979" transform="matrix(0.7102 0.704 -0.704 0.7102 78.2927 1.8681)" width="4" x="34.877" y="93.032"/>
			</g>
			<g>

					<rect fill="#282D33" height="4" transform="matrix(0.7037 0.7105 -0.7105 0.7037 95.2288 -36.2896)" width="5.979" x="88.132" y="94.023"/>
			</g>
			<g>

					<rect fill="#282D33" height="3.999" transform="matrix(0.864 0.5035 -0.5035 0.864 57.5302 -36.9772)" width="5.964" x="94.233" y="86.009"/>
			</g>
			<g>

					<rect fill="#282D33" height="4" transform="matrix(0.9653 0.2611 -0.2611 0.9653 24.0465 -23.654)" width="5.955" x="98.072" y="76.676"/>
			</g>
			<g>
				<rect fill="#282D33" height="4" width="5.949" x="99.382" y="66.66"/>
			</g>
			<g>

					<rect fill="#282D33" height="5.954" transform="matrix(0.2608 0.9654 -0.9654 0.2608 131.3143 -54.2009)" width="4" x="99.049" y="55.667"/>
			</g>
			<g>

					<rect fill="#282D33" height="5.964" transform="matrix(0.5034 0.864 -0.864 0.5034 90.8819 -59.5144)" width="4" x="95.219" y="46.329"/>
			</g>
			<g>

					<rect fill="#282D33" height="5.976" transform="matrix(0.7105 0.7037 -0.7037 0.7105 55.4373 -52.168)" width="4" x="89.124" y="38.307"/>
			</g>
			<g>

					<rect fill="#282D33" height="5.993" transform="matrix(0.8681 0.4963 -0.4963 0.8681 28.4117 -36.6502)" width="4" x="81.181" y="32.149"/>
			</g>
			<g>

					<rect fill="#282D33" height="6.002" transform="matrix(0.9664 0.2569 -0.2569 0.9664 10.5152 -17.941)" width="3.999" x="71.93" y="28.277"/>
			</g>
		</g>
	</g>
</g>
</svg>
