<?xml version="1.0" encoding="utf-8"?>
<!-- Generator: Adobe Illustrator 16.0.0, SVG Export Plug-In . SVG Version: 6.00 Build 0)  -->
<!DOCTYPE svg PUBLIC "-//W3C//DTD SVG 1.1//EN" "http://www.w3.org/Graphics/SVG/1.1/DTD/svg11.dtd">
<svg enable-background="new 0 0 128 128" height="128px" id="Layer_1" version="1.1" viewBox="0 0 128 128"
     width="128px" x="0px" xml:space="preserve" xmlns="http://www.w3.org/2000/svg" y="0px">
<g>
	<g>
		<path d="M128,123.459H0v-104.3h128V123.459z M4,119.459h120v-96.3H4V119.459z" fill="#282D33"/>
	</g>
	<g>
		<path d="M114.512,42.254v23.791H13.489V42.254H114.512 M118.447,38.317H9.553V69.98h108.894V38.317L118.447,38.317
			z" fill="#282D33"/>
	</g>
	<g>
		<path d="M38.139,79.75v9.811h-24.65V79.75H38.139 M42.075,75.813H9.553v17.684h32.522V75.813L42.075,75.813z" fill="#282D33"/>
	</g>
	<g>
		<rect fill="#282D33" height="4" width="32.522" x="9.553" y="98.386"/>
	</g>
	<g>
		<rect fill="#282D33" height="4" width="32.522" x="9.553" y="108.441"/>
	</g>
	<g>
		<rect fill="#282D33" height="4" width="32.521" x="47.74" y="98.386"/>
	</g>
	<g>
		<rect fill="#282D33" height="4" width="50.604" x="38.698" y="51.994"/>
	</g>
	<g>
		<rect fill="#282D33" height="4" width="32.521" x="47.74" y="108.441"/>
	</g>
	<g>
		<rect fill="#282D33" height="4" width="32.521" x="85.926" y="98.386"/>
	</g>
	<g>
		<rect fill="#282D33" height="4" width="32.521" x="85.926" y="108.441"/>
	</g>
	<g>
		<path d="M76.325,79.75v9.811H51.676V79.75H76.325 M80.262,75.813H47.74v17.684h32.521V75.813L80.262,75.813z" fill="#282D33"/>
	</g>
	<g>
		<path d="M114.512,79.75v9.811h-24.65V79.75H114.512 M118.447,75.813H85.926v17.684h32.521V75.813L118.447,75.813z" fill="#282D33"
			/>
	</g>
	<g>
		<path d="M128,23.159H0V4.541h128V23.159z M4,19.159h120V8.541H4V19.159z" fill="#282D33"/>
	</g>
	<g>
		<rect fill="#282D33" height="4" width="4.705" x="7.666" y="11.744"/>
	</g>
	<g>
		<rect fill="#282D33" height="4" width="4.708" x="15.813" y="11.744"/>
	</g>
	<g>
		<rect fill="#282D33" height="4" width="4.708" x="23.959" y="11.744"/>
	</g>
	<g>
		<rect fill="#282D33" height="4" width="41.544" x="20.58" y="29.497"/>
	</g>
	<g>
		<rect fill="#282D33" height="4" width="5.149" x="9.553" y="29.497"/>
	</g>
</g>
</svg>
