<?xml version="1.0" encoding="utf-8"?>
<!-- Generator: Adobe Illustrator 16.0.0, SVG Export Plug-In . SVG Version: 6.00 Build 0)  -->
<!DOCTYPE svg PUBLIC "-//W3C//DTD SVG 1.1//EN" "http://www.w3.org/Graphics/SVG/1.1/DTD/svg11.dtd">
<svg enable-background="new 0 0 128 128" height="128px" id="Layer_1" version="1.1" viewBox="0 0 128 128"
     width="128px" x="0px" xml:space="preserve" xmlns="http://www.w3.org/2000/svg" y="0px">
<g>
	<g>
		<g>
			<path d="M124,121.578H3.999c-2.205,0-3.999-1.805-3.999-4.023V64.936c0-2.217,1.794-4.022,3.999-4.022h39.144v4
				H3.999L4,117.555l120,0.023V64.936l-39.718-0.022v-4H124c2.206,0,4,1.805,4,4.022v52.619
				C128,119.773,126.206,121.578,124,121.578z" fill="#282D33"/>
		</g>
		<g>
			<g>
				<g>
					<rect fill="#282D33" height="4" width="8.578" x="9.781" y="71.197"/>
				</g>
				<g>
					<rect fill="#282D33" height="4" width="8.58" x="22.188" y="71.197"/>
				</g>
				<g>
					<rect fill="#282D33" height="4" width="8.577" x="34.599" y="71.197"/>
				</g>
				<g>
					<rect fill="#282D33" height="4" width="8.58" x="47.006" y="71.197"/>
				</g>
				<g>
					<rect fill="#282D33" height="4" width="8.576" x="71.828" y="71.197"/>
				</g>
				<g>
					<rect fill="#282D33" height="4" width="8.576" x="84.236" y="71.197"/>
				</g>
				<g>
					<rect fill="#282D33" height="4" width="8.578" x="96.643" y="71.197"/>
				</g>
				<g>
					<rect fill="#282D33" height="4" width="8.576" x="109.055" y="71.197"/>
				</g>
			</g>
			<g>
				<g>
					<rect fill="#282D33" height="4" width="8.578" x="9.781" y="82.813"/>
				</g>
				<g>
					<rect fill="#282D33" height="4" width="8.58" x="22.188" y="82.813"/>
				</g>
				<g>
					<rect fill="#282D33" height="4" width="8.577" x="34.599" y="82.813"/>
				</g>
				<g>
					<rect fill="#282D33" height="4" width="8.58" x="47.006" y="82.813"/>
				</g>
				<g>
					<rect fill="#282D33" height="4" width="8.578" x="59.416" y="82.813"/>
				</g>
				<g>
					<rect fill="#282D33" height="4" width="8.576" x="71.828" y="82.813"/>
				</g>
				<g>
					<rect fill="#282D33" height="4" width="8.576" x="84.236" y="82.813"/>
				</g>
				<g>
					<rect fill="#282D33" height="4" width="8.578" x="96.643" y="82.813"/>
				</g>
				<g>
					<rect fill="#282D33" height="4" width="8.576" x="109.055" y="82.813"/>
				</g>
			</g>
			<g>
				<g>
					<rect fill="#282D33" height="4" width="8.578" x="9.781" y="94.424"/>
				</g>
				<g>
					<rect fill="#282D33" height="4" width="8.58" x="22.188" y="94.424"/>
				</g>
				<g>
					<rect fill="#282D33" height="4" width="8.577" x="34.599" y="94.424"/>
				</g>
				<g>
					<rect fill="#282D33" height="4" width="8.58" x="47.006" y="94.424"/>
				</g>
				<g>
					<rect fill="#282D33" height="4" width="8.578" x="59.416" y="94.424"/>
				</g>
				<g>
					<rect fill="#282D33" height="4" width="8.576" x="71.828" y="94.424"/>
				</g>
				<g>
					<rect fill="#282D33" height="4" width="8.576" x="84.236" y="94.424"/>
				</g>
				<g>
					<rect fill="#282D33" height="4" width="8.578" x="96.643" y="94.424"/>
				</g>
				<g>
					<rect fill="#282D33" height="4" width="8.576" x="109.055" y="94.424"/>
				</g>
			</g>
			<g>
				<g>
					<rect fill="#282D33" height="4" width="8.578" x="9.781" y="106.036"/>
				</g>
				<g>
					<rect fill="#282D33" height="4" width="8.58" x="22.188" y="106.036"/>
				</g>
				<g>
					<rect fill="#282D33" height="4" width="8.577" x="34.599" y="106.036"/>
				</g>
				<g>
					<rect fill="#282D33" height="4" width="45.922" x="47.006" y="106.036"/>
				</g>
				<g>
					<rect fill="#282D33" height="4" width="8.578" x="96.643" y="106.036"/>
				</g>
				<g>
					<rect fill="#282D33" height="4" width="8.576" x="109.055" y="106.036"/>
				</g>
			</g>
		</g>
	</g>
	<g>
		<g>
			<g>
				<path d="M63.999,75.299c-0.485,0-0.97-0.176-1.353-0.526L11.877,28.162c-0.607-0.558-0.811-1.431-0.511-2.199
					c0.299-0.769,1.039-1.274,1.864-1.274h101.542c0.824,0,1.564,0.506,1.863,1.274c0.3,0.768,0.097,1.641-0.511,2.199
					L65.352,74.772C64.969,75.123,64.484,75.299,63.999,75.299z M18.366,28.688l45.633,41.896l45.637-41.896H18.366z" fill="#282D33"/>
			</g>
			<g>
				<path d="M63.999,75.299L63.999,75.299c-0.769,0-1.47-0.441-1.803-1.135l-22.379-46.61
					c-0.298-0.62-0.256-1.349,0.11-1.931c0.366-0.582,1.005-0.935,1.693-0.935h44.765c0.688,0,1.327,0.353,1.693,0.935
					c0.365,0.582,0.407,1.311,0.109,1.931L65.802,74.165C65.469,74.857,64.768,75.299,63.999,75.299z M44.799,28.688L64,68.679
					l19.206-39.99H44.799z" fill="#282D33"/>
			</g>
		</g>
		<g>
			<g>
				<path d="M114.771,28.826H13.23c-0.761,0-1.457-0.432-1.793-1.115c-0.337-0.683-0.257-1.498,0.206-2.102
					l13.97-18.22c0.379-0.494,0.965-0.783,1.587-0.783h73.604c0.622,0,1.209,0.29,1.587,0.783l13.967,18.22
					c0.464,0.604,0.544,1.419,0.207,2.102C116.229,28.394,115.533,28.826,114.771,28.826z M17.284,24.826h93.435l-10.901-14.22
					h-71.63L17.284,24.826z" fill="#282D33"/>
			</g>
			<g>
				<path d="M86.385,28.826H41.62c-0.844,0-1.598-0.53-1.883-1.325c-0.285-0.795-0.04-1.683,0.612-2.22L62.729,6.876
					c0.738-0.606,1.803-0.606,2.541,0l22.386,18.404c0.652,0.536,0.897,1.424,0.612,2.22C87.982,28.295,87.229,28.826,86.385,28.826
					z M47.201,24.826h33.602L63.999,11.011L47.201,24.826z" fill="#282D33"/>
			</g>
			<g>
				<path d="M41.438,28.826H13.23c-0.761,0-1.457-0.432-1.793-1.115c-0.337-0.683-0.257-1.498,0.207-2.102
					l13.97-18.22c0.378-0.494,0.965-0.783,1.587-0.783c0.617,0,1.24,0.284,1.619,0.771l14.197,18.22
					c0.47,0.603,0.555,1.421,0.219,2.107S42.202,28.826,41.438,28.826z M17.284,24.826h20.061L27.233,11.849L17.284,24.826z" fill="#282D33"/>
			</g>
			<g>
				<path d="M114.771,28.826H86.57c-0.765,0-1.462-0.436-1.797-1.122c-0.336-0.687-0.25-1.504,0.22-2.107
					l14.199-18.22c0.761-0.978,2.446-0.97,3.199,0.013l13.967,18.22c0.464,0.604,0.544,1.419,0.207,2.102
					C116.229,28.394,115.533,28.826,114.771,28.826z M90.664,24.826h20.055l-9.944-12.973L90.664,24.826z" fill="#282D33"/>
			</g>
		</g>
	</g>
</g>
</svg>
