<svg height="128" viewBox="0 0 128 128" width="128" xmlns="http://www.w3.org/2000/svg">
  <g>
    <path d="M105.379,113.248c-3.993-6.744-11.134-18.825-14.951-25.279,16-11.014,23.3-33.83,16.117-52.33C88.671-11.191,19.636.394,18.7,51.2A45.242,45.242,0,0,0,37.574,87.964c-3.35,5.676-11.688,19.762-14.953,25.285A5.9,5.9,0,0,0,27.67,122.1h72.66A5.9,5.9,0,0,0,105.379,113.248ZM27.67,118.6a2.388,2.388,0,0,1-2.034-3.57l3.277-5.541H99.087l3.279,5.545a2.448,2.448,0,0,1,.022,2.37,2.343,2.343,0,0,1-2.058,1.2C54.284,118.6,74.541,118.6,27.67,118.6ZM64,9.4a41.893,41.893,0,0,1,41.754,40.047h-16.6c-3.1-31.122-47.227-31.1-50.314,0h-16.6A41.844,41.844,0,0,1,64,9.4ZM85.725,51.2A21.75,21.75,0,0,1,64,72.922c-28.821-1.194-28.812-42.26,0-43.449A21.75,21.75,0,0,1,85.725,51.2Zm-63.469,1.75H38.843a25.217,25.217,0,0,0,50.314,0h16.587A41.812,41.812,0,0,1,64,93C42.649,93.446,22.779,75.127,22.256,52.947ZM40.62,90a45.29,45.29,0,0,0,46.891-.074l9.506,16.067H30.983C31.113,106.058,40.393,89.53,40.62,90Z"/>
    <path d="M63.994,41.022A10.18,10.18,0,0,0,53.831,51.2c.558,13.488,19.782,13.471,20.338,0A10.186,10.186,0,0,0,63.994,41.022Zm0,16.837A6.67,6.67,0,0,1,57.331,51.2c.313-8.841,13.026-8.827,13.338,0A6.675,6.675,0,0,1,63.994,57.859Z"/>
  </g>
</svg>
