<?xml version="1.0" encoding="utf-8"?>
<!-- Generator: Adobe Illustrator 16.0.0, SVG Export Plug-In . SVG Version: 6.00 Build 0)  -->
<!DOCTYPE svg PUBLIC "-//W3C//DTD SVG 1.1//EN" "http://www.w3.org/Graphics/SVG/1.1/DTD/svg11.dtd">
<svg version="1.1" id="Layer_1" xmlns="http://www.w3.org/2000/svg" x="0px" y="0px"
     width="128px" height="128px" viewBox="0 0 128 128" enable-background="new 0 0 128 128" xml:space="preserve">
<g>
	<g>
		<g>
			<g>
				<path fill="#282D33" d="M127.962,92.872H0v-75.31c0-2.997,2.42-5.435,5.396-5.435h19.505v4H5.396
					C4.626,16.128,4,16.771,4,17.563v71.31h119.962v-71.31c0-0.79-0.627-1.434-1.397-1.434H73.844v-4h48.721
					c2.977,0,5.397,2.438,5.397,5.434V92.872z"/>
			</g>
			<g>
				<path fill="#282D33" d="M122.797,107.654H6.066c-3.056,0-6.055-3.112-6.055-6.283V88.798H128v12.746
					C128,104.548,126.054,107.654,122.797,107.654z M4.011,92.798v8.573c0,0.96,1.19,2.283,2.055,2.283h116.731
					c0.688,0,1.203-1.114,1.203-2.11v-8.746H4.011z"/>
			</g>
			<g>
				<path fill="#282D33" d="M45.284,123.882l-1.604-3.664c1.322-0.579,2.419-1.099,3.01-1.426l0.179-0.101
					c0.248-0.139,0.556-0.31,0.621-0.377c0.04-0.052,0.194-0.327,0.45-1.631c0.3-1.535,0.264-4.294,0.231-6.729
					c-0.022-1.674-0.043-3.256,0.047-4.378l3.987,0.322c-0.076,0.935-0.056,2.425-0.035,4.003c0.037,2.757,0.074,5.607-0.306,7.55
					c-0.58,2.958-1.204,3.704-3.047,4.732l-0.179,0.1C47.677,122.817,46.125,123.514,45.284,123.882z"/>
			</g>
			<g>
				<path fill="#282D33" d="M82.595,123.896c-0.848-0.371-2.414-1.072-3.379-1.604l-0.122-0.069c-1.956-1.098-2.465-1.9-3.025-4.771
					c-0.379-1.939-0.343-4.737-0.308-7.442c0.021-1.558,0.04-3.029-0.036-3.967l3.986-0.324c0.092,1.126,0.071,2.688,0.05,4.343
					c-0.031,2.386-0.066,5.09,0.233,6.623c0.246,1.26,0.384,1.598,0.443,1.688c0.059,0.052,0.366,0.225,0.614,0.363l0.11,0.063
					c0.588,0.323,1.699,0.85,3.036,1.435L82.595,123.896z"/>
			</g>
			<g>
				<rect x="41.08" y="119.838" fill="#282D33" width="45.863" height="4"/>
			</g>
		</g>
	</g>
	<g>
		<g>
			<path fill="#282D33" d="M33.589,81.409H14.017V57.76h19.572V81.409z M18.017,77.409h11.572V61.76H18.017V77.409z"/>
		</g>
		<g>
			<path fill="#282D33" d="M59.265,81.41h-19.58V31.349h19.58V81.41z M43.685,77.41h11.58V35.349h-11.58V77.41z"/>
		</g>
		<g>
			<path fill="#282D33" d="M84.936,81.409h-19.58V43.813h19.58V81.409z M69.355,77.409h11.58V47.813h-11.58V77.409z"/>
		</g>
		<g>
			<path fill="#282D33" d="M110.605,81.409H91.031V20.684h19.574V81.409z M95.031,77.409h11.574V24.684H95.031V77.409z"/>
		</g>
		<g>
			<path fill="#282D33" d="M49.104,31.328l-3.99-6.986H34.771c-2.251,0-4.082-1.838-4.082-4.098V8.201
				c0-2.26,1.831-4.098,4.082-4.098h28.673c1.086,0,2.11,0.425,2.879,1.196c0.774,0.775,1.2,1.808,1.198,2.905v12.039
				c0,2.26-1.83,4.098-4.079,4.098H53.095L49.104,31.328z M34.771,8.104c-0.046,0-0.082,0.043-0.082,0.098v12.043
				c0,0.058,0.034,0.098,0.082,0.098h12.667l1.667,2.923l1.663-2.923h12.675c0.039,0,0.079-0.036,0.079-0.098V8.201l-0.078-0.098
				H34.771z"/>
		</g>
		<g>
			<rect x="41.372" y="12.331" fill="#282D33" width="15.469" height="4"/>
		</g>
		<g>
			<rect x="11.005" y="77.409" fill="#282D33" width="105.99" height="4"/>
		</g>
	</g>
</g>
</svg>
