<?xml version="1.0" encoding="utf-8"?>
<!-- Generator: Adobe Illustrator 16.0.0, SVG Export Plug-In . SVG Version: 6.00 Build 0)  -->
<!DOCTYPE svg PUBLIC "-//W3C//DTD SVG 1.1//EN" "http://www.w3.org/Graphics/SVG/1.1/DTD/svg11.dtd">
<svg enable-background="new 0 0 128 128" height="128px" id="Layer_1" version="1.1" viewBox="0 0 128 128"
     width="128px" x="0px" xml:space="preserve" xmlns="http://www.w3.org/2000/svg" y="0px">
<g>
	<g>
		<g>
			<polygon fill="#282D33" points="103.176,122.41 0,122.41 0,53.038 48.139,53.038 48.139,57.038 4,57.038 4,118.41 99.176,118.41
				99.176,98.662 103.176,98.662 			"/>
		</g>
		<g>
			<polygon fill="#282D33" points="68.525,112.959 9.363,112.959 9.363,62.488 39.5,62.488 39.5,66.488 13.363,66.488
				13.363,108.959 68.525,108.959 			"/>
		</g>
		<g>
			<polygon fill="#282D33" points="48.139,57.038 0,57.038 0,37.998 47.303,37.998 47.303,41.998 4,41.998 4,53.038 48.139,53.038
							"/>
		</g>
		<g>
			<rect fill="#282D33" height="4" width="4.842" x="7.83" y="45.409"/>
		</g>
		<g>
			<rect fill="#282D33" height="4" width="4.846" x="16.212" y="45.409"/>
		</g>
		<g>
			<rect fill="#282D33" height="4" width="4.846" x="24.596" y="45.409"/>
		</g>
	</g>
	<g>
		<g>
			<g>
				<g>
					<polygon fill="#282D33" points="93.596,108.971 85.133,88.838 88.82,87.287 94.828,101.578 101.855,93.697 112.377,94.072
						107.725,83.01 111.412,81.459 118.49,98.293 103.59,97.762 					"/>
				</g>
			</g>
			<g>
				<g>
					<polygon fill="#282D33" points="76.654,111.348 66.467,100.322 51.578,101.113 59.858,80.426 63.572,81.912 57.618,96.787
						68.131,96.229 75.295,103.982 81.831,87.654 85.544,89.141 					"/>
				</g>
			</g>
		</g>
		<g>
			<path d="M85.016,92.332c-1.954,0-3.335-1.449-4.553-2.729c-0.478-0.504-1.278-1.344-1.619-1.441
				c-0.398,0.004-1.347,0.516-2.039,0.889c-1.229,0.664-2.499,1.35-3.893,1.35c-0.413,0-0.813-0.063-1.188-0.186
				c-1.841-0.605-2.703-2.404-3.464-3.992c-0.306-0.637-0.816-1.703-1.119-1.904c0,0-0.085-0.031-0.359-0.031
				c-0.494,0-1.171,0.123-1.826,0.24c-0.825,0.148-1.678,0.301-2.525,0.301c-1.089,0-1.969-0.258-2.689-0.787
				c-1.549-1.137-1.817-3.105-2.054-4.842c-0.097-0.715-0.26-1.908-0.495-2.189c-0.262-0.219-1.435-0.381-2.136-0.479
				c-1.729-0.24-3.689-0.512-4.82-2.084c-1.121-1.551-0.777-3.502-0.474-5.225c0.125-0.715,0.336-1.912,0.194-2.252
				c-0.183-0.289-1.244-0.809-1.877-1.117c-1.574-0.77-3.359-1.643-3.953-3.496c-0.583-1.814,0.339-3.553,1.152-5.087
				c0.344-0.649,0.921-1.736,0.882-2.104c-0.087-0.331-0.929-1.148-1.432-1.637c-1.263-1.226-2.695-2.615-2.695-4.569
				c0-1.953,1.432-3.341,2.694-4.567c0.504-0.489,1.347-1.306,1.436-1.651c0.034-0.353-0.541-1.437-0.884-2.083
				c-0.816-1.538-1.741-3.28-1.15-5.1c0.592-1.844,2.375-2.716,3.949-3.486c0.634-0.31,1.696-0.83,1.886-1.133
				c0.134-0.324-0.077-1.522-0.204-2.239c-0.304-1.721-0.648-3.672,0.473-5.227c1.132-1.569,3.091-1.842,4.82-2.083
				c0.701-0.098,1.874-0.261,2.149-0.492c0.221-0.268,0.384-1.461,0.481-2.174c0.237-1.738,0.505-3.707,2.056-4.846
				c0.722-0.53,1.603-0.787,2.692-0.787c0.846,0,1.699,0.153,2.524,0.301c0.654,0.117,1.33,0.238,1.824,0.238
				c0.278,0,0.378-0.04,0.379-0.04c0.283-0.187,0.796-1.257,1.103-1.896c0.761-1.587,1.623-3.387,3.463-3.99
				c0.376-0.123,0.774-0.186,1.188-0.186c1.395,0,2.666,0.687,3.896,1.351c0.692,0.375,1.641,0.887,2.051,0.887
				c0.326-0.093,1.127-0.935,1.605-1.438c1.218-1.28,2.599-2.73,4.554-2.73c1.953,0,3.332,1.449,4.549,2.727
				c0.48,0.504,1.284,1.349,1.626,1.445c0.395-0.004,1.342-0.516,2.034-0.89c1.229-0.665,2.5-1.351,3.895-1.351
				c0.413,0,0.813,0.063,1.188,0.186c1.841,0.604,2.703,2.403,3.464,3.991c0.306,0.637,0.816,1.703,1.118,1.903
				c0.001,0.001,0.08,0.031,0.364,0.031c0.494,0,1.172-0.121,1.826-0.238c0.824-0.148,1.677-0.3,2.521-0.3
				c1.091,0,1.971,0.257,2.691,0.788c1.548,1.139,1.816,3.106,2.054,4.842c0.098,0.714,0.261,1.908,0.495,2.188
				c0.265,0.22,1.435,0.383,2.133,0.479c1.73,0.241,3.69,0.513,4.821,2.084c1.121,1.552,0.778,3.503,0.476,5.225
				c-0.126,0.717-0.337,1.917-0.193,2.256c0.182,0.288,1.242,0.805,1.875,1.114c1.574,0.769,3.358,1.64,3.954,3.492
				c0.584,1.814-0.339,3.555-1.153,5.091c-0.344,0.648-0.92,1.734-0.883,2.103c0.087,0.332,0.93,1.149,1.434,1.637
				c1.264,1.226,2.695,2.614,2.695,4.567c0,1.954-1.433,3.343-2.696,4.569c-0.503,0.488-1.346,1.306-1.436,1.65
				c-0.035,0.354,0.541,1.441,0.886,2.091c0.813,1.536,1.735,3.276,1.151,5.092c-0.594,1.85-2.378,2.721-3.952,3.489
				c-0.634,0.311-1.696,0.828-1.886,1.133c-0.136,0.326,0.075,1.527,0.201,2.244c0.302,1.719,0.645,3.668-0.472,5.223
				c-1.134,1.572-3.093,1.842-4.821,2.082c-0.699,0.096-1.87,0.258-2.145,0.488c-0.226,0.271-0.389,1.467-0.486,2.18
				c-0.236,1.736-0.506,3.705-2.055,4.842c-0.72,0.529-1.6,0.787-2.688,0.787c-0.847,0-1.701-0.154-2.526-0.303
				c-0.655-0.117-1.333-0.24-1.826-0.24c-0.276,0-0.376,0.039-0.377,0.041c-0.281,0.186-0.795,1.256-1.102,1.895
				c-0.761,1.588-1.624,3.389-3.465,3.992c-0.375,0.123-0.774,0.186-1.188,0.186h-0.001c-1.394,0-2.664-0.686-3.893-1.35
				c-0.692-0.373-1.64-0.885-2.048-0.885c-0.332,0.094-1.134,0.936-1.613,1.439C88.347,90.883,86.969,92.332,85.016,92.332z
				 M78.854,84.166c0.216,0,0.427,0.016,0.635,0.049c1.61,0.254,2.812,1.516,3.872,2.631c0.482,0.506,1.276,1.34,1.655,1.479
				c0.377-0.139,1.17-0.971,1.65-1.477c1.062-1.115,2.265-2.379,3.884-2.633c0.201-0.033,0.412-0.049,0.627-0.049
				c1.42,0,2.763,0.725,3.948,1.365c0.612,0.33,1.524,0.824,1.938,0.867c0.315-0.268,0.804-1.285,1.102-1.904
				c0.668-1.393,1.425-2.971,2.882-3.725c0.631-0.324,1.35-0.482,2.203-0.482c0.851,0,1.706,0.154,2.534,0.305
				c0.653,0.117,1.328,0.238,1.818,0.238c0.164,0,0.264-0.014,0.317-0.025c0.218-0.348,0.37-1.465,0.463-2.145
				c0.21-1.539,0.448-3.283,1.613-4.459c1.165-1.178,2.901-1.418,4.433-1.631c0.703-0.098,1.88-0.26,2.154-0.492
				c0.08-0.26-0.129-1.447-0.253-2.158c-0.27-1.531-0.575-3.27,0.173-4.748c0.746-1.473,2.313-2.239,3.696-2.914
				c0.646-0.315,1.728-0.843,1.914-1.155c-0.002-0.276-0.56-1.329-0.894-1.958c-0.729-1.377-1.557-2.938-1.301-4.589
				c0.253-1.619,1.5-2.829,2.601-3.896c0.527-0.511,1.409-1.367,1.483-1.729c-0.075-0.3-0.956-1.154-1.482-1.665
				c-1.101-1.068-2.349-2.278-2.602-3.896c-0.257-1.65,0.571-3.212,1.302-4.59c0.334-0.629,0.893-1.682,0.868-2.043
				c-0.16-0.227-1.243-0.756-1.89-1.072c-1.382-0.674-2.948-1.439-3.692-2.909c-0.748-1.482-0.443-3.217-0.174-4.748
				c0.124-0.709,0.333-1.896,0.195-2.235c-0.222-0.159-1.399-0.323-2.104-0.421c-1.529-0.212-3.263-0.454-4.429-1.631
				c-1.163-1.172-1.401-2.917-1.611-4.458c-0.094-0.681-0.246-1.798-0.464-2.146c-0.053-0.011-0.153-0.025-0.318-0.025
				c-0.489,0-1.164,0.121-1.816,0.237c-0.826,0.148-1.682,0.301-2.531,0.301c-0.855,0-1.576-0.157-2.204-0.48
				c-1.461-0.753-2.218-2.333-2.886-3.726c-0.297-0.62-0.784-1.636-1.1-1.902c-0.418,0.045-1.327,0.536-1.938,0.867
				c-1.186,0.641-2.529,1.367-3.949,1.367c-0.214,0-0.423-0.016-0.629-0.049c-1.617-0.257-2.819-1.52-3.88-2.634
				c-0.5-0.525-1.337-1.404-1.694-1.489c-0.274,0.084-1.113,0.965-1.614,1.492c-1.06,1.113-2.261,2.375-3.874,2.631
				c-1.583,0.248-3.217-0.582-4.581-1.318c-0.613-0.331-1.524-0.824-1.939-0.867c-0.315,0.267-0.802,1.282-1.099,1.901
				c-0.668,1.395-1.425,2.975-2.885,3.728c-0.63,0.323-1.35,0.48-2.203,0.48c-0.849,0-1.703-0.153-2.53-0.301
				c-0.653-0.117-1.328-0.238-1.818-0.238c-0.167,0-0.268,0.015-0.322,0.025c-0.218,0.349-0.371,1.466-0.463,2.147
				c-0.209,1.538-0.447,3.281-1.608,4.454c-1.168,1.179-2.903,1.421-4.433,1.634c-0.705,0.098-1.883,0.262-2.158,0.496
				c-0.082,0.261,0.127,1.448,0.252,2.157c0.27,1.531,0.576,3.266-0.169,4.746c-0.747,1.473-2.313,2.239-3.694,2.915
				c-0.646,0.316-1.729,0.845-1.915,1.158c0,0.278,0.559,1.331,0.893,1.959c0.73,1.376,1.558,2.936,1.301,4.585
				c-0.253,1.618-1.5,2.828-2.6,3.896c-0.526,0.51-1.407,1.365-1.482,1.727c0.075,0.301,0.957,1.156,1.483,1.667
				c1.1,1.068,2.347,2.278,2.599,3.895c0.257,1.652-0.571,3.213-1.301,4.59c-0.333,0.628-0.891,1.681-0.867,2.041
				c0.16,0.229,1.243,0.758,1.889,1.074c1.382,0.675,2.948,1.44,3.692,2.911c0.749,1.48,0.443,3.217,0.174,4.746
				c-0.125,0.709-0.333,1.896-0.196,2.234c0.221,0.158,1.397,0.32,2.1,0.418c1.53,0.213,3.265,0.453,4.434,1.631
				c1.164,1.176,1.402,2.92,1.612,4.459c0.093,0.68,0.245,1.797,0.462,2.145c0.053,0.012,0.154,0.025,0.318,0.025
				c0.49,0,1.166-0.121,1.818-0.238c0.828-0.148,1.683-0.303,2.533-0.303c0.854,0,1.573,0.158,2.2,0.48
				c1.462,0.756,2.219,2.334,2.886,3.727c0.297,0.621,0.784,1.637,1.1,1.904c0.417-0.047,1.326-0.537,1.938-0.867
				C76.09,84.891,77.434,84.166,78.854,84.166z" fill="#282D33"/>
		</g>
		<g>
			<path d="M85.016,77.758c-15.74,0-28.545-12.918-28.545-28.797s12.805-28.798,28.545-28.798
				c15.741,0,28.547,12.918,28.547,28.798S100.757,77.758,85.016,77.758z M85.016,24.163c-13.534,0-24.545,11.125-24.545,24.798
				s11.011,24.797,24.545,24.797c13.535,0,24.547-11.124,24.547-24.797S98.551,24.163,85.016,24.163z" fill="#282D33"/>
		</g>
		<g>
			<path d="M94.133,62.365l-9.697-5.15l-9.701,5.149l1.852-10.901l-7.823-7.698l10.813-1.588l4.86-9.933l4.855,9.933
				l10.817,1.588l-7.828,7.698L94.133,62.365z M77.3,46.553l3.579,3.521l-0.84,4.944l4.396-2.334l4.393,2.333l-0.84-4.944
				l3.58-3.521l-4.944-0.726l-2.189-4.479l-2.192,4.479L77.3,46.553z" fill="#282D33"/>
		</g>
	</g>
</g>
</svg>
