<?xml version="1.0" encoding="utf-8"?>
<!-- Generator: Adobe Illustrator 16.0.0, SVG Export Plug-In . SVG Version: 6.00 Build 0)  -->
<!DOCTYPE svg PUBLIC "-//W3C//DTD SVG 1.1//EN" "http://www.w3.org/Graphics/SVG/1.1/DTD/svg11.dtd">
<svg enable-background="new 0 0 128 128" height="128px" id="Layer_1" version="1.1" viewBox="0 0 128 128"
     width="128px" x="0px" xml:space="preserve" xmlns="http://www.w3.org/2000/svg" y="0px">
<g>
	<g>
		<path d="M16.681,118.609C7.483,118.609,0,111.06,0,101.779s7.483-16.831,16.681-16.831
			c9.198,0,16.681,7.551,16.681,16.831S25.879,118.609,16.681,118.609z M16.681,88.948C9.689,88.948,4,94.704,4,101.779
			c0,7.074,5.689,12.83,12.681,12.83s12.681-5.756,12.681-12.83C29.362,94.704,23.673,88.948,16.681,88.948z" fill="#282D33"/>
	</g>
	<g>
		<g>
			<path d="M128,78.334H3.343V54.461H128V78.334z M7.343,74.334H124V58.461H7.343V74.334z" fill="#282D33"/>
		</g>
		<g>
			<rect fill="#282D33" height="7.827" width="4" x="14.908" y="57.666"/>
		</g>
		<g>
			<rect fill="#282D33" height="4.214" width="4" x="23.104" y="57.666"/>
		</g>
		<g>
			<rect fill="#282D33" height="7.827" width="4" x="31.302" y="57.666"/>
		</g>
		<g>
			<rect fill="#282D33" height="4.214" width="4" x="39.498" y="57.666"/>
		</g>
		<g>
			<rect fill="#282D33" height="7.827" width="4" x="47.696" y="57.666"/>
		</g>
		<g>
			<rect fill="#282D33" height="4.214" width="4" x="55.89" y="57.666"/>
		</g>
		<g>
			<rect fill="#282D33" height="7.827" width="4" x="64.089" y="57.666"/>
		</g>
		<g>
			<rect fill="#282D33" height="4.214" width="4" x="72.285" y="57.666"/>
		</g>
		<g>
			<rect fill="#282D33" height="7.827" width="4" x="80.48" y="57.666"/>
		</g>
		<g>
			<rect fill="#282D33" height="4.214" width="4" x="88.68" y="57.666"/>
		</g>
		<g>
			<rect fill="#282D33" height="7.827" width="4" x="96.877" y="57.666"/>
		</g>
		<g>
			<rect fill="#282D33" height="4.214" width="4" x="105.07" y="57.666"/>
		</g>
		<g>
			<rect fill="#282D33" height="7.827" width="4" x="113.268" y="57.666"/>
		</g>
	</g>
	<g>
		<g>
			<path d="M39.659,45.727H3.648V9.391h36.011V45.727z M7.648,41.727h28.011V13.391H7.648V41.727z" fill="#282D33"/>
		</g>
		<g>

				<rect fill="#282D33" height="45.501" transform="matrix(0.7106 0.7036 -0.7036 0.7106 25.6548 -7.2601)" width="4" x="19.653" y="4.808"/>
		</g>
		<g>

				<rect fill="#282D33" height="4" transform="matrix(0.7035 0.7107 -0.7107 0.7035 26.0046 -7.2181)" width="45.501" x="-1.097" y="25.558"/>
		</g>
	</g>
	<g>
		<g>
			<path d="M83.391,45.727H47.382V9.391h36.009V45.727z M51.382,41.727h28.009V13.391H51.382V41.727z" fill="#282D33"/>
		</g>
		<g>

				<rect fill="#282D33" height="45.501" transform="matrix(0.7106 0.7036 -0.7036 0.7106 38.3097 -38.0295)" width="4" x="63.387" y="4.808"/>
		</g>
		<g>

				<rect fill="#282D33" height="4" transform="matrix(0.7035 0.7107 -0.7107 0.7035 38.9704 -38.2983)" width="45.501" x="42.637" y="25.558"/>
		</g>
	</g>
	<g>
		<g>
			<path d="M127.126,45.727H91.117V9.391h36.009V45.727z M95.117,41.727h28.009V13.391H95.117V41.727z" fill="#282D33"/>
		</g>
		<g>

				<rect fill="#282D33" height="45.499" transform="matrix(0.7105 0.7037 -0.7037 0.7105 50.9813 -68.8089)" width="4" x="107.122" y="4.809"/>
		</g>
		<g>

				<rect fill="#282D33" height="4" transform="matrix(0.7035 0.7107 -0.7107 0.7035 51.94 -69.3809)" width="45.499" x="86.372" y="25.559"/>
		</g>
	</g>
	<g>
		<g>
			<rect fill="#282D33" height="4" width="86.26" x="36.5" y="94.221"/>
		</g>
		<g>
			<rect fill="#282D33" height="4" width="66.33" x="36.5" y="105.844"/>
		</g>
		<g>
			<polygon fill="#282D33" points="14.178,109.471 8.324,104.002 11.054,101.078 13.732,103.58 21.681,93.517 24.819,95.995 			"/>
		</g>
	</g>
</g>
</svg>
