<svg height="128" viewBox="0 0 128 128" width="128" xmlns="http://www.w3.org/2000/svg">
  <g>
    <path d="M120.419,92.024h-3.357V31.238a12.412,12.412,0,0,0-12.4-12.4H23.336a12.413,12.413,0,0,0-12.4,12.4V92.024H7.581a1.75,1.75,0,0,0-1.75,1.75v6.637a8.76,8.76,0,0,0,8.75,8.75h98.838a8.76,8.76,0,0,0,8.75-8.75V93.774A1.75,1.75,0,0,0,120.419,92.024ZM14.437,31.238a8.91,8.91,0,0,1,8.9-8.9h81.328a8.909,8.909,0,0,1,8.9,8.9V92.024H14.437ZM78.581,95.615a5.26,5.26,0,0,1-4.95,3.5H54.369a5.26,5.26,0,0,1-4.95-3.5Zm40.088,4.8a5.256,5.256,0,0,1-5.25,5.25H14.581a5.256,5.256,0,0,1-5.25-5.25V95.524H45.782a8.76,8.76,0,0,0,8.587,7.091H73.631a8.76,8.76,0,0,0,8.587-7.091h36.451Z"/>
    <path d="M46.1,50.957H32.671c-8.236.29-8.241,12.158,0,12.45H46.1a1.751,1.751,0,0,0,1.75-1.75v-8.95A1.75,1.75,0,0,0,46.1,50.957ZM29.945,57.182a2.728,2.728,0,0,1,2.726-2.725H35.4v5.45H32.671A2.728,2.728,0,0,1,29.945,57.182Zm14.4,2.725H38.9v-5.45h5.452Z"/>
    <path d="M95.329,33.054A6.233,6.233,0,0,0,89.1,39.28V68.858H83.652V52.707a1.749,1.749,0,0,0-1.75-1.75H55.049a1.749,1.749,0,0,0-1.75,1.75v8.95a1.75,1.75,0,0,0,1.75,1.75H71.2V79.56a1.75,1.75,0,0,0,1.75,1.75H99.805a1.751,1.751,0,0,0,1.75-1.75V39.28A6.233,6.233,0,0,0,95.329,33.054Zm2.726,17.9H92.6V45.505h5.452Zm0,8.95H92.6v-5.45h5.452Zm-5.452,3.5h5.452v5.451H92.6Zm0-24.127a2.726,2.726,0,0,1,5.452,0v2.725H92.6ZM74.7,63.407h5.451v5.451H74.7Zm5.451-3.5H74.7v-5.45h5.451ZM56.8,54.457H62.25v5.45H56.8Zm8.951,0H71.2v5.45H65.75Zm8.951,17.9h5.451V77.81H74.7Zm8.951,0H89.1V77.81H83.652Zm14.4,5.452H92.6V72.358h5.452Z"/>
  </g>
</svg>
