<svg xmlns="http://www.w3.org/2000/svg" xmlns:xlink="http://www.w3.org/1999/xlink" viewBox="0 0 91 81" fill="#fff" fill-rule="evenodd" stroke="#000" stroke-linecap="round" stroke-linejoin="round"><use xlink:href="#A" x=".5" y=".5"/><symbol id="A" overflow="visible"><g stroke="none"><path d="M90 64.59l-.171-3.443c-.341-4.262-1.366-13.115-2.22-17.213-1.024-4.263-2.22-8.197-7.172-10.656-3.928-1.967-5.978-2.623-7.856-2.623-.854 0-1.537.164-2.049.328 3.758-3.115 6.319-8.033 6.319-13.607C76.85 7.869 69.507 0 60.456 0S44.061 7.869 44.061 17.377c0 5.574 2.391 10.492 6.319 13.607a6.61 6.61 0 0 0-2.05-.328c-1.878 0-3.928.656-7.855 2.623-3.245 1.639-5.295 3.935-6.49 7.705l-.512 1.64h-15.2l-2.731 3.115v4.426H0v12.459 2.459V80h54.649V65.082v-.492H90z"/><path d="M40.987 49.181H57.04v11.803h29.374c-.341-4.262-1.196-12.951-2.22-16.721-1.024-4.426-2.049-6.721-5.465-8.361-3.244-1.639-5.124-2.131-6.319-2.131-1.024 0-1.707.492-2.39 1.147-.171 0-.171.164-.341.328-3.245 2.623-6.319 3.279-9.564 3.279s-6.319-.656-9.564-3.279l-.341-.328c-.683-.655-1.366-1.147-2.39-1.147-1.196 0-2.904.656-6.319 2.131-2.561 1.311-3.928 2.951-4.782 5.738l4.099 4.754v2.787zm19.127-18.033c7.173 0 12.979-6.394 12.979-14.099S67.286 2.951 60.114 2.951s-12.98 6.393-12.98 14.098 5.807 14.099 12.98 14.099zM15.541 60.492v7.541h2.561v-7.541h-2.561zm20.834 0v7.541h2.562v-7.541h-2.562zm5.123 10h-7.856v-4.918H20.664v4.918h-7.855v-4.918H2.391v12.459h49.525V65.574H41.499v4.918zm-5.123-17.541v-5.902l-1.366-1.475H19.468l-1.366 1.475v6.066H2.562v10H12.98v-4.918h7.856v4.918h12.979v-4.918h7.855v4.918h10.418v-10H36.376zm-2.561 0H20.835v-4.918h12.979v4.918z" fill="#515150"/></g></symbol></svg>