<svg xmlns="http://www.w3.org/2000/svg" viewBox="0 0 64 64"><g id="Layer_25" data-name="Layer 25"><path d="M14,32a1,1,0,0,1-1-1V17a1,1,0,0,1,1-1H31a1,1,0,0,1,0,2H15V31A1,1,0,0,1,14,32Z" style="fill:#7a838b"/><path d="M50,51H33a1,1,0,0,1,0-2H49V37a1,1,0,0,1,2,0V50A1,1,0,0,1,50,51Z" style="fill:#7a838b"/><rect x="37" y="1" width="26" height="8" rx="2" style="fill:#7a838b"/><path d="M42,6a2,2,0,0,1-2-2V1H39a2,2,0,0,0-2,2V7a2,2,0,0,0,2,2H61a2,2,0,0,0,2-2V6Z" style="fill:#5d6972"/><rect x="37" y="12" width="26" height="8" rx="2" style="fill:#7a838b"/><path d="M42,17a2,2,0,0,1-2-2V12H39a2,2,0,0,0-2,2v4a2,2,0,0,0,2,2H61a2,2,0,0,0,2-2V17Z" style="fill:#5d6972"/><rect x="37" y="23" width="26" height="8" rx="2" style="fill:#7a838b"/><path d="M42,28a2,2,0,0,1-2-2V23H39a2,2,0,0,0-2,2v4a2,2,0,0,0,2,2H61a2,2,0,0,0,2-2V28Z" style="fill:#5d6972"/><rect x="39" y="9" width="4" height="3" style="fill:#d6e4e8"/><rect x="57" y="9" width="4" height="3" style="fill:#d6e4e8"/><rect x="39" y="20" width="4" height="3" style="fill:#d6e4e8"/><rect x="57" y="20" width="4" height="3" style="fill:#d6e4e8"/><rect x="1" y="37" width="26" height="20" rx="2" style="fill:#d6e4e8"/><path d="M4,55V39a2,2,0,0,1,2-2H3a2,2,0,0,0-2,2V55a2,2,0,0,0,2,2H6A2,2,0,0,1,4,55Z" style="fill:#baced3"/><path d="M1,53H27a0,0,0,0,1,0,0v2a2,2,0,0,1-2,2H3a2,2,0,0,1-2-2V53a0,0,0,0,1,0,0Z" style="fill:#7a838b"/><path d="M4,55V53H1v2a2,2,0,0,0,2,2H6A2,2,0,0,1,4,55Z" style="fill:#5d6972"/><polygon points="17 57 11 57 10 63 18 63 17 57" style="fill:#7a838b"/><polygon points="17.333 59 17 57 11 57 10.667 59 17.333 59" style="fill:#5d6972"/><circle cx="14" cy="31" r="2" style="fill:#f8c460"/><circle cx="50" cy="37" r="2" style="fill:#f8c460"/><circle cx="33" cy="50" r="2" style="fill:#f8c460"/><circle cx="31" cy="17" r="2" style="fill:#f8c460"/><circle cx="60" cy="4" r="1" style="fill:#f8c460"/><circle cx="57" cy="4" r="1" style="fill:#f8c460"/><circle cx="54" cy="4" r="1" style="fill:#f8c460"/><circle cx="60" cy="15" r="1" style="fill:#f8c460"/><circle cx="57" cy="15" r="1" style="fill:#f8c460"/><circle cx="54" cy="15" r="1" style="fill:#f8c460"/><circle cx="60" cy="26" r="1" style="fill:#f8c460"/><circle cx="57" cy="26" r="1" style="fill:#f8c460"/><circle cx="54" cy="26" r="1" style="fill:#f8c460"/></g></svg>