<svg xmlns="http://www.w3.org/2000/svg" xmlns:xlink="http://www.w3.org/1999/xlink" viewBox="0 0 63.75 85" fill="#fff" fill-rule="evenodd" stroke="#000" stroke-linecap="round" stroke-linejoin="round"><use xlink:href="#A" x="1.875" y="2.5"/><symbol id="A" overflow="visible"><g stroke="none"><path d="M19.711 4.956V40h-4.247v33.003L30 80l8.746-40L30 0 19.711 4.956z" fill="#9d5025"/><path d="M30 0v40 40l10.289-4.956V40h4.247V6.997L30 0z" fill="#f58536"/><path d="M60 29.777L41.61 31.449l-6.042-.729 19.166-18.805L60 29.777z" fill="#6b3a19"/><path d="M54.734 11.915L60 14.451v15.326l-5.266-1.011V11.915z" fill="#f58536"/><path d="M35.568 30.72l19.166-1.953V11.915L35.568 16.91V30.72z" fill="#9d5025"/><path d="M0 50.224l18.389-1.672 6.042.729L5.266 68.086 0 50.224z" fill="#fbbf93"/><path d="M5.266 68.086L0 65.55V50.224l5.266 1.069v16.793z" fill="#9d5025"/><path d="M24.432 49.281L5.266 51.293v16.793l19.166-4.995V49.281z" fill="#f58536"/></g></symbol></svg>