<?xml version="1.0" encoding="UTF-8" standalone="no"?>
<svg
   xmlns:dc="http://purl.org/dc/elements/1.1/"
   xmlns:cc="http://creativecommons.org/ns#"
   xmlns:rdf="http://www.w3.org/1999/02/22-rdf-syntax-ns#"
   xmlns:svg="http://www.w3.org/2000/svg"
   xmlns="http://www.w3.org/2000/svg"
   xmlns:sodipodi="http://sodipodi.sourceforge.net/DTD/sodipodi-0.dtd"
   xmlns:inkscape="http://www.inkscape.org/namespaces/inkscape"
   width="2424"
   height="2500"
   viewBox="0 0 256 264"
   preserveAspectRatio="xMinYMin meet"
   version="1.1"
   id="svg10"
   sodipodi:docname="aws-postgresql.svg"
   inkscape:version="0.92.1 r15371">
  <metadata
     id="metadata16">
    <rdf:RDF>
      <cc:Work
         rdf:about="">
        <dc:format>image/svg+xml</dc:format>
        <dc:type
           rdf:resource="http://purl.org/dc/dcmitype/StillImage" />
        <dc:title></dc:title>
      </cc:Work>
    </rdf:RDF>
  </metadata>
  <defs
     id="defs14" />
  <sodipodi:namedview
     pagecolor="#ffffff"
     bordercolor="#666666"
     borderopacity="1"
     objecttolerance="10"
     gridtolerance="10"
     guidetolerance="10"
     inkscape:pageopacity="0"
     inkscape:pageshadow="2"
     inkscape:window-width="1920"
     inkscape:window-height="1001"
     id="namedview12"
     showgrid="false"
     inkscape:zoom="0.0944"
     inkscape:cx="1212"
     inkscape:cy="1250"
     inkscape:window-x="-9"
     inkscape:window-y="-9"
     inkscape:window-maximized="1"
     inkscape:current-layer="svg10" />
  <path
     d="M255.008 158.086c-1.535-4.649-5.556-7.887-10.756-8.664-2.452-.366-5.26-.21-8.583.475-5.792 1.195-10.089 1.65-13.225 1.738 11.837-19.985 21.462-42.775 27.003-64.228 8.96-34.689 4.172-50.492-1.423-57.64C233.217 10.847 211.614.683 185.552.372c-13.903-.17-26.108 2.575-32.475 4.549-5.928-1.046-12.302-1.63-18.99-1.738-12.537-.2-23.614 2.533-33.079 8.15-5.24-1.772-13.65-4.27-23.362-5.864-22.842-3.75-41.252-.828-54.718 8.685C6.622 25.672-.937 45.684.461 73.634c.444 8.874 5.408 35.874 13.224 61.48 4.492 14.718 9.282 26.94 14.237 36.33 7.027 13.315 14.546 21.156 22.987 23.972 4.731 1.576 13.327 2.68 22.368-4.85 1.146 1.388 2.675 2.767 4.704 4.048 2.577 1.625 5.728 2.953 8.875 3.74 11.341 2.835 21.964 2.126 31.027-1.848.056 1.612.099 3.152.135 4.482.06 2.157.12 4.272.199 6.25.537 13.374 1.447 23.773 4.143 31.049.148.4.347 1.01.557 1.657 1.345 4.118 3.594 11.012 9.316 16.411 5.925 5.593 13.092 7.308 19.656 7.308 3.292 0 6.433-.432 9.188-1.022 9.82-2.105 20.973-5.311 29.041-16.799 7.628-10.86 11.336-27.217 12.007-52.99.087-.729.167-1.425.244-2.088l.16-1.362 1.797.158.463.031c10.002.456 22.232-1.665 29.743-5.154 5.935-2.754 24.954-12.795 20.476-26.351"
     id="path2" />
  <path
     d="M237.906 160.722c-29.74 6.135-31.785-3.934-31.785-3.934 31.4-46.593 44.527-105.736 33.2-120.211-30.904-39.485-84.399-20.811-85.292-20.327l-.287.052c-5.876-1.22-12.451-1.946-19.842-2.067-13.456-.22-23.664 3.528-31.41 9.402 0 0-95.43-39.314-90.991 49.444.944 18.882 27.064 142.873 58.218 105.422 11.387-13.695 22.39-25.274 22.39-25.274 5.464 3.63 12.006 5.482 18.864 4.817l.533-.452c-.166 1.7-.09 3.363.213 5.332-8.026 8.967-5.667 10.541-21.711 13.844-16.235 3.346-6.698 9.302-.471 10.86 7.549 1.887 25.013 4.561 36.813-11.958l-.47 1.885c3.144 2.519 5.352 16.383 4.982 28.952-.37 12.568-.617 21.197 1.86 27.937 2.479 6.74 4.948 21.905 26.04 17.386 17.623-3.777 26.756-13.564 28.027-29.89.901-11.606 2.942-9.89 3.07-20.267l1.637-4.912c1.887-15.733.3-20.809 11.157-18.448l2.64.232c7.99.363 18.45-1.286 24.589-4.139 13.218-6.134 21.058-16.377 8.024-13.686h.002"
     fill="#336791"
     id="path4" />
  <path
     d="M108.076 81.525c-2.68-.373-5.107-.028-6.335.902-.69.523-.904 1.129-.962 1.546-.154 1.105.62 2.327 1.096 2.957 1.346 1.784 3.312 3.01 5.258 3.28.282.04.563.058.842.058 3.245 0 6.196-2.527 6.456-4.392.325-2.336-3.066-3.893-6.355-4.35M196.86 81.599c-.256-1.831-3.514-2.353-6.606-1.923-3.088.43-6.082 1.824-5.832 3.659.2 1.427 2.777 3.863 5.827 3.863.258 0 .518-.017.78-.054 2.036-.282 3.53-1.575 4.24-2.32 1.08-1.136 1.706-2.402 1.591-3.225"
     fill="#FFF"
     id="path6" />
  <path
     d="M247.802 160.025c-1.134-3.429-4.784-4.532-10.848-3.28-18.005 3.716-24.453 1.142-26.57-.417 13.995-21.32 25.508-47.092 31.719-71.137 2.942-11.39 4.567-21.968 4.7-30.59.147-9.463-1.465-16.417-4.789-20.665-13.402-17.125-33.072-26.311-56.882-26.563-16.369-.184-30.199 4.005-32.88 5.183-5.646-1.404-11.801-2.266-18.502-2.376-12.288-.199-22.91 2.743-31.704 8.74-3.82-1.422-13.692-4.811-25.765-6.756-20.872-3.36-37.458-.814-49.294 7.571-14.123 10.006-20.643 27.892-19.38 53.16.425 8.501 5.269 34.653 12.913 59.698 10.062 32.964 21 51.625 32.508 55.464 1.347.449 2.9.763 4.613.763 4.198 0 9.345-1.892 14.7-8.33a529.832 529.832 0 0 1 20.261-22.926c4.524 2.428 9.494 3.784 14.577 3.92.01.133.023.266.035.398a117.66 117.66 0 0 0-2.57 3.175c-3.522 4.471-4.255 5.402-15.592 7.736-3.225.666-11.79 2.431-11.916 8.435-.136 6.56 10.125 9.315 11.294 9.607 4.074 1.02 7.999 1.523 11.742 1.523 9.103 0 17.114-2.992 23.516-8.781-.197 23.386.778 46.43 3.586 53.451 2.3 5.748 7.918 19.795 25.664 19.794 2.604 0 5.47-.303 8.623-.979 18.521-3.97 26.564-12.156 29.675-30.203 1.665-9.645 4.522-32.676 5.866-45.03 2.836.885 6.487 1.29 10.434 1.289 8.232 0 17.731-1.749 23.688-4.514 6.692-3.108 18.768-10.734 16.578-17.36zm-44.106-83.48c-.061 3.647-.563 6.958-1.095 10.414-.573 3.717-1.165 7.56-1.314 12.225-.147 4.54.42 9.26.968 13.825 1.108 9.22 2.245 18.712-2.156 28.078a36.508 36.508 0 0 1-1.95-4.009c-.547-1.326-1.735-3.456-3.38-6.404-6.399-11.476-21.384-38.35-13.713-49.316 2.285-3.264 8.084-6.62 22.64-4.813zm-17.644-61.787c21.334.471 38.21 8.452 50.158 23.72 9.164 11.711-.927 64.998-30.14 110.969a171.33 171.33 0 0 0-.886-1.117l-.37-.462c7.549-12.467 6.073-24.802 4.759-35.738-.54-4.488-1.05-8.727-.92-12.709.134-4.22.692-7.84 1.232-11.34.663-4.313 1.338-8.776 1.152-14.037.139-.552.195-1.204.122-1.978-.475-5.045-6.235-20.144-17.975-33.81-6.422-7.475-15.787-15.84-28.574-21.482 5.5-1.14 13.021-2.203 21.442-2.016zM66.674 175.778c-5.9 7.094-9.974 5.734-11.314 5.288-8.73-2.912-18.86-21.364-27.791-50.624-7.728-25.318-12.244-50.777-12.602-57.916-1.128-22.578 4.345-38.313 16.268-46.769 19.404-13.76 51.306-5.524 64.125-1.347-.184.182-.376.352-.558.537-21.036 21.244-20.537 57.54-20.485 59.759-.002.856.07 2.068.168 3.735.362 6.105 1.036 17.467-.764 30.334-1.672 11.957 2.014 23.66 10.111 32.109a36.275 36.275 0 0 0 2.617 2.468c-3.604 3.86-11.437 12.396-19.775 22.426zm22.479-29.993c-6.526-6.81-9.49-16.282-8.133-25.99 1.9-13.592 1.199-25.43.822-31.79-.053-.89-.1-1.67-.127-2.285 3.073-2.725 17.314-10.355 27.47-8.028 4.634 1.061 7.458 4.217 8.632 9.645 6.076 28.103.804 39.816-3.432 49.229-.873 1.939-1.698 3.772-2.402 5.668l-.546 1.466c-1.382 3.706-2.668 7.152-3.465 10.424-6.938-.02-13.687-2.984-18.819-8.34zm1.065 37.9c-2.026-.506-3.848-1.385-4.917-2.114.893-.42 2.482-.992 5.238-1.56 13.337-2.745 15.397-4.683 19.895-10.394 1.031-1.31 2.2-2.794 3.819-4.602l.002-.002c2.411-2.7 3.514-2.242 5.514-1.412 1.621.67 3.2 2.702 3.84 4.938.303 1.056.643 3.06-.47 4.62-9.396 13.156-23.088 12.987-32.921 10.526zm69.799 64.952c-16.316 3.496-22.093-4.829-25.9-14.346-2.457-6.144-3.665-33.85-2.808-64.447.011-.407-.047-.8-.159-1.17a15.444 15.444 0 0 0-.456-2.162c-1.274-4.452-4.379-8.176-8.104-9.72-1.48-.613-4.196-1.738-7.46-.903.696-2.868 1.903-6.107 3.212-9.614l.549-1.475c.618-1.663 1.394-3.386 2.214-5.21 4.433-9.848 10.504-23.337 3.915-53.81-2.468-11.414-10.71-16.988-23.204-15.693-7.49.775-14.343 3.797-17.761 5.53-.735.372-1.407.732-2.035 1.082.954-11.5 4.558-32.992 18.04-46.59 8.489-8.56 19.794-12.788 33.568-12.56 27.14.444 44.544 14.372 54.366 25.979 8.464 10.001 13.047 20.076 14.876 25.51-13.755-1.399-23.11 1.316-27.852 8.096-10.317 14.748 5.644 43.372 13.315 57.129 1.407 2.521 2.621 4.7 3.003 5.626 2.498 6.054 5.732 10.096 8.093 13.046.724.904 1.426 1.781 1.96 2.547-4.166 1.201-11.649 3.976-10.967 17.847-.55 6.96-4.461 39.546-6.448 51.059-2.623 15.21-8.22 20.875-23.957 24.25zm68.104-77.936c-4.26 1.977-11.389 3.46-18.161 3.779-7.48.35-11.288-.838-12.184-1.569-.42-8.644 2.797-9.547 6.202-10.503.535-.15 1.057-.297 1.561-.473.313.255.656.508 1.032.756 6.012 3.968 16.735 4.396 31.874 1.271l.166-.033c-2.042 1.909-5.536 4.471-10.49 6.772z"
     fill="#FFF"
     id="path8" />
  <g
     id="g4513"
     transform="matrix(0.2540078,0,0,0.33784189,29.074676,201.95762)">
    <path
       id="path4493"
       d="m 86.4,66.4 c 0,3.7 0.4,6.7 1.1,8.9 0.8,2.2 1.8,4.6 3.2,7.2 0.5,0.8 0.7,1.6 0.7,2.3 0,1 -0.6,2 -1.9,3 L 83.2,92 c -0.9,0.6 -1.8,0.9 -2.6,0.9 -1,0 -2,-0.5 -3,-1.4 C 76.2,90 75,88.4 74,86.8 73,85.1 72,83.2 70.9,80.9 63.1,90.1 53.3,94.7 41.5,94.7 c -8.4,0 -15.1,-2.4 -20,-7.2 -4.9,-4.8 -7.4,-11.2 -7.4,-19.2 0,-8.5 3,-15.4 9.1,-20.6 6.1,-5.2 14.2,-7.8 24.5,-7.8 3.4,0 6.9,0.3 10.6,0.8 3.7,0.5 7.5,1.3 11.5,2.2 V 35.6 C 69.8,28 68.2,22.7 65.1,19.6 61.9,16.5 56.5,15 48.8,15 c -3.5,0 -7.1,0.4 -10.8,1.3 -3.7,0.9 -7.3,2 -10.8,3.4 -1.6,0.7 -2.8,1.1 -3.5,1.3 -0.7,0.2 -1.2,0.3 -1.6,0.3 -1.4,0 -2.1,-1 -2.1,-3.1 V 13.3 C 20,11.7 20.2,10.5 20.7,9.8 21.2,9.1 22.1,8.4 23.5,7.7 27,5.9 31.2,4.4 36.1,3.2 41,1.9 46.2,1.3 51.7,1.3 63.6,1.3 72.3,4 77.9,9.4 83.4,14.8 86.2,23 86.2,34 V 66.4 Z M 45.8,81.6 c 3.3,0 6.7,-0.6 10.3,-1.8 3.6,-1.2 6.8,-3.4 9.5,-6.4 1.6,-1.9 2.8,-4 3.4,-6.4 0.6,-2.4 1,-5.3 1,-8.7 v -4.2 c -2.9,-0.7 -6,-1.3 -9.2,-1.7 -3.2,-0.4 -6.3,-0.6 -9.4,-0.6 -6.7,0 -11.6,1.3 -14.9,4 -3.3,2.7 -4.9,6.5 -4.9,11.5 0,4.7 1.2,8.2 3.7,10.6 2.4,2.5 5.9,3.7 10.5,3.7 z m 80.3,10.8 c -1.8,0 -3,-0.3 -3.8,-1 -0.8,-0.6 -1.5,-2 -2.1,-3.9 L 96.7,10.2 c -0.6,-2 -0.9,-3.3 -0.9,-4 0,-1.6 0.8,-2.5 2.4,-2.5 h 9.8 c 1.9,0 3.2,0.3 3.9,1 0.8,0.6 1.4,2 2,3.9 l 16.8,66.2 15.6,-66.2 c 0.5,-2 1.1,-3.3 1.9,-3.9 0.8,-0.6 2.2,-1 4,-1 h 8 c 1.9,0 3.2,0.3 4,1 0.8,0.6 1.5,2 1.9,3.9 l 15.8,67 17.3,-67 c 0.6,-2 1.3,-3.3 2,-3.9 0.8,-0.6 2.1,-1 3.9,-1 h 9.3 c 1.6,0 2.5,0.8 2.5,2.5 0,0.5 -0.1,1 -0.2,1.6 -0.1,0.6 -0.3,1.4 -0.7,2.5 l -24.1,77.3 c -0.6,2 -1.3,3.3 -2.1,3.9 -0.8,0.6 -2.1,1 -3.8,1 h -8.6 c -1.9,0 -3.2,-0.3 -4,-1 -0.8,-0.7 -1.5,-2 -1.9,-4 L 156,23 140.6,87.4 c -0.5,2 -1.1,3.3 -1.9,4 -0.8,0.7 -2.2,1 -4,1 z m 128.5,2.7 c -5.2,0 -10.4,-0.6 -15.4,-1.8 -5,-1.2 -8.9,-2.5 -11.5,-4 -1.6,-0.9 -2.7,-1.9 -3.1,-2.8 -0.4,-0.9 -0.6,-1.9 -0.6,-2.8 v -5.1 c 0,-2.1 0.8,-3.1 2.3,-3.1 0.6,0 1.2,0.1 1.8,0.3 0.6,0.2 1.5,0.6 2.5,1 3.4,1.5 7.1,2.7 11,3.5 4,0.8 7.9,1.2 11.9,1.2 6.3,0 11.2,-1.1 14.6,-3.3 3.4,-2.2 5.2,-5.4 5.2,-9.5 0,-2.8 -0.9,-5.1 -2.7,-7 -1.8,-1.9 -5.2,-3.6 -10.1,-5.2 L 246,52 c -7.3,-2.3 -12.7,-5.7 -16,-10.2 -3.3,-4.4 -5,-9.3 -5,-14.5 0,-4.2 0.9,-7.9 2.7,-11.1 1.8,-3.2 4.2,-6 7.2,-8.2 3,-2.3 6.4,-4 10.4,-5.2 4,-1.2 8.2,-1.7 12.6,-1.7 2.2,0 4.5,0.1 6.7,0.4 2.3,0.3 4.4,0.7 6.5,1.1 2,0.5 3.9,1 5.7,1.6 1.8,0.6 3.2,1.2 4.2,1.8 1.4,0.8 2.4,1.6 3,2.5 0.6,0.8 0.9,1.9 0.9,3.3 v 4.7 c 0,2.1 -0.8,3.2 -2.3,3.2 -0.8,0 -2.1,-0.4 -3.8,-1.2 -5.7,-2.6 -12.1,-3.9 -19.2,-3.9 -5.7,0 -10.2,0.9 -13.3,2.8 -3.1,1.9 -4.7,4.8 -4.7,8.9 0,2.8 1,5.2 3,7.1 2,1.9 5.7,3.8 11,5.5 l 14.2,4.5 c 7.2,2.3 12.4,5.5 15.5,9.6 3.1,4.1 4.6,8.8 4.6,14 0,4.3 -0.9,8.2 -2.6,11.6 -1.8,3.4 -4.2,6.4 -7.3,8.8 -3.1,2.5 -6.8,4.3 -11.1,5.6 -4.5,1.4 -9.2,2.1 -14.3,2.1 z"
       inkscape:connector-curvature="0"
       style="fill:#252f3e" />
    <g
       id="g4499"
       style="clip-rule:evenodd;fill:#ff9900;fill-rule:evenodd">
      <path
         id="path4495"
         d="M 273.5,143.7 C 240.6,168 192.8,180.9 151.7,180.9 94.1,180.9 42.2,159.6 3,124.2 c -3.1,-2.8 -0.3,-6.6 3.4,-4.4 42.4,24.6 94.7,39.5 148.8,39.5 36.5,0 76.6,-7.6 113.5,-23.2 5.5,-2.5 10.2,3.6 4.8,7.6 z"
         inkscape:connector-curvature="0" />
      <path
         id="path4497"
         d="m 287.2,128.1 c -4.2,-5.4 -27.8,-2.6 -38.5,-1.3 -3.2,0.4 -3.7,-2.4 -0.8,-4.5 18.8,-13.2 49.7,-9.4 53.3,-5 3.6,4.5 -1,35.4 -18.6,50.2 -2.7,2.3 -5.3,1.1 -4.1,-1.9 4,-9.9 12.9,-32.2 8.7,-37.5 z"
         inkscape:connector-curvature="0" />
    </g>
  </g>
</svg>
