<svg enable-background="new 0 0 2073 2474.6" viewBox="0 0 2073 2474.6" xmlns="http://www.w3.org/2000/svg"><path d="m1038.7 1239v-1235.7l1031 511.6 3.3 724h-135.3l3.3-478.6-595.3-170.5v644.8z" fill="#f58536"/><path d="m1038.7 0v1237.9h-548v-960.6zm-1035.4 1236.8v-726.3l294.9-140.8v867.1h-298.2" fill="#9d5024"/><path d="m298.2 369.7v867.1l192.6 1.1v-818.7z" fill="#f58536"/><path d="m1563.6 813.1v426.9h376.3l1.1-479.7z" fill="#9d5024"/><path d="m1345.7 589.8 595.3 170.5-376.3 52.8-219-47.3z" fill="#6b3918"/><path d="m8.8 1453.5 289.4 50.6v605.2l-294.9-149.6zm478.6 78.1v671.2l548 271.8v-861.5z" fill="#9d5024"/><path d="m2064.2 1453.5v511.6l-1028.8 509.4v-861.5z" fill="#f58536"/><path d="m1360 1416.1v49.5l-872.6 67.1v528.2l-189.3 48.4-1.1-616.2z" fill="#f58536"/><path d="m8.8 1453.5 1116.8-60.5 233.3 22-1064 92.4zm478.6 78.1 1042-104.5 529.3 27.5-1023.3 158.4z" fill="#fabe92"/></svg>