<svg xmlns="http://www.w3.org/2000/svg" viewBox="0 0 64 64"><g id="Layer_25" data-name="Layer 25"><path d="M55,39H33V29a1,1,0,0,0-2,0V39H9a1,1,0,0,0-1,1v5a1,1,0,0,0,2,0V41H31v4a1,1,0,0,0,2,0V41H54v4a1,1,0,0,0,2,0V40A1,1,0,0,0,55,39Z" style="fill:#7a838b"/><polygon points="40 63 24 63 24 49 28 49 30 51 40 51 40 63" style="fill:#f8c460"/><polygon points="17 63 1 63 1 49 5 49 7 51 17 51 17 63" style="fill:#f8c460"/><path d="M4,56V49H1V63H17V60H8A4,4,0,0,1,4,56Z" style="fill:#faaf42"/><path d="M27,56V49H24V63H40V60H31A4,4,0,0,1,27,56Z" style="fill:#faaf42"/><polygon points="63 63 47 63 47 49 51 49 53 51 63 51 63 63" style="fill:#f8c460"/><circle cx="32" cy="40" r="2" style="fill:#f8c460"/><path d="M50,56V49H47V63H63V60H54A4,4,0,0,1,50,56Z" style="fill:#faaf42"/><rect x="17" y="1" width="30" height="8" rx="2" style="fill:#7a838b"/><path d="M22,6a2,2,0,0,1-2-2V1H19a2,2,0,0,0-2,2V7a2,2,0,0,0,2,2H45a2,2,0,0,0,2-2V6Z" style="fill:#5d6972"/><rect x="17" y="12" width="30" height="8" rx="2" style="fill:#7a838b"/><rect x="17" y="23" width="30" height="8" rx="2" style="fill:#7a838b"/><path d="M22,17a2,2,0,0,1-2-2V12H19a2,2,0,0,0-2,2v4a2,2,0,0,0,2,2H45a2,2,0,0,0,2-2V17Z" style="fill:#5d6972"/><path d="M22,28a2,2,0,0,1-2-2V23H19a2,2,0,0,0-2,2v4a2,2,0,0,0,2,2H45a2,2,0,0,0,2-2V28Z" style="fill:#5d6972"/><rect x="19" y="9" width="4" height="3" style="fill:#d6e4e8"/><rect x="41" y="9" width="4" height="3" style="fill:#d6e4e8"/><rect x="19" y="20" width="4" height="3" style="fill:#d6e4e8"/><rect x="41" y="20" width="4" height="3" style="fill:#d6e4e8"/><circle cx="44" cy="4" r="1" style="fill:#f8c460"/><circle cx="41" cy="4" r="1" style="fill:#f8c460"/><circle cx="38" cy="4" r="1" style="fill:#f8c460"/><circle cx="44" cy="15" r="1" style="fill:#f8c460"/><circle cx="41" cy="15" r="1" style="fill:#f8c460"/><circle cx="38" cy="15" r="1" style="fill:#f8c460"/><circle cx="44" cy="26" r="1" style="fill:#f8c460"/><circle cx="41" cy="26" r="1" style="fill:#f8c460"/><circle cx="38" cy="26" r="1" style="fill:#f8c460"/></g></svg>