<svg height="303" viewBox="0.007 0.003 154.985 17.780796181769905" width="2500" xmlns="http://www.w3.org/2000/svg"><path d="M100.5 17.6h-4.266V.19l13.72.011s2.512-.093 4.11 1.485c0 0 1.631 1.362 1.631 4.691v11.22h-4.255V6.087s.052-1.174-.347-1.586c0 0-.354-.447-1.027-.447h-9.576l.009 13.54zm18.16-.003V.203h17.12v3.869l-12.88-.001v2.958h8.948v3.736H122.9v2.968h12.96v3.87h-17.21zm-29.86 0V.203h4.248v17.4H88.8zm54.19-14.62v-.586zm-1.095 14.62V4.067h-4.01V.198h15.95v3.869h-7.689v13.53h-4.248zm-66.03-14.62v-.586zm-1.095 14.62V4.067h-4.01V.198h15.95v3.869h-7.689v13.53h-4.248zM61.96 7.017c1.038-.008 1.659.001 1.909-.151 0 0 .436-.241.441-.759l.001-1.138c0-.52-.441-.759-.441-.759-.331-.18-.892-.146-2.225-.147h-8.276v2.954h8.781-.19zm2.289 10.58v-5.938c0-.534-.446-.757-.446-.757-.201-.125-.804-.148-1.691-.148h.206-8.949v6.842h-4.248V.202h13.26c2.29.007 3.871.344 4.96 1.401 1.07 1.09 1.212 2.516 1.218 4v1.239c.014 1.261-.649 2.411-1.439 3.081l.159.079c.322.156.499.377.499.377.6.768.593 1.428.592 2.24V17.6h-4.12zM.009.197v17.395h4.248v-6.836h12.87V7.018H4.257V4.062h14.96V.193H.007zM152.4 14.52v.799h.744c.201 0 .396-.055.426-.354.043-.396-.244-.445-.426-.445zm-.299-.263h1.036c.36 0 .708.068.738.592.012.3-.079.409-.305.58.239.152.245.189.281.59.024.306-.019.355.11.556h-.354l-.048-.293c-.05-.275.085-.7-.397-.7h-.762v.993h-.299v-2.318zm.78-.64a1.854 1.854 0 0 0-1.852 1.866c0 1.024.83 1.86 1.86 1.854a1.86 1.86 0 1 0-.007-3.72m.006 3.962a2.1 2.1 0 0 1-2.104-2.102 2.101 2.101 0 0 1 2.104-2.104c1.16 0 2.104.946 2.104 2.105a2.106 2.106 0 0 1-2.104 2.101" fill="#231f20"/><path d="M43.28 17.77c1.38-.469 2.454-2.058 2.712-4.056v-.578h-7.075v4.634h4.362zm2.713-13.13v-.523C45.722 2.032 44.568.39 43.097.003h-4.179V4.64h7.075zm-24.9 8.497v.572c.256 2 1.33 3.592 2.714 4.061h4.34v-4.634h-7.054zM23.988.007c-1.469.386-2.626 2.03-2.895 4.118v.519h7.054V.008h-4.159zm22.01 6.566h-7.075v4.636h7.075zm-15.92 11.2h6.921v-4.634h-6.921zM36.999.003h-6.921v4.636h6.921zm-15.9 11.2h7.054V6.567h-7.054z" fill="#ee2e24"/></svg>