<?xml version="1.0" encoding="utf-8"?>
<!-- Generator: Adobe Illustrator 16.0.0, SVG Export Plug-In . SVG Version: 6.00 Build 0)  -->
<!DOCTYPE svg PUBLIC "-//W3C//DTD SVG 1.1//EN" "http://www.w3.org/Graphics/SVG/1.1/DTD/svg11.dtd">
<svg version="1.1" id="Layer_1" xmlns="http://www.w3.org/2000/svg" x="0px" y="0px"
     width="128px" height="128px" viewBox="0 0 128 128" enable-background="new 0 0 128 128" xml:space="preserve">
<g>
	<g>
		<g>
			<rect x="59.066" y="29.957" fill="#282D33" width="16.962" height="4.013"/>
		</g>
		<g>
			<rect x="48.371" y="0.65" fill="#282D33" width="4.012" height="77.679"/>
		</g>
		<g>
			<rect x="74.826" y="0.65" fill="#282D33" width="4.013" height="77.679"/>
		</g>
		<g>
			<rect x="56.695" y="5.382" fill="#282D33" width="20.927" height="4.013"/>
		</g>
		<g>
			<rect x="56.695" y="17.668" fill="#282D33" width="20.927" height="4.013"/>
		</g>
		<g>
			<rect x="56.695" y="29.955" fill="#282D33" width="20.927" height="4.013"/>
		</g>
		<g>
			<rect x="56.695" y="42.24" fill="#282D33" width="20.927" height="4.013"/>
		</g>
		<g>
			<rect x="56.695" y="54.528" fill="#282D33" width="20.927" height="4.012"/>
		</g>
		<g>
			<rect x="56.695" y="66.813" fill="#282D33" width="20.927" height="4.012"/>
		</g>
	</g>
	<g>
		<g>
			<g>
				<polygon fill="#282D33" points="63.998,127.35 22.475,103.282 22.475,83.509 26.487,83.509 26.487,100.971 63.998,122.712
					101.513,100.971 101.513,83.509 105.524,83.509 105.524,103.282 				"/>
			</g>
			<g>
				<rect x="61.994" y="84.571" fill="#282D33" width="4.012" height="37.182"/>
			</g>
			<g>
				<g>
					<path fill="#282D33" d="M82.533,97.835L59.996,84.77l45.459-26.316L128,71.517L82.533,97.835z M68.001,84.771l14.534,8.427
						l37.46-21.684l-14.54-8.426L68.001,84.771z"/>
				</g>
				<g>
					<path fill="#282D33" d="M45.461,97.835L0,71.517l22.539-13.063L68.004,84.77L45.461,97.835z M8.005,71.515L45.46,93.198
						l14.539-8.427L22.54,63.09L8.005,71.515z"/>
				</g>
			</g>
			<g>
				<g>
					<polygon fill="#282D33" points="22.538,63.04 0,49.973 44.455,24.235 46.465,27.708 8.004,49.976 22.54,58.402 48.783,43.211
						50.792,46.683 					"/>
				</g>
				<g>
					<polygon fill="#282D33" points="105.456,63.04 76.57,46.314 78.581,42.842 105.454,58.402 119.995,49.975 81.529,27.708
						83.539,24.235 128,49.973 					"/>
				</g>
			</g>
		</g>
	</g>
</g>
</svg>
