<?xml version="1.0" encoding="UTF-8" standalone="no"?>
<svg
   xmlns:dc="http://purl.org/dc/elements/1.1/"
   xmlns:cc="http://creativecommons.org/ns#"
   xmlns:rdf="http://www.w3.org/1999/02/22-rdf-syntax-ns#"
   xmlns:svg="http://www.w3.org/2000/svg"
   xmlns="http://www.w3.org/2000/svg"
   xmlns:xlink="http://www.w3.org/1999/xlink"
   xmlns:sodipodi="http://sodipodi.sourceforge.net/DTD/sodipodi-0.dtd"
   xmlns:inkscape="http://www.inkscape.org/namespaces/inkscape"
   height="1000"
   viewBox="-16.244 15.501 51.4984 122.34"
   width="1000"
   version="1.1"
   id="svg97"
   sodipodi:docname="haproxy.svg"
   inkscape:version="0.92.1 r15371">
  <metadata
     id="metadata101">
    <rdf:RDF>
      <cc:Work
         rdf:about="">
        <dc:format>image/svg+xml</dc:format>
        <dc:type
           rdf:resource="http://purl.org/dc/dcmitype/StillImage" />
      </cc:Work>
    </rdf:RDF>
  </metadata>
  <sodipodi:namedview
     pagecolor="#ffffff"
     bordercolor="#666666"
     borderopacity="1"
     objecttolerance="10"
     gridtolerance="10"
     guidetolerance="10"
     inkscape:pageopacity="0"
     inkscape:pageshadow="2"
     inkscape:window-width="1920"
     inkscape:window-height="1001"
     id="namedview99"
     showgrid="false"
     inkscape:zoom="0.1356"
     inkscape:cx="514.96512"
     inkscape:cy="500.77411"
     inkscape:window-x="-9"
     inkscape:window-y="-9"
     inkscape:window-maximized="1"
     inkscape:current-layer="svg97" />
  <defs
     id="defs3">
    <path
       id="a"
       d="m -16.244,50.846 0.028,-4.02 4.096,0.03 -0.028,4.02 z"
       inkscape:connector-curvature="0" />
  </defs>
  <g
     stroke-miterlimit="10"
     id="g23"
     transform="matrix(4.1146811,0,0,4.0881323,-82.56412,-45.972521)"
     style="fill:none;stroke-miterlimit:10">
    <g
       id="g19"
       style="stroke:#284a6a">
      <path
         d="m 22.354,26.115 -3.11,-3.516"
         id="path11"
         inkscape:connector-curvature="0"
         style="stroke-width:0.121581" />
      <path
         d="m 12.552,23.41 2.434,3.55"
         id="path13"
         inkscape:connector-curvature="0"
         style="stroke-width:0.06079" />
      <path
         d="m 22.354,26.115 3.076,-3.55 m 0.642,7.47 3.65,-3.075 m -3.65,3.076 3.65,3.211 m -4.258,4.057 -3.11,-3.448 m -3.11,3.447 3.11,-3.448 m -7.369,-0.743 3.516,-3.076 m -3.516,-3.076 3.516,3.076 m 3.853,-3.921 -7.369,0.845 m 7.37,-0.845 7.368,0.845 m -3.651,3.076 -0.642,-7.47 m 0.642,7.47 -0.608,7.267 m 4.259,-4.056 -7.369,0.608 m -7.369,-0.743 7.37,0.743 m -3.111,3.448 -0.743,-7.267 m 0.743,-7.437 -0.743,7.437"
         id="path15"
         inkscape:connector-curvature="0"
         style="stroke-width:0.121581" />
      <path
         d="m 11.605,27.906 3.38,-0.946 m 0.71,-6.896 3.55,2.535 m 0.808,-4.123 -0.809,4.124 m 0.81,-4.124 5.374,4.09 m -0.809,-4.09 0.809,4.09 m 3.551,-2.502 -3.549,2.502 m 6.726,0.845 -6.726,-0.845 m 4.293,4.394 2.433,-3.55 m -2.433,3.55 3.447,0.946 m -3.447,-0.946 3.38,5.138 M 24.62,18.476 19.245,22.599 m 10.478,4.361 -0.744,-6.896 m 0.744,13.183 3.38,-1.15 m -3.38,1.15 3.447,-5.34 m -3.447,5.34 2.434,3.279 m -2.434,-3.28 -0.744,6.626 m -3.515,-2.569 3.515,2.57 m -3.515,-2.57 6.692,-0.777 m -6.692,0.777 -0.81,4.158 m 0.81,-4.158 -5.408,4.155 m -0.81,-4.155 0.81,4.158 m -0.812,-4.158 5.409,4.155 m -5.409,-4.155 -3.549,2.57 m 3.55,-2.57 -6.693,-0.743 m 2.433,-3.448 -2.433,3.447 m 2.433,-3.447 0.71,6.76 m -0.71,-6.76 -3.414,-1.048 m 3.414,-5.104 -3.414,5.104 m 3.414,1.048 -3.38,-5.206 m 4.09,-7.841 -0.71,6.895 m -2.433,-3.55 6.693,-0.808"
         id="path17"
         inkscape:connector-curvature="0"
         style="stroke-width:0.06079" />
    </g>
    <path
       d="m 15.695,20.064 -2.603,-1.216 m 2.603,1.216 -0.202,-2.839 m 4.563,1.25 -4.564,-1.25 m 4.564,1.251 -1.96,-2.4 m 1.96,2.4 0.809,-2.873 m -5.17,4.461 2.4,-3.988 m 6.524,2.4 -3.752,-2.873 m 3.752,2.873 -0.845,-2.975 m -3.718,2.975 3.718,-2.975 m 0.845,2.975 1.96,-2.4 m 2.4,3.989 -2.4,-3.989 m 2.401,3.988 0.236,-2.839 m -4.597,1.25 4.597,-1.25 m -0.237,2.84 2.668,-1.353 m -2.668,1.352 4.631,0.708 m -1.454,2.638 1.454,-2.638 m -1.454,2.639 -0.507,-4.699 m 0.507,4.699 3.043,-0.237 m -3.043,0.237 4.158,2.366 m -3.144,2.129 2.029,-4.732 m -2.029,4.732 3.144,-2.13 m -3.144,2.13 3.516,0.71 m -3.583,3.482 3.583,-3.482 m -3.583,3.482 3.684,-0.676 m -3.617,-3.516 3.617,3.515 m -3.684,0.677 3.143,2.095 m -4.09,2.333 4.09,-2.333 m -4.09,2.333 3.009,0.306 m -2.062,-4.732 2.062,4.732 m -3.009,-0.306 1.42,2.667 m -1.42,-2.667 -0.54,4.664 m 0,0 -2.637,-1.318 m 0,0 0.203,2.94 m -0.203,-2.94 4.597,-0.676 m -4.597,0.676 -2.4,4.056 m -1.926,-2.47 1.924,2.468 m -1.924,-2.468 4.529,1.352 m -4.53,-1.352 -0.879,3.043 m 0.88,-3.043 -3.786,3.043 m -0.811,-3.043 0.809,3.043 m -0.81,-3.043 3.719,3.043 m -3.718,-3.043 -1.925,2.468 m -2.434,-4.054 2.434,4.056 m 1.925,-2.47 -4.597,1.42 m 0.236,-3.006 -0.236,3.008 m 0.236,-3.008 -2.636,1.453 m -0.507,-4.766 0.507,4.766 m 2.636,-1.453 -4.63,-0.642 m 1.487,-2.668 -1.487,2.668 M 12.552,36.562 9.51,36.868 M 12.552,36.562 8.36,34.23 m 3.21,-2.166 -3.21,2.163 m 3.21,-2.163 -3.65,-0.642 m 3.651,0.642 -2.062,4.8 m 2.096,-8.958 -3.685,3.515 m 3.651,0.643 -3.65,-3.448 m 3.684,-0.71 -3.144,-2.096 m 3.144,2.096 -3.685,0.71 m 3.685,-0.71 -2.096,-4.732 M 12.552,23.41 9.51,23.174 m 3.042,0.237 -4.09,2.4 m 4.09,-2.4 -1.454,-2.502 m 1.454,2.502 0.54,-4.563 m 2.603,1.216 -4.597,0.845"
       id="path21"
       inkscape:connector-curvature="0"
       style="stroke:#24405d;stroke-width:0.047233" />
  </g>
  <path
     d="M -13.89009,84.001472 -13.783112,69.492685 0.84458,69.594894 0.74584,84.103669 Z M 1.943203,68.000519 2.041943,53.487646 16.673747,53.593939 16.570882,68.10272 Z m 0,31.862906 0.09874,-14.50878 14.631804,0.10221 -0.102865,14.51286 z m 15.964962,-16.000951 0.102865,-14.508785 14.627692,0.102219 -0.09874,14.51287 z"
     id="path25"
     inkscape:connector-curvature="0"
     style="fill:#256ea5;stroke-width:4.10138559" />
  <path
     d="m 17.06877,51.333203 0.06995,-10.089511 10.196181,0.07358 -0.09051,10.085421 z m -25.490449,0 0.06996,-10.089511 10.196178,0.0695 -0.07407,10.08951 z m -17.651984,17.946899 0.07407,-10.085423 10.192067,0.0695 -0.06996,10.089512 z m -0.01232,25.379123 0.10698,-10.085418 10.196182,0.106288 -0.106978,10.08134 z m 60.80676,-0.19622 0.07407,-10.08951 10.192065,0.07362 -0.06995,10.08543 z m 0.205733,-25.076602 0.102865,-10.085421 10.19618,0.106292 -0.106979,10.085422 z"
     id="path27"
     inkscape:connector-curvature="0"
     style="fill:#3378bc;stroke-width:4.10138559" />
  <path
     d="m -34.340057,53.025689 0.04938,-6.635039 6.665784,0.04498 -0.04938,6.635038 z m 13.031196,-13.499012 0.04937,-6.630951 6.66167,0.04498 -0.04937,6.635037 z m 17.927666,-6.675921 0.04526,-6.635039 6.665784,0.04498 -0.04937,6.635039 z m -34.867808,38.542911 0.04525,-6.635038 6.624638,0.04498 -0.04938,6.635037 z m 84.630761,-24.908989 6.678128,-0.04906 0.04114,6.622775 -6.674013,0.04086 z m -13.02708,-13.727948 6.674013,-0.04498 0.04938,6.618686 -6.678128,0.04498 z m -17.989386,-6.508306 6.674013,-0.04498 0.04938,6.618685 -6.678128,0.04498 z m 34.908954,38.58788 6.678129,-0.04905 0.04527,6.622774 -6.674008,0.04086 z"
     id="path29"
     inkscape:connector-curvature="0"
     style="fill:#169bd6;stroke-width:4.10138559" />
  <path
     d="m -8.557464,111.86209 0.06995,-10.08543 10.19618,0.0695 -0.07407,10.08951 z m 25.49045,0 0.07407,-10.08543 10.192065,0.0695 -0.06995,10.08951 z"
     id="path31"
     inkscape:connector-curvature="0"
     style="fill:#3378bc;stroke-width:4.10138559" />
  <path
     d="m 46.336496,106.73965 0.04938,-6.63096 6.66167,0.045 -0.04526,6.63504 z m -12.87895,13.64618 0.04938,-6.63503 6.665782,0.049 -0.04938,6.63096 z m -17.935896,6.53285 0.04937,-6.63504 6.661668,0.045 -0.04937,6.63504 z m 34.736138,-38.551095 0.04937,-6.630939 6.661666,0.04901 -0.04528,6.630949 z m -84.581387,11.737025 6.678128,-0.045 0.04114,6.61868 -6.674012,0.045 z m 13.031196,13.58896 6.674014,-0.045 0.04938,6.61869 -6.678126,0.045 z m 17.845372,6.5083 6.678128,-0.045 0.04526,6.61869 -6.674012,0.045 z m -34.760825,-38.440699 6.678126,-0.04492 0.04525,6.618684 -6.674013,0.0449 z"
     id="path33"
     inkscape:connector-curvature="0"
     style="fill:#169bd6;stroke-width:4.10138559" />
  <g
     transform="matrix(0.89975732,0,0,0.8939519,-15.935086,-12.723743)"
     id="g95"
     style="fill:#00a8da">
    <use
       x="101.024"
       xlink:href="#a"
       y="19.927999"
       id="use35"
       width="100%"
       height="100%" />
    <use
       x="106.314"
       xlink:href="#a"
       y="32.067001"
       id="use37"
       width="100%"
       height="100%" />
    <use
       x="93.863998"
       xlink:href="#a"
       y="9.184"
       id="use39"
       width="100%"
       height="100%" />
    <use
       xlink:href="#a"
       id="use41"
       x="0"
       y="0"
       width="100%"
       height="100%" />
    <use
       x="-23.506001"
       xlink:href="#a"
       y="44.828999"
       id="use43"
       width="100%"
       height="100%" />
    <use
       x="84.835999"
       xlink:href="#a"
       y="0.001"
       id="use45"
       width="100%"
       height="100%" />
    <use
       x="-21.171"
       xlink:href="#a"
       y="32.063999"
       id="use47"
       width="100%"
       height="100%" />
    <use
       x="23.034"
       xlink:href="#a"
       y="-12.454"
       id="use49"
       width="100%"
       height="100%" />
    <use
       x="-16.191"
       xlink:href="#a"
       y="19.924"
       id="use51"
       width="100%"
       height="100%" />
    <use
       x="-8.8760004"
       xlink:href="#a"
       y="9.0290003"
       id="use53"
       width="100%"
       height="100%" />
    <path
       d="m -5.274,39.547 4.02,-0.028 0.03,4.096 -4.02,0.028 z m 24.83,-7.9 4.02,-0.028 0.03,4.096 -4.02,0.028 z"
       id="path55"
       inkscape:connector-curvature="0" />
    <use
       x="73.938004"
       xlink:href="#a"
       y="-7.1599998"
       id="use57"
       width="100%"
       height="100%" />
    <use
       x="108.34"
       xlink:href="#a"
       y="44.676998"
       id="use59"
       width="100%"
       height="100%" />
    <use
       x="48.876999"
       xlink:href="#a"
       y="-15.253"
       id="use61"
       width="100%"
       height="100%" />
    <use
       x="61.640999"
       xlink:href="#a"
       y="-12.608"
       id="use63"
       width="100%"
       height="100%" />
    <use
       x="84.832001"
       xlink:href="#a"
       y="102.426"
       id="use65"
       width="100%"
       height="100%" />
    <use
       x="108.34"
       xlink:href="#a"
       y="57.596001"
       id="use67"
       width="100%"
       height="100%" />
    <use
       x="-0.0040000002"
       xlink:href="#a"
       y="102.424"
       id="use69"
       width="100%"
       height="100%" />
    <use
       x="106.314"
       xlink:href="#a"
       y="70.515999"
       id="use71"
       width="100%"
       height="100%" />
    <use
       x="61.638"
       xlink:href="#a"
       y="115.034"
       id="use73"
       width="100%"
       height="100%" />
    <use
       x="101.02"
       xlink:href="#a"
       y="82.657997"
       id="use75"
       width="100%"
       height="100%" />
    <use
       x="93.862"
       xlink:href="#a"
       y="93.554001"
       id="use77"
       width="100%"
       height="100%" />
    <path
       d="m 57.527,156.738 4.02,-0.028 0.03,4.096 -4.02,0.028 z m -24.677,7.592 4.02,-0.028 0.03,4.096 -4.02,0.028 z"
       id="path79"
       inkscape:connector-curvature="0" />
    <use
       x="11.048"
       xlink:href="#a"
       y="110.052"
       id="use81"
       width="100%"
       height="100%" />
    <use
       x="-16.346001"
       xlink:href="#a"
       y="82.498001"
       id="use83"
       width="100%"
       height="100%" />
    <use
       x="-21.173"
       xlink:href="#a"
       y="70.514"
       id="use85"
       width="100%"
       height="100%" />
    <use
       x="-9.033"
       xlink:href="#a"
       y="93.551003"
       id="use87"
       width="100%"
       height="100%" />
    <use
       x="-23.506001"
       xlink:href="#a"
       y="57.594002"
       id="use89"
       width="100%"
       height="100%" />
    <use
       x="35.953999"
       xlink:href="#a"
       y="117.524"
       id="use91"
       width="100%"
       height="100%" />
    <use
       x="22.879"
       xlink:href="#a"
       y="114.879"
       id="use93"
       width="100%"
       height="100%" />
  </g>
</svg>
