<svg fill="none" height="513" width="2500" xmlns="http://www.w3.org/2000/svg" viewBox="2 8 1020 194.265"><path d="M461.527 105.719c0 38.663-23.589 56.941-53.114 56.941h-18.044v-23.199h16.638c17.809 0 29.68-9.606 29.68-33.742 0-23.902-11.227-35.855-30.208-35.855-18.278 0-31.342 11.25-31.342 35.386v97.014h-24.605V49.711h24.605v13.125h3.515c8.202-11.014 20.328-15.937 32.982-15.937 27.183 0 49.893 19.684 49.893 58.82zM299.82 95.641L283.416 94c-12.888-1.172-19.684-4.687-19.684-12.186 0-8.905 8.671-14.06 21.09-14.06 12.889 0 21.09 6.093 21.793 14.763h23.668c-.937-22.027-18.043-35.619-45.226-35.619-27.417 0-45.93 14.53-45.93 35.853 0 17.81 11.248 29.292 36.791 31.87l16.637 1.64c10.077.937 16.873 3.046 16.873 12.654 0 8.671-6.328 14.997-22.965 14.997-15.321 0-22.87-6.952-25.519-16.271h-25.605c2.551 21.302 20.446 37.83 51.124 37.83 28.823 0 47.569-15.232 47.569-37.727 0-19.919-13.122-29.995-34.212-32.104zm257.002 32.001c-3.86 8.865-13.083 15.569-26.171 15.569-18.043 0-31.4-11.717-31.4-37.025 0-24.137 12.419-37.494 31.634-37.494 17.107 0 26.949 10.311 27.887 25.777h-44.29v17.811h68.426v-11.718c0-32.573-21.559-53.663-52.257-53.663-28.588 0-56.006 19.45-56.006 59.287 0 39.836 27.418 59.286 56.006 59.286 26.149 0 44.795-16.107 50.588-37.83zM168.945 46.899c-26.948 0-47.101 14.062-49.444 35.619h26.479c1.875-7.966 9.139-13.824 22.965-13.824 17.81 0 23.668 9.375 23.668 20.856v38.663c-10.076 11.484-21.793 16.872-33.51 16.872-12.185 0-20.621-5.858-20.621-16.401 0-10.079 6.561-16.404 19.215-16.404h19.684V94.469h-20.387c-28.12 0-43.82 14.062-43.82 35.619 0 20.152 15.231 35.384 40.305 35.384 14.06 0 26.48-5.622 35.619-12.42h3.515v9.608h24.605V87.205c0-27.886-18.981-40.306-48.273-40.306zM2 162.66h24.605V8H2zM105.341 49.711H75.347L39.492 96.814v14.763l36.79 51.083h30.464L63.63 104.077zm889.476 0L974.664 94.47c-4.921 10.781-9.605 21.324-11.012 28.356h-3.518c-1.406-7.032-6.325-17.342-11.246-28.12l-20.153-44.994h-27.183l47.336 101.467-23.434 51.086H951.7L1022 49.711zm-98.707 0h-29.995l-35.853 47.103v14.763l36.79 51.083h30.464l-43.118-58.583zm-154.054 45.93L725.653 94c-12.889-1.172-19.684-4.687-19.684-12.186 0-8.905 8.67-14.06 21.09-14.06 12.888 0 21.09 6.093 21.793 14.763h23.667c-.937-22.027-18.043-35.619-45.226-35.619-27.417 0-45.929 14.53-45.929 35.853 0 17.81 11.248 29.292 36.79 31.87l16.638 1.64c10.076.937 16.872 3.046 16.872 12.654 0 8.671-6.327 14.997-22.965 14.997-15.321 0-22.87-6.952-25.519-16.271h-25.605c2.551 21.302 20.446 37.83 51.124 37.83 28.823 0 47.57-15.232 47.57-37.727 0-19.919-13.123-29.995-34.213-32.104zm50.712 67.019h24.605V8h-24.605zM630.516 62.836h-3.515V49.71h-24.605V162.66h24.605v-59.052c0-20.153 9.312-31.87 27.652-31.87h15.576V46.9h-9.015c-17.017 0-24.249 6.418-30.698 15.937z" fill="#006d5c"/></svg>