<?xml version="1.0" encoding="UTF-8"?> <!-- Generator: Adobe Illustrator 25.0.1, SVG Export Plug-In . SVG Version: 6.00 Build 0) --> <svg xmlns="http://www.w3.org/2000/svg" xmlns:xlink="http://www.w3.org/1999/xlink" version="1.1" id="Layer_1" x="0px" y="0px" viewBox="0 0 1240 242" style="enable-background:new 0 0 1240 242;" xml:space="preserve"> <style type="text/css"> .st0{fill:#1CAF89;} .st1{fill:#CE5800;} .st2{fill:#AE00CC;} .st3{fill:#212121;} </style> <g id="logo_1_"> <path class="st0" d="M660.4,237.9L598.9,86.2v151.7H586V69.2h19.5l62.2,154.6l58.5-154.6H745V238h-12.6V87.4l-58,150.4h-14V237.9z M880.7,204.6c-5.9,22.3-24.6,36.8-50.7,36.8c-33,0-57.8-22.7-57.8-64.4s24.1-64.4,55.6-64.4c31.2,0,55,21,55,67.5H785 c1.1,34.7,20.9,50.7,45.2,50.7c18.2,0,32.3-9.8,37-26h13.5V204.6z M785.3,169.5h84.3c-1.7-31.2-19.2-46.6-42-46.6 C805.3,122.8,787.5,138.9,785.3,169.5L785.3,169.5z"></path> <path class="st1" d="M912.3,237.9V116h10.2l1.8,23.4c6.6-18.5,18.9-26.9,34.2-26.9c4.3,0,8.5,0.7,12.6,1.8v12.5 c-4.3-1.4-8.8-2.1-13.3-2.1c-17.8,0-33,17.4-33,46.6v66.5h-12.5V237.9z M987.3,147.6c1.8-20.9,20.3-35.2,47.3-35.2 c27.2,0,45.2,15.3,45.2,40.1v85.3h-10.2l-1.8-20.2c-7.4,12.6-21.3,23.7-43.1,23.7c-23.7,0-40.8-12.9-40.8-34.4 c0-20.9,12.6-33.5,46.9-39.2l36.6-6v-10.5c0-17.5-12.3-28.3-33.3-28.3c-19.5,0-31.9,10.1-33.5,24.8L987.3,147.6z M1067.3,194.5 v-22.7l-32.8,5.6c-29.2,4.9-37.6,14.2-37.6,28.6c0,16.4,12.6,24.6,31,24.6C1047.3,230.7,1067.2,215.8,1067.3,194.5L1067.3,194.5z"></path> <path id="meraki_1_" class="st2" d="M1112.2,237.9V69.2h12.6v96.5l58.4-49.7h17.1l-62.6,53.2l70.3,68.6h-17l-66.1-64.4v64.4h-12.7 L1112.2,237.9L1112.2,237.9z M1224.1,86.4V69h15.3v17.3L1224.1,86.4z M1225.3,237.9V116h12.6v121.8L1225.3,237.9L1225.3,237.9z"></path> <path class="st3" d="M20.6,74.5c0-5.4-4.4-9.8-9.8-9.8S1,69.1,1,74.5v20.6c0,5.4,4.4,9.8,9.8,9.8s9.8-4.4,9.8-9.8V74.5z M74.8,47.4 c0-5.4-4.4-9.8-9.8-9.8s-9.8,4.4-9.8,9.8v47.7c0,5.4,4.4,9.8,9.8,9.8s9.8-4.4,9.8-9.8V47.4z M129,10.2c0-5.4-4.4-9.8-9.8-9.8 s-9.8,4.4-9.8,9.8l0,0v104.5c0,5.4,4.4,9.8,9.8,9.8s9.8-4.4,9.8-9.8V10.2z M183.1,47.4c0-5.4-4.4-9.8-9.8-9.8s-9.8,4.4-9.8,9.8 v47.7c0,5.4,4.4,9.8,9.8,9.8s9.8-4.4,9.8-9.8V47.4z M237.2,74.5c0-5.4-4.4-9.8-9.8-9.8s-9.8,4.4-9.8,9.8l0,0v20.6 c0,5.4,4.4,9.8,9.8,9.8s9.8-4.4,9.8-9.8V74.5z M291.5,47.4c0-5.4-4.4-9.8-9.8-9.8s-9.8,4.4-9.8,9.8v47.7c0,5.4,4.4,9.8,9.8,9.8 s9.8-4.4,9.8-9.8V47.4z M345.6,10.2c0-5.4-4.4-9.8-9.8-9.8s-9.8,4.4-9.8,9.8v104.5c0,5.4,4.4,9.8,9.8,9.8s9.8-4.4,9.8-9.8V10.2z M399.8,47.4c0-5.5-4.5-10-10-10s-10,4.5-10,10v47.7c0,5.5,4.5,10,10,10s10-4.5,10-10l0,0V47.4z M453.8,74.5c0-5.4-4.4-9.8-9.8-9.8 s-9.8,4.4-9.8,9.8v20.6c0,5.4,4.4,9.8,9.8,9.8s9.8-4.4,9.8-9.8V74.5z M129,159.1h19.9v78.7H129V159.1z M309,181.6 c-5.1-2.8-10.9-4.2-16.7-4.2c-12.8,0-21.8,9-21.8,21c0,11.8,8.6,21,21.8,21c5.8,0,11.6-1.4,16.7-4.2v21.2c-5.9,1.8-12,2.8-18.1,2.8 c-22.5,0-42-15.4-42-40.8c0-23.4,17.7-40.7,42-40.7c6.1,0,12.2,1,18.1,2.8V181.6z M101.7,181.6c-5.1-2.8-10.9-4.2-16.7-4.2 c-12.9,0-21.8,9-21.8,21c0,11.8,8.4,21,21.8,21c5.8,0,11.6-1.4,16.7-4.2v21.2c-5.9,1.8-12,2.8-18.1,2.8 c-22.3,0-41.8-15.4-41.8-40.8c0-23.4,17.7-40.7,41.8-40.7c6.1,0,12.2,1,18.1,2.8V181.6z M371.5,177.8c-11.4,0-20.7,9.2-20.8,20.6 c0,11.4,9.2,20.7,20.6,20.8c11.4,0,20.7-9.2,20.8-20.6v-0.1c0.2-11.2-8.7-20.4-19.9-20.6c0,0,0,0-0.1,0 C371.9,177.6,371.7,177.6,371.5,177.8 M413.1,198.4c0,22.6-17.4,40.8-41.5,40.8s-41.5-18.2-41.5-40.8s17.4-40.7,41.5-40.7 S413.1,176,413.1,198.4 M224.3,176.9c-5-1.4-10.2-2.2-15.4-2.4c-8,0-12.3,2.7-12.3,6.5c0,4.8,5.8,6.5,9.1,7.6l5.5,1.7 c12.9,4.1,18.8,12.9,18.8,22.6c0,19.8-17.4,26.4-32.6,26.4c-7.2-0.1-14.4-0.8-21.5-2.1V219c6.1,1.8,12.4,2.8,18.8,2.9 c9.8,0,14.5-2.9,14.5-7.3c0-3.9-3.9-6.3-8.8-7.9l-4.2-1.4c-11.1-3.5-20.2-10-20.2-23c0-14.7,11.1-24.6,29.3-24.6 c6.5,0.1,13,1,19.4,2.5L224.3,176.9z"></path> </g> </svg> 