<?xml version="1.0" encoding="utf-8"?>
<svg   id="Layer_1" xmlns="http://www.w3.org/2000/svg"
	 x="0px" y="0px" viewBox="0 0 1041.73 179.59" overflow="visible" xml:space="preserve">
<path fill="#293239" d="M646.69,53.92l0,10.04c0,1.87-1.54,3.37-3.41,3.3c-2.85-0.11-6.83-0.25-9.27-0.29
	c-13.63,0-21.15,8.13-21.15,22.9v36.6c0,1.82-1.48,3.3-3.3,3.3H597.6c-1.82,0-3.29-1.48-3.29-3.3V52.98c0-1.82,1.48-3.3,3.29-3.3
	h11.39c1.82,0,3.3,1.47,3.3,3.3v4.68c5.45-5.65,14.14-8.69,24.88-8.69c1.78,0,4.03,0.25,5.6,0.47
	C645.01,49.75,646.69,51.67,646.69,53.92z M524.34,84.87c-0.65-0.82-0.57-2.01,0.18-2.75l29.42-28.9c1.32-1.3,0.4-3.53-1.45-3.53
	h-17.12c-0.83,0-1.62,0.31-2.23,0.87l-33.13,30.41c-1.32,1.22-3.46,0.28-3.46-1.52V52.98c0-1.82-1.48-3.3-3.3-3.3H481.3
	c-1.82,0-3.3,1.47-3.3,3.3v73.48c0,1.82,1.48,3.3,3.3,3.3h11.93c1.83,0,3.31-1.49,3.3-3.32l-0.11-17.05
	c-0.01-0.92,0.38-1.81,1.06-2.44l10.31-9.56c0.87-0.81,2.26-0.71,3.01,0.22l24.9,30.92c0.63,0.78,1.57,1.23,2.57,1.23h17.18
	c1.72,0,2.68-1.98,1.62-3.34L524.34,84.87z M426.74,49.69h-11.96c-1.82,0-3.3,1.47-3.3,3.3v73.48c0,1.82,1.48,3.3,3.3,3.3h11.96
	c1.82,0,3.3-1.48,3.3-3.3V52.98C430.04,51.16,428.56,49.69,426.74,49.69z M855.17,49.69h-72.2c-1.81,0-3.3,1.48-3.3,3.3v10.69
	c0,1.82,1.48,3.3,3.3,3.3h24.55c1.14,0,2.06,0.92,2.06,2.06v57.43c0,1.82,1.48,3.3,3.3,3.3h12.38c1.82,0,3.3-1.48,3.3-3.3V69.03
	c0-1.14,0.92-2.06,2.06-2.06h24.55c1.82,0,3.3-1.48,3.3-3.3V52.98C858.47,51.16,856.99,49.69,855.17,49.69z M754.7,89.72
	c0,23.69-17.43,40.89-41.45,40.89c-24.1,0-41.59-17.2-41.59-40.89c0-23.61,17.49-40.74,41.59-40.74
	C737.27,48.98,754.7,66.11,754.7,89.72z M736.01,89.72c0-14.29-9.15-23.89-22.76-23.89c-13.48,0-22.89,9.82-22.89,23.89
	c0,14.15,9.41,24.03,22.89,24.03C726.65,113.76,736.01,103.87,736.01,89.72z M910.95,49.69h-11.96c-1.81,0-3.3,1.48-3.3,3.3v73.48
	c0,1.82,1.48,3.3,3.3,3.3h11.96c1.82,0,3.3-1.48,3.3-3.3V52.98C914.25,51.16,912.77,49.69,910.95,49.69z M330.28,48.98
	c-10.78,0-20.48,3.72-27.1,10.29c-0.89,0.88-2.26,0.81-3.07-0.13c-5.66-6.57-14.36-10.16-24.83-10.16c-9.6,0-17.81,2.85-23.47,8.12
	v-4.12c0-1.82-1.48-3.3-3.3-3.3h-11.39c-1.82,0-3.3,1.47-3.3,3.3v73.48c0,1.82,1.48,3.3,3.3,3.3h11.96c1.82,0,3.29-1.48,3.29-3.3
	V88.59c0-14.29,7.32-22.48,20.07-22.48c11.24,0,16.94,6.56,16.94,19.5v40.85c0,1.82,1.48,3.3,3.3,3.3h11.96c1.82,0,3.3-1.48,3.3-3.3
	V88.59c0-14.29,7.31-22.48,20.06-22.48c11.25,0,16.95,6.56,16.95,19.5v40.85c0,1.82,1.48,3.3,3.3,3.3h11.96c1.82,0,3.3-1.48,3.3-3.3
	V84.06C363.52,61.77,351.4,48.98,330.28,48.98z M1041.29,126.42l-32.74-41.55c-0.65-0.83-0.57-2.01,0.18-2.75l29.42-28.91
	c1.32-1.29,0.4-3.53-1.45-3.53h-17.12c-0.82,0-1.62,0.31-2.23,0.87l-33.13,30.41c-1.32,1.21-3.46,0.28-3.46-1.52V52.98
	c0-1.82-1.48-3.3-3.3-3.3h-11.96c-1.82,0-3.3,1.48-3.3,3.3v73.48c0,1.82,1.48,3.3,3.3,3.3h11.93c1.83,0,3.31-1.49,3.3-3.32
	l-0.11-17.04c0-0.93,0.38-1.81,1.06-2.44L992,97.39c0.87-0.81,2.26-0.71,3.01,0.22l24.9,30.91c0.63,0.78,1.57,1.23,2.57,1.23h17.18
	C1041.39,129.76,1042.35,127.78,1041.29,126.42z M166.87,46.31c-0.22-0.5-0.45-0.98-0.71-1.41c-0.26-0.43-0.57-0.86-0.92-1.28
	c-1.81-2.22-4.76-4.4-8.53-6.47l-30.33-16.62L96.05,3.89c-3.77-2.07-7.23-3.4-10.16-3.78C85.33,0.04,84.78,0,84.26,0
	c-3.24,0-7.3,1.43-11.8,3.89L42.13,20.52L11.8,37.14c-3.77,2.07-6.72,4.24-8.53,6.47c-0.35,0.43-0.66,0.86-0.92,1.28
	c-0.26,0.43-0.49,0.91-0.71,1.41C0.52,48.91,0,52.41,0,56.54v66.5c0,4.93,0.73,8.98,2.35,11.65c1.62,2.67,4.95,5.29,9.45,7.75
	l30.33,16.63l30.33,16.62c3.77,2.06,7.23,3.4,10.16,3.78c0.56,0.07,1.11,0.12,1.63,0.12c0.52,0,1.07-0.04,1.63-0.12
	c2.93-0.38,6.39-1.71,10.16-3.78l60.66-33.25c4.49-2.46,7.83-5.08,9.45-7.75c0.26-0.43,0.49-0.91,0.71-1.41
	c1.12-2.6,1.64-6.11,1.64-10.24v-66.5C168.51,52.41,167.99,48.91,166.87,46.31z M48.58,124.33c0,1.51-1.62,2.48-2.95,1.75
	l-10.85-5.95c-2.55-1.4-4.14-4.08-4.14-6.99V81c0-1.51,1.62-2.47,2.95-1.75l12.93,7.08c1.28,0.7,2.07,2.04,2.07,3.5V124.33z
	 M137.87,113.14c0,2.91-1.59,5.6-4.14,7l-10.85,5.94c-1.33,0.73-2.95-0.23-2.95-1.75V81.75c0-1.51-1.62-2.48-2.95-1.75l-19.6,10.74
	c-2.55,1.4-4.14,4.08-4.14,6.99v42.24c0,1.46-0.79,2.8-2.07,3.5l-3.08,1.68c-2.39,1.31-5.28,1.31-7.67,0l-3.06-1.68
	c-1.28-0.7-2.07-2.04-2.07-3.5V97.74c0-2.91-1.59-5.59-4.14-6.99l-40.51-22.2v-2.1c0-2.91,1.59-5.59,4.14-6.99L39.25,57
	c2.39-1.31,5.28-1.31,7.66,0l33.51,18.36c2.39,1.31,5.28,1.31,7.66,0l15.48-8.49c1.38-0.76,1.38-2.74,0-3.5L68.78,44.31
	c-1.38-0.76-1.38-2.74,0-3.5l11.64-6.38c2.39-1.31,5.28-1.31,7.67,0l45.64,25.01c2.56,1.4,4.15,4.08,4.15,7V113.14z"/>
</svg>
