<svg xmlns="http://www.w3.org/2000/svg" viewBox="0 0 64 64"><g id="Layer_25" data-name="Layer 25"><path d="M52,31H33V23a1,1,0,0,0-2,0v8H12a1,1,0,0,0-1,1v9a1,1,0,0,0,2,0V33H51v8a1,1,0,0,0,2,0V32A1,1,0,0,0,52,31Z" style="fill:#7a838b"/><circle cx="32" cy="32" r="3" style="fill:#f8c460"/><rect x="21" y="1" width="22" height="14" rx="2" style="fill:#d6e4e8"/><path d="M28,12a4,4,0,0,1-4-4V1H23a2,2,0,0,0-2,2V13a2,2,0,0,0,2,2H41a2,2,0,0,0,2-2V12Z" style="fill:#baced3"/><polygon points="34 15 30 15 29 19 35 19 34 15" style="fill:#7a838b"/><rect x="1" y="45" width="22" height="14" rx="2" style="fill:#d6e4e8"/><polygon points="14 59 10 59 9 63 15 63 14 59" style="fill:#7a838b"/><rect x="41" y="45" width="22" height="14" rx="2" style="fill:#d6e4e8"/><path d="M48,56a4,4,0,0,1-4-4V45H43a2,2,0,0,0-2,2V57a2,2,0,0,0,2,2H61a2,2,0,0,0,2-2V56Z" style="fill:#baced3"/><polygon points="54 59 50 59 49 63 55 63 54 59" style="fill:#7a838b"/><ellipse cx="40" cy="5" rx="1" ry="2" style="fill:#fff"/><ellipse cx="20" cy="49" rx="1" ry="2" style="fill:#fff"/><ellipse cx="60" cy="49" rx="1" ry="2" style="fill:#fff"/></g></svg>