<?xml version="1.0" encoding="utf-8"?>
<!-- Generator: Adobe Illustrator 22.1.0, SVG Export Plug-In . SVG Version: 6.00 Build 0)  -->
<svg version="1.1" id="Layer_1" xmlns="http://www.w3.org/2000/svg" xmlns:xlink="http://www.w3.org/1999/xlink" x="0px" y="0px"
	 viewBox="0 0 882.7 688.6" style="enable-background:new 0 0 882.7 688.6;" xml:space="preserve">
<style type="text/css">
	.st0{fill:#FFFFFF;}
	.st1{fill:#009900;}
</style>
<path class="st0" d="M506,688.6c-11.3,0-21.7-4.4-29.4-11.5c-8,7.1-18.1,11-28.5,11h-0.5c-11.2-0.2-22.2-5-30.2-13.3
	c-8.1-8.2-12.6-19.3-12.5-30.4v-4.5l-11.8,23.8l-5,10.1c-4.2,8.6-13,14.1-22.7,14.1H264.9c-9.1,0-17.5-5-22-12.8l-5.1-9.2
	l-13.6-23.9v3c0,23.8-19.4,43.2-43.2,43.2c-11.6,0-22.4-4.5-30.6-12.7l-63.9-63.9V645c0,23.8-19.4,43.2-43.2,43.2S0,668.9,0,645V507
	c0-17.5,10.5-33.2,26.7-40c5.3-2.2,10.8-3.3,16.5-3.3c11.6,0,22.4,4.5,30.6,12.7l64,64V507c0-23.8,19.4-43.2,43.2-43.2
	s43.2,19.4,43.2,43.2v3.7l13.4-24.3l4.9-9.1c4.4-8.1,12.9-13.3,22.2-13.3h104.7c9.7,0,18.4,5.5,22.6,14.1l5,10.2
	c0.3,0.4,0.4,0.9,0.6,1.3l7.3,17.5c0-11,4.5-21.9,12.5-30c8.1-8.3,19.1-13.1,30.2-13.3h0.5c10.5,0,20.9,4.1,29,11.5
	c7.6-6.9,17.8-11.1,28.9-11.1c23.8,0,43.2,19.4,43.2,43.2v33.5l64-64c8.1-8.1,19.1-12.7,30.6-12.7c5.7,0,11.2,1.1,16.5,3.3
	c4.5,1.8,8.6,4.4,12.1,7.6c7.9-7.1,18-10.9,28.7-10.9c11.5,0,22.3,4.4,30.6,12.6l38.6,38.4l38.6-38.4c8.2-8.1,19.1-12.6,30.6-12.6
	c11.6,0,22.5,4.5,30.6,12.8c16.9,16.9,16.8,44.4-0.1,61.2l-38.4,38.2l38.2,38.1c16.9,16.9,17,44.3,0.1,61.2
	c-8.1,8.2-19.1,12.8-30.6,12.8c-11.6,0-22.4-4.5-30.6-12.7l-38.4-38.3L732,675.6c-8.1,8.1-19,12.6-30.6,12.6
	c-10.4,0-20.6-3.9-28.5-10.7c-7.6,6.9-17.8,11.2-29,11.2c-23.8,0-43.2-19.4-43.2-43.2v-33.5l-64,64
	C528.5,684.1,517.7,688.6,506,688.6L506,688.6z M687.2,598l21.9-21.8l-21.9-21.8V598z"/>
<path class="st1" d="M181.1,663.1c-4.7,0-9.3-1.8-12.8-5.3L61.3,550.7v94.3c0,10-8.1,18-18,18s-18-8.1-18-18V507
	c0-7.3,4.4-13.9,11.2-16.7c6.8-2.8,14.5-1.3,19.7,3.9l106.9,107V507c0-10,8.1-18,18-18c10,0,18,8.1,18,18v137.9
	C199.2,654.9,191.1,663.1,181.1,663.1 M264.9,489.2l-5,9.3l-38.4,69.8l-5,8.8l5,8.8l38.4,67.6l5.2,9.2h100.6l5-10.2l28.7-57.9
	l12.9-26.2h-29.1l-73.4,0.3c-9.6-0.2-18.4,8.6-18.4,18c0,9.6,8.8,18.2,18.4,18l44.3-0.3l-10.8,21.9h-57L258,576.7l28.5-51.5h60.6
	l14.1,29h36.4l-22.9-55l-5-10.2H264.9 M448.1,488.9c-9.5,0.1-18,8.8-17.9,18.3v47.2h36.2v-47.2C466.5,497.6,457.7,488.7,448.1,488.9
	 M506.1,663.4c-10,0-18-8.1-18-18v-138c0-10,8.1-18,18-18c10,0,18,8.1,18,18v94.3l107-107c5.2-5.2,12.9-6.7,19.7-3.9
	s11.2,9.4,11.2,16.7v137.9c0,10-8.1,18-18,18c-10,0-18-8.1-18-18V551L518.9,658.1C515.5,661.5,510.9,663.4,506.1,663.4 M796.1,576.2
	l56.2-56.1c7.1-7.1,7.1-18.5,0.1-25.6c-7.1-7.1-18.5-7.1-25.6-0.1l-56.3,56.2l-56.3-56.2c-7.1-7.1-18.5-7.1-25.6,0.1
	c-7.1,7.1-7.1,18.5,0,25.6l56.2,56.1l-56.1,55.9c-7.1,7.1-7.1,18.5-0.1,25.6c3.4,3.4,8,5.4,12.8,5.3c4.6,0,9.2-1.8,12.8-5.3l56.2-56
	l56.2,56c3.4,3.4,8,5.3,12.8,5.3c4.6,0,9.3-1.8,12.8-5.3c7.1-7.1,7.1-18.5-0.1-25.6L796.1,576.2z M448.1,662.9
	c-9.5-0.1-18-8.8-17.9-18.3v-75.7h36.2v75.7C466.5,654.2,457.7,663,448.1,662.9"/>
<path class="st0" d="M614.1,488.4c-18.7-0.2-36.3-7.5-49.4-20.7L338.2,241.3v176.4c0,38.9-31.7,70.7-70.7,70.7s-70.7-31.7-70.7-70.7
	V70.7c0-28.7,17.1-54.3,43.6-65.3c8.6-3.6,17.7-5.4,27-5.4c18.9,0,36.7,7.4,50,20.7L544,247.1V70.7C544,31.7,575.7,0,614.6,0
	s70.7,31.7,70.7,70.7v347.1c0,38.9-31.7,70.7-70.7,70.7H614.1L614.1,488.4z"/>
<path class="st1" d="M614.6,463.2c-11.8,0-23.5-4.6-32.2-13.3L313.1,180.5v237.2c0,25.2-20.4,45.5-45.5,45.5s-45.5-20.4-45.5-45.5
	v-347c0-18.5,11.1-35,28.1-42.1s36.6-3.2,49.6,9.9l269.3,269.4V70.7c0-25.2,20.4-45.5,45.5-45.5c25.2,0,45.5,20.4,45.5,45.5v347.1
	C660.1,442.9,639.8,463.2,614.6,463.2"/>
</svg>
