<svg xmlns="http://www.w3.org/2000/svg" xmlns:xlink="http://www.w3.org/1999/xlink" width="2500" height="550" viewBox="0 0 2500 550"><defs><path id="a" d="M0 0h2500v550H0z"/></defs><clipPath id="b"><use xlink:href="#a" overflow="visible"/></clipPath><path clip-path="url(#b)" fill="#C75B12" d="M967.867 276.745c0 31.374-5.711 58.882-17.14 82.496-11.462 23.619-27.89 41.817-49.334 54.552-21.435 12.729-46.12 19.125-74.07 19.125-26.999 0-50.992-6.2-72.022-18.592-21.045-12.396-37.291-29.99-48.796-52.825-11.513-22.792-17.276-48.643-17.276-77.555 0-31.11 5.826-58.492 17.479-82.202 11.62-23.683 28.355-41.869 50.129-54.544 21.777-12.678 46.991-19.017 75.612-19.017 26.169 0 49.64 6.239 70.4 18.699 20.735 12.46 36.77 30.01 48.069 52.599 11.302 22.593 16.949 48.356 16.949 77.264m-36.158 4.522c0-38.365-8.976-68.3-26.912-89.799-17.975-21.491-42.966-32.253-75.004-32.253-20.139 0-38.202 5.111-54.154 15.308-15.951 10.204-28.323 24.684-37.1 43.467-8.757 18.791-13.148 39.73-13.148 62.871 0 23.56 4.216 44.569 12.651 62.994 8.427 18.425 20.429 32.667 36.046 42.744 15.634 10.054 33.367 15.116 53.231 15.116 32.599 0 58.155-10.693 76.651-32.065 18.497-21.388 27.739-50.857 27.739-88.383m184.311-135.411c-6.59-3.718-14.038-5.552-22.414-5.552-23.559 0-35.339 14.874-35.339 44.613v32.452h49.314v28.546h-49.314v181.86h-33.704V245.912H988.81v-28.546h35.752V183.26c0-21.396 6.303-38.652 18.897-51.783 12.607-13.164 28.654-19.738 48.105-19.738 10.272 0 18.401 1.237 24.45 3.719v30.407l.006-.009z"/><path clip-path="url(#b)" fill="#C75B12" d="M1232.157 145.857c-6.578-3.719-14.039-5.552-22.402-5.552-23.56 0-35.339 14.874-35.339 44.613v32.452h49.314v28.546h-49.314v181.86H1140.7V245.912h-35.753v-28.546h35.753V183.26c0-21.396 6.303-38.652 18.91-51.784 12.607-13.163 28.642-19.737 48.093-19.737 10.284 0 18.413 1.237 24.45 3.718l.004 30.4zm62.144-3.905c0 6.307-2.188 11.544-6.574 15.704-4.391 4.188-9.585 6.26-15.614 6.26-6.164 0-11.385-1.996-15.621-6.049-4.239-4.04-6.371-9.362-6.371-15.923 0-5.894 2.072-10.997 6.261-15.304 4.194-4.334 9.417-6.474 15.721-6.474 6.283 0 11.568 2.096 15.824 6.367 4.25 4.235 6.374 9.37 6.374 15.419m-5.751 285.804h-33.712V217.342h33.712v210.414zm192.331-9.636c-16.302 9.862-35.554 14.794-57.748 14.794-19.165 0-36.397-4.43-51.681-13.243-15.282-8.853-27.146-21.348-35.648-37.526-8.503-16.153-12.73-34.297-12.73-54.436 0-34.782 9.954-62.736 29.882-83.857 19.934-21.078 46.49-31.644 79.631-31.644 18.368 0 34.595 3.563 48.709 10.693v34.512c-15.757-10.952-32.472-16.428-50.138-16.428-21.78 0-39.489 7.79-53.114 23.32-13.638 15.559-20.461 35.633-20.461 60.318 0 24.541 6.485 43.889 19.435 58.154 12.933 14.241 30.296 21.352 52.081 21.352 18.357 0 35.621-6.013 51.788-18.087l-.006 32.078zm207.057-87.122h-148.565c.573 23.706 6.824 41.813 18.815 54.352 11.978 12.517 28.578 18.791 49.802 18.791 23.842 0 45.557-7.667 65.166-23.006v31.453c-18.356 13.561-42.748 20.326-73.158 20.326-30.022 0-53.423-9.696-70.297-29.079-16.838-19.372-25.272-46.2-25.272-80.453 0-20.815 4.227-39.817 12.658-57.009 8.406-17.188 20.044-30.499 34.817-39.964 14.807-9.445 31.243-14.197 49.307-14.197 27.258 0 48.525 8.868 63.809 26.633 15.288 17.721 22.919 42.553 22.919 74.479v17.674zm-34.506-28.57c-.279-19.442-4.977-34.552-14.095-45.321-9.104-10.754-21.944-16.13-38.513-16.13-15.621 0-28.992 5.623-40.066 16.846-11.112 11.227-18.083 26.1-20.951 44.593l113.625.012zm290.915 41.916c0 26.578-9.521 47.982-28.56 64.22-19.037 16.233-44.06 24.343-75.004 24.343-28.081 0-50.419-5.35-67.003-16.02v-36.17c19.886 15.603 42.616 23.416 68.212 23.416 20.696 0 37.177-5.118 49.434-15.311 12.276-10.189 18.408-24 18.408-41.407 0-38.478-27.42-57.729-82.198-57.729h-24.45v-28.574h23.209c48.487 0 72.746-18.083 72.746-54.253 0-33.422-18.489-50.125-55.49-50.125-20.811 0-40.338 6.983-58.548 20.954v-32.666c18.763-11.227 41.078-16.851 66.983-16.851 24.39 0 44.071 6.455 59.076 19.428 14.997 12.945 22.482 29.91 22.482 50.844 0 38.779-19.587 63.703-58.763 74.814v.807c20.811 2.334 37.629 9.851 50.362 22.609 12.736 12.738 19.104 28.634 19.104 47.671m221.704-10.057c0 18.64-4 35.545-12.015 50.745-8.009 15.195-19.057 26.995-33.202 35.343-14.103 8.367-29.916 12.539-47.457 12.539-29.449 0-52.552-11.847-69.361-35.545-16.779-23.688-25.158-56.791-25.158-99.265 0-33.685 4.975-63.459 14.909-89.262 9.931-25.83 23.993-45.718 42.203-59.681 18.23-13.995 39.252-20.971 63.086-20.971 20.282 0 36.575 2.804 48.924 8.428v31.859c-15.208-7.815-31.251-11.712-48.097-11.712-26.029 0-46.872 11.68-62.564 35.044-15.697 23.348-23.54 54.484-23.54 93.381h.828c13.562-27.822 35.967-41.722 67.194-41.722 25.471 0 45.908 8.32 61.244 24.975 15.354 16.626 23.006 38.57 23.006 65.844m-34.512 4.307c0-20.564-5.051-36.783-15.101-48.709-10.069-11.907-24.151-17.845-42.234-17.845-16.429 0-30.265 5.771-41.511 17.354-11.234 11.545-16.831 25.584-16.831 42.006 0 20.694 5.572 37.998 16.735 51.873 11.167 13.925 25.25 20.863 42.247 20.863 16.83 0 30.511-6.049 40.985-18.186 10.468-12.125 15.71-27.913 15.71-47.356m232.816-.827c0 28.649-9.477 51.632-28.447 69.063-18.974 17.375-44.299 26.06-75.942 26.06-27.409 0-47.743-4.088-61.019-12.308v-35.765c19.984 12.904 40.465 19.331 61.423 19.331 20.819 0 37.599-5.838 50.332-17.481 12.767-11.653 19.134-27.258 19.134-46.817 0-19.204-6.463-34.225-19.313-45.126-12.885-10.88-31.58-16.32-56.094-16.32-19.603 0-36.242.804-49.942 2.438l10.058-147.734h136.248v30.407h-107.062l-5.953 86.51 27.122-1.046c30.69 0 54.938 7.767 72.742 23.245 17.8 15.473 26.712 37.338 26.713 65.543M540.557 484.956l-.044-.024V76.583L394.207 34.368 131.19 133.127l-.66.127.031 295.266 89.755-35.128V153.158l173.891-41.574-.024 353.205-263.474-36.27 263.474 97.291v.107l146.33-40.497v-.465h.044z"/></svg>