<svg width="2500" height="2490" viewBox="0 0 256 255" xmlns="http://www.w3.org/2000/svg" preserveAspectRatio="xMidYMid"><path d="M255.215.258v63.736l-63.605 63.605v-63.87L255.215.259" fill="#A596FF"/><path d="M128.006.258v63.736l63.605 63.605v-63.87L128.006.259"/><path d="M255.346 254.804H191.61l-63.605-63.605h63.867l63.474 63.605" fill="#A596FF"/><path d="M255.346 127.595H191.61L128.005 191.2h63.867l63.474-63.605"/><path d="M.801 254.936V191.2l63.605-63.605v63.869L.801 254.936" fill="#A596FF"/><path d="M128.01 254.936V191.2l-63.605-63.605v63.869l63.604 63.473"/><path d="M.672.386h63.736l63.605 63.605H64.145L.672.386" fill="#A596FF"/><path d="M.672 127.594h63.736l63.605-63.605H64.145L.672 127.594"/></svg>