<svg viewBox="0 0 111.72 40.54" xmlns="http://www.w3.org/2000/svg" width="2500" height="907"><path d="M0 0h111.72v40.54H0z" fill="#231f20"/><g fill="#fff"><path d="M70.52 33.76h.59v-2.55l2 2.55h.64v-3.44h-.59v2.54l-2-2.54h-.64zM74.56 33.76h2.77v-.55h-2.17v-.95h2.06v-.55h-2.06v-.84h2.13v-.55h-2.72zM77.86 30.87h1.23v2.89h.59v-2.89h1.22v-.55h-3zM82.5 33.76h.62s.76-2.36.86-2.64c.08.28.85 2.64.85 2.64h.61l1.14-3.44h-.62l-.79 2.58-.85-2.58h-.66l-.82 2.58c-.09-.28-.8-2.58-.8-2.58h-.64zM88.62 30.24a1.83 1.83 0 0 0-1.37.51 2 2 0 0 0 0 2.59 1.86 1.86 0 0 0 1.37.51 1.81 1.81 0 1 0 0-3.61m-.94 2.71a1.27 1.27 0 0 1-.32-.9 1.25 1.25 0 0 1 .32-.9 1.28 1.28 0 0 1 .94-.35 1.26 1.26 0 1 1 0 2.51 1.28 1.28 0 0 1-.94-.35M91.14 33.76h.6v-1.4h1.2c.34 0 .54.11.57.72v.1c0 .34 0 .46.11.56h.66l-.08-.09c-.1-.12-.12-.27-.14-.87a.74.74 0 0 0-.4-.71.86.86 0 0 0 .47-.82.89.89 0 0 0-.94-.94h-2.06zm.6-2.89h1.3c.33 0 .51.17.51.47s-.06.47-.52.47h-1.29zM95 33.77h.6v-1.12l.52-.48 1.31 1.6h.81l-1.67-2c.09-.07 1.61-1.44 1.61-1.44h-.85l-1.73 1.59v-1.59H95zM98.7 31.31c0 .76.76.89 1 .93l.74.13c.39.07.55.19.55.43a.39.39 0 0 1-.11.29 1 1 0 0 1-.7.22c-.37 0-1-.09-1-.7v-.07h-.6v.05a1.15 1.15 0 0 0 .31.83 1.74 1.74 0 0 0 1.24.41 1.7 1.7 0 0 0 1.17-.39 1 1 0 0 0 .28-.76c0-.72-.76-.86-1-.9l-.8-.14c-.43-.08-.48-.26-.48-.38a.42.42 0 0 1 .11-.29.85.85 0 0 1 .59-.2c.73 0 .86.32.9.57v.05h.59v-.07c0-.69-.57-1.09-1.44-1.09s-1.36.4-1.36 1.06M42.67 16.07a3.6 3.6 0 0 0-2.57-1 3.18 3.18 0 0 0-2.77 1.28v-.64a1.32 1.32 0 0 0-1-.53 1.26 1.26 0 0 0-1 .53v14.6h2.11v-5.45a3.22 3.22 0 0 0 2.75 1.23 3.55 3.55 0 0 0 2.55-1c1.06-1.08 1.18-2.93 1.18-4.56s-.12-3.46-1.18-4.54m-3.11 8.13c-1.9 0-2.19-1.68-2.19-3.59s.29-3.56 2.19-3.56 2.18 1.65 2.18 3.56-.27 3.59-2.18 3.59M51.58 26v-1a3.41 3.41 0 0 1-2.8 1.11 3.64 3.64 0 0 1-2.81-1 3.33 3.33 0 0 1-.83-2.31c0-1.81 1.22-3.1 3.62-3.1h2.78v-.76c0-1.36-.67-2-2.3-2a2.45 2.45 0 0 0-2.3 1l-1.39-1.34a4.29 4.29 0 0 1 3.77-1.55c2.88 0 4.33 1.26 4.33 3.7v7.19zm0-4.75h-2.47c-1.24 0-1.88.57-1.88 1.54s.6 1.53 1.92 1.53a2.48 2.48 0 0 0 2-.61 2.21 2.21 0 0 0 .46-1.59zM58.98 24.15c-.85 0-1.14-.42-1.14-1.25v-12a1.33 1.33 0 0 0-1.06-.54 1.28 1.28 0 0 0-1 .54v12.13a2.71 2.71 0 0 0 2.88 3h1.3v-1.85zM68.17 24.85a4.22 4.22 0 0 1-3.15 1.28 4.17 4.17 0 0 1-3.13-1.28c-1-1.06-1.24-2.42-1.24-4.24s.25-3.16 1.24-4.22a4.17 4.17 0 0 1 3.13-1.28 4.22 4.22 0 0 1 3.15 1.28c1 1.06 1.24 2.42 1.24 4.22s-.25 3.18-1.24 4.24m-1.6-7.19a2.11 2.11 0 0 0-1.55-.61 2.06 2.06 0 0 0-1.53.61 6.33 6.33 0 0 0 0 5.9 2.08 2.08 0 0 0 1.53.63 2.13 2.13 0 0 0 1.55-.63 6.33 6.33 0 0 0 0-5.9M84.86 24.15c-.85 0-1.14-.42-1.14-1.25v-12a1.33 1.33 0 0 0-1.06-.54 1.31 1.31 0 0 0-1.06.54v12.13a2.71 2.71 0 0 0 2.88 3h1.31v-1.85zM77.14 26v-1a3.41 3.41 0 0 1-2.8 1.11 3.64 3.64 0 0 1-2.81-1 3.33 3.33 0 0 1-.83-2.31c0-1.81 1.22-3.1 3.62-3.1h2.78v-.76c0-1.36-.67-2-2.3-2a2.45 2.45 0 0 0-2.3 1l-1.39-1.34a4.29 4.29 0 0 1 3.77-1.55c2.88 0 4.33 1.26 4.33 3.7v7.19zm0-4.75h-2.47c-1.24 0-1.88.57-1.88 1.54s.6 1.53 1.92 1.53a2.48 2.48 0 0 0 2-.61 2.21 2.21 0 0 0 .46-1.59zM91.62 17.09v-1.66h-2v-3.26a1.35 1.35 0 0 0-1.07-.53 1.31 1.31 0 0 0-1 .54v3.25h-1.2v1.66h1.2v5.92a2.77 2.77 0 0 0 2.88 3h1.26v-1.85h-.87c-.78 0-1.15-.46-1.15-1.25V17.1zM100.41 24.85a4.22 4.22 0 0 1-3.15 1.28 4.16 4.16 0 0 1-3.13-1.28c-1-1.06-1.24-2.42-1.24-4.24s.25-3.16 1.24-4.22a4.16 4.16 0 0 1 3.13-1.28 4.22 4.22 0 0 1 3.15 1.28c1 1.06 1.24 2.42 1.24 4.22s-.25 3.18-1.24 4.24m-1.6-7.19a2.11 2.11 0 0 0-1.55-.61 2.06 2.06 0 0 0-1.53.61 6.33 6.33 0 0 0 0 5.9 2.08 2.08 0 0 0 1.53.63 2.13 2.13 0 0 0 1.6-.65 6.33 6.33 0 0 0 0-5.9M103.44 32.41a1.04 1.04 0 0 1 0-2.08 1.04 1.04 0 0 1 0 2.08m0-1.93a.87.87 0 0 0-.85.89.85.85 0 1 0 1.7 0 .87.87 0 0 0-.85-.89m.25 1.46l-.26-.47h-.17v.47h-.15V30.8h.38a.34.34 0 0 1 .35.34.31.31 0 0 1-.24.31l.27.49zm-.22-1h-.21v.4h.21a.2.2 0 0 0 .21-.2.2.2 0 0 0-.21-.2M29.07 20.95a1.09 1.09 0 0 1 1-.88v-6.79a3.15 3.15 0 0 0-3.13-3.17H13.12a3.15 3.15 0 0 0-3.13 3.17v13.95a3.15 3.15 0 0 0 3.13 3.17h13.81a3.15 3.15 0 0 0 3.13-3.17v-4.4a.93.93 0 0 1-.46.12.72.72 0 0 1-.72-.88zM12.71 22.7l-.19 1.12a1.09 1.09 0 0 1-1 .88.72.72 0 0 1-.72-.88l.19-1.12a1.09 1.09 0 0 1 1-.88.72.72 0 0 1 .72.88m3 0l-.68 3.91a1.08 1.08 0 0 1-1 .89.72.72 0 0 1-.72-.89l.67-3.91a1.09 1.09 0 0 1 1-.88.72.72 0 0 1 .72.88m3.28-1.78l-1.3 7.49a1.08 1.08 0 0 1-1 .89.72.72 0 0 1-.72-.89l1.29-7.49a1.08 1.08 0 0 1 1-.89.73.73 0 0 1 .73.89m3.58-3.57l-1.74 10.1a1.1 1.1 0 0 1-1 .89.73.73 0 0 1-.72-.89l1.74-10.1a1.11 1.11 0 0 1 1-.88.72.72 0 0 1 .72.88m3.13-1l-1.29 7.5a1.08 1.08 0 0 1-1 .88.72.72 0 0 1-.73-.88l1.29-7.5a1.11 1.11 0 0 1 1-.88.72.72 0 0 1 .72.88m2.66 1.8l-.67 3.92a1.11 1.11 0 0 1-1 .88.72.72 0 0 1-.72-.88l.68-3.92a1.09 1.09 0 0 1 1-.88.72.72 0 0 1 .72.88"/></g></svg>