<svg viewBox="0 0 567.2455134720947 95.92" xmlns="http://www.w3.org/2000/svg" width="2500" height="423"><path d="M32.08 0H45v77.25H32.08z" fill="#6b0aea"/><g fill-rule="evenodd"><path d="M48.13 95.88l12.91-8V21a32.21 32.21 0 0 0-12.91-5.72zM16 87.92l12.92 8v-80.6A32.19 32.19 0 0 0 16 21zM64.17 3.67v82.81l6-3.72a15.3 15.3 0 0 0 6.89-13V30.65c.03-11.28-12.89-26.98-12.89-26.98zM0 69.73a15.27 15.27 0 0 0 6.89 13l6 3.72V3.67S0 19.37 0 30.65z" fill="#6b0aea"/><path d="M386.68 78.16V17.24l9.32-3.92v64.84zM372 52.64a11.52 11.52 0 0 0-3.69-8.79 12.59 12.59 0 0 0-8.77-3.28 12.16 12.16 0 0 0-8.65 3.28 13.24 13.24 0 0 0-4 8.79zm-12.64 26.25q-9.83 0-16-6.32t-6.13-16.77q0-10.44 6.23-16.73t16.11-6.27q9.89 0 16 6t6.15 15.76a27.23 27.23 0 0 1-.33 4.37h-34.6a12.7 12.7 0 0 0 3.81 8.87 12.25 12.25 0 0 0 8.73 3.28q7.63 0 10.74-6.24h10.09A20 20 0 0 1 372.73 75a22.14 22.14 0 0 1-13.37 3.89zm-58.63-45.36v7q4.5-7.77 14.43-7.77a16.93 16.93 0 0 1 12.58 5q5 5 5 14v26.4h-9.26V53.21q0-6-3-9.19a10.83 10.83 0 0 0-8.28-3.2 11 11 0 0 0-8.4 3.18q-3.07 3.19-3.07 9.19v24.97h-9.35V33.53zM274 78.16V33.53h9.35v44.63zm-6.77-37.1h-11v24.7a4.72 4.72 0 0 0 1.19 3.61c.79.73 2.14 1.09 4.06 1.09h5.74v7.7h-7.38q-13 0-13-12.4V26.34l9.43-3.91v11.1h11zm-56.69-7.53v7Q215 32.8 225 32.8a17 17 0 0 1 12.59 5q5 5 5 14v26.36h-9.27V53.21q0-6-3-9.19a10.83 10.83 0 0 0-8.28-3.2A11 11 0 0 0 213.6 44q-3.07 3.19-3.08 9.19v24.97h-9.34V33.53zm-24 19.11a11.52 11.52 0 0 0-3.69-8.79 12.59 12.59 0 0 0-8.85-3.28 12.16 12.16 0 0 0-8.65 3.28 13.19 13.19 0 0 0-4 8.79zm-12.68 26.25q-9.84 0-16-6.32t-6.14-16.77q0-10.44 6.23-16.73t16.11-6.27q9.88 0 16 6t6.15 15.76a27.23 27.23 0 0 1-.33 4.37h-34.6a12.66 12.66 0 0 0 3.82 8.87 12.21 12.21 0 0 0 8.73 3.28q7.62 0 10.74-6.24h10.08A20 20 0 0 1 187.22 75a22.13 22.13 0 0 1-13.36 3.89zm-46.59-50.22a10.54 10.54 0 0 0-6.8 2.1 7.39 7.39 0 0 0-2.63 6.12A6.91 6.91 0 0 0 121 43a21.56 21.56 0 0 0 7.54 3.08q4.42 1 8.85 2.23A15.94 15.94 0 0 1 144.9 53q3.1 3.39 3.11 9.64t-5.33 11.17q-5.33 4.95-14.26 5t-14.51-4.14a13.41 13.41 0 0 1-5.58-11.42h10a8.6 8.6 0 0 0 2.79 5.92q2.46 2.18 7.22 2.18a10.91 10.91 0 0 0 7.5-2.43 8 8 0 0 0 1.06-10.93 10.27 10.27 0 0 0-4.34-2.8 56 56 0 0 0-5.86-1.66q-3.2-.72-6.44-1.7a27.57 27.57 0 0 1-5.9-2.51 11.71 11.71 0 0 1-4.35-4.5 14.44 14.44 0 0 1-1.68-7.24 14.72 14.72 0 0 1 5.37-11.87q5.37-4.5 13.94-4.5T141.33 25q5.13 3.89 5.7 11.26H136.7a8.14 8.14 0 0 0-2.79-5.43 9.61 9.61 0 0 0-6.64-2.16zM532.86 36.07a19.44 19.44 0 0 0-8.84 2 15.82 15.82 0 0 0-6.51 6.1 19.76 19.76 0 0 0-2.58 10.12H550a18.2 18.2 0 0 0-2.05-10.16 14.78 14.78 0 0 0-6.39-6.1 19.46 19.46 0 0 0-8.7-1.96zm-.16 38.71a18.65 18.65 0 0 0 11.3-3.34 13.63 13.63 0 0 0 5.57-9.11h3.85a17.64 17.64 0 0 1-6.68 11.24q-5.44 4.26-13.88 4.26a22.74 22.74 0 0 1-11.17-2.69 19.25 19.25 0 0 1-7.69-7.75 24.4 24.4 0 0 1-2.78-12A24.2 24.2 0 0 1 514 43.54a19.31 19.31 0 0 1 7.66-7.75 22.74 22.74 0 0 1 11.17-2.69A22.19 22.19 0 0 1 544 35.79a18.26 18.26 0 0 1 7.12 7.07 19.05 19.05 0 0 1 2.42 9.35 24.11 24.11 0 0 1-.41 4.26h-38.2a20.14 20.14 0 0 0 2.58 10.24 15.58 15.58 0 0 0 6.47 6.1 19.39 19.39 0 0 0 8.72 1.97zm-45.55-42q7.86 0 12.78 4.82t4.91 14.21v25.46h-3.68V52c0-5.24-1.34-9.25-4-12s-6.33-4.14-11-4.14a15.24 15.24 0 0 0-11.59 4.62q-4.38 4.62-4.38 13.61v23.18h-3.68V33.66h3.68v11.49a15.57 15.57 0 0 1 6.27-9.24 18.56 18.56 0 0 1 10.69-3.13zm-55.45-8.34a24.09 24.09 0 0 0-12.24 3.14 22.31 22.31 0 0 0-8.6 8.91A27.75 27.75 0 0 0 407.71 50a27.75 27.75 0 0 0 3.15 13.49 22.37 22.37 0 0 0 8.6 8.91 25.42 25.42 0 0 0 24.44 0 22.27 22.27 0 0 0 8.64-8.91A27.75 27.75 0 0 0 455.69 50a27.75 27.75 0 0 0-3.15-13.49 22.2 22.2 0 0 0-8.64-8.91 24.15 24.15 0 0 0-12.2-3.16zm0-3.29a28.09 28.09 0 0 1 14.3 3.66A25.62 25.62 0 0 1 455.9 35a31 31 0 0 1 3.56 15 31 31 0 0 1-3.56 14.94 26 26 0 0 1-9.9 10.25 29.45 29.45 0 0 1-28.58 0 26.21 26.21 0 0 1-10-10.27A30.63 30.63 0 0 1 403.86 50a30.63 30.63 0 0 1 3.6-15 25.85 25.85 0 0 1 10-10.23 28.07 28.07 0 0 1 14.24-3.62z" fill="#040404"/></g><path d="M563.47 39.55l-1-1.51h-.82v1.51h-1v-4.73h2.16c1.12 0 1.79.59 1.79 1.56a1.47 1.47 0 0 1-1 1.46l1.16 1.69zm0-3.11c0-.45-.31-.68-.82-.68h-1v1.36h1.05c.51 0 .8-.27.8-.67z" fill="#040404"/><path d="M562.4 42.16a4.85 4.85 0 1 1 4.84-4.84 4.85 4.85 0 0 1-4.84 4.84zm0-8.63a3.79 3.79 0 1 0 3.79 3.79 3.79 3.79 0 0 0-3.79-3.79z" fill="#040404"/></svg>