<?xml version="1.0" encoding="utf-8"?>
<!-- Generator: Adobe Illustrator 22.0.1, SVG Export Plug-In . SVG Version: 6.00 Build 0)  -->
<svg id="final" xmlns="http://www.w3.org/2000/svg"  x="0px" y="0px"
	 viewBox="0 0 431 71.5" style="enable-background:new 0 0 431 71.5;" xml:space="preserve">
<style type="text/css">
	.st0{display:none;fill:#68686B;}
	.st1{fill:#68686B;}
	.st2{fill:#FF6C0E;}
</style>
<path class="st0" d="M228.8,1.8h9.2l7.1,31.3l8.7-31.3h7.7l8.9,31.3l7-31.3h9.2l-11,49h-8.9l-9-31.7l-8.9,31.7h-8.9L228.8,1.8z"/>
<g>
	<path class="st1" d="M67,2c7,0,12.9,2.3,17.7,7c4.7,4.7,7.1,10.5,7.1,17.3c0,6.8-2.4,12.6-7.1,17.3c-4.7,4.7-10.5,7.1-17.3,7.1
		c-6.9,0-12.7-2.4-17.4-7.1c-4.7-4.7-7.1-10.4-7.1-17.1c0-4.5,1.1-8.6,3.2-12.4s5.1-6.8,8.8-9C58.6,3.1,62.7,2,67,2z M67.2,6.5
		c-3.4,0-6.7,0.9-9.8,2.7c-3.1,1.8-5.5,4.2-7.2,7.2c-1.7,3-2.6,6.4-2.6,10.1c0,5.5,1.9,10.2,5.7,14c3.8,3.8,8.4,5.7,13.8,5.7
		c3.6,0,6.9-0.9,10-2.6c3.1-1.7,5.5-4.1,7.2-7.2c1.7-3,2.6-6.4,2.6-10.1c0-3.7-0.9-7-2.6-10c-1.7-3-4.1-5.4-7.3-7.2
		C74,7.4,70.7,6.5,67.2,6.5z"/>
	<path class="st1" d="M104.4,51.1V1.8h1.1l32.8,37.8V1.8h4.9v49.3H142l-32.6-37.3v37.3H104.4z"/>
	<path class="st1" d="M156.5,1.8h4.6V51h-4.6V1.8z"/>
	<g>
		<path class="st1" d="M323.3,1.8h-9.5l-13.3,35.6l26.8,0.1l5.1,13.4h9.7L323.3,1.8z M312.1,31.6l6.6-16.8l6.5,16.8H312.1z"/>
	</g>
	<path class="st1" d="M352.2,1.8h9.3v40.1h18.6v8.9h-27.9V1.8z"/>
	<path class="st1" d="M390,1.8h9.3v40.1h18.6v8.9H390V1.8z"/>
	<path class="st2" d="M315.1,71.5c0,0-22.8-8.2-27.8-21.9c-5.6-15.3,15.2-18.8,36.6-18.2c11.5,0.3,25.6,2.1,25.6,2.1
		s-33.2,4.2-45.2,13.9C292.5,56.9,315.1,71.5,315.1,71.5z"/>
	<path class="st1" d="M216.1,39.2c-4.4,4.9-9.7,7.4-16.1,7.4c-5.9,0-10.9-1.9-14.8-5.7c-3.9-3.8-5.9-8.6-5.9-14.2
		c0-3.8,0.9-7.2,2.6-10.2c1.7-3,4.2-5.4,7.4-7.2c3.2-1.8,6.6-2.7,10.3-2.7c3.4,0,6.5,0.7,9.4,2c2.7,1.3,5.1,3.2,7,5.7V7.9
		c-1.4-1.2-3-2.6-4.7-3.4c-3.5-1.7-7.4-2.6-11.8-2.6c-7.2,0-13.2,2.3-18,7c-4.8,4.7-7.2,10.4-7.2,17.2c0,6.5,2,12,5.9,16.6
		c4.7,5.4,11.2,8.2,19.3,8.2c4.3,0,8.2-0.8,11.7-2.4c1.7-0.8,3.3-2.2,4.8-3.3V39.2z"/>
	<path class="st1" d="M17.7,24.1C6.6,21.8,4.5,18.9,4.5,14.4v-0.1c0-4.8,4.6-8.3,10.9-8.3c5.3,0,9.5,1.6,13.6,5.2l0.4,0.3l0.1-0.1
		V5.9C25.2,3,21,1.8,15.5,1.8C6.7,1.8,0,7.3,0,14.6v0.1C0,22.1,4.7,26,16.1,28.4c10.8,2.2,12.8,5,12.8,9.5v0.1
		c0,5.2-4.7,8.8-11.3,8.8c-6.5,0-11.1-1.9-16.4-6.8l-0.4-0.3l-0.1,0.1v5.6c5.1,3.8,10.3,5.6,16.7,5.6c9.4,0,16-5.4,16-13.2v-0.1
		C33.4,30.4,28.7,26.4,17.7,24.1z"/>
	<polygon class="st1" points="286.5,1.8 275.3,35.1 275.1,35.8 274.8,35.1 263.8,1.7 254.9,1.7 243.8,35.1 243.6,35.8 243.3,35.1
		232.1,1.8 221,1.8 238.7,51 247.9,51 259,18.9 259.2,18.2 259.4,18.9 270.5,51 279.6,51 297.3,1.8 	"/>
	<g>
		<path class="st1" d="M425.4,11.1c-3,0-5.5-2.5-5.5-5.5s2.5-5.5,5.5-5.5c3.1,0,5.6,2.5,5.6,5.5S428.5,11.1,425.4,11.1z M425.4,0.7
			c-2.7,0-4.8,2.2-4.8,4.8c0,2.7,2.2,4.8,4.8,4.8c2.7,0,4.8-2.2,4.8-4.8C430.3,2.9,428.1,0.7,425.4,0.7z M426.8,8.8l-1.5-2.5h-0.6
			v2.5h-1.7V2.2h2.9c1.6,0,2.3,1,2.3,2c0,0.8-0.4,1.5-1.2,1.8l1.9,2.7H426.8z M424.6,3.3v1.8h0.8c0.7,0,1-0.3,1-0.9s-0.3-0.9-1-0.9
			H424.6z"/>
	</g>
</g>
</svg>
