<svg xmlns="http://www.w3.org/2000/svg" viewBox="0 0 64 64"><g id="Layer_25" data-name="Layer 25"><path d="M51,34l7.254,15.414A7.848,7.848,0,0,1,59,52.752h0A7.84,7.84,0,0,1,56.7,58.3L52,63H12L7.3,58.3A7.84,7.84,0,0,1,5,52.752H5a7.848,7.848,0,0,1,.746-3.338L13,34Z" style="fill:#7a838b"/><path d="M52.862,33H11.138a2,2,0,0,0-2,2.133L11,63H53l1.858-27.867A2,2,0,0,0,52.862,33Z" style="fill:#d6e4e8"/><ellipse cx="51" cy="38" rx="1" ry="2" style="fill:#fff"/><path d="M13.5,52.532,12.2,33H11.138a2,2,0,0,0-2,2.133L11,63H53l.2-3H21.484A8,8,0,0,1,13.5,52.532Z" style="fill:#baced3"/><circle cx="32" cy="48" r="5" style="fill:#7a838b"/><path d="M32,2h0A14.7,14.7,0,0,0,19.979,8.259C15.5,14.631,13.085,20.883,13,27l4,7H47l4-7c-.085-6.117-2.5-12.369-6.979-18.741A14.7,14.7,0,0,0,32,2Z" style="fill:#5d6972"/><path d="M22,15H42a0,0,0,0,1,0,0v8A10,10,0,0,1,32,33h0A10,10,0,0,1,22,23V15A0,0,0,0,1,22,15Z" style="fill:#fcab68"/><path d="M22,20.358A35.779,35.779,0,0,1,32,19a35.779,35.779,0,0,1,10,1.358V15H22Z" style="fill:#ea8e49"/><path d="M32,17c10.493,0,19,4.029,19,9-.085-6.117-2.5-12.369-6.979-18.741A14.7,14.7,0,0,0,32,1h0A14.7,14.7,0,0,0,19.979,7.259C15.5,13.631,13.085,19.883,13,26,13,21.029,21.507,17,32,17Z" style="fill:#7a838b"/><path d="M22.979,7.258A14.706,14.706,0,0,1,33.5,1.091,14.439,14.439,0,0,0,19.979,7.258C15.5,13.631,13.085,19.883,13,26c0-1.983,1.37-3.81,3.664-5.3A38.249,38.249,0,0,1,22.979,7.258Z" style="fill:#5d6972"/><path d="M35,17c-.506,0-1,.017-1.5.036C43.29,17.4,51,21.269,51,26a25.65,25.65,0,0,0-.664-5.3C46.881,18.462,41.307,17,35,17Z" style="fill:#7a838b"/><path d="M34,20h5a0,0,0,0,1,0,0v1.5A2.5,2.5,0,0,1,36.5,24h0A2.5,2.5,0,0,1,34,21.5V20A0,0,0,0,1,34,20Z" style="fill:#7a838b"/><path d="M25,20h5a0,0,0,0,1,0,0v1.5A2.5,2.5,0,0,1,27.5,24h0A2.5,2.5,0,0,1,25,21.5V20A0,0,0,0,1,25,20Z" style="fill:#7a838b"/><circle cx="51" cy="42" r="1" style="fill:#fff"/><rect x="30" y="20" width="4" height="1" style="fill:#7a838b"/><rect x="39" y="20" width="3" height="1" style="fill:#7a838b"/><rect x="22" y="20" width="3" height="1" style="fill:#7a838b"/></g></svg>