<?xml version="1.0" encoding="UTF-8" standalone="no"?>
<svg
   xmlns:dc="http://purl.org/dc/elements/1.1/"
   xmlns:cc="http://creativecommons.org/ns#"
   xmlns:rdf="http://www.w3.org/1999/02/22-rdf-syntax-ns#"
   xmlns:svg="http://www.w3.org/2000/svg"
   xmlns="http://www.w3.org/2000/svg"
   xmlns:sodipodi="http://sodipodi.sourceforge.net/DTD/sodipodi-0.dtd"
   xmlns:inkscape="http://www.inkscape.org/namespaces/inkscape"
   height="612.35529"
   width="4558.4751"
   id="svg23367"
   version="1.1"
   viewBox="-267.79545 -46.19625 8816.4476 212.16388"
   sodipodi:docname="webroot.svg"
   inkscape:version="0.92.1 r15371">
  <metadata
     id="metadata19">
    <rdf:RDF>
      <cc:Work
         rdf:about="">
        <dc:format>image/svg+xml</dc:format>
        <dc:type
           rdf:resource="http://purl.org/dc/dcmitype/StillImage" />
      </cc:Work>
    </rdf:RDF>
  </metadata>
  <defs
     id="defs17" />
  <sodipodi:namedview
     pagecolor="#ffffff"
     bordercolor="#666666"
     borderopacity="1"
     objecttolerance="10"
     gridtolerance="10"
     guidetolerance="10"
     inkscape:pageopacity="0"
     inkscape:pageshadow="2"
     inkscape:window-width="1920"
     inkscape:window-height="1001"
     id="namedview15"
     showgrid="false"
     inkscape:zoom="0.2825"
     inkscape:cx="2153.1655"
     inkscape:cy="-212.69439"
     inkscape:window-x="-9"
     inkscape:window-y="-9"
     inkscape:window-maximized="1"
     inkscape:current-layer="svg23367" />
  <g
     transform="matrix(4.9383482,0,0,6.4093374,5070.4817,-516.44551)"
     id="layer1">
    <g
       transform="translate(0.53,-0.53)"
       id="g23514">
      <path
         class="st0"
         d="m 686.866,17.74 c -0.82,0.317 -2.117,0.476 -3.73,0.476 h -3.493 v -8.043 h 3.333 c 2.17,0 3.731,0.264 4.737,0.846 0.952,0.503 1.455,1.614 1.455,3.228 0,1.694 -0.715,2.884 -2.302,3.493 m 5.82,10.504 c -0.079,-0.582 -0.079,-1.111 -0.079,-1.64 v -1.615 c 0,-1.11 -0.397,-2.249 -1.217,-3.44 -0.767,-1.163 -2.064,-1.878 -3.836,-2.169 1.402,-0.238 2.46,-0.555 3.254,-1.085 1.402,-0.926 2.143,-2.38 2.143,-4.365 0,-2.805 -1.111,-4.683 -3.386,-5.636 C 688.268,7.792 686.231,7.5 683.505,7.5 h -7.752 v 22.173 h 3.89 v -8.679 h 3.069 c 2.064,0 3.492,0.238 4.366,0.688 1.402,0.847 2.063,2.514 2.063,5.08 v 1.773 l 0.08,0.688 c 0.08,0.106 0.08,0.185 0.08,0.238 a 0.32,0.32 0 0 1 0.078,0.238 h 3.678 l -0.159,-0.291 c -0.132,-0.185 -0.185,-0.582 -0.211,-1.164"
         id="path23371"
         inkscape:connector-curvature="0"
         style="fill:#408740;stroke-width:0.26499999" />
      <path
         class="st0"
         d="m 697.211,30.916 c -3.413,3.413 -7.461,5.133 -12.303,5.133 -4.842,0 -8.917,-1.72 -12.277,-5.133 -3.333,-3.413 -5.053,-7.514 -5.053,-12.382 0,-4.79 1.693,-8.89 5.08,-12.277 3.36,-3.413 7.487,-5.133 12.25,-5.133 4.842,0 8.89,1.693 12.303,5.133 3.36,3.387 5.054,7.488 5.054,12.277 0.026,4.894 -1.694,8.995 -5.054,12.382 M 684.908,-1.6 c -5.53,0 -10.292,1.984 -14.208,5.874 -3.942,3.968 -5.953,8.678 -5.953,14.26 0,5.61 1.958,10.372 5.873,14.315 3.916,3.968 8.705,5.953 14.288,5.953 5.61,0 10.345,-1.985 14.314,-5.953 3.942,-3.943 5.953,-8.732 5.953,-14.314 0,-5.583 -1.984,-10.346 -5.953,-14.261 -3.969,-3.89 -8.705,-5.874 -14.314,-5.874"
         id="path23373"
         inkscape:connector-curvature="0"
         style="fill:#408740;stroke-width:0.26499999" />
      <path
         class="st0"
         d="m 354.046,129.844 c -0.529,6.64 -3.704,10.768 -10.08,11.536 -10.107,1.243 -32.2,2.196 -47.387,2.196 -15.214,0 -37.57,-0.953 -47.678,-2.196 -6.35,-0.715 -9.604,-4.895 -10.054,-11.536 -0.238,-4.419 -0.74,-26.485 -0.74,-39.053 0,-12.514 0.502,-34.634 0.74,-39.079 0.476,-6.588 3.704,-10.768 10.054,-11.509 10.107,-1.217 32.464,-2.196 47.678,-2.196 15.187,0 37.28,0.979 47.387,2.196 6.376,0.74 9.551,4.921 10.08,11.51 0.212,4.444 0.715,26.564 0.715,39.078 0,12.568 -0.503,34.634 -0.715,39.053 M 370.424,2.156 c -22.569,-2.434 -51.038,-3.678 -73.871,-3.678 -22.86,0 -51.62,1.244 -74.19,3.678 -16.219,1.746 -27.278,16.192 -28.495,31.22 -0.715,9.579 -1.27,47.89 -1.27,57.442 0,9.578 0.555,47.916 1.27,57.494 1.217,15.002 12.276,29.712 28.495,31.459 22.57,2.46 51.356,3.413 74.19,3.413 22.807,0 51.302,-0.953 73.871,-3.413 16.246,-1.747 27.305,-16.43 28.496,-31.46 0.794,-9.55 1.217,-47.915 1.217,-57.493 0,-9.552 -0.45,-47.837 -1.217,-57.441 C 397.73,18.375 386.67,3.902 370.424,2.156"
         id="path23375"
         inkscape:connector-curvature="0"
         style="fill:#408740;stroke-width:0.26499999" />
      <path
         class="st0"
         d="m 112.985,129.844 c -0.45,6.64 -3.652,10.821 -10.107,11.536 -10.002,1.243 -32.12,2.196 -47.334,2.196 -15.24,0 -37.598,-0.953 -47.678,-2.196 -6.35,-0.715 -9.578,-4.895 -10.081,-11.536 -0.265,-4.419 -0.714,-26.485 -0.714,-39.026 0,-12.515 0.45,-34.634 0.714,-39.08 0.503,-6.587 3.704,-10.768 10.08,-11.509 10.055,-1.217 32.439,-2.196 47.679,-2.196 15.213,0 37.306,0.98 47.334,2.196 6.455,0.741 9.657,4.922 10.107,11.51 0.29,4.445 0.767,26.564 0.767,39.079 0,12.541 -0.476,34.607 -0.767,39.026 M 129.468,2.156 c -22.595,-2.434 -51.117,-3.678 -73.924,-3.678 -22.913,0 -51.62,1.244 -74.19,3.678 -16.219,1.746 -27.252,16.219 -28.469,31.22 -0.714,9.579 -1.243,47.89 -1.243,57.442 0,9.578 0.529,47.916 1.243,57.467 1.217,15.002 12.25,29.713 28.47,31.46 22.595,2.46 51.302,3.412 74.189,3.412 22.807,0 51.302,-0.952 73.924,-3.413 16.246,-1.746 27.279,-16.43 28.496,-31.459 0.714,-9.551 1.217,-47.916 1.217,-57.494 0,-9.551 -0.503,-47.836 -1.217,-57.44 C 156.747,18.375 145.714,3.902 129.468,2.156"
         id="path23377"
         inkscape:connector-curvature="0"
         style="fill:#408740;stroke-width:0.26499999" />
      <path
         class="st0"
         d="m -132.602,66.608 c -0.45,6.615 -3.65,10.822 -10.027,11.563 -10.081,1.217 -32.174,2.196 -47.414,2.196 -15.187,0 -39.502,-1.244 -48.392,-1.932 -1.217,-0.238 -7.594,-1.005 -10.054,-1.243 V 41.208 c 2.143,-0.238 9.34,-0.979 14.023,-1.455 9.498,-1.032 28.892,-1.72 44.397,-1.72 15.24,0 37.333,0.98 47.413,2.196 6.377,0.741 9.552,4.922 10.028,11.51 0.264,3.466 0.212,3.016 0.212,6.535 0.052,6.403 0.105,4.895 -0.186,8.334 m 3.07,50.298 v -0.027 c 4.683,-0.397 9.286,-0.794 13.6,-1.243 10.556,-1.138 18.811,-7.726 23.653,-16.272 2.646,-5.371 4.207,-11.35 4.63,-17.013 0.503,-6.641 1.005,-5.768 1.005,-15.346 0,-12.806 -0.502,-27.04 -1.005,-33.628 -1.243,-15.002 -12.25,-29.475 -28.496,-31.221 -22.516,-2.434 -51.064,-3.678 -73.898,-3.678 -22.86,0 -50.376,0.953 -71.49,2.963 -14.737,1.482 -32.412,3.414 -32.412,3.414 v 176.847 h 45.456 v -64.24 h 0.238 v -0.027 c 17.489,1.058 41.46,1.878 58.288,1.878 3.968,0 8.096,-0.026 12.356,-0.158 l 40.746,62.706 h 51.487 l -35.507,-52.07 c 0.053,-0.027 -8.704,-12.859 -8.651,-12.885"
         id="path23379"
         inkscape:connector-curvature="0"
         style="fill:#408740;stroke-width:0.26499999" />
      <path
         class="st0"
         d="m -388.612,71.424 c -9.367,0.979 -28.02,1.984 -43.233,1.984 h -63.66 V 40.706 c 2.25,-0.238 9.394,-0.741 14.05,-1.244 9.525,-0.952 31.644,-1.931 47.123,-1.931 15.213,0 36.882,1.19 46.196,2.222 7.858,0.953 9.79,7.33 9.79,15.928 0.026,8.626 -2.382,14.79 -10.266,15.743 m 0.502,70.75 c -9.313,0.978 -30.982,1.984 -46.196,1.984 -15.478,0 -37.57,-0.768 -47.122,-1.72 -4.683,-0.53 -11.8,-1.244 -14.05,-1.508 v -32.676 h 63.66 c 15.213,0 33.866,0.74 43.232,1.746 7.885,0.953 10.266,7.647 10.266,16.219 0,8.573 -1.932,14.949 -9.79,15.954 m 54.98,-95.276 c 0,-19.182 -5.344,-42.28 -28.998,-44.715 -22.278,-2.46 -49.82,-3.704 -72.178,-3.704 -22.834,0 -53.023,0.953 -74.19,2.964 -14.657,1.481 -32.384,3.413 -32.384,3.413 v 171.9 c 2.487,0.264 18.891,2.222 32.411,3.439 21.167,2.01 51.356,2.937 74.19,2.937 22.357,0 49.9,-0.953 72.204,-3.413 23.654,-2.487 28.999,-25.77 28.999,-44.953 0,-14.764 -2.964,-33.628 -15.452,-41.513 -1.217,-0.714 -3.942,-1.693 -4.921,-2.46 0.979,-0.742 3.704,-2.223 4.92,-2.938 12.463,-7.858 15.4,-26.273 15.4,-40.957"
         id="path23381"
         inkscape:connector-curvature="0"
         style="fill:#408740;stroke-width:0.26499999" />
      <path
         class="st0"
         d="m -725.189,39.753 c 10.028,-1.243 32.385,-2.222 47.625,-2.222 22.093,0 55.51,0.264 77.867,1.455 3.148,0.185 14.235,1.508 18.627,2.196 l 2.963,-38.788 c -4.683,-0.714 -17.436,-2.222 -20.903,-2.408 -22.066,-1.428 -56.224,-1.508 -78.555,-1.508 -22.833,0 -51.594,1.244 -74.163,3.678 -16.219,1.746 -27.278,16.219 -28.495,31.194 -0.741,9.552 -1.217,47.89 -1.217,57.441 0,9.578 0.502,47.916 1.217,57.468 1.217,15.002 12.276,29.713 28.495,31.459 22.57,2.487 51.33,3.413 74.163,3.413 22.33,0 56.674,-0.027 78.555,-1.323 3.466,-0.185 16.219,-1.931 20.902,-2.699 l -2.963,-38.814 c -4.392,0.74 -15.505,2.222 -18.627,2.434 -22.252,1.879 -55.774,1.35 -77.867,1.35 -15.24,0 -37.57,-0.98 -47.625,-2.25 -6.43,-0.714 -9.63,-4.92 -10.107,-11.535 -0.238,-2.937 -0.476,-13.018 -0.476,-21.379 h 104.457 V 72.403 h -104.457 c 0,-8.361 0.238,-18.204 0.476,-21.14 0.476,-6.641 3.678,-10.795 10.107,-11.51"
         id="path23383"
         inkscape:connector-curvature="0"
         style="fill:#408740;stroke-width:0.26499999" />
      <path
         class="st0"
         id="polygon23385"
         transform="matrix(0.26458,0,0,0.26458,-1080.101,-1.601)"
         d="m 5682.9,5.8 v 149.4 h 343.4 v 537.6 h 171.8 V 155.2 h 342.7 V 5.8 Z"
         inkscape:connector-curvature="0"
         style="fill:#408740" />
      <path
         class="st0"
         d="m -808.004,-0.252 v 0.08 h -45.402 c -1.217,5.873 -15.69,56.753 -17.304,62.309 -1.56,5.61 -10.53,33.285 -12.541,38.761 -0.265,0.609 -3.254,8.308 -3.572,8.89 l -40.322,-88.926 h -33.47 l -40.323,88.873 c -0.29,-0.582 -3.333,-8.281 -3.572,-8.89 -2.01,-5.476 -11.033,-33.152 -12.594,-38.761 -1.56,-5.556 -16.086,-56.41 -17.277,-62.31 h -45.455 v -0.026 h -0.292 l 0.026,0.053 h -0.025 l 0.661,2.143 v 0.027 c 1.878,9.445 27.146,93.53 29.713,102.764 2.645,9.207 18.282,55.88 21.59,64.85 0.344,0.925 0.74,1.798 1.164,2.672 l 0.026,0.079 c 2.857,8.705 9.525,10.001 18.203,10.504 l 1.085,0.026 c 8.784,0 14.473,-1.772 17.833,-7.646 l 45.985,-101.52 45.984,101.52 c 3.334,5.874 9.075,7.646 17.807,7.646 l 1.11,-0.026 c 8.706,-0.503 15.347,-1.8 18.178,-10.504 l 0.053,-0.08 c 0.396,-0.873 0.82,-1.746 1.11,-2.672 3.308,-8.97 18.998,-55.615 21.617,-64.85 2.62,-9.233 27.834,-93.344 29.766,-102.737 V 1.971 l 0.661,-2.143 h -0.079 l 0.08,-0.08 z"
         id="path23387"
         inkscape:connector-curvature="0"
         style="fill:#408740;stroke-width:0.26499999" />
    </g>
  </g>
  <style
     type="text/css"
     id="style23369">.st0{fill:#408740}</style>
</svg>
