<svg height="2500" viewBox="-0.153305614872707 -16.047683547530013 587.519258222215 678.613169536194" width="2269" xmlns="http://www.w3.org/2000/svg"><g stroke-width="2.41"><path d="M546.353 124.75L334.494-1.03a79.795 79.795 0 0 0-81.747 0L40.853 124.75A84.504 84.504 0 0 0 .001 197.545v251.523a84.504 84.504 0 0 0 40.852 72.752l211.859 125.737a79.837 79.837 0 0 0 81.747 0L546.318 521.82a84.504 84.504 0 0 0 40.894-72.795v-251.47a84.504 84.504 0 0 0-40.852-72.794z" fill="#fff"/><path d="M546.353 124.75L334.494-1.03a79.795 79.795 0 0 0-81.747 0L40.853 124.75A84.504 84.504 0 0 0 .001 197.545v251.523a84.504 84.504 0 0 0 40.852 72.752l211.859 125.737a79.837 79.837 0 0 0 81.747 0L546.318 521.82a84.504 84.504 0 0 0 40.894-72.795v-251.47a84.504 84.504 0 0 0-40.852-72.794zM260.13 634.697L48.272 508.96a69.74 69.74 0 0 1-33.597-59.9V197.539a69.698 69.698 0 0 1 33.597-59.9l211.859-125.78a65.329 65.329 0 0 1 66.94 0l211.683 125.78a69.274 69.274 0 0 1 32.538 48.446c-7.042-14.975-22.865-19.089-41.319-8.484L329.7 301.64c-24.987 14.55-43.398 30.967-43.44 61.088v246.98c0 18.03 7.253 29.695 18.453 33.131a64.904 64.904 0 0 1-11.115 1.06 65.626 65.626 0 0 1-33.47-9.205z" fill="#2f3a3e"/><path d="M490.823 473.378l-52.773 31.563a3.86 3.86 0 0 0-2.418 3.436v13.872c0 1.697 1.146 2.375 2.546 1.57l53.579-32.58a4.242 4.242 0 0 0 1.612-4.243v-12.175c-.043-1.57-1.273-2.248-2.546-1.442z" fill="#3ab14a"/><path d="M378.498 357.185c1.697-.848 3.097 0 3.14 2.419l.169 18.41a33.937 33.937 0 0 1 20.277-2.46c1.315.34 1.867 2.121 1.358 4.242l-4.03 16.163a6.957 6.957 0 0 1-1.824 3.224 4.242 4.242 0 0 1-1.06.764 2.418 2.418 0 0 1-1.57.254 26.895 26.895 0 0 0-19.556 3.14 24.562 24.562 0 0 0-14.466 21.76c0 8.485 4.242 10.818 19.047 11.073 19.556.34 28.041 8.866 28.253 28.592a70.122 70.122 0 0 1-25.963 52.9l.34 18.071a6.618 6.618 0 0 1-3.097 5.515l-10.69 6.151c-1.697.849-3.097 0-3.14-2.376v-17.774c-9.162 3.818-18.453 4.71-24.391 2.334-1.103-.425-1.612-2.079-1.145-3.988l3.86-16.332a6.83 6.83 0 0 1 1.909-3.394 4.242 4.242 0 0 1 1.018-.721 2.121 2.121 0 0 1 1.74 0 29.694 29.694 0 0 0 22.44-2.842 29.356 29.356 0 0 0 16.587-25.454c0-9.163-5.048-12.98-16.968-13.066-15.4 0-29.695-2.969-29.992-25.453a65.753 65.753 0 0 1 24.858-50.311l-.763-18.496a6.575 6.575 0 0 1 3.096-5.6z" fill="#fff"/></g></svg>